<?xml version="1.0" standalone="no"?>
<!DOCTYPE svg PUBLIC "-//W3C//DTD SVG 1.1//EN" "http://www.w3.org/Graphics/SVG/1.1/DTD/svg11.dtd" >
<svg xmlns="http://www.w3.org/2000/svg" xmlns:xlink="http://www.w3.org/1999/xlink" version="1.1">
<metadata>
Created by FontForge 20170731 at Wed Jun  9 22:34:13 2021
 By Aleksey,,,
Copyright (c) 2020 by Letterhend Studio. All rights reserved.
</metadata>
<defs>
<font id="DukeCharming-Regular" horiz-adv-x="665" >
  <font-face 
    font-family="Duke Charming"
    font-weight="400"
    font-stretch="normal"
    units-per-em="2048"
    panose-1="0 0 0 0 0 0 0 0 0 0"
    ascent="1536"
    descent="-512"
    x-height="1024"
    cap-height="1434"
    bbox="-1345.66 -637 2727.47 1844.69"
    underline-thickness="102"
    underline-position="-358"
    unicode-range="U+000D-FB01"
  />
<missing-glyph horiz-adv-x="1024" 
 />
    <glyph glyph-name="fi" unicode="fi" horiz-adv-x="1445" 
d="M739 1432q-163 0 -258 -84.5t-83.5 -183.5t116.5 -140h272q12 0 18 -10.5t6 -23.5t-6.5 -23.5t-17.5 -10.5h-272v-589q0 -132 29.5 -204t74.5 -93q39 -17 39 -39q0 -14 -11 -22.5t-28 -8.5h-565q-19 0 -30 8.5t-11 22.5q0 22 39 39q38 17 67 73.5t36 155.5v657h-121
q-15 0 -20.5 17t0.5 34t20 17h221q-84 22 -134 71.5t-50 114.5q0 104 175.5 194.5t438.5 90.5q145 0 257 -14.5t178.5 -36.5t108.5 -53t57 -60.5t15 -62.5q0 -95 -94.5 -136.5t-189 -11.5t-94.5 109q0 6 0.5 27t0 29t-2 27t-4.5 27.5t-9.5 24t-15.5 23t-23 18t-32 15.5
t-42.5 8.5t-54.5 3.5zM860 911q0 13 9 22t22 9q96 6 192.5 38.5t151.5 70.5q20 12 37 12q20 0 20 -21v-704q3 -118 32.5 -183t72.5 -85q39 -17 39 -39q-3 -31 -41 -31h-566q-38 0 -38 31q0 23 36 39q42 20 72.5 85.5t34.5 182.5v424q-4 88 -43 112q-31 16 -31 37z" />
    <glyph glyph-name=".notdef" horiz-adv-x="1024" 
 />
    <glyph glyph-name="uni0000" horiz-adv-x="0" 
 />
    <glyph glyph-name="uni0000" horiz-adv-x="0" 
 />
    <glyph glyph-name="uni000D" unicode="&#xd;" horiz-adv-x="512" 
 />
    <glyph glyph-name="space" unicode=" " horiz-adv-x="532" 
 />
    <glyph glyph-name="exclam" unicode="!" horiz-adv-x="507" 
d="M455 1260l-176 -791q-3 -18 -25 -18t-25 18l-176 791q-24 111 64 169q72 49 173 36t146 -81q34 -53 19 -124zM80 147q0 74 51 126.5t123 52.5t123 -52.5t51 -126.5t-51 -126t-123 -52t-123 52t-51 126z" />
    <glyph glyph-name="quotedbl" unicode="&#x22;" horiz-adv-x="759" 
d="M176 1042l-94 244q-38 99 28 151q51 40 124 29q74 -12 100 -68q22 -48 -4 -114l-99 -242q-7 -18 -26 -18q-22 0 -29 18zM524 1042l-94 244q-38 99 28 151q52 40 125 29q74 -12 100 -68q21 -49 -5 -114l-96 -242q-7 -18 -29 -18t-29 18z" />
    <glyph glyph-name="numbersign" unicode="#" horiz-adv-x="1320" 
d="M356 872h162l180 328q3 10 17 10h43q13 0 18.5 -9t-0.5 -19l-170 -310h408l180 328q7 10 18 10h43q12 0 18.5 -9t0.5 -19l-170 -310h108q21 0 21 -20v-31q0 -20 -21 -20h-147l-219 -400h119q8 0 14 -5.5t6 -14.5v-31q0 -9 -6 -14.5t-14 -5.5h-158l-174 -320
q-10 -10 -19 -10h-43q-12 0 -18 10.5t0 20.5l164 299h-408l-174 -320q-5 -10 -18 -10h-43q-12 0 -18 10t-1 21l164 299h-110q-21 0 -21 20v31q0 20 21 20h149l219 400h-121q-8 0 -14 5.5t-6 14.5v31q0 9 6 14.5t14 5.5zM567 801l-219 -400h408l219 400h-408z" />
    <glyph glyph-name="dollar" unicode="$" horiz-adv-x="1296" 
d="M565 -111v82q-132 4 -242.5 43t-180.5 113t-70 170q0 93 51.5 141.5t124.5 48.5q72 0 127 -43t55 -112q0 -42 -37 -102t-37 -85q0 -45 59 -73.5t150 -34.5v518q-73 35 -126 63t-112.5 69.5t-96.5 81.5t-62 93t-25 111q0 93 37.5 166.5t100 117t134 67t150.5 28.5v129
q0 16 17 16h43q16 0 16 -16v-127q90 -5 187.5 -35.5t117.5 -30.5q28 0 46 24.5t20 55.5q3 18 24 21q26 0 29 -17l49 -510q0 -22 -33 -22q-34 0 -37 22q-21 94 -64.5 169.5t-99.5 124t-115.5 77.5t-123.5 41v-356q210 -102 245 -120q224 -121 297 -245q42 -73 42 -154
q0 -99 -50 -180t-133.5 -132t-186 -80t-214.5 -34v-84q0 -16 -16 -16h-43q-17 0 -17 16zM565 956v324q-90 2 -149.5 -30.5t-59.5 -84.5q0 -57 54 -106.5t155 -102.5zM641 518v-481q88 3 163 25.5t127 70t52 111.5q0 20 -6.5 39.5t-22.5 38.5t-31 34.5t-44.5 34.5t-49.5 31.5
t-59.5 32.5t-61.5 30.5t-67 32.5z" />
    <glyph glyph-name="percent" unicode="%" horiz-adv-x="1409" 
d="M424 868q-71 0 -131 19.5t-98.5 53t-65.5 76.5t-33 91t0 96t33 91t66 76.5t99 53t132 19.5q71 0 131 -19.5t98.5 -53t65.5 -76.5t33 -91t0 -96t-33 -91t-66 -76.5t-99 -53t-132 -19.5zM1335 1434h49q28 0 11 -21l-1262 -1401q-9 -12 -27 -12h-51q-26 0 -10 23l1262 1398
q10 13 28 13zM426 1382q-48 0 -83.5 -33.5t-51.5 -83.5t-16 -109t15.5 -109t51.5 -83.5t84 -33.5t83.5 33.5t51 83.5t15.5 109t-15.5 109t-51 83.5t-83.5 33.5zM1069 -20q-91 0 -162.5 31.5t-108 82.5t-54 112t0 122.5t54.5 112.5t109 82.5t163 31.5q71 0 131 -19.5
t98.5 -53t65.5 -76.5t33 -90.5t0 -95.5t-33 -91t-66 -76.5t-99 -53t-132 -19.5zM1071 494q-41 0 -73.5 -25t-49.5 -65t-25 -88t0 -96.5t25 -88.5t49.5 -65t73.5 -25t73 25t48.5 65t24.5 88t0 96.5t-24.5 88.5t-48.5 65t-73 25z" />
    <glyph glyph-name="ampersand" unicode="&#x26;" horiz-adv-x="1599" 
d="M1198 -236q-24 126 -141 293q-170 -86 -350 -86q-165 0 -305.5 49t-230 147t-89.5 226q0 74 22.5 138t55 109t87 88.5t101.5 71t115 62.5q-47 106 -47 207q0 81 24 148.5t64 113t93 76.5t110.5 45t117.5 14q127 0 219.5 -60t92.5 -157q0 -43 -16 -80t-37 -62t-63 -52.5
t-72.5 -43.5t-87.5 -43.5t-87 -43.5q60 -92 142 -190.5t198.5 -226.5t155.5 -173q20 47 20 104q0 31 -19.5 58.5t-47.5 50t-56 46t-47.5 58.5t-19.5 78q0 78 53 126t123 48q73 0 124.5 -56t51.5 -167q0 -221 -133 -401q156 -188 156 -281q0 -97 -63 -174t-142 -111
q-25 -11 -45.5 3.5t-26.5 47.5zM727 1006q73 50 112.5 108.5t39.5 136.5q0 73 -32 110.5t-77 37.5q-47 0 -84 -36t-37 -91q0 -117 78 -266zM1014 117q-49 66 -226.5 279.5t-250.5 330.5q-80 -121 -80 -297q0 -89 30 -157.5t81.5 -108.5t115 -60t137.5 -20q105 0 193 33z" />
    <glyph glyph-name="quotesingle" unicode="'" horiz-adv-x="409" 
d="M176 1042l-94 244q-38 99 28 151q51 40 124 29q74 -12 100 -68q22 -48 -4 -114l-99 -242q-7 -18 -26 -18q-22 0 -29 18z" />
    <glyph glyph-name="parenleft" unicode="(" horiz-adv-x="800" 
d="M715 1417q7 -17 -10 -24q-97 -51 -166.5 -163.5t-102 -250t-33.5 -293.5t29.5 -294.5t98 -253t161.5 -169.5q11 -8 8 -24q-7 -15 -22 -11q-152 40 -272.5 117.5t-196.5 177t-116 214.5t-40 235q0 121 40.5 237t117.5 216.5t200.5 179.5t278.5 119q18 4 25 -13z" />
    <glyph glyph-name="parenright" unicode=")" horiz-adv-x="800" 
d="M57 1417q7 17 25 13q155 -40 278 -119t200.5 -179.5t118 -216.5t40.5 -237q0 -120 -40 -235t-116 -214.5t-196.5 -177t-272.5 -117.5q-15 -3 -22 11q-6 14 8 24q94 55 161.5 169.5t98 253t30 294.5t-33 293.5t-102 250t-166.5 163.5q-18 7 -11 24z" />
    <glyph glyph-name="asterisk" unicode="*" horiz-adv-x="481" 
d="M303 1384q0 -29 -55 -124q81 75 106 81q28 8 51 -1t32 -27.5t9.5 -39t-15 -39.5t-42.5 -26q-20 -6 -127 17q30 -12 67.5 -33t47.5 -33q16 -25 16.5 -48.5t-14.5 -39t-34.5 -23.5t-43 -0.5t-39.5 29.5q-21 28 -31 146q-12 -119 -30 -144q-16 -23 -39.5 -30.5t-43 0
t-34.5 23t-14.5 39t16.5 48.5q15 22 111 66q-95 -26 -123 -17q-27 7 -42.5 26t-15 39.5t9.5 39t32 27.5t51 1q21 -5 106 -79q-53 85 -53 122q0 34 22 54.5t48.5 21.5t48.5 -19t22 -57z" />
    <glyph glyph-name="plus" unicode="+" horiz-adv-x="710" 
d="M317 891h76v-297h318v-78h-318v-299h-76v299h-317v78h317v297z" />
    <glyph glyph-name="comma" unicode="," horiz-adv-x="454" 
d="M49 147q0 74 51 126.5t123 52.5t123 -52.5t51 -126.5v-8q0 -1 -1 -3.5t-1 -4.5q0 -18 -6 -33q0 -6 -4 -14l-6 -16q-35 -80 -121.5 -148.5t-173.5 -85.5q-12 -2 -16 10.5t8 18.5q73 27 123 108q-63 8 -106.5 58.5t-43.5 117.5z" />
    <glyph glyph-name="hyphen" unicode="-" horiz-adv-x="710" 
d="M53 551v35q0 20 27 20h551q26 0 26 -20v-35q0 -21 -26 -21h-551q-12 0 -19.5 6t-7.5 15z" />
    <glyph glyph-name="period" unicode="." horiz-adv-x="446" 
d="M49 147q0 74 51 126.5t123 52.5t123 -52.5t51 -126.5t-51 -126t-123 -52t-123 52t-51 126z" />
    <glyph glyph-name="slash" unicode="/" horiz-adv-x="1042" 
d="M958 1434h46q12 0 15.5 -7t-3.5 -18l-907 -1397q-9 -12 -23 -12h-45q-13 0 -17.5 7t3.5 18l907 1396q10 13 24 13z" />
    <glyph glyph-name="zero" unicode="0" horiz-adv-x="1390" 
d="M694 -18q-119 0 -220.5 41t-173 110.5t-122 163t-74.5 198.5t-24 216t24 216t74.5 198.5t122 163t173.5 110.5t222 41q119 0 220 -41t172.5 -110.5t122 -163t74.5 -198.5t24 -216t-24 -216t-74.5 -198.5t-122 -163t-173.5 -110.5t-221 -41zM694 45q66 0 118 73.5t79 191
t39.5 259t0 283.5t-39.5 259.5t-79 191t-118 73.5t-118 -73.5t-79 -191t-39.5 -259t0 -283.5t39.5 -259.5t79 -191t118 -73.5z" />
    <glyph glyph-name="one" unicode="1" horiz-adv-x="692" 
d="M4 1122q-10 27 14 41l488 285q15 10 24 5.5t9 -21.5v-1084q3 -228 104 -278q39 -17 39 -39q0 -14 -11 -22.5t-30 -8.5h-578q-17 0 -27.5 8.5t-10.5 22.5q0 22 38 39q45 21 75 93t30 204v655q0 96 -70 96q-30 0 -57 -12q-27 -10 -37 16z" />
    <glyph glyph-name="two" unicode="2" horiz-adv-x="1196" 
d="M1157 481l-74 -424q-4 -26 -23.5 -41.5t-45.5 -15.5h-930q-14 0 -22.5 9t-8.5 22v235q0 95 23.5 174.5t63 135t90 102t107 81t112.5 66.5t106.5 65t90 70t62.5 87t23 110q0 115 -63.5 167t-169.5 52q-48 0 -77 -11t-39.5 -30.5t-11 -43.5t7.5 -53.5t17 -56.5t17 -56.5
t8 -49.5q0 -77 -47.5 -121.5t-112.5 -44.5q-69 0 -119.5 50.5t-50.5 142.5q0 63 27.5 123t83 112.5t153 84.5t224.5 32q129 0 247 -44.5t197.5 -133.5t79.5 -203q0 -78 -28 -144t-76.5 -114.5t-112 -90.5t-136 -76.5t-146 -66.5t-145.5 -65t-132.5 -68.5t-107 -82
t-68.5 -99.5h491q126 0 260.5 65t196.5 154q14 21 39 21q10 0 16 -7t4 -18z" />
    <glyph glyph-name="three" unicode="3" horiz-adv-x="1284" 
d="M471 780q160 64 239 203q69 122 45 237q-22 109 -118 148q-43 18 -98 18q-53 0 -74 -15t-17 -45t16.5 -62.5t27 -80.5t14.5 -87q0 -90 -54 -142.5t-128 -52.5q-75 0 -131 55.5t-56 155.5q0 83 40.5 149.5t108 107.5t150.5 63t172 22q117 0 217.5 -33.5t167 -105
t66.5 -168.5q0 -54 -23 -103t-60 -86.5t-89 -70.5t-104.5 -56t-112.5 -43q70 -8 140 -24t146 -47t134 -71.5t95.5 -102t37.5 -133.5q0 -103 -58 -189t-152 -140t-208.5 -83t-233.5 -29q-101 0 -191.5 21.5t-162.5 62.5t-114 108.5t-42 151.5q0 130 62 193t149 63
q90 0 138.5 -49.5t48.5 -124.5q0 -39 -27.5 -88.5t-54.5 -95t-27 -74.5q0 -32 47 -54t113 -22q83 0 146 27.5t98 72.5t52.5 103.5t14 120.5t-22.5 124t-52 113t-80 88.5t-101 49.5l-59 -12q-22 -4 -39 10q-15 16 4 22z" />
    <glyph glyph-name="four" unicode="4" horiz-adv-x="1292" 
d="M1221 371h-164v-4q0 -131 30 -203.5t76 -93.5q26 -12 34 -29t-2.5 -29t-33.5 -12h-577q-37 0 -40 25t38 45q99 48 104 276v25h-651q-29 0 -33.5 11t18.5 30q91 77 184.5 168t188.5 202t168 218.5t119 218.5t47 200q0 14 8 25t21 12q37 4 77.5 -1t85 -23t73 -63t28.5 -112
q0 -73 -73 -173.5t-196 -207.5t-271 -212t-312 -203h518v219q0 41 31 65l289 240q12 12 32 12q19 0 19 -18v-518h164q14 0 22 -9t8 -24v-27q0 -13 -8.5 -21.5t-21.5 -8.5z" />
    <glyph glyph-name="five" unicode="5" horiz-adv-x="1181" 
d="M61 340q0 132 63 203t146 71q72 0 123 -49t51 -133q0 -37 -20 -66t-48 -47t-56 -35.5t-48 -42t-20 -55.5q0 -60 51 -96.5t150 -36.5q76 0 136.5 43.5t92.5 113.5t47.5 154t0.5 168.5t-48.5 154.5t-99 113.5t-150.5 43.5q-130 0 -242 -82h-71l43 565q51 125 217 125
q69 0 210.5 -26.5t196.5 -26.5q66 0 105 26q30 23 43 23q14 0 24 -27q30 -92 15 -161t-58.5 -109.5t-99.5 -40.5q-83 0 -242 44t-223 44q-70 0 -117 -31l-32 -299q66 50 146 76.5t157 26.5q139 0 254 -44t188.5 -117t113.5 -163.5t40 -187.5q0 -75 -23.5 -144t-74 -131
t-123.5 -107.5t-178.5 -72.5t-231.5 -27q-170 0 -289 99.5t-119 263.5z" />
    <glyph glyph-name="six" unicode="6" horiz-adv-x="1359" 
d="M893 1427v-2q11 -19 -8 -32q-135 -93 -234.5 -241.5t-154.5 -322.5q81 68 196 68q113 0 210 -25.5t165.5 -70t117 -103t72 -124t23.5 -134.5t-23 -134t-72 -123t-118 -101.5t-167 -68.5t-214 -25q-283 0 -444.5 145t-161.5 369q0 116 47 238.5t140 245t245 240t348 212.5
q9 4 18.5 1t14.5 -12zM686 66q62 0 110 41t72.5 107t35.5 145t-0.5 158.5t-36 145.5t-71 107t-104.5 41q-60 0 -105.5 -20t-74 -58.5t-45.5 -83.5t-27 -104q-9 -135 14 -241.5t83 -172t149 -65.5z" />
    <glyph glyph-name="seven" unicode="7" horiz-adv-x="1114" 
d="M184 1434h840q13 0 21 -8.5t8 -20.5l-17 -238q-100 -91 -169.5 -181.5t-111.5 -175.5t-65.5 -192t-32 -205.5t-10.5 -240.5q-2 -90 -56.5 -143t-144.5 -52q-91 0 -143 55t-41 140q15 123 55 232.5t81.5 185t128 172.5t141.5 149.5t175 161.5q68 62 103 94h-549
q-89 0 -160 -49t-106 -110q-17 -27 -43 -27q-12 0 -19.5 8.5t-5.5 20.5l46 356q3 31 23.5 49.5t51.5 18.5z" />
    <glyph glyph-name="eight" unicode="8" horiz-adv-x="1314" 
d="M41 362q0 71 38 137.5t105 121t143.5 97.5t166.5 79q-61 48 -103 87t-82 86.5t-60 97t-20 101.5q0 59 30 109.5t81 83.5t117 57t139.5 29.5t146.5 1t139 -28t117 -58.5t81 -90t30 -122q0 -140 -268 -266q75 -49 126.5 -86t114 -91.5t100 -103.5t63.5 -112t26 -127
q0 -82 -42 -150t-113.5 -112.5t-163.5 -75.5t-194.5 -38t-204.5 -0.5t-194 37t-163.5 74.5t-113.5 112t-42 150zM942 266q0 39 -12 78t-27.5 70.5t-48.5 70t-56 63t-70.5 64t-71.5 58.5t-78 61q-46 -38 -79 -90.5t-48.5 -105.5t-22 -95t-6.5 -78q0 -182 119 -265
q90 -62 204 -43q107 18 161 96q36 51 36 116zM479 1227q0 -36 21 -72t65 -74.5t87 -69.5t112 -75q94 76 94 201q0 152 -98 219q-73 50 -158 27q-80 -20 -110 -90q-13 -31 -13 -66z" />
    <glyph glyph-name="nine" unicode="9" horiz-adv-x="1359" 
d="M469 2q-7 13 6 23q141 94 242 249t155 338q-83 -73 -204 -73q-113 0 -210 25.5t-165.5 69t-117 101.5t-72 123.5t-23.5 134.5q0 87 38 167t109.5 144.5t187 103t259.5 38.5q283 0 444.5 -145t161.5 -369q0 -116 -47 -238.5t-140.5 -245.5t-247 -241t-351.5 -213
q-14 -7 -25 8zM922 891q13 207 -52 343t-196 136q-62 0 -110 -41t-72.5 -107t-35.5 -146t0.5 -159.5t36 -145.5t71 -107t104.5 -41q117 0 178 72.5t76 195.5z" />
    <glyph glyph-name="colon" unicode=":" horiz-adv-x="448" 
d="M49 147q0 74 51 126.5t123 52.5t123 -52.5t51 -126.5t-51 -126t-123 -52t-123 52t-51 126zM49 854q0 74 51 126t123 52t123 -52t51 -126t-51 -126t-123 -52t-123 52t-51 126z" />
    <glyph glyph-name="semicolon" unicode=";" horiz-adv-x="448" 
d="M49 842q0 74 51 126t123 52t123 -52t51 -126t-51 -126t-123 -52t-123 52t-51 126zM68 -156q-3 12 8 19q74 26 123 106q-63 9 -106.5 60t-43.5 118q0 74 51 126.5t123 52.5t123 -52.5t51 -126.5q0 -46 -22 -88q-37 -79 -121.5 -144.5t-169.5 -80.5q-12 -4 -16 10z" />
    <glyph glyph-name="less" unicode="&#x3c;" horiz-adv-x="626" 
d="M535 160l-439 282q-14 10 -14 27v164q0 15 14 26l439 283q14 7 14 -8v-37q0 -13 -12 -29l-334 -305q-12 -12 0 -24l334 -306q12 -16 12 -28v-37q0 -15 -14 -8z" />
    <glyph glyph-name="equal" unicode="=" horiz-adv-x="722" 
d="M53 641v18q0 11 7.5 18t17.5 7h567q12 0 19.5 -7t7.5 -18v-18q0 -12 -7.5 -19.5t-19.5 -7.5h-567q-11 0 -18 7.5t-7 19.5zM53 459v18q0 11 7.5 18t17.5 7h567q12 0 19.5 -7t7.5 -18v-18q0 -11 -7.5 -19t-19.5 -8h-567q-10 0 -17.5 8t-7.5 19z" />
    <glyph glyph-name="greater" unicode="&#x3e;" horiz-adv-x="626" 
d="M549 633v-164q0 -17 -14 -27l-439 -282q-14 -7 -14 8v37q0 16 12 28l334 306q13 13 0 22l-334 307q-12 12 -12 29v37q0 15 14 8l439 -283q14 -11 14 -26z" />
    <glyph glyph-name="question" unicode="?" horiz-adv-x="1062" 
d="M461 422q0 -9 -6.5 -16t-16.5 -7t-16 7t-6 16v35q0 120 24 210t58 143t67.5 98t57.5 100.5t24 124.5q0 260 -215 260q-51 0 -80.5 -28.5t-29.5 -64.5q0 -32 35.5 -113t35.5 -126q0 -96 -75 -135q-66 -35 -141 -4q-81 33 -107 121q-9 32 -9 69q0 86 39 154t105 109.5
t147 63t170 21.5q126 0 236.5 -38.5t184 -120t73.5 -189.5q0 -73 -30.5 -136t-79.5 -109t-108 -88t-118.5 -81t-108.5 -78.5t-79.5 -90t-30.5 -107.5zM279 147q0 74 51 126.5t123 52.5t123 -52.5t51 -126.5t-51 -126t-123 -52t-123 52t-51 126z" />
    <glyph glyph-name="at" unicode="@" horiz-adv-x="1648" 
d="M1184 950q0 -30 67 -30q42 0 62 10q15 6 24 -7.5t0 -25.5l-49 -57q-60 -70 -96.5 -116t-89.5 -118.5t-80 -131t-27 -101.5q0 -37 18 -58.5t68 -21.5q105 0 205.5 84.5t161.5 214.5t61 260q0 83 -28.5 152.5t-88 126.5t-164 89.5t-243.5 32.5q-133 0 -254.5 -30.5
t-215 -84t-170 -124.5t-126 -153t-76 -169t-26.5 -172q0 -78 22 -148.5t70 -132t117 -106.5t168 -70.5t219 -25.5q138 0 268.5 30t218.5 97q16 12 27 -2l16 -19q14 -17 -2 -30q-100 -74 -242.5 -110t-287.5 -36q-166 0 -296 45t-209.5 122.5t-120 175.5t-40.5 210
q0 113 40 227.5t120.5 218t191.5 184t264 128t326 47.5q157 0 275 -38.5t186 -106t100.5 -149.5t32.5 -179q0 -110 -42 -225t-110 -205t-161 -147.5t-187 -57.5q-91 0 -158 54.5t-67 136.5v10q-79 -73 -175.5 -121.5t-172.5 -48.5q-74 0 -117 46.5t-43 147.5q0 73 34 165
t97 182t142 165.5t179.5 122.5t200.5 47q91 0 137 -48.5t46 -121.5v-4zM895 551q56 115 188 274q41 56 41 113q0 39 -23.5 64.5t-68.5 25.5q-66 0 -157.5 -57t-172 -142t-137.5 -192.5t-57 -198.5q0 -94 63 -94q66 0 166.5 69t157.5 138z" />
    <glyph glyph-name="A" unicode="A" horiz-adv-x="1597" 
d="M492 1413q0 14 10.5 22.5t27.5 8.5h277q52 0 91.5 -23.5t53.5 -62.5l359 -991q103 -258 245 -301q39 -9 39 -35q0 -14 -10.5 -22.5t-28.5 -8.5h-659q-17 0 -28 8.5t-11 22.5q0 21 37 39q29 15 48 44.5t25.5 80t-12.5 116.5l-38 109l-527 2l-29 -90q-12 -45 -2.5 -85
t38 -75.5t59.5 -60.5t61 -39q37 -18 37 -41q0 -14 -11 -22.5t-28 -8.5h-475q-17 0 -28 8.5t-11 22.5q0 27 39 41q67 27 141.5 103t102.5 159l317 962q-33 63 -72 80q-38 14 -38 37zM643 1190l-231 -707l483 -2z" />
    <glyph glyph-name="B" unicode="B" horiz-adv-x="1400" 
d="M10 1403q0 14 11 22.5t30 8.5h553q259 0 396 -70t137 -178q0 -83 -83.5 -167t-242.5 -149q225 -17 370.5 -134.5t145.5 -274.5q0 -64 -25.5 -127.5t-84 -124t-144 -107t-215.5 -74.5t-287 -28h-520q-19 0 -30 8.5t-11 22.5q0 22 39 39q45 21 75 93t30 204v727
q-8 220 -105 270q-39 17 -39 39zM573 797l-49 -11v-725h49q185 0 283 140q80 115 72 271q-8 150 -95 245q-101 109 -260 80zM524 850q76 18 131.5 63.5t81.5 101.5t26.5 117.5t-24 112.5t-81 86t-134.5 39v-520z" />
    <glyph glyph-name="C" unicode="C" horiz-adv-x="1415" 
d="M1329 262q-56 -114 -194 -197t-275 -83q-151 0 -280 41t-219 111.5t-154 164t-94.5 199t-30.5 217.5t30.5 217.5t94.5 199.5t154 165t219 112t280 41q102 0 190 -32t147 -85t92.5 -123t33.5 -145q0 -86 -51 -145.5t-150 -59.5q-72 0 -113.5 43t-41.5 111q0 31 5.5 72
t11 73t9.5 67t-0.5 60.5t-17 46.5t-41.5 32t-74 11q-88 0 -162.5 -50.5t-123 -134.5t-75 -190.5t-26.5 -220.5q0 -97 19 -187.5t60 -173t101 -144t148 -98t194 -36.5q96 0 182 46t117 112q11 21 27 2q18 -18 8 -39z" />
    <glyph glyph-name="D" unicode="D" horiz-adv-x="1441" 
d="M10 1403q0 14 11 22.5t30 8.5h537q150 0 278 -40t218 -109t153.5 -161t94 -195t30.5 -212t-30.5 -212t-94 -195t-154 -161t-218.5 -109t-279 -40h-535q-19 0 -30 8.5t-11 22.5q0 22 39 39q42 20 71.5 85t33.5 183v756q-8 220 -105 270q-39 17 -39 39zM588 1372h-64v-1311
h64q95 0 172.5 56.5t125 148.5t73.5 210t26 240.5t-26 240.5t-73.5 210t-125 148.5t-172.5 56.5z" />
    <glyph glyph-name="E" unicode="E" horiz-adv-x="1169" 
d="M1169 395l-67 -366q-6 -29 -41 -29h-1010q-19 0 -30 8.5t-11 22.5q0 22 39 39q45 21 75 93t30 204v700q0 247 -105 297q-39 17 -39 39q0 14 11 22.5t30 8.5h959q15 0 26.5 -8t12.5 -21l45 -324q3 -21 -27 -28q-30 -3 -37 20q-9 27 -28.5 61t-54 75t-75.5 74.5t-99 56
t-120 22.5h-129v-608h111q51 0 95 11.5t81 35.5t60.5 67t27.5 101q0 9 9 15.5t22 6.5q14 0 23 -6.5t8 -15.5q-12 -251 0 -500q1 -10 -8 -17.5t-23 -7.5q-13 0 -22 7t-9 18q-4 57 -27.5 99.5t-60.5 66.5t-81 35.5t-95 11.5h-111v-610h131q66 0 130 22.5t113.5 57.5t92.5 79.5
t71 87.5t44 82q3 9 14 14.5t23 4.5q13 0 20.5 -7t5.5 -18z" />
    <glyph glyph-name="F" unicode="F" horiz-adv-x="1128" 
d="M10 1403q0 14 11 22.5t30 8.5h983q15 0 26.5 -8t12.5 -21l45 -324q1 -10 -6.5 -18t-19.5 -10q-30 -7 -37 16q-12 36 -41.5 81.5t-75.5 95t-115.5 83t-144.5 33.5h-154v-668h88q51 0 95.5 11.5t82 35.5t60.5 66.5t27 99.5q4 25 30 25q14 0 23 -7.5t8 -17.5
q-15 -298 0 -499q1 -9 -8 -16t-21 -7h-2q-27 0 -30 23q-7 107 -75 158.5t-171 56.5h-107v-256q0 -132 30 -204t75 -93q39 -17 39 -39q0 -14 -11 -22.5t-30 -8.5h-576q-19 0 -30 8.5t-11 22.5q0 22 39 39q45 21 75 93t30 204v727q-8 220 -105 270q-39 17 -39 39z" />
    <glyph glyph-name="G" unicode="G" horiz-adv-x="1509" 
d="M1356 -35q-1 -17 -20.5 -14.5t-24.5 14.5q-49 134 -232 70q-112 -53 -219 -53q-151 0 -279 41t-218.5 111.5t-154 164t-94 199t-30.5 217.5t30.5 217.5t94.5 199t154 164t219 111.5t280 41q204 0 333.5 -113.5t129.5 -269.5q0 -86 -51 -145.5t-150 -59.5q-72 0 -113.5 43
t-41.5 111q0 31 5.5 72t11 73t9 67t-0.5 60.5t-17 46.5t-42.5 32t-74.5 11q-88 0 -162 -50.5t-122 -134.5t-74.5 -190.5t-26.5 -220.5q0 -97 19 -188t60 -174t101 -144.5t148 -98t194 -36.5h31v250q0 132 -29.5 204t-74.5 93q-39 14 -39 39q0 14 11 22.5t28 8.5h534
q19 0 30 -8.5t11 -22.5q0 -25 -39 -39q-45 -21 -74.5 -93t-29.5 -204v-424z" />
    <glyph glyph-name="H" unicode="H" horiz-adv-x="1527" 
d="M10 31q0 22 39 39q45 21 75 93t30 204v700q0 132 -30 204t-75 93q-39 17 -39 39q0 14 11 22.5t30 8.5h576q19 0 30 -8.5t11 -22.5q0 -22 -39 -39q-100 -49 -105 -270v-340h480v340q-8 220 -105 270q-39 17 -39 39q0 14 11 22.5t28 8.5h578q19 0 30 -8.5t11 -22.5
q0 -22 -39 -39q-100 -49 -105 -270v-727q0 -132 30 -204t75 -93q39 -17 39 -39q0 -14 -11 -22.5t-30 -8.5h-578q-17 0 -28 8.5t-11 22.5q0 22 39 39q45 21 75 93t30 204v315h-480v-315q0 -132 30 -204t75 -93q39 -17 39 -39q0 -14 -11 -22.5t-30 -8.5h-576q-19 0 -30 8.5
t-11 22.5z" />
    <glyph glyph-name="I" unicode="I" horiz-adv-x="679" 
d="M10 31q0 22 39 39q42 20 71.5 85t33.5 183v756q-8 220 -105 270q-39 17 -39 39q0 14 11 22.5t30 8.5h576q19 0 30 -8.5t11 -22.5q0 -22 -39 -39q-45 -21 -75 -93t-30 -204v-700q0 -132 30 -204t75 -93q39 -17 39 -39q0 -14 -11 -22.5t-30 -8.5h-576q-19 0 -30 8.5
t-11 22.5z" />
    <glyph glyph-name="J" unicode="J" horiz-adv-x="1130" 
d="M463 1403q0 14 11 22.5t28 8.5h577q19 0 30 -8.5t11 -22.5q0 -22 -39 -39q-99 -48 -104 -270v-680q0 -76 -20.5 -140t-54.5 -109t-81 -80t-96.5 -56.5t-105 -35.5t-102.5 -19t-93 -5q-198 0 -303 122q-76 89 -71 201q6 104 79 159q50 36 119 36q64 0 102 -35t42.5 -80
t-18 -87.5t-67.5 -55.5q-27 -8 -28.5 -53t36.5 -88t109 -43t109 32.5t55.5 112.5t17.5 230v674q-8 221 -104 270q-39 17 -39 39z" />
    <glyph glyph-name="K" unicode="K" horiz-adv-x="1443" 
d="M10 1403q0 14 11 22.5t30 8.5h576q19 0 30 -8.5t11 -22.5q0 -22 -39 -39q-100 -49 -105 -270v-349l355 367q46 47 39 98t-38.5 91t-70.5 59q-37 21 -37 43q0 14 11 22.5t30 8.5h483q18 0 28.5 -8.5t10.5 -22.5q0 -25 -37 -43q-65 -29 -182.5 -118.5t-157.5 -131.5
l-280 -289q106 22 189 3t139.5 -62t101 -108.5t73 -136t55.5 -145t49 -136t53 -107.5t67 -61q39 -14 39 -37q0 -14 -11 -22.5t-30 -8.5h-313q-98 0 -167 46t-81 120q-9 56 -16 96.5t-20 99t-27 100.5t-35 89.5t-45 78.5t-56.5 53.5t-69.5 27.5l-49 -52v-321
q3 -118 32.5 -183t72.5 -85q39 -17 39 -39q0 -14 -11 -22.5t-30 -8.5h-576q-19 0 -30 8.5t-11 22.5q0 22 39 39q42 20 71.5 85t33.5 183v729q0 132 -30 204t-75 93q-39 17 -39 39z" />
    <glyph glyph-name="L" unicode="L" horiz-adv-x="1153" 
d="M1151 483l-51 -454q-2 -12 -13 -20.5t-26 -8.5h-1010q-19 0 -30 8.5t-11 22.5q0 22 39 39q45 21 75 93t30 204v700q0 247 -105 297q-39 17 -39 39q0 14 11 22.5t30 8.5h578q17 0 28 -8.5t11 -22.5q0 -22 -39 -39q-105 -50 -105 -297v-995h131q66 0 130 30.5t112.5 77.5
t89.5 105t66.5 111t38.5 98q6 19 34 16q28 -4 25 -27z" />
    <glyph glyph-name="M" unicode="M" horiz-adv-x="1867" 
d="M860 117h-2q-37 0 -47 26l-489 1063l-50 -807q-7 -112 52 -205t125 -122q39 -19 36 -41q0 -14 -10.5 -22.5t-28.5 -8.5h-399q-19 0 -30 8.5t-11 22.5q0 27 39 39q62 27 105.5 117.5t50.5 213.5l39 666q0 133 -39 204.5t-99 92.5q-49 17 -49 39q0 14 14 22.5t37 8.5h463
q15 0 29 -7.5t18 -19.5l361 -825l282 852h484q24 0 38.5 -8.5t14.5 -22.5q0 -22 -51 -39q-114 -43 -101 -279l54 -780q9 -61 23 -105t33 -69t34.5 -38t36.5 -23q39 -17 39 -39q0 -14 -11 -22.5t-30 -8.5h-576q-24 0 -35 12t-2.5 29t35.5 29q81 42 84 227l-59 946l-363 -1100
q-7 -26 -45 -26z" />
    <glyph glyph-name="N" unicode="N" horiz-adv-x="1533" 
d="M1335 1032v-1005q0 -12 -10 -19.5t-25 -7.5q-39 0 -55 23l-973 1130v-754q0 -113 56.5 -206t120.5 -121q39 -19 36 -41q0 -14 -10.5 -22.5t-28.5 -8.5h-399q-19 0 -30 8.5t-11 22.5q0 27 39 39q64 27 110 119t46 212v666q0 133 -39 204.5t-99 92.5q-49 17 -49 39
q0 14 14.5 22.5t37.5 8.5h438l760 -861v461q0 113 -56.5 205.5t-120.5 122.5q-36 14 -36 41q0 14 11 22.5t28 8.5h397q19 0 30 -8.5t11 -22.5q0 -25 -39 -41q-64 -26 -109 -118.5t-45 -211.5z" />
    <glyph glyph-name="O" unicode="O" horiz-adv-x="1607" 
d="M803 -25q-139 0 -258 42t-202.5 113.5t-142.5 166.5t-87.5 202t-28.5 220t28.5 220.5t87.5 203t143 167t203 113t259 41.5q139 0 258 -41.5t202.5 -113t142.5 -167t87.5 -203t28.5 -220.5t-28.5 -220.5t-87.5 -202.5t-143 -166.5t-203 -113t-259 -41.5zM805 47
q95 0 169.5 74t113 192.5t56.5 262t0 287t-56.5 262t-113.5 192.5t-171 74q-95 0 -169.5 -74t-113 -192.5t-56.5 -262t0 -287t56.5 -262t113.5 -192.5t171 -74z" />
    <glyph glyph-name="P" unicode="P" horiz-adv-x="1308" 
d="M10 1403q0 14 11 22.5t30 8.5h596q149 0 259.5 -20t174.5 -51t102.5 -77t51 -90.5t12.5 -99.5q0 -108 -108.5 -221t-272.5 -197t-342 -127v-213q3 -118 32.5 -183t72.5 -85q39 -17 39 -39q0 -14 -11 -22.5t-30 -8.5h-576q-19 0 -30 8.5t-11 22.5q0 22 39 39q45 21 75 93
t30 204v727q-8 220 -105 270q-39 17 -39 39zM571 1362h-47v-733q141 62 233.5 184t92.5 250q0 129 -73.5 214t-205.5 85z" />
    <glyph glyph-name="Q" unicode="Q" horiz-adv-x="1611" 
d="M805 -25q-139 0 -258 42t-202.5 113.5t-142.5 166.5t-87.5 202t-28.5 220t28.5 220.5t87.5 203t143 167t203 113t259 41.5q139 0 258 -41.5t202.5 -113t142.5 -167t87.5 -203t28.5 -220.5q0 -123 -34 -238t-99.5 -213t-169.5 -170t-234 -102q189 -184 408 -184
q83 0 151 28t105 72q26 29 57 14q34 -14 31 -51q-21 -174 -103.5 -262t-201.5 -88q-146 0 -295 123.5t-234 333.5q-58 -7 -102 -7zM807 47q95 0 169.5 74t113 192.5t56.5 262t0 287t-56.5 262t-113.5 192.5t-171 74q-95 0 -169.5 -74t-113 -192.5t-56.5 -262t0 -287
t56.5 -262t113.5 -192.5t171 -74z" />
    <glyph glyph-name="R" unicode="R" horiz-adv-x="1398" 
d="M1360 0h-316q-98 0 -166.5 46t-82.5 120q-8 49 -15.5 87.5t-20.5 89t-26.5 88.5t-34 78t-44 67t-55 46t-67.5 23q-4 0 -8 -2v-297q5 -227 105 -276q39 -17 39 -39q0 -14 -11 -22.5t-28 -8.5h-578q-19 0 -30 8.5t-11 22.5q0 22 39 39q45 21 75 93t30 204v700
q0 247 -105 297q-39 17 -39 39q0 14 11 22.5t30 8.5h596q149 0 259.5 -20t174.5 -51t102.5 -77t51 -90.5t12.5 -99.5q0 -64 -39.5 -124t-110 -110t-158 -90.5t-191.5 -73.5q95 2 170 -27.5t122 -80.5t83.5 -113.5t63 -128.5t50 -123t54.5 -100.5t69 -56.5q39 -14 39 -37
q0 -14 -11 -22.5t-28 -8.5zM571 1362h-47v-645q148 49 237 136.5t89 209.5q0 129 -73.5 214t-205.5 85z" />
    <glyph glyph-name="S" unicode="S" horiz-adv-x="1282" 
d="M1044 924q-20 95 -61 174t-91.5 131t-110.5 88t-117.5 51.5t-112.5 15.5q-85 0 -140 -37t-55 -100q0 -43 29.5 -84t80 -76.5t115.5 -71t137.5 -72t144.5 -75.5t137 -85.5t115.5 -98t80 -117.5t29.5 -139q0 -90 -36.5 -166t-98.5 -129t-143.5 -90t-171.5 -54.5t-183 -17.5
q-136 0 -253.5 40.5t-192 121.5t-74.5 186q0 101 51.5 153t124.5 52q72 0 127 -46.5t55 -121.5q0 -45 -37 -108.5t-37 -89.5q0 -57 73 -89t179 -32q92 0 175 23t141.5 76t58.5 126q0 43 -28.5 84t-77.5 75.5t-112 69t-132.5 69.5t-139 71.5t-132.5 80.5t-112 91.5t-77.5 109
t-28.5 129.5q0 86 28.5 156t74.5 116t107.5 77.5t124.5 45t128 13.5q78 0 149 -18t119.5 -36t71.5 -18q28 0 46 26.5t20 59.5q3 20 24 23q26 0 29 -19l49 -544q0 -11 -9 -18t-24 -7q-14 0 -25 7.5t-12 17.5z" />
    <glyph glyph-name="T" unicode="T" horiz-adv-x="1253" 
d="M2 1081l47 353h1155l49 -353q3 -21 -26 -28q-27 -3 -37 20q-9 27 -28.5 61t-54 75t-75.5 74.5t-99 56t-120 22.5v-995q0 -132 30 -204t75 -93q38 -17 38 -39q0 -14 -11 -22.5t-30 -8.5h-577q-17 0 -28 8.5t-11 22.5q0 23 37 39q46 21 76 93.5t30 203.5v995
q-62 0 -120 -22.5t-99.5 -56t-76.5 -74.5t-54.5 -75t-28.5 -61q-7 -23 -34 -20q-30 7 -27 28z" />
    <glyph glyph-name="U" unicode="U" horiz-adv-x="1370" 
d="M10 1403q0 14 11 22.5t30 8.5h576q19 0 30 -8.5t11 -22.5q0 -22 -39 -39q-100 -49 -105 -270v-738q0 -86 31.5 -150.5t82.5 -94.5t112 -41.5t122 7.5t112 53.5t82.5 97t31.5 137.5v669q0 113 -56 205.5t-120 122.5q-39 14 -39 41q0 14 11 22.5t30 8.5h399q18 0 28.5 -8.5
t10.5 -22.5q0 -26 -37 -41q-65 -26 -110.5 -118t-45.5 -212v-667q0 -115 -56 -202t-145.5 -130t-197.5 -61t-216.5 5t-198 67.5t-145.5 127t-56 184.5v738q-8 220 -105 270q-39 17 -39 39z" />
    <glyph glyph-name="V" unicode="V" horiz-adv-x="1437" 
d="M39 1434h659q18 0 28.5 -8.5t10.5 -22.5q0 -23 -37 -39q-32 -16 -53.5 -50.5t-27 -93t23.5 -135.5l236 -585l198 602q17 54 -8 110.5t-65 93t-82 56.5q-39 14 -39 41q0 14 11 22.5t30 8.5h473q19 0 30 -8.5t11 -22.5q0 -25 -39 -41q-68 -27 -142 -103t-102 -159
l-369 -1110h-67l-447 1108q-98 227 -233 270q-39 9 -39 35q0 14 11 22.5t28 8.5z" />
    <glyph glyph-name="W" unicode="W" horiz-adv-x="2088" 
d="M1571 1362q-37 15 -37 41q0 14 11 22.5t28 8.5h475q17 0 28 -8.5t11 -22.5q0 -26 -37 -41q-69 -27 -144.5 -102.5t-101.5 -159.5l-334 -1071l-10 -39h-65l-359 1077l-4 10l-340 -1087h-63l-373 1116q-46 121 -104 182.5t-113 77.5q-39 12 -39 37q0 14 11 22.5t28 8.5h659
q18 0 28.5 -8.5t10.5 -22.5q0 -23 -37 -39q-131 -69 -71 -272l8 -25l162 -487l162 522q12 45 2 85t-38 75.5t-59 60.5t-61 39q-39 16 -39 41q0 16 14 24l19 7h8h473h8h178q17 0 28 -8.5t11 -22.5q0 -21 -37 -39q-131 -69 -71 -272l8 -25l162 -485l159 520q17 54 -8 110.5
t-65 93t-82 56.5z" />
    <glyph glyph-name="X" unicode="X" horiz-adv-x="1505" 
d="M905 1362q-37 15 -37 41q0 14 11 22.5t28 8.5h473q19 0 30 -8.5t11 -22.5q0 -25 -39 -41q-66 -26 -174 -109t-161 -153l-166 -221l325 -566q45 -78 97.5 -134t90 -79t72.5 -34q39 -9 39 -35q0 -14 -11 -22.5t-28 -8.5h-659q-18 0 -28.5 8.5t-10.5 22.5q0 23 37 39
q29 15 43 49t5 89.5t-46 119.5l-148 258l-192 -256q-26 -35 -33 -76.5t3.5 -76.5t32.5 -63.5t50 -41.5q37 -15 37 -41q0 -14 -10.5 -22.5t-28.5 -8.5h-477q-19 0 -30 8.5t-11 22.5q0 25 39 41q66 27 175 109t163 153l244 319l-238 414q-80 139 -156.5 211t-134.5 88
q-39 12 -39 37q0 14 11 22.5t28 8.5h660q17 0 28 -8.5t11 -22.5q0 -21 -37 -39q-47 -24 -52 -89.5t48 -168.5l92 -162l121 158q50 76 26.5 153.5t-84.5 106.5z" />
    <glyph glyph-name="Y" unicode="Y" horiz-adv-x="1480" 
d="M416 31q0 22 39 39q38 17 66.5 73.5t35.5 155.5v279l-256 489q-137 265 -262 299q-39 12 -39 37q0 14 11 22.5t28 8.5h659q18 0 28.5 -8.5t10.5 -22.5q0 -23 -37 -39q-25 -13 -43 -37.5t-27.5 -60.5t1 -88.5t43.5 -110.5l215 -391l192 426q26 56 5.5 110t-57 92.5
t-77.5 57.5q-37 15 -37 41q0 14 11 22.5t28 8.5h486q17 0 28 -8.5t11 -22.5q0 -26 -37 -41q-70 -27 -157.5 -105t-123.5 -157l-231 -512v-250q3 -118 32 -183.5t72 -84.5q39 -17 39 -39q0 -14 -11 -22.5t-28 -8.5h-577q-19 0 -30 8.5t-11 22.5z" />
    <glyph glyph-name="Z" unicode="Z" horiz-adv-x="1253" 
d="M72 950l53 455q0 13 11 21t28 8h921q34 0 47 -14.5t1 -39.5l-699 -1308h193q82 0 177.5 44t173 109t136.5 138t78 131q6 19 33 16q13 -1 20.5 -9.5t5.5 -17.5l-88 -454q-6 -29 -41 -29h-1034q-33 0 -46 15t-1 38l698 1309h-145q-66 0 -132.5 -30.5t-118.5 -77.5
t-96.5 -104.5t-73 -110.5t-42.5 -97q-6 -21 -33 -18q-29 6 -26 26z" />
    <glyph glyph-name="bracketleft" unicode="[" horiz-adv-x="579" 
d="M53 -23v1389q0 31 18.5 49.5t49.5 18.5h364q13 0 22 -9t9 -22q0 -30 -31 -37l-125 -14v-1360l125 -17q14 -2 22.5 -11.5t8.5 -22.5t-9 -22t-22 -9h-364q-31 0 -49.5 18t-18.5 49z" />
    <glyph glyph-name="backslash" unicode="\" horiz-adv-x="1093" 
d="M127 1421l907 -1396q7 -11 3.5 -18t-15.5 -7h-47q-17 0 -23 12l-909 1397q-14 25 14 25h45q15 0 25 -13z" />
    <glyph glyph-name="bracketright" unicode="]" horiz-adv-x="579" 
d="M518 1366v-1389q0 -31 -19 -49t-50 -18h-365q-14 0 -22.5 9t-8.5 22t8.5 22.5t22.5 11.5l125 17v1360l-125 14q-31 7 -31 37q0 13 8.5 22t22.5 9h365q31 0 50 -18.5t19 -49.5z" />
    <glyph glyph-name="asciicircum" unicode="^" horiz-adv-x="722" 
d="M47 1077l225 357h183l221 -357q7 -11 3.5 -17.5t-17.5 -6.5h-39q-18 0 -27 12l-234 266l-235 -266q-9 -12 -27 -12h-41q-12 0 -15.5 6.5t3.5 17.5z" />
    <glyph glyph-name="underscore" unicode="_" horiz-adv-x="1030" 
d="M82 10v29q0 8 5.5 14t14.5 6h828q9 0 14.5 -6t5.5 -14v-29q0 -20 -20 -20h-828q-20 0 -20 20z" />
    <glyph glyph-name="grave" unicode="`" horiz-adv-x="319" 
d="M305 1147q8 -12 -4 -22t-25 -1l-223 152q-57 39 -37 92q15 38 55 52q50 17 81 -27l2 -4z" />
    <glyph glyph-name="a" unicode="a" horiz-adv-x="1206" 
d="M1188 57q-75 -71 -213 -71q-245 0 -264 176l-2 18q-33 -73 -96 -123.5t-135 -71t-148 -16t-137.5 33.5t-100.5 88t-39 138q0 71 34.5 125t88.5 87t120 59t130.5 47.5t117 45t82.5 60t25 84.5q-3 24 -8.5 48.5t-20.5 59.5t-35 61t-55 44.5t-79 18.5q-48 0 -67 -15
t-14 -42.5t17.5 -57t26.5 -68t14 -65.5q0 -76 -74 -114.5t-147.5 -4t-73.5 134.5q0 114 99 205.5t243 91.5q493 0 539 -393l49 -414q9 -76 16 -91q10 -23 37 -23q23 0 47 12q17 10 24.5 9t12.5 -15q11 -43 -14 -62zM434 229q0 -65 56 -82q57 -17 119 26q67 47 87 132
l-30 293q-19 -39 -51 -75t-61.5 -63t-57.5 -58t-45 -74.5t-17 -98.5z" />
    <glyph glyph-name="b" unicode="b" horiz-adv-x="1300" 
d="M82 1333q0 30 29 33q97 4 194 36.5t150 70.5q24 12 37 12q22 0 22 -21v-499q66 69 162 69q137 0 245.5 -42t174 -113t99.5 -158.5t34 -185.5q0 -81 -22.5 -159.5t-69 -148t-111.5 -122.5t-155.5 -84t-194.5 -31q-123 0 -191 96q-49 -83 -159 -86h-275q-19 0 -30 8.5
t-11 22.5q0 22 39 39q45 21 75 93t30 204v782q0 37 -1 56t-11 49.5t-31 41.5q-29 14 -29 37zM676 55q47 0 86 50t61 130t34 177t4.5 194t-27 177t-60.5 130t-96 50q-44 0 -77 -19t-51 -50t-26.5 -64t-9.5 -68v-430q1 -49 7.5 -91.5t23 -87.5t50 -71.5t81.5 -26.5z" />
    <glyph glyph-name="c" unicode="c" horiz-adv-x="1077" 
d="M993 299h2q11 -4 11 -14q-24 -135 -138.5 -214t-273.5 -79q-255 0 -399 163q-116 131 -122 321q-6 189 99 340q120 174 336 218q64 13 135 13q165 0 260.5 -95t95.5 -227q0 -72 -43.5 -111t-103.5 -39q-58 0 -100.5 36t-42.5 100q0 25 10.5 67.5t18 75.5t7 65t-25.5 50
t-76 18q-84 0 -140 -118q-60 -126 -53 -298q8 -197 101 -306q79 -93 205 -93q79 0 141.5 36.5t81.5 82.5q4 11 14 8z" />
    <glyph glyph-name="d" unicode="d" horiz-adv-x="1298" 
d="M723 1333q0 13 8.5 22t22.5 11q95 4 191.5 36.5t152.5 70.5q20 12 37 12q20 0 20 -21v-1210q0 -23 3 -40.5t12 -38.5t31 -29.5t56 -2.5q29 4 39 -23q8 -23 -9 -33q-3 -2 -7 -3l-367 -90q-46 -4 -79.5 20t-36.5 62q-75 -86 -170 -86q-137 0 -245.5 42t-174 113
t-99.5 158.5t-34 185.5q0 81 22.5 159.5t69 148t111.5 122.5t155.5 84t194.5 31q106 0 170 -71v186q0 37 -1 56t-11 49.5t-31 41.5q-31 16 -31 37zM797 641q-1 7 -2.5 32t-3 39.5t-4.5 42t-7 45t-11 42.5t-15.5 41t-21 34.5t-27.5 29t-35 17.5t-43 7q-47 0 -86 -50
t-61 -130.5t-34 -177.5t-4.5 -194t27 -177.5t60.5 -130.5t96 -50q45 0 79 19.5t53.5 51t29 65.5t10.5 69v375z" />
    <glyph glyph-name="e" unicode="e" horiz-adv-x="1099" 
d="M993 299h2q11 -4 11 -14q-24 -135 -138.5 -214t-273.5 -79q-255 0 -399 163q-116 131 -122 321q-6 189 99 340q120 174 336 218q64 13 135 13q74 0 139.5 -27.5t111.5 -71t79 -98.5t49 -111t16 -106v-2q0 -35 -28.5 -59t-75.5 -27l-481 -25q8 -71 29 -131.5t57 -110
t91.5 -78t125.5 -28.5q79 0 141.5 36.5t81.5 82.5q4 11 14 8zM449 600l227 12q47 7 73.5 47.5t27 94.5t-13 107t-47 89.5t-73.5 36.5q-56 0 -101.5 -56t-69 -144t-23.5 -187z" />
    <glyph glyph-name="f" unicode="f" horiz-adv-x="770" 
d="M539 1407q-50 0 -89 -22.5t-59 -58t-23.5 -79.5t10 -86t48.5 -79.5t86 -57.5h272q21 0 21 -20v-27q0 -9 -6 -15t-15 -6h-272v-618q3 -118 32 -183.5t72 -84.5q39 -17 39 -39q0 -14 -11 -22.5t-28 -8.5h-565q-19 0 -30 8.5t-11 22.5q0 22 39 39q45 21 75 93t30 204v589
h-123q-9 0 -15 6t-6 15v27q0 20 21 20h221q-84 22 -134 71.5t-50 114.5q0 51 23.5 96t71.5 83.5t131 61t191 22.5q96 0 169.5 -20t115 -53t62 -70t20.5 -77q0 -98 -79 -132q-64 -27 -131 0q-62 25 -68 77q-1 5 -1 10q0 23 10 54.5t18 55t10 45t-15 33t-57 11.5z" />
    <glyph glyph-name="g" unicode="g" horiz-adv-x="1216" 
d="M602 96q-177 0 -303 74q-42 -6 -69 -29t-27 -47q0 -26 55 -35t143 -7.5t194.5 4t213.5 -6t195 -31.5t143 -79t55 -142q0 -62 -25 -114.5t-65 -87.5t-94.5 -62.5t-108.5 -43t-111.5 -25.5t-99.5 -13.5t-77 -3.5q-144 0 -254.5 19t-174 52t-95 72t-31.5 82q0 54 51 99
t123 63q-187 45 -187 182q0 43 17 77t46 56t61.5 35.5t70.5 20.5q-77 61 -121 147.5t-51 177.5t24 182t93.5 162t169.5 115.5t241 44.5q176 0 307 -80q37 26 37 64q0 24 -13.5 39.5t-33 24.5t-38.5 19t-32.5 29t-13.5 48q0 53 34 89t82 44t96 -1t82 -47t34 -94
q0 -66 -54 -136.5t-135 -108.5q77 -61 121.5 -147.5t51.5 -177.5t-24 -182t-93.5 -161.5t-169 -115t-240.5 -44.5zM604 166q52 0 92.5 44t61.5 115t31 156t0 170.5t-31 156.5t-61.5 115t-92.5 44q-46 0 -83 -34.5t-60 -90.5t-35.5 -128t-12.5 -147.5t12.5 -147.5t35.5 -128
t60 -90.5t83 -34.5zM1016 -299q0 27 -17 46t-51 30t-72.5 17t-95.5 8.5t-105.5 3t-116 1.5t-114.5 3q-33 -2 -65.5 -46t-32.5 -90q0 -68 69 -106t167.5 -39.5t197 16t167.5 61t69 95.5z" />
    <glyph glyph-name="h" unicode="h" horiz-adv-x="1372" 
d="M82 1333q0 14 8 22.5t21 8.5q97 6 194.5 39t149.5 70q24 12 37 12q9 0 15.5 -6t6.5 -15v-610q34 78 110 129t177 51q178 0 255 -82t113 -293l54 -292q27 -156 47 -217.5t57 -79.5q40 -18 37 -39q0 -14 -10.5 -22.5t-28.5 -8.5h-565q-18 0 -28.5 8.5t-10.5 22.5
q0 23 37 39q49 23 83 82.5t21 160.5l-35 260q-7 53 -13 88t-15.5 76t-21 67t-27 49t-36.5 33.5t-48 10.5q-59 0 -101 -46.5t-51 -127.5v-356q0 -132 29.5 -204t74.5 -93q39 -17 39 -39q0 -14 -11 -22.5t-28 -8.5h-567q-19 0 -30 8.5t-11 22.5q0 22 39 39q45 21 75 93t30 204
v782q0 37 -1 55.5t-11 49.5t-31 42q-29 14 -29 37z" />
    <glyph glyph-name="i" unicode="i" 
d="M291 1098q-96 0 -153.5 54.5t-43.5 131.5q13 77 91.5 131.5t174.5 54.5t153 -54t42 -132q-14 -77 -91.5 -131.5t-172.5 -54.5zM82 911q0 14 8 22.5t21 8.5q97 6 194.5 39t149.5 70q24 12 37 12q22 0 22 -21v-720q8 -208 102 -252q39 -17 39 -39q0 -14 -11 -22.5t-28 -8.5
h-565q-19 0 -30 8.5t-11 22.5q0 22 39 39q45 21 75 93t30 204v360q0 37 -1 55.5t-11 49.5t-31 42q-29 14 -29 37z" />
    <glyph glyph-name="j" unicode="j" horiz-adv-x="620" 
d="M84 911q0 13 9 22t22 9q97 6 194.5 39t149.5 70q20 12 37 12q9 0 15.5 -6t6.5 -15v-1054q0 -78 -29.5 -144t-78 -110t-110 -75.5t-125 -45.5t-124.5 -14q-135 0 -216 55.5t-81 118.5q0 89 83 128t166 9.5t83 -107.5q0 -12 -4.5 -25.5t-10 -24t-14 -23.5t-14.5 -20
q-8 -10 -11 -14.5t-7 -11.5t-4 -10.5t2 -7t8.5 -5t17.5 -1.5q56 0 102.5 34.5t67.5 83t7.5 107.5t-68.5 103v778q-4 87 -43 108q-31 16 -31 37zM291 1098q-96 0 -153.5 54.5t-43.5 131.5q13 77 91.5 131.5t174.5 54.5t153 -54t42 -132q-14 -77 -91.5 -131.5t-172.5 -54.5z
" />
    <glyph glyph-name="k" unicode="k" horiz-adv-x="1390" 
d="M1358 0h-363q-76 0 -130.5 46t-65.5 120q-9 57 -15 87t-19 80.5t-27.5 80t-38.5 58t-54 40.5l-133 -137v-37q3 -118 32 -183.5t72 -84.5q39 -17 39 -39q0 -14 -11 -22.5t-30 -8.5h-563q-19 0 -30 8.5t-11 22.5q0 22 39 39q45 21 75 93t30 204v819q-4 89 -43 110
q-29 14 -29 37q0 14 8 22.5t21 8.5q97 6 194 38t150 68q19 13 37 13q20 0 20 -21v-991l238 246q46 47 41.5 98t-33.5 91.5t-68 60.5q-37 18 -37 41q0 14 11 22t30 8h484q38 0 41 -30q0 -25 -39 -41q-74 -35 -171 -106t-169 -146l-70 -72q84 14 150 -8t109 -68.5t76.5 -107
t60.5 -125.5t53 -121.5t62 -98t79 -51.5q29 -6 29 -32q0 -13 -8.5 -22t-22.5 -9z" />
    <glyph glyph-name="l" unicode="l" 
d="M82 1333q0 14 8 22.5t21 8.5q97 6 194.5 39t149.5 70q24 12 37 12q20 0 20 -21v-1126q3 -118 32 -183.5t72 -84.5q39 -17 39 -39q0 -14 -11 -22.5t-30 -8.5h-563q-19 0 -30 8.5t-11 22.5q0 22 39 39q45 21 75 93t30 204v819q-4 90 -43 110q-29 14 -29 37z" />
    <glyph glyph-name="m" unicode="m" horiz-adv-x="1998" 
d="M678 31q0 22 39 39q48 23 81.5 82.5t20.5 160.5l-35 260q-10 79 -20 129.5t-28 99t-46 72t-67 23.5q-93 0 -109 -131v-399q0 -132 29.5 -204t74.5 -93q39 -17 39 -39q0 -14 -11 -22.5t-28 -8.5h-567q-19 0 -30 8.5t-11 22.5q0 22 39 39q45 21 75 93t30 204v360
q0 37 -1 56t-11 49.5t-31 41.5q-29 14 -29 37v2q0 12 8.5 20.5t20.5 10.5q96 4 193 37t151 70q18 12 37 12q22 0 22 -21v-147q33 64 94.5 102.5t149.5 38.5q149 0 225.5 -57t116.5 -193q26 100 118 175t209 75q177 0 255 -83t114 -294l53 -292q27 -155 47.5 -217t57.5 -80
q39 -17 39 -39q0 -14 -11 -22.5t-30 -8.5h-566q-38 0 -38 31q0 23 36 39q49 23 83.5 82.5t21.5 160.5l-35 260q-7 52 -13 87.5t-15.5 76.5t-21 67t-27.5 49t-37 33.5t-48 10.5q-63 0 -114 -66t-52 -159q0 -9 2 -13l52 -292q27 -156 47 -217.5t57 -79.5q39 -17 39 -39
q0 -14 -11 -22.5t-30 -8.5h-565q-17 0 -28 8.5t-11 22.5z" />
    <glyph glyph-name="n" unicode="n" horiz-adv-x="1372" 
d="M721 31q0 23 37 39q49 23 83 82.5t21 160.5l-35 260q-7 53 -13 88t-15.5 76t-21 67t-27 49t-36.5 33.5t-48 10.5q-62 0 -106.5 -61.5t-45.5 -155.5v-313q0 -132 29.5 -204t74.5 -93q39 -17 39 -39q0 -14 -11 -22.5t-28 -8.5h-567q-19 0 -30 8.5t-11 22.5q0 22 39 39
q45 21 75 93t30 204v360q0 37 -1 56t-11 49.5t-31 41.5q-29 14 -29 37v2q0 12 8.5 20.5t20.5 10.5q96 4 193 37t151 70q18 12 37 12q22 0 22 -21v-190q34 80 110 132t177 52q177 0 254.5 -83t113.5 -294l54 -292q27 -156 47 -217.5t57 -79.5q39 -17 39 -39q0 -14 -11 -22.5
t-30 -8.5h-565q-18 0 -28.5 8.5t-10.5 22.5z" />
    <glyph glyph-name="o" unicode="o" horiz-adv-x="1286" 
d="M643 -10q-109 0 -202 29.5t-158.5 79.5t-112 117t-68.5 142t-22 154q0 80 22 155t68.5 142t112.5 117t159 79t203 29q109 0 202 -29.5t158.5 -79.5t112 -117t68.5 -142t22 -154q0 -80 -22 -155t-68.5 -142t-112.5 -117t-159 -79t-203 -29zM645 49q53 0 95 51t63.5 132
t31.5 179.5t0 197t-31.5 179.5t-63 132t-95.5 51t-96 -51t-63.5 -132t-31.5 -179.5t0 -197t31.5 -179.5t63.5 -132t96 -51z" />
    <glyph glyph-name="p" unicode="p" horiz-adv-x="1302" 
d="M12 -391q0 23 37 39q46 22 76.5 93t30.5 204v817q-4 88 -43 112q-31 16 -31 37q0 13 9 22t22 9q163 10 309 109q20 12 37 12t20 -21l17 -112q75 104 180 104q137 0 245.5 -42t174 -113.5t99.5 -159t34 -184.5q0 -81 -22.5 -159.5t-69 -148t-111.5 -122.5t-155.5 -84
t-194.5 -31q-101 0 -162 61v-147q2 -122 17.5 -180.5t52.5 -75.5q37 -16 37 -39q0 -14 -11 -22.5t-28 -8.5h-531q-18 0 -28.5 8.5t-10.5 22.5zM678 963q-54 0 -91.5 -29t-53 -67t-19.5 -85v-481q14 -248 162 -248q47 0 86 50t61 130.5t34 177.5t4.5 194t-27 177.5
t-60.5 130.5t-96 50z" />
    <glyph glyph-name="q" unicode="q" horiz-adv-x="1290" 
d="M680 -387q0 22 39 39q39 19 54 83.5t15 209.5v123q-71 -78 -161 -78q-137 0 -245.5 42t-174 113t-99.5 158.5t-34 185.5q0 81 22.5 159.5t69 148t111.5 122.5t155.5 84t194.5 31q102 0 168 -69q69 -29 157 3.5t138 82.5q10 12 36 12q9 0 15 -6t6 -15v-1124q1 -48 8 -83.5
t14.5 -55t24.5 -35.5t26 -21t31 -16q37 -16 37 -39q0 -27 -39 -30l-528 -56q-18 -3 -29.5 7t-11.5 24zM625 61q68 0 108 41.5t55 104.5v534q-27 230 -161 230q-47 0 -86 -50t-61 -130.5t-34 -177.5t-4.5 -194t27 -177.5t60.5 -130.5t96 -50z" />
    <glyph glyph-name="r" unicode="r" horiz-adv-x="1038" 
d="M82 911q0 14 8 22.5t21 8.5q97 6 194.5 39t149.5 70q24 12 37 12q20 0 20 -21v-221q38 99 112.5 165.5t166.5 66.5q148 0 210 -86q45 -63 21 -133q-21 -65 -87 -86q-23 -7 -50 -7q-46 0 -80.5 24t-51 53t-34.5 53t-35 24q-42 0 -94.5 -64.5t-77.5 -162.5v-301
q0 -132 29.5 -204t74.5 -93q39 -17 39 -39q0 -14 -11 -22.5t-30 -8.5h-563q-19 0 -30 8.5t-11 22.5q0 22 39 39q42 20 71.5 85t33.5 183v428q-4 87 -43 108q-29 14 -29 37z" />
    <glyph glyph-name="s" unicode="s" horiz-adv-x="1060" 
d="M854 645q-45 198 -203 285q-107 58 -214 45q-78 -10 -96 -51q-3 -8 -3 -17q0 -40 37.5 -77t97.5 -68t132.5 -62.5t145 -68.5t132.5 -79t97.5 -101t37.5 -127q0 -87 -48.5 -156t-127.5 -110t-170 -62t-185 -21q-107 0 -208 34t-168.5 98.5t-67.5 142.5q0 104 73.5 146.5
t147.5 4.5t74 -129q0 -37 -29.5 -78t-29.5 -59q0 -35 49 -61t119.5 -31.5t140.5 2.5t119 43t49 88q0 38 -37 73t-96 65t-130.5 60.5t-143 66t-130.5 75.5t-96 95t-37 118q0 81 38.5 143.5t100 97.5t128 52.5t132.5 17.5q63 0 165.5 -24.5t119.5 -24.5q22 0 36.5 17.5
t16.5 42.5q0 13 19 16q20 0 20 -14l47 -408q0 -18 -24 -18q-28 0 -31 18z" />
    <glyph glyph-name="t" unicode="t" horiz-adv-x="751" 
d="M20 1024h43q29 0 74.5 13.5t100.5 41t111.5 79.5t92.5 118h41v-74q0 -23 0.5 -34.5t1.5 -36t5 -39t10.5 -32t18 -26.5t26.5 -10h133q20 0 20 -20v-27q0 -21 -20 -21h-195v-702q0 -74 27 -100.5t65.5 -12t74 42.5t57.5 58q14 17 26 2q7 -7 9 -18.5t-3 -18.5
q-34 -65 -85.5 -114.5t-108.5 -74.5t-117 -35t-114 2.5t-96.5 39.5t-67.5 75.5t-25 110.5v641q-4 104 -62 104h-43q-20 0 -20 21v27q0 20 20 20z" />
    <glyph glyph-name="u" unicode="u" horiz-adv-x="1226" 
d="M725 84v68q-43 -73 -117 -117.5t-166 -44.5q-160 0 -261 89t-101 238v410q0 124 -43 147q-31 19 -31 37v2q0 28 31 31q95 6 191.5 38t152.5 69q15 12 37 12q20 0 20 -21v-745q0 -99 30 -146t77 -47q60 0 118.5 62.5t61.5 132.5v428q0 37 -1 55.5t-11 49.5t-31 42
q-31 16 -31 37q0 13 8.5 22t22.5 9q96 6 192.5 38.5t151.5 70.5q20 12 37 12q20 0 20 -21v-788q0 -18 1.5 -32t7.5 -32t16.5 -29.5t30.5 -17t47 -0.5q29 4 38 -23q8 -23 -9 -33q-3 -2 -7 -3l-366 -90q-50 -4 -83.5 22.5t-33.5 67.5z" />
    <glyph glyph-name="v" unicode="v" horiz-adv-x="1249" 
d="M799 952q-39 14 -39 41q0 14 11 22.5t30 8.5h407q17 0 28 -8.5t11 -22.5q0 -26 -37 -41q-64 -25 -135.5 -101.5t-107.5 -160.5l-310 -688l-77 -2l-318 657l-20 41q-68 138 -111 191t-92 69q-39 12 -39 35q0 31 39 31h563q18 0 28.5 -8.5t10.5 -22.5q0 -23 -37 -39
q-46 -23 -39.5 -81t72.5 -207l119 -269l133 295q24 56 15 109t-38 93t-67 58z" />
    <glyph glyph-name="w" unicode="w" horiz-adv-x="1800" 
d="M1350 952q-40 16 -37 41q0 14 10.5 22.5t28.5 8.5h407q19 0 30 -8.5t11 -22.5q0 -25 -39 -41q-64 -25 -136 -102t-107 -160l-291 -688l-78 -2l-266 584l-246 -582l-78 -2l-332 729q-55 119 -97 166.5t-91 62.5q-39 12 -39 35q0 15 11 23.5t28 7.5h563q18 0 28.5 -8.5
t10.5 -22.5q0 -23 -37 -39q-25 -12 -36.5 -29.5t-12 -49t15.5 -81t50 -122.5l116 -248l107 252q22 55 -16 152.5t-93 123.5q-37 15 -37 41q0 14 11 22.5t28 8.5h432h9h14q18 0 28.5 -8.5t10.5 -22.5q0 -23 -37 -39q-33 -17 -44 -43.5t2 -84.5t58 -154l117 -248l113 268
q30 87 0.5 159t-90.5 101z" />
    <glyph glyph-name="x" unicode="x" horiz-adv-x="1228" 
d="M782 950q-37 26 -37 41t11 24t28 9h359q17 0 28 -8.5t11 -22.5q0 -25 -37 -41q-67 -28 -169.5 -98.5t-158.5 -134.5l-76 -86l215 -324q142 -215 234 -241q37 -12 37 -37q0 -14 -10 -22.5t-27 -8.5h-623q-17 0 -27 8.5t-10 22.5q0 18 35 39q61 37 60.5 98.5t-64.5 155.5
l-39 57l-71 -80q-56 -70 -56 -138t47 -91q37 -15 37 -41q0 -14 -11 -22.5t-28 -8.5h-401q-17 0 -27 8.5t-10 22.5q0 26 35 41q65 27 164.5 97.5t156.5 135.5l123 137l-153 232q-165 251 -273 282q-37 12 -37 37q0 14 11 22.5t28 8.5h584q17 0 27 -8.5t10 -22.5
q0 -21 -35 -41q-28 -14 -33.5 -42.5t16 -80t72.5 -129.5l4 -8l27 29q62 70 78.5 132t-25.5 97z" />
    <glyph glyph-name="y" unicode="y" horiz-adv-x="1249" 
d="M799 952q-39 14 -39 41q0 14 11 22.5t30 8.5h407q17 0 28 -8.5t11 -22.5q0 -26 -37 -41q-64 -25 -135.5 -101.5t-107.5 -160.5l-262 -584q-11 -25 -39 -83l-9 -21h-2q-37 -73 -78 -139t-96.5 -134.5t-120 -109.5t-127.5 -41q-126 0 -183 81q-44 63 -22 132q21 69 94 90
q26 8 56 8q35 0 70 -25t67.5 -50t59.5 -25q107 0 205 211l-318 657l-20 41q-68 138 -111 191t-92 69q-39 12 -39 35q0 31 39 31h563q18 0 28.5 -8.5t10.5 -22.5q0 -23 -37 -39q-46 -23 -39.5 -81t72.5 -207l119 -269l133 295q24 56 15 109t-38 93t-67 58z" />
    <glyph glyph-name="z" unicode="z" horiz-adv-x="1085" 
d="M41 623l65 372q3 29 41 29h773q34 0 46 -14t-1 -39l-512 -899h24q82 0 168.5 42.5t153 106.5t115.5 134t69 130q7 20 33 17q29 -3 26 -27l-106 -446q-6 -29 -43 -29h-797q-34 0 -46 14t1 39l510 899h-35q-82 0 -156.5 -33t-127 -85t-89 -109t-53.5 -113q-6 -19 -32 -16
q-12 2 -20 9.5t-7 17.5z" />
    <glyph glyph-name="braceleft" unicode="{" horiz-adv-x="772" 
d="M635 1419q0 -14 -14 -14q-60 -2 -93.5 -28t-41.5 -63.5t-4 -91t15.5 -101.5t22 -105t10.5 -92q0 -108 -47 -163t-137 -75q90 -20 137 -73.5t47 -161.5q0 -35 -10.5 -92t-22 -105.5t-15.5 -101.5t4 -91t41.5 -64t93.5 -28q14 -3 14 -14q0 -15 -12 -18q-49 -11 -97 -11
q-57 0 -112 12.5t-104.5 38t-80 70.5t-30.5 103q0 40 7.5 95.5t15 99t12 92t-3.5 85.5t-28.5 69.5t-65.5 53t-113 27.5v30q68 7 113 27.5t65.5 53t28.5 69.5t3.5 86t-12 92.5t-15 99t-7.5 95.5q0 58 30.5 103t80 70t104.5 37.5t112 12.5q52 0 97 -10q12 -3 12 -19z" />
    <glyph glyph-name="bar" unicode="|" horiz-adv-x="307" 
d="M152 -139q-15 0 -25 7t-10 19v1420q0 12 10 19t25 7q36 0 36 -28v-1418q0 -26 -36 -26z" />
    <glyph glyph-name="braceright" unicode="}" horiz-adv-x="772" 
d="M23 -45q0 11 14 14q60 2 94 28t42 64t4 91t-15.5 101.5t-22 105.5t-10.5 92q0 108 46.5 161.5t135.5 73.5q-88 20 -135 75t-47 163q0 35 10.5 92t22 105t15.5 101.5t-4 91t-42 63.5t-94 28q-14 0 -14 14q0 16 12 19q45 10 96 10q57 0 112 -12.5t105 -37.5t80.5 -70
t30.5 -103q0 -40 -7.5 -95.5t-15 -99t-12 -92.5t3.5 -86t28.5 -69.5t65.5 -53t113 -27.5v-30q-68 -7 -113 -27.5t-65.5 -53t-28.5 -69.5t-3.5 -85.5t12 -92t15 -99t7.5 -95.5q0 -58 -30.5 -103t-80.5 -70.5t-105 -38t-112 -12.5q-46 0 -96 11q-12 3 -12 18z" />
    <glyph glyph-name="asciitilde" unicode="~" horiz-adv-x="974" 
d="M88 545l-16 12q-7 6 -7.5 15.5t5.5 15.5q158 147 280 147q50 0 92 -18t93 -53q37 -24 54 -34t49.5 -22t61.5 -12q77 0 168 63q19 11 29 -6l12 -18q4 -6 3 -14t-7 -13q-163 -129 -293 -129q-41 0 -83.5 14t-66 27.5t-65.5 40.5q-32 21 -48 30.5t-42 19.5t-49 10
q-64 0 -143 -76q-13 -13 -27 0z" />
    <glyph glyph-name="exclamdown" unicode="&#xa1;" horiz-adv-x="550" 
d="M309 582l174 -791q24 -110 -63 -169q-73 -49 -173 -36q-101 14 -145 81q-34 52 -18 124l176 791q3 20 25 20q17 0 24 -20zM111 905q0 74 51 126t123 52t123 -52t51 -126t-51 -126t-123 -52t-123 52t-51 126z" />
    <glyph glyph-name="cent" unicode="&#xa2;" horiz-adv-x="1077" 
d="M971 354q13 -3 10 -12q-20 -120 -112.5 -195.5t-225.5 -93.5v-166q0 -26 -37 -26t-37 26v162q-146 0 -259 55.5t-170.5 145t-83 198.5t3 220t87.5 204.5t170 156.5t252 73v205q0 26 37 26t37 -26v-205q154 -6 244 -99.5t90 -220.5q0 -72 -44.5 -111.5t-105.5 -39.5
q-58 0 -100.5 36.5t-42.5 100.5q0 24 10 64t17.5 71.5t9 63.5t-17.5 51.5t-60 23.5v-798q41 -15 88 -15q79 0 141.5 36.5t81.5 82.5q3 9 17 6zM569 281v751q-61 -30 -99.5 -129.5t-45 -215t30.5 -232t114 -174.5z" />
    <glyph glyph-name="sterling" unicode="&#xa3;" horiz-adv-x="1110" 
d="M164 705v51h229q2 37 3 110q2 76 3.5 114t7.5 105t17 103t29.5 86.5t47.5 77.5t69 55t96.5 39.5t126.5 11.5q57 0 103.5 -21.5t74.5 -55.5t43.5 -73t15.5 -77q0 -82 -66 -124t-132 -15t-66 112q0 34 18.5 94t18.5 76q0 29 -41 34q-50 7 -88 -24q-31 -25 -31 -63
q0 -46 33.5 -140.5t69.5 -212t40 -212.5h160v-51h-160q-3 -84 -33.5 -155t-97.5 -138t-188.5 -119t-292.5 -84h418q133 0 269.5 72t189.5 168h49l-76 -449h-956v209q75 17 131 53t90 80.5t56.5 107t31.5 121t14 134.5h-227z" />
    <glyph glyph-name="yen" unicode="&#xa5;" horiz-adv-x="1480" 
d="M39 1434h659q18 0 28.5 -8.5t10.5 -22.5q0 -23 -37 -39q-25 -12 -42.5 -37t-27 -61t1 -88.5t42.5 -110.5l217 -391l190 426q26 56 5.5 110t-57 92.5t-77.5 57.5q-37 15 -37 41q0 14 11 22.5t28 8.5h486q17 0 28 -8.5t11 -22.5q0 -26 -37 -41q-69 -27 -156.5 -104.5
t-124.5 -157.5l-219 -482h82q27 0 27 -26v-17q0 -26 -27 -26h-94v-113h94q27 0 27 -26v-17q0 -26 -27 -26h-94q0 -131 30 -203.5t76 -93.5q37 -16 37 -39q0 -14 -11 -22.5t-28 -8.5h-577q-19 0 -30 8.5t-11 22.5q0 22 39 39q92 45 102 241v56h-98q-27 0 -27 26v17
q0 26 27 26h98v113h-98q-27 0 -27 26v17q0 26 27 26h78l-236 449q-137 264 -262 301q-39 9 -39 35q0 14 11 22.5t28 8.5z" />
    <glyph glyph-name="dieresis" unicode="&#xa8;" horiz-adv-x="483" 
d="M123 1122q-49 0 -76.5 30.5t-27.5 67t27.5 67t76.5 30.5t76.5 -30.5t27.5 -67t-27.5 -67t-76.5 -30.5zM365 1122q-47 0 -74 30.5t-27 67t27 67t74 30.5t74 -30.5t27 -67t-27 -67t-74 -30.5z" />
    <glyph glyph-name="copyright" unicode="&#xa9;" horiz-adv-x="1480" 
d="M760 188q-115 0 -207.5 34.5t-149.5 92t-87.5 128.5t-30.5 149q0 77 30.5 148t87.5 128.5t149.5 92t207.5 34.5q39 0 77.5 -10.5t53 -18.5l43.5 -24q21 -14 24 -14q19 0 19 35q0 9 6 14.5t14 5.5h9q8 0 14 -5.5t6 -14.5v-203q0 -9 -6 -15t-14 -6h-9q-8 0 -14 6t-6 13
q-9 82 -72.5 129t-144.5 47q-89 0 -161 -29.5t-116.5 -78.5t-68 -109.5t-23.5 -126.5q0 -65 23.5 -125t68 -108.5t116.5 -77.5t161 -29q81 0 144.5 46t72.5 128q0 7 6 12.5t14 5.5h9q8 0 14 -5.5t6 -14.5v-203q0 -9 -6 -14.5t-14 -5.5h-9q-8 0 -14 5.5t-6 14.5q0 35 -19 35
q-3 0 -24 -14q-27 -16 -43 -24t-54 -18t-77 -10zM45 610q0 125 54.5 239.5t146 197.5t218 132.5t265.5 49.5q184 0 341 -83.5t248 -226.5t91 -311q0 -125 -54 -239.5t-145 -197.5t-217.5 -132t-265.5 -49q-111 0 -215 31.5t-187.5 88.5t-147 133.5t-98 171t-34.5 195.5z
M121 608q0 -148 81.5 -274t221.5 -199.5t305 -73.5q123 0 235 43.5t193.5 117t129.5 175t48 213.5q0 148 -81.5 274t-222 199.5t-304.5 73.5t-304 -74t-221 -200.5t-81 -274.5z" />
    <glyph glyph-name="registered" unicode="&#xae;" horiz-adv-x="565" 
d="M45 1229q0 96 69.5 163.5t168.5 67.5q98 0 168.5 -68t70.5 -163t-70.5 -163.5t-168.5 -68.5t-168 68.5t-70 163.5zM68 1229q0 -86 63.5 -147.5t151.5 -61.5q89 0 152 61.5t63 147.5t-63 147.5t-152 61.5t-152 -61.5t-63 -147.5zM248 1143q0 -25 18 -31h-71q9 3 14 10.5
t5 13.5l1 7v190q1 25 -22 29q0 2 2 2h79q51 0 75 -27t9 -56t-59 -36q20 -8 32.5 -29.5t17.5 -42.5t15.5 -38.5t26.5 -18.5q4 0 4 -2t-4 -2h-37q-18 0 -30 20.5t-17.5 45t-18 45t-30.5 20.5h-10v-100zM248 1329v-76h24q31 0 45 25.5t1.5 50.5t-46.5 25h-4q-9 0 -14 -6t-6 -12
v-7z" />
    <glyph glyph-name="acute" unicode="&#xb4;" horiz-adv-x="317" 
d="M12 1147l152 242q29 47 80 32q41 -12 57 -50q22 -53 -34 -93l-3 -2l-223 -152q-12 -9 -23.5 1t-5.5 22z" />
    <glyph glyph-name="periodcentered" unicode="&#xb7;" horiz-adv-x="454" 
d="M53 717q0 55 51 94t123 39t123 -39t51 -94t-51 -94t-123 -39t-123 39t-51 94z" />
    <glyph glyph-name="cedilla" unicode="&#xb8;" horiz-adv-x="337" 
d="M319 -172q0 -50 -48 -76t-115 -26q-61 0 -104.5 19.5t-43.5 53.5q0 30 16 48t37 18q20 0 32.5 -14t12.5 -39q0 -60 37 -60q24 0 47 24.5t23 55.5q0 32 -17 54t-49 22h-12q-11 0 -16 5t-2 13l33 107l86 -2l-70 -97q72 -3 112.5 -34.5t40.5 -71.5z" />
    <glyph glyph-name="questiondown" unicode="&#xbf;" horiz-adv-x="1077" 
d="M614 639q0 9 7 16t16 7q10 0 16 -7t6 -16v-35q0 -101 -17 -182t-42.5 -129t-55 -93.5t-55 -79.5t-42.5 -83.5t-17 -108.5q0 -139 58.5 -199.5t154.5 -60.5q51 0 81 28.5t30 63.5q0 33 -35 114t-35 126q0 96 75 135q66 35 141 4q81 -33 107 -121q9 -32 9 -69
q0 -86 -39 -154t-105.5 -109.5t-147.5 -63t-171 -21.5q-126 0 -236 38.5t-183 119.5t-73 190q0 73 30.5 136t79.5 109t108 88.5t118 81.5t108 78.5t79 90t30 106.5zM799 913q0 -72 -51 -124t-123 -52t-123 52t-51 124q0 74 51 126.5t123 52.5t123 -52.5t51 -126.5z" />
    <glyph glyph-name="Agrave" unicode="&#xc0;" horiz-adv-x="1597" 
d="M492 1413q0 14 10.5 22.5t27.5 8.5h277q52 0 91.5 -23.5t53.5 -62.5l359 -991q103 -258 245 -301q39 -9 39 -35q0 -14 -10.5 -22.5t-28.5 -8.5h-659q-17 0 -28 8.5t-11 22.5q0 21 37 39q29 15 48 44.5t25.5 80t-12.5 116.5l-38 109l-527 2l-29 -90q-12 -45 -2.5 -85
t38 -75.5t59.5 -60.5t61 -39q37 -18 37 -41q0 -14 -11 -22.5t-28 -8.5h-475q-17 0 -28 8.5t-11 22.5q0 27 39 41q67 27 141.5 103t102.5 159l317 962q-33 63 -72 80q-38 14 -38 37zM643 1190l-231 -707l483 -2zM684 1798l152 -242q6 -12 -5.5 -21.5t-23.5 -0.5l-223 152
q-58 40 -38 92q15 38 56 51q52 16 82 -31z" />
    <glyph glyph-name="Aacute" unicode="&#xc1;" horiz-adv-x="1597" 
d="M492 1413q0 14 10.5 22.5t27.5 8.5h277q52 0 91.5 -23.5t53.5 -62.5l359 -991q103 -258 245 -301q39 -9 39 -35q0 -14 -10.5 -22.5t-28.5 -8.5h-659q-17 0 -28 8.5t-11 22.5q0 21 37 39q29 15 48 44.5t25.5 80t-12.5 116.5l-38 109l-527 2l-29 -90q-12 -45 -2.5 -85
t38 -75.5t59.5 -60.5t61 -39q37 -18 37 -41q0 -14 -11 -22.5t-28 -8.5h-475q-17 0 -28 8.5t-11 22.5q0 27 39 41q67 27 141.5 103t102.5 159l317 962q-33 63 -72 80q-38 14 -38 37zM643 1190l-231 -707l483 -2zM653 1556l152 242q29 47 80 32q41 -12 56 -50q20 -54 -36 -94
l-223 -152q-13 -9 -25 0.5t-4 21.5z" />
    <glyph glyph-name="Acircumflex" unicode="&#xc2;" horiz-adv-x="1597" 
d="M492 1413q0 14 10.5 22.5t27.5 8.5h277q52 0 91.5 -23.5t53.5 -62.5l359 -991q103 -258 245 -301q39 -9 39 -35q0 -14 -10.5 -22.5t-28.5 -8.5h-659q-17 0 -28 8.5t-11 22.5q0 21 37 39q29 15 48 44.5t25.5 80t-12.5 116.5l-38 109l-527 2l-29 -90q-12 -45 -2.5 -85
t38 -75.5t59.5 -60.5t61 -39q37 -18 37 -41q0 -14 -11 -22.5t-28 -8.5h-475q-17 0 -28 8.5t-11 22.5q0 27 39 41q67 27 141.5 103t102.5 159l317 962q-33 63 -72 80q-38 14 -38 37zM643 1190l-231 -707l483 -2zM543 1577l145 213q0 4 6 4q0 2 4 2q1 0 2 1t2 1h5h100h6
q14 -5 16 -8l146 -213q13 -20 -14 -27q-25 -6 -35 6l-168 152l-166 -152q-12 -12 -37 -5q-22 8 -12 26z" />
    <glyph glyph-name="Atilde" unicode="&#xc3;" horiz-adv-x="1597" 
d="M539 1575q-9 13 2 24q89 80 161 80q44 0 108 -37.5t97 -37.5q41 0 78 32q13 10 23 0q11 -11 0 -18q-100 -92 -187 -92q-49 0 -116 38t-93 38q-30 0 -57 -27q-10 -10 -16 0zM492 1413q0 14 10.5 22.5t27.5 8.5h277q52 0 91.5 -23.5t53.5 -62.5l359 -991q103 -258 248 -301
q36 -9 36 -35q0 -14 -10.5 -22.5t-28.5 -8.5h-659q-17 0 -28 8.5t-11 22.5q0 21 37 39q29 14 48.5 45.5t25.5 82.5t-15 119l-36 103l-527 2l-29 -90q-12 -45 -2.5 -85t38 -75.5t59.5 -60.5t61 -39q37 -15 37 -41q0 -14 -11 -22.5t-28 -8.5h-473q-19 0 -30 8.5t-11 22.5
q0 27 39 41q67 27 141.5 103t102.5 159l319 962q-32 62 -74 80q-38 14 -38 37zM412 483h483l-252 707z" />
    <glyph glyph-name="Adieresis" unicode="&#xc4;" horiz-adv-x="1597" 
d="M492 1413q0 14 10.5 22.5t27.5 8.5h277q52 0 91.5 -23.5t53.5 -62.5l359 -991q103 -258 245 -301q39 -9 39 -35q0 -14 -10.5 -22.5t-28.5 -8.5h-659q-17 0 -28 8.5t-11 22.5q0 21 37 39q29 15 48 44.5t25.5 80t-12.5 116.5l-38 109l-527 2l-29 -90q-12 -45 -2.5 -85
t38 -75.5t59.5 -60.5t61 -39q37 -18 37 -41q0 -14 -11 -22.5t-28 -8.5h-475q-17 0 -28 8.5t-11 22.5q0 27 39 41q67 27 141.5 103t102.5 159l317 962q-33 63 -72 80q-38 14 -38 37zM643 1190l-231 -707l483 -2zM621 1546q-49 0 -76.5 30.5t-27.5 67t27.5 67t76.5 30.5
q48 0 75 -30.5t27 -67t-27 -67t-75 -30.5zM862 1546q-48 0 -75 30.5t-27 67t27 67t75 30.5q47 0 74 -30.5t27 -67t-27 -67t-74 -30.5z" />
    <glyph glyph-name="Aring" unicode="&#xc5;" horiz-adv-x="1597" 
d="M492 1413q0 14 10.5 22.5t27.5 8.5h97q-49 24 -75 67.5t-26 94.5q0 75 57 130.5t158 55.5q100 0 155.5 -55.5t55.5 -130.5q0 -53 -28 -97.5t-80 -68.5q39 -7 67.5 -29t40.5 -53l359 -991q103 -258 245 -301q39 -9 39 -35q0 -14 -10.5 -22.5t-28.5 -8.5h-659
q-17 0 -28 8.5t-11 22.5q0 21 37 39q29 15 48 44.5t25.5 80t-12.5 116.5l-38 109l-527 2l-29 -90q-12 -45 -2.5 -85t38 -75.5t59.5 -60.5t61 -39q37 -18 37 -41q0 -14 -11 -22.5t-28 -8.5h-475q-17 0 -28 8.5t-11 22.5q0 27 39 41q67 27 141.5 103t102.5 159l317 962
q-33 63 -72 80q-38 14 -38 37zM643 1190l-231 -707l483 -2zM743 1466q44 0 68.5 43.5t24.5 96t-24.5 96t-68.5 43.5q-37 0 -62.5 -28.5t-31.5 -69.5t0 -82.5t31.5 -70t62.5 -28.5z" />
    <glyph glyph-name="AE" unicode="&#xc6;" horiz-adv-x="2070" 
d="M2071 395l-68 -366q-6 -29 -41 -29h-1010q-19 0 -30 8.5t-11 22.5q0 22 39 39q45 21 75 93t30 204v53l-547 2l-57 -90q-34 -54 -19 -108t49.5 -93.5t75.5 -58.5q37 -15 37 -41q0 -14 -10.5 -22.5t-28.5 -8.5h-514q-19 0 -30 8.5t-11 22.5q0 25 39 41q71 28 173.5 107
t149.5 155l629 997q-22 25 -41 33q-39 17 -39 39q0 14 11 22.5t30 8.5h959q15 0 26.5 -8t12.5 -21l45 -324q3 -21 -27 -28q-30 -3 -37 20q-9 27 -28.5 61t-54 75t-75.5 74.5t-99 56t-120 22.5h-129v-608h111q51 0 95 11.5t81 35.5t60.5 67t27.5 101q0 9 9 15.5t22 6.5
q14 0 23 -6.5t8 -15.5q-12 -251 0 -500q1 -10 -8 -17.5t-23 -7.5q-13 0 -22 7t-9 18q-4 57 -27.5 99.5t-60.5 66.5t-81 35.5t-95 11.5h-111v-610h131q66 0 130 22.5t113.5 57.5t92.5 79.5t71 87.5t44 82q3 9 14 14.5t23 4.5q13 0 21 -7t6 -18zM547 483h508v584
q0 108 -23 182z" />
    <glyph glyph-name="Ccedilla" unicode="&#xc7;" horiz-adv-x="1415" 
d="M1329 262q-56 -114 -194 -197t-275 -83q-62 0 -117 6l-38 -54q73 -3 114 -34.5t41 -71.5q0 -50 -49 -76t-117 -26q-59 0 -103 19.5t-44 53.5q0 30 16.5 48t38.5 18q19 0 32 -14t13 -39q0 -60 37 -60q24 0 47 24.5t23 55.5t-18 53.5t-50 22.5h-12q-10 0 -15.5 5t-3.5 13
l23 72q-144 27 -259.5 97.5t-188 168.5t-110.5 213t-38 238q0 112 30.5 217.5t94.5 199.5t154 165t219 112t280 41q102 0 190 -32t147 -85t92.5 -123t33.5 -145q0 -86 -51 -145.5t-150 -59.5q-72 0 -113.5 43t-41.5 111q0 31 5.5 72t11 73t9.5 67t-0.5 60.5t-17 46.5
t-41.5 32t-74 11q-88 0 -162.5 -50.5t-123 -134.5t-75 -190.5t-26.5 -220.5q0 -97 19 -187.5t60 -173t101 -144t148 -98t194 -36.5q96 0 182 46t117 112q11 21 27 2q18 -18 8 -39z" />
    <glyph glyph-name="Egrave" unicode="&#xc8;" horiz-adv-x="1169" 
d="M578 1798l153 -242q6 -12 -5.5 -21.5t-23.5 -0.5l-223 154q-41 26 -42.5 61.5t25 59.5t58.5 24q38 0 58 -35zM1169 395l-67 -366q-6 -29 -41 -29h-1010q-19 0 -30 8.5t-11 22.5q0 22 39 39q45 21 75 93t30 204v700q0 247 -105 297q-39 17 -39 39q0 14 11 22.5t30 8.5h959
q15 0 26.5 -8t12.5 -21l45 -324q3 -21 -27 -28q-30 -3 -37 20q-9 27 -28.5 61t-54 75t-75.5 74.5t-99 56t-120 22.5h-129v-608h111q51 0 95 11.5t81 35.5t60.5 67t27.5 101q0 9 9 15.5t22 6.5q14 0 23 -6.5t8 -15.5q-12 -251 0 -500q1 -10 -8 -17.5t-23 -7.5q-13 0 -22 7
t-9 18q-4 57 -27.5 99.5t-60.5 66.5t-81 35.5t-95 11.5h-111v-610h131q66 0 130 22.5t113.5 57.5t92.5 79.5t71 87.5t44 82q3 9 14 14.5t23 4.5q13 0 20.5 -7t5.5 -18z" />
    <glyph glyph-name="Eacute" unicode="&#xc9;" horiz-adv-x="1169" 
d="M438 1556l154 242q20 35 57 35q32 0 58.5 -24t25 -59.5t-42.5 -61.5l-221 -154q-13 -9 -25 0.5t-6 21.5zM1169 395l-67 -366q-6 -29 -41 -29h-1010q-19 0 -30 8.5t-11 22.5q0 22 39 39q45 21 75 93t30 204v700q0 247 -105 297q-39 17 -39 39q0 14 11 22.5t30 8.5h959
q15 0 26.5 -8t12.5 -21l45 -324q3 -21 -27 -28q-30 -3 -37 20q-9 27 -28.5 61t-54 75t-75.5 74.5t-99 56t-120 22.5h-129v-608h111q51 0 95 11.5t81 35.5t60.5 67t27.5 101q0 9 9 15.5t22 6.5q14 0 23 -6.5t8 -15.5q-12 -251 0 -500q1 -10 -8 -17.5t-23 -7.5q-13 0 -22 7
t-9 18q-4 57 -27.5 99.5t-60.5 66.5t-81 35.5t-95 11.5h-111v-610h131q66 0 130 22.5t113.5 57.5t92.5 79.5t71 87.5t44 82q3 9 14 14.5t23 4.5q13 0 20.5 -7t5.5 -18z" />
    <glyph glyph-name="Ecircumflex" unicode="&#xca;" horiz-adv-x="1169" 
d="M657 1790l144 -213q8 -12 -0.5 -19.5t-24.5 -7.5q-18 0 -24 6l-166 152l-168 -152q-6 -6 -23 -6q-16 0 -25 7.5t-1 19.5l145 213q4 8 21 8h102q12 0 20 -8zM1169 395l-67 -366q-6 -29 -41 -29h-1010q-19 0 -30 8.5t-11 22.5q0 22 39 39q45 21 75 93t30 204v700
q0 247 -105 297q-39 17 -39 39q0 14 11 22.5t30 8.5h959q15 0 26.5 -8t12.5 -21l45 -324q3 -21 -27 -28q-30 -3 -37 20q-9 27 -28.5 61t-54 75t-75.5 74.5t-99 56t-120 22.5h-129v-608h111q51 0 95 11.5t81 35.5t60.5 67t27.5 101q0 9 9 15.5t22 6.5q14 0 23 -6.5t8 -15.5
q-12 -251 0 -500q1 -10 -8 -17.5t-23 -7.5q-13 0 -22 7t-9 18q-4 57 -27.5 99.5t-60.5 66.5t-81 35.5t-95 11.5h-111v-610h131q66 0 130 22.5t113.5 57.5t92.5 79.5t71 87.5t44 82q3 9 14 14.5t23 4.5q13 0 20.5 -7t5.5 -18z" />
    <glyph glyph-name="Edieresis" unicode="&#xcb;" horiz-adv-x="1169" 
d="M506 1532q-48 0 -75 30.5t-27 66.5t27 66.5t75 30.5q49 0 76.5 -30.5t27.5 -66.5t-27.5 -66.5t-76.5 -30.5zM748 1532q-47 0 -74 30.5t-27 66.5t27 66.5t74 30.5t74 -30.5t27 -66.5t-27 -66.5t-74 -30.5zM1169 395l-67 -366q-6 -29 -41 -29h-1010q-19 0 -30 8.5t-11 22.5
q0 22 39 39q45 21 75 93t30 204v700q0 247 -105 297q-39 17 -39 39q0 14 11 22.5t30 8.5h959q15 0 26.5 -8t12.5 -21l45 -324q3 -21 -27 -28q-30 -3 -37 20q-9 27 -28.5 61t-54 75t-75.5 74.5t-99 56t-120 22.5h-129v-608h111q51 0 95 11.5t81 35.5t60.5 67t27.5 101
q0 9 9 15.5t22 6.5q14 0 23 -6.5t8 -15.5q-12 -251 0 -500q1 -10 -8 -17.5t-23 -7.5q-13 0 -22 7t-9 18q-4 57 -27.5 99.5t-60.5 66.5t-81 35.5t-95 11.5h-111v-610h131q66 0 130 22.5t113.5 57.5t92.5 79.5t71 87.5t44 82q3 9 14 14.5t23 4.5q13 0 20.5 -7t5.5 -18z" />
    <glyph glyph-name="Igrave" unicode="&#xcc;" horiz-adv-x="679" 
d="M10 31q0 22 39 39q45 21 75 93t30 204v727q-8 220 -105 270q-39 17 -39 39q0 14 11 22.5t30 8.5h576q19 0 30 -8.5t11 -22.5q0 -22 -39 -39q-100 -49 -105 -270v-727q0 -132 30 -204t75 -93q39 -17 39 -39q0 -14 -11 -22.5t-30 -8.5h-576q-19 0 -30 8.5t-11 22.5z
M334 1798l151 -242q8 -12 -3.5 -21.5t-24.5 -0.5l-224 152q-57 40 -36 92q14 38 55 51q52 16 82 -31z" />
    <glyph glyph-name="Iacute" unicode="&#xcd;" horiz-adv-x="679" 
d="M10 31q0 22 39 39q45 21 75 93t30 204v727q-8 220 -105 270q-39 17 -39 39q0 14 11 22.5t30 8.5h576q19 0 30 -8.5t11 -22.5q0 -22 -39 -39q-100 -49 -105 -270v-727q0 -132 30 -204t75 -93q39 -17 39 -39q0 -14 -11 -22.5t-30 -8.5h-576q-19 0 -30 8.5t-11 22.5z
M195 1556l151 242q29 47 80 32q41 -12 56 -50q20 -54 -36 -94l-223 -152q-13 -9 -24.5 0.5t-3.5 21.5z" />
    <glyph glyph-name="Icircumflex" unicode="&#xce;" horiz-adv-x="679" 
d="M10 31q0 22 39 39q45 21 75 93t30 204v727q-8 220 -105 270q-39 17 -39 39q0 14 11 22.5t30 8.5h576q19 0 30 -8.5t11 -22.5q0 -22 -39 -39q-45 -21 -75 -93t-30 -204v-700q0 -132 30 -204t75 -93q39 -17 39 -39q0 -14 -11 -22.5t-30 -8.5h-576q-19 0 -30 8.5t-11 22.5z
M125 1577l143 213q8 8 21 8h2h102q15 0 19 -8l143 -213q14 -20 -12 -27q-25 -6 -35 6l-168 152l-168 -152q-10 -12 -34 -6q-26 7 -13 27z" />
    <glyph glyph-name="Idieresis" unicode="&#xcf;" horiz-adv-x="679" 
d="M10 31q0 22 39 39q45 21 75 93t30 204v700q0 132 -30 204t-75 93q-39 17 -39 39q0 14 11 22.5t30 8.5h576q19 0 30 -8.5t11 -22.5q0 -22 -39 -39q-100 -49 -105 -270v-727q0 -132 30 -204t75 -93q39 -17 39 -39q0 -14 -11 -22.5t-30 -8.5h-576q-19 0 -30 8.5t-11 22.5z
M221 1524q-49 0 -76.5 30.5t-27.5 66.5t27.5 66.5t76.5 30.5t76.5 -30.5t27.5 -66.5t-27.5 -66.5t-76.5 -30.5zM463 1524q-47 0 -74 30.5t-27 66.5t27 66.5t74 30.5t74 -30.5t27 -66.5t-27 -66.5t-74 -30.5z" />
    <glyph glyph-name="Eth" unicode="&#xd0;" horiz-adv-x="1441" 
d="M10 1403q0 14 11 22.5t30 8.5h537q150 0 278 -40t218 -109t153.5 -161t94 -195t30.5 -212t-30.5 -212t-94 -195t-154 -161t-218.5 -109t-279 -40h-535q-19 0 -30 8.5t-11 22.5q0 22 39 39q45 21 75 93t30 204v266h-74q-27 0 -27 20v35q0 9 7.5 15t19.5 6h74v358
q0 247 -105 297q-39 17 -39 39zM524 61h64q95 0 172.5 56.5t125 148.5t73.5 210t26 240.5t-26 240.5t-73.5 210t-125 148.5t-172.5 56.5h-64v-663h107q11 0 18.5 -6t7.5 -15v-35q0 -9 -7.5 -14.5t-18.5 -5.5h-107v-572z" />
    <glyph glyph-name="Ntilde" unicode="&#xd1;" horiz-adv-x="1533" 
d="M514 1595q-9 12 2 23q91 82 162 82q44 0 108 -39t97 -39q40 0 78 33q13 9 22 0q11 -8 0 -19q-101 -90 -184 -90q-39 0 -79 19t-73 38t-57 19q-31 0 -60 -29q-10 -10 -16 2zM1335 1032v-1005q0 -12 -10 -19.5t-25 -7.5q-39 0 -55 23l-973 1130v-754q0 -113 56.5 -206
t120.5 -121q39 -19 36 -41q0 -14 -10.5 -22.5t-28.5 -8.5h-399q-19 0 -30 8.5t-11 22.5q0 27 39 39q64 27 110 119t46 212v666q0 133 -39 204.5t-99 92.5q-49 17 -49 39q0 14 14.5 22.5t37.5 8.5h438l760 -861v461q0 113 -56.5 205.5t-120.5 122.5q-36 14 -36 41
q0 14 11 22.5t28 8.5h397q19 0 30 -8.5t11 -22.5q0 -25 -39 -41q-64 -26 -109 -118.5t-45 -211.5z" />
    <glyph glyph-name="Ograve" unicode="&#xd2;" horiz-adv-x="1607" 
d="M803 -25q-139 0 -258 42t-202.5 113.5t-142.5 166.5t-87.5 202t-28.5 220t28.5 220.5t87.5 203t143 167t203 113t259 41.5q139 0 258 -41.5t202.5 -113t142.5 -167t87.5 -203t28.5 -220.5t-28.5 -220.5t-87.5 -202.5t-143 -166.5t-203 -113t-259 -41.5zM805 47
q95 0 169.5 74t113 192.5t56.5 262t0 287t-56.5 262t-113.5 192.5t-171 74q-95 0 -169.5 -74t-113 -192.5t-56.5 -262t0 -287t56.5 -262t113.5 -192.5t171 -74zM866 1563q8 -11 -3.5 -21.5t-24.5 -1.5l-222 154q-58 40 -38 92q14 37 55 50q50 17 80 -28l2 -2z" />
    <glyph glyph-name="Oacute" unicode="&#xd3;" horiz-adv-x="1607" 
d="M803 -25q-139 0 -258 42t-202.5 113.5t-142.5 166.5t-87.5 202t-28.5 220t28.5 220.5t87.5 203t143 167t203 113t259 41.5q139 0 258 -41.5t202.5 -113t142.5 -167t87.5 -203t28.5 -220.5t-28.5 -220.5t-87.5 -202.5t-143 -166.5t-203 -113t-259 -41.5zM805 47
q95 0 169.5 74t113 192.5t56.5 262t0 287t-56.5 262t-113.5 192.5t-171 74q-95 0 -169.5 -74t-113 -192.5t-56.5 -262t0 -287t56.5 -262t113.5 -192.5t171 -74zM707 1567l151 243q29 46 81 31q40 -12 56 -49q22 -52 -34 -92l-3 -2l-223 -154q-12 -9 -24 1.5t-4 21.5z" />
    <glyph glyph-name="Ocircumflex" unicode="&#xd4;" horiz-adv-x="1607" 
d="M803 -25q-139 0 -258 42t-202.5 113.5t-142.5 166.5t-87.5 202t-28.5 220t28.5 220.5t87.5 203t143 167t203 113t259 41.5q139 0 258 -41.5t202.5 -113t142.5 -167t87.5 -203t28.5 -220.5t-28.5 -220.5t-87.5 -202.5t-143 -166.5t-203 -113t-259 -41.5zM805 47
q95 0 169.5 74t113 192.5t56.5 262t0 287t-56.5 262t-113.5 192.5t-171 74q-95 0 -169.5 -74t-113 -192.5t-56.5 -262t0 -287t56.5 -262t113.5 -192.5t171 -74zM588 1577l145 213q4 8 19 8h104q13 0 21 -8l143 -213q13 -20 -13 -27q-24 -6 -36 6l-168 152l-166 -152
q-10 -12 -35 -6q-24 8 -14 27z" />
    <glyph glyph-name="Otilde" unicode="&#xd5;" horiz-adv-x="1607" 
d="M592 1595q-6 13 4 23q91 82 162 82q44 0 108 -39t97 -39q39 0 77 33q13 10 23 0q11 -8 0 -19q-101 -90 -184 -90q-39 0 -79 19t-73 38t-57 19q-31 0 -60 -29q-9 -9 -18 2zM803 -25q-139 0 -258 42t-202.5 113.5t-142.5 166.5t-87.5 202t-28.5 220t28.5 220.5t87.5 203
t143 167t203 113t259 41.5q139 0 258 -41.5t202.5 -113t142.5 -167t87.5 -203t28.5 -220.5t-28.5 -220t-87.5 -202t-143 -166.5t-203 -113.5t-259 -42zM805 47q95 0 169.5 74t113 192.5t56.5 262t0 287t-56.5 262t-113.5 192.5t-171 74q-95 0 -169.5 -74t-113 -192.5
t-56.5 -262t0 -287t56.5 -262t113.5 -192.5t171 -74z" />
    <glyph glyph-name="Odieresis" unicode="&#xd6;" horiz-adv-x="1607" 
d="M803 -25q-139 0 -258 42t-202.5 113.5t-142.5 166.5t-87.5 202t-28.5 220t28.5 220.5t87.5 203t143 167t203 113t259 41.5q139 0 258 -41.5t202.5 -113t142.5 -167t87.5 -203t28.5 -220.5t-28.5 -220.5t-87.5 -202.5t-143 -166.5t-203 -113t-259 -41.5zM805 47
q95 0 169.5 74t113 192.5t56.5 262t0 287t-56.5 262t-113.5 192.5t-171 74q-95 0 -169.5 -74t-113 -192.5t-56.5 -262t0 -287t56.5 -262t113.5 -192.5t171 -74zM678 1522q-49 0 -76.5 30.5t-27.5 66.5t27.5 66.5t76.5 30.5t76.5 -30.5t27.5 -66.5t-27.5 -66.5t-76.5 -30.5z
M920 1522q-47 0 -74 30.5t-27 66.5t27 66.5t74 30.5t74 -30.5t27 -66.5t-27 -66.5t-74 -30.5z" />
    <glyph glyph-name="Oslash" unicode="&#xd8;" horiz-adv-x="1607" 
d="M803 -25q-211 0 -375 95l-37 -58q-9 -12 -22 -12h-45q-14 0 -18 7t3 18l58 86q-137 105 -210 266.5t-73 341.5q0 113 28.5 220.5t87.5 203t143 167t203 113t259 41.5q213 0 377 -98l35 55q10 13 22 13h45q13 0 17.5 -7t-3.5 -18l-55 -84q137 -103 209 -264.5t72 -341.5
q0 -113 -28.5 -220t-87.5 -202t-143 -166.5t-203 -113.5t-259 -42zM512 336l551 848q-44 97 -110 152t-150 55q-78 0 -142.5 -51t-106 -135t-66.5 -193.5t-30 -226t8.5 -234t45.5 -215.5zM805 47q93 0 166 71t113 186t57.5 252.5t5 281t-50.5 260.5l-549 -846
q95 -205 258 -205z" />
    <glyph glyph-name="Ugrave" unicode="&#xd9;" horiz-adv-x="1370" 
d="M922 1362q-39 14 -39 41q0 14 11 22.5t30 8.5h399q18 0 28.5 -8.5t10.5 -22.5q0 -26 -37 -41q-65 -26 -110.5 -118t-45.5 -212v-667q0 -115 -56 -202t-145.5 -130t-197.5 -61t-216.5 5t-198 67.5t-145.5 127t-56 184.5v738q-8 220 -105 270q-39 17 -39 39q0 14 11 22.5
t30 8.5h576q19 0 30 -8.5t11 -22.5q0 -22 -39 -39q-100 -49 -105 -270v-738q0 -86 31.5 -150.5t82.5 -94.5t112 -41.5t122 7.5t112 53.5t82.5 97t31.5 137.5v669q0 113 -56 205.5t-120 122.5zM678 1798l153 -242q6 -12 -5 -21.5t-23 -0.5l-223 152q-58 40 -38 92
q15 38 54 51q50 17 80 -27z" />
    <glyph glyph-name="Uacute" unicode="&#xda;" horiz-adv-x="1370" 
d="M922 1362q-39 14 -39 41q0 14 11 22.5t30 8.5h399q18 0 28.5 -8.5t10.5 -22.5q0 -26 -37 -41q-65 -26 -110.5 -118t-45.5 -212v-667q0 -115 -56 -202t-145.5 -130t-197.5 -61t-216.5 5t-198 67.5t-145.5 127t-56 184.5v738q-8 220 -105 270q-39 17 -39 39q0 14 11 22.5
t30 8.5h576q19 0 30 -8.5t11 -22.5q0 -22 -39 -39q-100 -49 -105 -270v-738q0 -86 31.5 -150.5t82.5 -94.5t112 -41.5t122 7.5t112 53.5t82.5 97t31.5 137.5v669q0 113 -56 205.5t-120 122.5zM672 1552l151 242q30 47 81 31q41 -12 56 -50q20 -53 -36 -92l-224 -153
q-13 -9 -24.5 0.5t-3.5 21.5z" />
    <glyph glyph-name="Ucircumflex" unicode="&#xdb;" horiz-adv-x="1370" 
d="M922 1362q-39 14 -39 41q0 14 11 22.5t30 8.5h399q18 0 28.5 -8.5t10.5 -22.5q0 -26 -37 -41q-65 -26 -110.5 -118t-45.5 -212v-667q0 -115 -56 -202t-145.5 -130t-197.5 -61t-216.5 5t-198 67.5t-145.5 127t-56 184.5v738q-8 220 -105 270q-39 17 -39 39q0 14 11 22.5
t30 8.5h576q19 0 30 -8.5t11 -22.5q0 -22 -39 -39q-45 -21 -75 -93t-30 -204v-711q0 -86 31.5 -150.5t82.5 -94.5t112 -41.5t122 7.5t112 53.5t82.5 97t31.5 137.5v669q0 113 -56 205.5t-120 122.5zM557 1577l145 213q1 3 17 8h4h100h4l19 -8l143 -213q13 -20 -13 -27
q-24 -6 -36 6l-168 152l-166 -152q-10 -12 -35 -6q-24 8 -14 27z" />
    <glyph glyph-name="Udieresis" unicode="&#xdc;" horiz-adv-x="1370" 
d="M922 1362q-39 14 -39 41q0 14 11 22.5t30 8.5h399q18 0 28.5 -8.5t10.5 -22.5q0 -26 -37 -41q-65 -26 -110.5 -118t-45.5 -212v-667q0 -115 -56 -202t-145.5 -130t-197.5 -61t-216.5 5t-198 67.5t-145.5 127t-56 184.5v738q-8 220 -105 270q-39 17 -39 39q0 14 11 22.5
t30 8.5h576q19 0 30 -8.5t11 -22.5q0 -22 -39 -39q-45 -21 -75 -93t-30 -204v-711q0 -86 31.5 -150.5t82.5 -94.5t112 -41.5t122 7.5t112 53.5t82.5 97t31.5 137.5v669q0 113 -56 205.5t-120 122.5zM641 1526q-48 0 -75 30.5t-27 67.5t27 67.5t75 30.5q49 0 76.5 -30.5
t27.5 -67.5t-27.5 -67.5t-76.5 -30.5zM883 1526q-47 0 -74 30.5t-27 67.5t27 67.5t74 30.5q48 0 75 -30.5t27 -67.5t-27 -67.5t-75 -30.5z" />
    <glyph glyph-name="Yacute" unicode="&#xdd;" horiz-adv-x="1480" 
d="M416 31q0 22 39 39q38 17 66.5 73.5t35.5 155.5v279l-256 489q-137 265 -262 299q-39 12 -39 37q0 14 11 22.5t28 8.5h659q18 0 28.5 -8.5t10.5 -22.5q0 -23 -37 -39q-25 -13 -43 -37.5t-27.5 -60.5t1 -88.5t43.5 -110.5l215 -391l192 426q26 56 5.5 110t-57 92.5
t-77.5 57.5q-37 15 -37 41q0 14 11 22.5t28 8.5h486q17 0 28 -8.5t11 -22.5q0 -26 -37 -41q-70 -27 -157.5 -105t-123.5 -157l-231 -512v-250q3 -118 32 -183.5t72 -84.5q39 -17 39 -39q0 -14 -11 -22.5t-28 -8.5h-577q-19 0 -30 8.5t-11 22.5zM721 1556l153 242
q28 47 79 32q41 -12 57 -50q20 -54 -37 -94l-221 -152q-13 -9 -25 0.5t-6 21.5z" />
    <glyph glyph-name="Thorn" unicode="&#xde;" horiz-adv-x="1323" 
d="M10 31q0 22 39 39q45 21 75 93t30 204v727q-8 220 -105 270q-39 17 -39 39q0 14 11 22.5t30 8.5h576q19 0 30 -8.5t11 -22.5q0 -22 -39 -39q-72 -33 -97 -170h115q149 0 259.5 -20t174.5 -51t102.5 -77t51 -90.5t12.5 -99.5q0 -108 -108.5 -221t-272.5 -197t-342 -127
q13 -198 105 -241q39 -17 39 -39q0 -14 -11 -22.5t-30 -8.5h-576q-19 0 -30 8.5t-11 22.5zM571 1122h-47v-28v-705q141 62 233.5 184t92.5 250q0 129 -73.5 214t-205.5 85z" />
    <glyph glyph-name="germandbls" unicode="&#xdf;" horiz-adv-x="1519" 
d="M362 0h-331q-15 1 -24 10t-9 21q0 22 39 39q45 21 74.5 93t29.5 204v729q0 91 46.5 164t123.5 118t171.5 68.5t195.5 23.5q125 0 230.5 -34t175 -107t69.5 -172q0 -65 -43 -117.5t-104 -83t-122 -52t-104 -36t-43 -24.5q0 -8 37.5 -17t97 -22t131.5 -31.5t144 -51.5
t131.5 -76.5t97 -112t37.5 -152.5q0 -79 -32 -146t-84.5 -112.5t-120.5 -78t-139.5 -47.5t-141.5 -15q-114 0 -200.5 64.5t-86.5 148.5q-1 70 41 110.5t99 40.5q52 0 89 -38.5t37 -110.5q0 -18 -9.5 -43t-19 -43.5t-14.5 -35.5t5 -26.5t38 -9.5q19 0 37.5 8t38 30.5
t33.5 56.5t23.5 92t9.5 132q0 67 -19.5 125.5t-50.5 100.5t-69 77.5t-76 61t-69 46.5t-50.5 39.5t-19.5 33.5q0 21 17.5 42.5t42 43.5t49.5 50.5t42.5 75t17.5 105.5q0 114 -44 178t-107 64q-67 0 -117.5 -77t-50.5 -214v-958q0 -69 -41 -110.5t-109 -41.5z" />
    <glyph glyph-name="agrave" unicode="&#xe0;" horiz-adv-x="1206" 
d="M1188 57q-75 -71 -213 -71q-245 0 -264 176l-2 18q-33 -73 -96 -123.5t-135 -71t-148 -16t-137.5 33.5t-100.5 88t-39 138q0 71 34.5 125t88.5 87t120 59t130.5 47.5t117 45t82.5 60t25 84.5q-3 24 -8.5 48.5t-20.5 59.5t-35 61t-55 44.5t-79 18.5q-48 0 -67 -15
t-14 -42.5t17.5 -57t26.5 -68t14 -65.5q0 -76 -74 -114.5t-147.5 -4t-73.5 134.5q0 114 99 205.5t243 91.5q493 0 539 -393l49 -414q9 -76 16 -91q10 -23 37 -23q23 0 47 12q17 10 24.5 9t12.5 -15q11 -43 -14 -62zM434 229q0 -65 56 -82q57 -17 119 26q67 47 87 132
l-30 293q-19 -39 -51 -75t-61.5 -63t-57.5 -58t-45 -74.5t-17 -98.5zM705 1171q6 -12 -5.5 -21.5t-23.5 -2.5l-223 153q-57 39 -38 92q14 38 55 52q50 17 81 -27l2 -4z" />
    <glyph glyph-name="aacute" unicode="&#xe1;" horiz-adv-x="1206" 
d="M1188 57q-75 -71 -213 -71q-245 0 -264 176l-2 18q-33 -73 -96 -123.5t-135 -71t-148 -16t-137.5 33.5t-100.5 88t-39 138q0 71 34.5 125t88.5 87t120 59t130.5 47.5t117 45t82.5 60t25 84.5q-3 24 -8.5 48.5t-20.5 59.5t-35 61t-55 44.5t-79 18.5q-48 0 -67 -15
t-14 -42.5t17.5 -57t26.5 -68t14 -65.5q0 -76 -74 -114.5t-147.5 -4t-73.5 134.5q0 114 99 205.5t243 91.5q493 0 539 -393l49 -414q9 -76 16 -91q10 -23 37 -23q23 0 47 12q17 10 24.5 9t12.5 -15q11 -43 -14 -62zM434 229q0 -65 56 -82q57 -17 119 26q67 47 87 132
l-30 293q-19 -39 -51 -75t-61.5 -63t-57.5 -58t-45 -74.5t-17 -98.5zM444 1157l152 244q29 46 80 31q41 -12 57 -50q21 -54 -37 -94l-223 -153q-12 -9 -23.5 1t-5.5 21z" />
    <glyph glyph-name="acircumflex" unicode="&#xe2;" horiz-adv-x="1206" 
d="M1188 57q-75 -71 -213 -71q-245 0 -264 176l-2 18q-33 -73 -96 -123.5t-135 -71t-148 -16t-137.5 33.5t-100.5 88t-39 138q0 71 34.5 125t88.5 87t120 59t130.5 47.5t117 45t82.5 60t25 84.5q-3 24 -8.5 48.5t-20.5 59.5t-35 61t-55 44.5t-79 18.5q-48 0 -67 -15
t-14 -42.5t17.5 -57t26.5 -68t14 -65.5q0 -76 -74 -114.5t-147.5 -4t-73.5 134.5q0 114 99 205.5t243 91.5q493 0 539 -393l49 -414q9 -76 16 -91q10 -23 37 -23q23 0 47 12q17 10 24.5 9t12.5 -15q11 -43 -14 -62zM434 229q0 -65 56 -82q57 -17 119 26q67 47 87 132
l-30 293q-19 -39 -51 -75t-61.5 -63t-57.5 -58t-45 -74.5t-17 -98.5zM373 1151l143 215l16 8h7h98h4q14 0 18 -8l144 -215q14 -19 -12 -25q-25 -6 -35 4l-168 154l-168 -154q-11 -11 -36 -4q-23 7 -11 25z" />
    <glyph glyph-name="atilde" unicode="&#xe3;" horiz-adv-x="1206" 
d="M1188 57q-75 -71 -213 -71q-245 0 -264 176l-2 18q-33 -73 -96 -123.5t-135 -71t-148 -16t-137.5 33.5t-100.5 88t-39 138q0 71 34.5 125t88.5 87t120 59t130.5 47.5t117 45t82.5 60t25 84.5q-3 24 -8.5 48.5t-20.5 59.5t-35 61t-55 44.5t-79 18.5q-48 0 -67 -15
t-14 -42.5t17.5 -57t26.5 -68t14 -65.5q0 -76 -74 -114.5t-147.5 -4t-73.5 134.5q0 114 99 205.5t243 91.5q493 0 539 -393l49 -414q9 -76 16 -91q10 -23 37 -23q23 0 47 12q17 10 24.5 9t12.5 -15q11 -43 -14 -62zM434 229q0 -65 56 -82q57 -17 119 26q67 47 87 132
l-30 293q-19 -39 -51 -75t-61.5 -63t-57.5 -58t-45 -74.5t-17 -98.5zM360 1198q-9 12 2 23q49 45 92 64.5t74.5 17t59.5 -15t53 -28t49.5 -26t54.5 -5t62 31.5q13 6 22 -3q11 -7 0 -18q-52 -48 -99.5 -70t-82.5 -21t-66.5 12.5t-57.5 27.5t-49.5 27.5t-48 8t-48.5 -27.5
q-11 -11 -17 2z" />
    <glyph glyph-name="adieresis" unicode="&#xe4;" horiz-adv-x="1206" 
d="M1188 57q-75 -71 -213 -71q-245 0 -264 176l-2 18q-33 -73 -96 -123.5t-135 -71t-148 -16t-137.5 33.5t-100.5 88t-39 138q0 71 34.5 125t88.5 87t120 59t130.5 47.5t117 45t82.5 60t25 84.5q-3 24 -8.5 48.5t-20.5 59.5t-35 61t-55 44.5t-79 18.5q-48 0 -67 -15
t-14 -42.5t17.5 -57t26.5 -68t14 -65.5q0 -76 -74 -114.5t-147.5 -4t-73.5 134.5q0 114 99 205.5t243 91.5q493 0 539 -393l49 -414q9 -76 16 -91q10 -23 37 -23q23 0 47 12q17 10 24.5 9t12.5 -15q11 -43 -14 -62zM434 229q0 -65 56 -82q57 -17 119 26q67 47 87 132
l-30 293q-19 -39 -51 -75t-61.5 -63t-57.5 -58t-45 -74.5t-17 -98.5zM483 1133q-49 0 -76.5 30.5t-27.5 66.5t27.5 66.5t76.5 30.5t76.5 -30.5t27.5 -66.5t-27.5 -66.5t-76.5 -30.5zM725 1133q-47 0 -74 30.5t-27 66.5t27 66.5t74 30.5t74 -30.5t27 -66.5t-27 -66.5
t-74 -30.5z" />
    <glyph glyph-name="aring" unicode="&#xe5;" horiz-adv-x="1206" 
d="M1188 57q-75 -71 -213 -71q-245 0 -264 176l-2 18q-33 -73 -96 -123.5t-135 -71t-148 -16t-137.5 33.5t-100.5 88t-39 138q0 71 34.5 125t88.5 87t120 59t130.5 47.5t117 45t82.5 60t25 84.5q-3 24 -8.5 48.5t-20.5 59.5t-35 61t-55 44.5t-79 18.5q-48 0 -67 -15
t-14 -42.5t17.5 -57t26.5 -68t14 -65.5q0 -76 -74 -114.5t-147.5 -4t-73.5 134.5q0 114 99 205.5t243 91.5q493 0 539 -393l49 -414q9 -76 16 -91q10 -23 37 -23q23 0 47 12q17 10 24.5 9t12.5 -15q11 -43 -14 -62zM571 1079q-101 0 -158 55.5t-57 131.5q0 75 57 130.5
t158 55.5q100 0 155.5 -55.5t55.5 -130.5q0 -76 -55.5 -131.5t-155.5 -55.5zM434 229q0 -65 56 -82q57 -17 119 26q67 47 87 132l-30 293q-19 -39 -51 -75t-61.5 -63t-57.5 -58t-45 -74.5t-17 -98.5zM573 1126q44 0 68.5 43.5t24.5 95t-24.5 95t-68.5 43.5
q-37 0 -62.5 -28.5t-31.5 -69.5t0 -81.5t31.5 -69t62.5 -28.5z" />
    <glyph glyph-name="ae" unicode="&#xe6;" horiz-adv-x="1697" 
d="M1532 545l-481 -27q8 -71 29 -131.5t57 -109.5t91.5 -77t125.5 -28q78 0 141 36.5t82 82.5q3 8 14 8h2q11 -4 11 -14q-24 -135 -138.5 -214t-273.5 -79q-167 0 -285 69.5t-178 186.5q-25 -106 -103 -178t-173.5 -90t-187 -2.5t-153 83.5t-61.5 168q0 71 34.5 125t89 87
t120 59t130.5 47.5t117.5 45t82 60t24.5 84.5h2q-4 26 -9.5 49t-21 59t-35.5 61t-55 44t-79 19q-48 0 -67 -15t-14 -42.5t17.5 -57t26.5 -68t14 -65.5q0 -76 -74 -114.5t-147.5 -4t-73.5 134.5q0 114 99 205.5t243 91.5q259 0 395 -110q153 123 371 123q74 0 139.5 -27.5
t111.5 -71t79 -98.5t49 -111t16 -106v-2q0 -36 -29 -59.5t-75 -26.5zM1239 987q-56 0 -101 -56t-68 -143.5t-23 -187.5l229 12q47 7 73 47.5t26 94.5t-14 107t-47.5 89.5t-74.5 36.5zM688 352q-22 86 -16 172l-8 78q-18 -40 -50 -76.5t-61.5 -64t-58 -58.5t-45.5 -75
t-17 -99q0 -65 56 -82q57 -17 119 26q67 47 87 132z" />
    <glyph glyph-name="ccedilla" unicode="&#xe7;" horiz-adv-x="1077" 
d="M993 299h2q11 -4 11 -14q-18 -100 -84.5 -168t-153 -96.5t-188.5 -28.5l-43 -58q73 -3 113 -34.5t40 -71.5q0 -50 -48.5 -76t-115.5 -26q-60 0 -103.5 19.5t-43.5 53.5q0 30 16 48t37 18q20 0 32.5 -14t12.5 -39q0 -60 37 -60q24 0 47 24.5t23 55.5q0 32 -17 54t-49 22
h-12q-11 0 -16.5 5.5t-2.5 12.5l23 72q-103 13 -186.5 56.5t-134.5 107.5t-83.5 142.5t-33 163t17 167.5t66.5 157.5t114.5 131t162.5 90t210 33.5q165 0 260.5 -95t95.5 -227q0 -72 -43.5 -111t-103.5 -39q-58 0 -100.5 36t-42.5 100q0 25 10.5 67.5t18 75.5t7 65t-25.5 50
t-76 18q-84 0 -140 -118q-60 -126 -53 -298q8 -197 101 -306q79 -93 205 -93q79 0 141.5 36.5t81.5 82.5q4 11 14 8z" />
    <glyph glyph-name="egrave" unicode="&#xe8;" horiz-adv-x="1099" 
d="M621 1389l153 -242q6 -12 -5.5 -22t-23.5 -1l-223 154q-41 26 -42.5 61.5t25 59.5t58.5 24q39 0 58 -34zM993 299h2q11 -4 11 -14q-24 -135 -138.5 -214t-273.5 -79q-255 0 -399 163q-116 131 -122 321q-6 189 99 340q120 174 336 218q64 13 135 13q74 0 139.5 -27.5
t111.5 -71t79 -98.5t49 -111t16 -106v-2q0 -35 -28.5 -59t-75.5 -27l-481 -25q8 -71 29 -131.5t57 -110t91.5 -78t125.5 -28.5q79 0 141.5 36.5t81.5 82.5q4 11 14 8zM449 600l227 12q47 7 73.5 47.5t27 94.5t-13 107t-47 89.5t-73.5 36.5q-56 0 -101.5 -56t-69 -144
t-23.5 -187z" />
    <glyph glyph-name="eacute" unicode="&#xe9;" horiz-adv-x="1099" 
d="M520 1149l152 244q22 34 57 34q33 0 59.5 -24t25 -59.5t-41.5 -63.5l-223 -154q-13 -9 -25 1.5t-4 21.5zM993 299h2q11 -4 11 -14q-24 -135 -138.5 -214t-273.5 -79q-255 0 -399 163q-116 131 -122 321q-6 189 99 340q120 174 336 218q64 13 135 13q74 0 139.5 -27.5
t111.5 -71t79 -98.5t49 -111t16 -106v-2q0 -35 -28.5 -59t-75.5 -27l-481 -25q8 -71 29 -131.5t57 -110t91.5 -78t125.5 -28.5q79 0 141.5 36.5t81.5 82.5q4 11 14 8zM449 600l227 12q47 7 73.5 47.5t27 94.5t-13 107t-47 89.5t-73.5 36.5q-56 0 -101.5 -56t-69 -144
t-23.5 -187z" />
    <glyph glyph-name="ecircumflex" unicode="&#xea;" horiz-adv-x="1099" 
d="M606 1380l144 -213q10 -12 0.5 -19t-25.5 -7q-17 0 -23 6l-167 151l-168 -151q-6 -6 -23 -6q-16 0 -24.5 7t-0.5 19l144 213q9 9 20 9h105q14 0 18 -9zM993 299h2q11 -4 11 -14q-24 -135 -138.5 -214t-273.5 -79q-255 0 -399 163q-116 131 -122 321q-6 189 99 340
q120 174 336 218q64 13 135 13q74 0 139.5 -27.5t111.5 -71t79 -98.5t49 -111t16 -106v-2q0 -35 -28.5 -59t-75.5 -27l-481 -25q8 -71 29 -131.5t57 -110t91.5 -78t125.5 -28.5q79 0 141.5 36.5t81.5 82.5q4 11 14 8zM449 600l227 12q47 7 73.5 47.5t27 94.5t-13 107
t-47 89.5t-73.5 36.5q-56 0 -101.5 -56t-69 -144t-23.5 -187z" />
    <glyph glyph-name="edieresis" unicode="&#xeb;" horiz-adv-x="1099" 
d="M457 1122q-49 0 -76.5 30.5t-27.5 67t27.5 67t76.5 30.5q48 0 75 -30.5t27 -67t-27 -67t-75 -30.5zM698 1122q-48 0 -75 30.5t-27 67t27 67t75 30.5q47 0 74 -30.5t27 -67t-27 -67t-74 -30.5zM993 299h2q11 -4 11 -14q-24 -135 -138.5 -214t-273.5 -79q-255 0 -399 163
q-116 131 -122 321q-6 189 99 340q120 174 336 218q64 13 135 13q74 0 139.5 -27.5t111.5 -71t79 -98.5t49 -111t16 -106v-2q0 -35 -28.5 -59t-75.5 -27l-481 -25q8 -71 29 -131.5t57 -110t91.5 -78t125.5 -28.5q79 0 141.5 36.5t81.5 82.5q4 11 14 8zM449 600l227 12
q47 7 73.5 47.5t27 94.5t-13 107t-47 89.5t-73.5 36.5q-56 0 -101.5 -56t-69 -144t-23.5 -187z" />
    <glyph glyph-name="igrave" unicode="&#xec;" 
d="M10 31q0 22 39 39q42 20 71.5 85t33.5 183v428q-4 87 -43 108q-29 14 -29 37q0 14 8 22.5t21 8.5q97 6 194.5 39t149.5 70q24 12 37 12q20 0 20 -21v-675q0 -132 29.5 -204t74.5 -93q39 -17 39 -39q0 -14 -11 -22.5t-30 -8.5h-563q-19 0 -30 8.5t-11 22.5zM283 1419
l151 -241q6 -12 -5 -22t-23 -1l-224 152q-58 40 -37 92q14 38 55 51q51 17 81 -29z" />
    <glyph glyph-name="iacute" unicode="&#xed;" 
d="M82 911q0 14 8 22.5t21 8.5q97 6 194.5 39t149.5 70q24 12 37 12q20 0 20 -21v-704q3 -118 32 -183.5t72 -84.5q39 -17 39 -39q0 -14 -11 -22.5t-30 -8.5h-563q-19 0 -30 8.5t-11 22.5q0 22 39 39q45 21 75 93t30 204v360q0 37 -1 55.5t-11 49.5t-31 42q-29 14 -29 37z
M240 1178l153 241q28 47 79 32q41 -12 57 -50q20 -54 -37 -94l-224 -152q-12 -9 -23 1t-5 22z" />
    <glyph glyph-name="icircumflex" unicode="&#xee;" 
d="M82 911q0 14 8 22.5t21 8.5q97 6 194.5 39t149.5 70q24 12 37 12q20 0 20 -21v-675q0 -132 29.5 -204t74.5 -93q39 -17 39 -39q0 -14 -11 -22.5t-30 -8.5h-563q-19 0 -30 8.5t-11 22.5q0 22 39 39q42 20 71.5 85t33.5 183v428q-4 87 -43 108q-29 14 -29 37zM123 1188
l143 213q8 8 21 8h2h102q15 0 19 -8l143 -213q14 -20 -12 -26q-24 -6 -35 5l-168 152l-168 -152q-10 -10 -34 -5q-26 6 -13 26z" />
    <glyph glyph-name="idieresis" unicode="&#xef;" 
d="M82 911q0 14 8 22.5t21 8.5q97 6 194.5 39t149.5 70q24 12 37 12q20 0 20 -21v-675q0 -132 29.5 -204t74.5 -93q39 -17 39 -39q0 -14 -11 -22.5t-30 -8.5h-563q-19 0 -30 8.5t-11 22.5q0 22 39 39q42 20 71.5 85t33.5 183v428q-4 87 -43 108q-29 14 -29 37zM242 1155
q-49 0 -76.5 30.5t-27.5 67t27.5 67t76.5 30.5q48 0 75 -30.5t27 -67t-27 -67t-75 -30.5zM483 1155q-48 0 -75 30.5t-27 67t27 67t75 30.5q47 0 74 -30.5t27 -67t-27 -67t-74 -30.5z" />
    <glyph glyph-name="eth" unicode="&#xf0;" horiz-adv-x="1224" 
d="M383 1419l33 54q13 22 37 22q12 0 24 -6q163 -88 301 -213l135 80q25 14 35 -6l17 -29q10 -20 -13 -33l-116 -67q161 -167 243 -357.5t82 -357.5q0 -109 -37 -202.5t-106 -163.5t-174.5 -110t-235.5 -40q-106 0 -196.5 25.5t-153.5 69t-108 101.5t-66 123t-21 133
q0 88 34.5 168.5t99.5 145.5t169.5 104t233.5 39q85 0 150 -43q-51 137 -119 246l-154 -90q-22 -12 -35 4l-16 31q-10 17 12 30l150 86q-80 108 -191 191q-17 12 -21 30t7 35zM815 508l-4 -2q-20 297 -209 297q-47 0 -84 -40t-56.5 -104t-29 -141.5t-1 -155.5t28 -142
t58 -104t88.5 -40q102 0 158.5 123t50.5 309z" />
    <glyph glyph-name="ntilde" unicode="&#xf1;" horiz-adv-x="1372" 
d="M461 1210q-8 11 4 23q91 82 162 82q44 0 107.5 -39t96.5 -39q40 0 78 33q10 10 23 0q10 -10 0 -19q-101 -90 -187 -90q-39 0 -78.5 19t-72.5 38t-57 19q-29 0 -58 -29q-12 -9 -18 2zM721 31q0 23 37 39q49 23 83 82.5t21 160.5l-35 260q-7 53 -13 88t-15.5 76t-21 67
t-27 49t-36.5 33.5t-48 10.5q-62 0 -106.5 -61.5t-45.5 -155.5v-313q0 -132 29.5 -204t74.5 -93q39 -17 39 -39q0 -14 -11 -22.5t-28 -8.5h-567q-19 0 -30 8.5t-11 22.5q0 22 39 39q45 21 75 93t30 204v360q0 37 -1 56t-11 49.5t-31 41.5q-29 14 -29 37v2q0 12 8.5 20.5
t20.5 10.5q96 4 193 37t151 70q18 12 37 12q22 0 22 -21v-190q34 80 110 132t177 52q177 0 254.5 -83t113.5 -294l54 -292q27 -156 47 -217.5t57 -79.5q39 -17 39 -39q0 -14 -11 -22.5t-30 -8.5h-565q-18 0 -28.5 8.5t-10.5 22.5z" />
    <glyph glyph-name="ograve" unicode="&#xf2;" horiz-adv-x="1286" 
d="M643 -10q-109 0 -202 29.5t-158.5 79.5t-112 117t-68.5 142t-22 154q0 80 22 155t68.5 142t112.5 117t159 79t203 29q109 0 202 -29.5t158.5 -79.5t112 -117t68.5 -142t22 -154q0 -80 -22 -155t-68.5 -142t-112.5 -117t-159 -79t-203 -29zM645 49q53 0 95 51t63.5 132
t31.5 179.5t0 197t-31.5 179.5t-63 132t-95.5 51t-96 -51t-63.5 -132t-31.5 -179.5t0 -197t31.5 -179.5t63.5 -132t96 -51zM788 1147q8 -12 -3.5 -22t-24.5 -1l-223 152q-57 39 -37 92q14 37 53 51q51 18 82 -26l2 -4z" />
    <glyph glyph-name="oacute" unicode="&#xf3;" horiz-adv-x="1286" 
d="M508 1122l151 244q22 35 58 35q33 0 59.5 -24t25 -60t-41.5 -64l-223 -153q-13 -9 -25 1t-4 21zM643 -10q-109 0 -202 29.5t-158.5 79.5t-112 117t-68.5 142t-22 154q0 80 22 155t68.5 142t112.5 117t159 79t203 29q109 0 202 -29.5t158.5 -79.5t112 -117t68.5 -142
t22 -154q0 -80 -22 -155t-68.5 -142t-112.5 -117t-159 -79t-203 -29zM645 49q53 0 95 51t63.5 132t31.5 179.5t0 197t-31.5 179.5t-63 132t-95.5 51t-96 -51t-63.5 -132t-31.5 -179.5t0 -197t31.5 -179.5t63.5 -132t96 -51z" />
    <glyph glyph-name="ocircumflex" unicode="&#xf4;" horiz-adv-x="1286" 
d="M643 -10q-109 0 -202 29.5t-158.5 79.5t-112 117t-68.5 142t-22 154q0 80 22 155t68.5 142t112.5 117t159 79t203 29q109 0 202 -29.5t158.5 -79.5t112 -117t68.5 -142t22 -154q0 -80 -22 -155t-68.5 -142t-112.5 -117t-159 -79t-203 -29zM645 49q53 0 95 51t63.5 132
t31.5 179.5t0 197t-31.5 179.5t-63 132t-95.5 51t-96 -51t-63.5 -132t-31.5 -179.5t0 -197t31.5 -179.5t63.5 -132t96 -51zM428 1139l143 213q8 8 21 8h2h102q15 0 19 -8l143 -213q14 -20 -12 -27q-25 -6 -35 6l-168 152l-168 -152q-10 -12 -34 -6q-26 7 -13 27z" />
    <glyph glyph-name="otilde" unicode="&#xf5;" horiz-adv-x="1286" 
d="M432 1186q-7 14 4 22q91 82 162 82q44 0 108 -39t97 -39q40 0 78 33q10 10 20 0q13 -7 2 -18q-101 -90 -186 -90q-39 0 -79 18.5t-73 37.5t-57 19q-29 0 -57 -28q-13 -10 -19 2zM643 -10q-109 0 -202 29.5t-158.5 79.5t-112 117t-68.5 142t-22 154q0 80 22 155t68.5 142
t112.5 117t159 79t203 29q109 0 202 -29.5t158.5 -79.5t112 -117t68.5 -142t22 -154q0 -80 -22 -155t-68.5 -142t-112.5 -117t-159 -79t-203 -29zM645 49q53 0 95 51t63.5 132t31.5 179.5t0 197t-31.5 179.5t-63 132t-95.5 51t-96 -51t-63.5 -132t-31.5 -179.5t0 -197
t31.5 -179.5t63.5 -132t96 -51z" />
    <glyph glyph-name="odieresis" unicode="&#xf6;" horiz-adv-x="1286" 
d="M643 -10q-109 0 -202 29.5t-158.5 79.5t-112 117t-68.5 142t-22 154q0 80 22 155t68.5 142t112.5 117t159 79t203 29q109 0 202 -29.5t158.5 -79.5t112 -117t68.5 -142t22 -154q0 -80 -22 -155t-68.5 -142t-112.5 -117t-159 -79t-203 -29zM645 49q53 0 95 51t63.5 132
t31.5 179.5t0 197t-31.5 179.5t-63 132t-95.5 51t-96 -51t-63.5 -132t-31.5 -179.5t0 -197t31.5 -179.5t63.5 -132t96 -51zM565 1122q-49 0 -76.5 30.5t-27.5 67t27.5 67t76.5 30.5q48 0 75 -30.5t27 -67t-27 -67t-75 -30.5zM807 1122q-48 0 -75 30.5t-27 67t27 67t75 30.5
q47 0 74 -30.5t27 -67t-27 -67t-74 -30.5z" />
    <glyph glyph-name="oslash" unicode="&#xf8;" horiz-adv-x="1286" 
d="M643 -10q-131 0 -242 43l-133 -203q-6 -12 -22 -12h-45q-13 0 -17 7t2 17l146 224q-122 70 -187 190t-65 256q0 80 22 155t68.5 142t112.5 117t159 79t203 29q155 0 279 -59l172 264q6 12 22 12h45q12 0 16 -6.5t-3 -17.5l-187 -289q106 -73 162.5 -187t56.5 -239
q0 -80 -22 -155t-68.5 -142t-112.5 -117t-159 -79t-203 -29zM473 283l330 508q-24 83 -64.5 131.5t-93.5 48.5q-62 0 -108 -69.5t-66 -172.5t-20 -223.5t22 -222.5zM645 49q59 0 103.5 61.5t64 156t25.5 207t-13 214.5l-323 -500q24 -65 60.5 -102t82.5 -37z" />
    <glyph glyph-name="ugrave" unicode="&#xf9;" horiz-adv-x="1224" 
d="M725 84v68q-41 -73 -116 -117.5t-167 -44.5q-160 0 -261 89t-101 238v441q-4 95 -45 116q-29 17 -29 37v2q0 12 9 20.5t22 10.5q95 6 191.5 38t152.5 69q15 12 37 12q20 0 20 -21v-745q0 -162 80 -187q58 -18 125 38q66 56 79 131l3 28v457q-4 90 -43 110q-31 16 -31 37
q0 13 8.5 22t22.5 9q96 6 192.5 38.5t151.5 70.5q20 12 37 12q20 0 20 -21v-788q0 -18 1.5 -32t7.5 -32t16.5 -29.5t30.5 -17t47 -0.5q20 3 31.5 -11t8.5 -30t-18 -20l-366 -86q-50 -6 -83.5 20.5t-33.5 67.5zM537 1389l151 -242q8 -12 -4 -22t-25 -1l-223 152
q-57 39 -37 92q15 38 55 52q50 17 81 -27z" />
    <glyph glyph-name="uacute" unicode="&#xfa;" horiz-adv-x="1224" 
d="M725 84v68q-41 -73 -116 -117.5t-167 -44.5q-160 0 -261 89t-101 238v441q-4 95 -45 116q-29 17 -29 37v2q0 12 9 20.5t22 10.5q95 6 191.5 38t152.5 69q15 12 37 12q20 0 20 -21v-745q0 -162 80 -187q58 -18 125 38q66 56 79 131l3 28v420q0 37 -1 55.5t-11 49.5t-31 42
q-31 16 -31 37q0 13 8.5 22t22.5 9q96 6 192.5 38.5t151.5 70.5q20 12 37 12q20 0 20 -21v-788q0 -18 1.5 -32t7.5 -32t16.5 -29.5t30.5 -17t47 -0.5q20 3 31.5 -11t8.5 -30t-18 -20l-366 -86q-50 -6 -83.5 20.5t-33.5 67.5zM514 1147l152 242q29 47 80 32q41 -12 57 -50
q22 -53 -34 -93l-3 -2l-223 -152q-12 -9 -24.5 1t-4.5 22z" />
    <glyph glyph-name="ucircumflex" unicode="&#xfb;" horiz-adv-x="1224" 
d="M725 84v68q-41 -73 -116 -117.5t-167 -44.5q-160 0 -261 89t-101 238v410q0 124 -45 147q-29 17 -29 37v2q0 12 9 20.5t22 10.5q95 6 191.5 38t152.5 69q15 12 37 12q20 0 20 -21v-745q0 -162 80 -187q58 -18 125 38q66 56 79 131l3 28v420q0 37 -1 55.5t-11 49.5t-31 42
q-31 16 -31 37q0 13 8.5 22t22.5 9q96 6 192.5 38.5t151.5 70.5q20 12 37 12q20 0 20 -21v-788q0 -18 1.5 -32t7.5 -32t16.5 -29.5t30.5 -17t47 -0.5q20 3 31.5 -11t8.5 -30t-18 -20l-366 -86q-50 -6 -83.5 20.5t-33.5 67.5zM414 1161l145 213q4 8 19 8h4h98h2q12 0 20 -8
l144 -213q13 -21 -15 -26q-22 -3 -34 6l-168 151l-166 -151q-13 -11 -37 -5t-12 25z" />
    <glyph glyph-name="udieresis" unicode="&#xfc;" horiz-adv-x="1224" 
d="M725 84v68q-41 -73 -116 -117.5t-167 -44.5q-160 0 -261 89t-101 238v441q-4 95 -45 116q-29 17 -29 37v2q0 12 9 20.5t22 10.5q95 6 191.5 38t152.5 69q15 12 37 12q20 0 20 -21v-745q0 -162 80 -187q58 -18 125 38q66 56 79 131l3 28v420q0 37 -1 55.5t-11 49.5t-31 42
q-31 16 -31 37q0 13 8.5 22t22.5 9q96 6 192.5 38.5t151.5 70.5q20 12 37 12q20 0 20 -21v-788q0 -18 1.5 -32t7.5 -32t16.5 -29.5t30.5 -17t47 -0.5q20 3 31.5 -11t8.5 -30t-18 -20l-366 -86q-50 -6 -83.5 20.5t-33.5 67.5zM483 1124q-49 0 -76.5 30.5t-27.5 67t27.5 67
t76.5 30.5q48 0 75 -30.5t27 -67t-27 -67t-75 -30.5zM725 1124q-48 0 -75 30.5t-27 67t27 67t75 30.5q47 0 74 -30.5t27 -67t-27 -67t-74 -30.5z" />
    <glyph glyph-name="yacute" unicode="&#xfd;" horiz-adv-x="1247" 
d="M797 952q-39 14 -39 41q0 14 11 22.5t30 8.5h407q17 0 28 -8.5t11 -22.5q0 -26 -37 -41q-64 -25 -135.5 -101.5t-107.5 -160.5l-263 -584q-19 -45 -38 -83l-9 -21h-2q-37 -73 -78 -139t-96.5 -134.5t-120 -109.5t-127.5 -41q-126 0 -183 81q-44 63 -22 132q21 69 94 90
q26 8 56 8q35 0 70 -25t67.5 -50t59.5 -25q107 0 205 211l-318 657l-20 41q-68 138 -111 191t-92 69q-39 12 -39 35q0 31 39 31h563q18 0 28.5 -8.5t10.5 -22.5q0 -23 -37 -39q-46 -23 -39.5 -81t72.5 -207l119 -269l133 295q24 56 15 109t-38 93t-67 58zM545 1147l151 242
q29 47 80 32q40 -12 57 -50q22 -53 -33 -93l-3 -2l-224 -152q-13 -9 -24.5 1t-3.5 22z" />
    <glyph glyph-name="thorn" unicode="&#xfe;" horiz-adv-x="1298" 
d="M82 1194q0 14 9 22.5t22 8.5q96 6 193.5 38t150.5 68q22 15 37 15q9 0 15 -7t5 -16v-371q68 82 162 82q137 0 245.5 -42t174 -113.5t99.5 -159t34 -184.5q0 -81 -22.5 -159.5t-69 -148t-111.5 -122.5t-155.5 -84t-194.5 -31q-101 0 -162 61v-45q2 -122 17.5 -180.5
t52.5 -75.5q37 -16 37 -39q0 -13 -11 -21.5t-28 -8.5h-531q-39 0 -39 30q0 23 37 39q99 51 107 268v992q0 122 -43 147q-31 15 -31 37zM678 963q-54 0 -91.5 -29t-53 -67t-19.5 -85v-481q14 -248 162 -248q47 0 86 50t61 130.5t34 177.5t4.5 194t-27 177.5t-60.5 130.5
t-96 50z" />
    <glyph glyph-name="ydieresis" unicode="&#xff;" horiz-adv-x="1247" 
d="M797 952q-39 14 -39 41q0 14 11 22.5t30 8.5h407q17 0 28 -8.5t11 -22.5q0 -26 -37 -41q-64 -25 -135.5 -101.5t-107.5 -160.5l-263 -584q-19 -45 -38 -83l-9 -21h-2q-37 -73 -78 -139t-96.5 -134.5t-120 -109.5t-127.5 -41q-126 0 -183 81q-44 63 -22 132q21 69 94 90
q26 8 56 8q35 0 70 -25t67.5 -50t59.5 -25q107 0 205 211l-318 657l-20 41q-68 138 -111 191t-92 69q-39 12 -39 35q0 31 39 31h563q18 0 28.5 -8.5t10.5 -22.5q0 -23 -37 -39q-46 -23 -39.5 -81t72.5 -207l119 -269l133 295q24 56 15 109t-38 93t-67 58zM567 1139
q-49 0 -76.5 30.5t-27.5 66.5t27.5 66.5t76.5 30.5q48 0 75 -30.5t27 -66.5t-27 -66.5t-75 -30.5zM809 1139q-48 0 -75 30.5t-27 66.5t27 66.5t75 30.5q47 0 74 -30.5t27 -66.5t-27 -66.5t-74 -30.5z" />
    <glyph glyph-name="Dcroat" unicode="&#x110;" horiz-adv-x="1441" 
d="M10 1403q0 14 11 22.5t30 8.5h537q150 0 278 -40t218 -109t153.5 -161t94 -195t30.5 -212t-30.5 -212t-94 -195t-154 -161t-218.5 -109t-279 -40h-535q-19 0 -30 8.5t-11 22.5q0 22 39 39q45 21 75 93t30 204v266h-68q-27 0 -27 20v35q0 9 7.5 15t19.5 6h68v358
q0 247 -105 297q-39 17 -39 39zM524 61h64q95 0 172.5 56.5t125 148.5t73.5 210t26 240.5t-26 240.5t-73.5 210t-125 148.5t-172.5 56.5h-64v-663h113q12 0 19.5 -6t7.5 -15v-35q0 -20 -27 -20h-113v-572z" />
    <glyph glyph-name="dcroat" unicode="&#x111;" horiz-adv-x="1296" 
d="M723 1333q0 13 8.5 22t22.5 11q95 4 191.5 36.5t152.5 70.5q20 12 37 12q20 0 20 -21v-256h143q27 0 27 -20v-37q0 -9 -7.5 -15t-19.5 -6h-143v-876q0 -23 3 -40.5t12 -38.5t31 -29.5t56 -2.5q29 4 39 -23q8 -23 -9 -33q-3 -2 -7 -3l-367 -90q-46 -4 -79.5 20t-36.5 62
q-75 -86 -170 -86q-137 0 -245.5 42t-174 113t-99.5 158.5t-34 185.5q0 81 22.5 159.5t69 148t111.5 122.5t155.5 84t194.5 31q106 0 170 -71v167h-49q-11 0 -19 6t-8 15v37q0 9 8 14.5t19 5.5h47q-8 72 -41 88q-31 16 -31 37zM797 641q-1 7 -2.5 32t-3 39.5t-4.5 42t-7 45
t-11 42.5t-15.5 41t-21 34.5t-27.5 29t-35 17.5t-43 7q-47 0 -86 -50t-61 -130.5t-34 -177.5t-4.5 -194t27 -177.5t60.5 -130.5t96 -50q45 0 79 19.5t53.5 51t29 65.5t10.5 69v375z" />
    <glyph glyph-name="dotlessi" unicode="&#x131;" 
d="M82 911q0 14 8 22.5t21 8.5q97 6 194.5 39t149.5 70q24 12 37 12q20 0 20 -21v-704q3 -118 32 -183.5t72 -84.5q39 -17 39 -39q0 -14 -11 -22.5t-30 -8.5h-563q-19 0 -30 8.5t-11 22.5q0 22 39 39q45 21 75 93t30 204v360q0 37 -1 55.5t-11 49.5t-31 42q-29 14 -29 37z
" />
    <glyph glyph-name="Lslash" unicode="&#x141;" horiz-adv-x="1153" 
d="M1151 483l-51 -454q-2 -12 -13 -20.5t-26 -8.5h-1010q-19 0 -30 8.5t-11 22.5q0 22 39 39q45 21 75 93t30 204v208l-78 -30q-11 -4 -20.5 -2t-12.5 10l-10 27q-3 8 2 16.5t14 11.5l105 41v418q0 247 -105 297q-39 17 -39 39q0 14 11 22.5t30 8.5h578q17 0 28 -8.5
t11 -22.5q0 -22 -39 -39q-105 -50 -105 -297v-270l129 53q26 7 33 -10l10 -27q3 -8 -1.5 -16.5t-14.5 -12.5l-156 -61v-651h131q66 0 130 30.5t112.5 77.5t89.5 105t66.5 111t38.5 98q6 19 34 16q28 -4 25 -27z" />
    <glyph glyph-name="lslash" unicode="&#x142;" 
d="M4 473l-10 27q-4 21 20 28l140 45v576q0 37 -1 55.5t-11 49.5t-31 42q-29 14 -29 37q0 14 8 22.5t21 8.5q97 6 194.5 39t149.5 70q24 12 37 12q20 0 20 -21v-772l119 41q24 7 31 -10l10 -29q2 -8 -4.5 -15.5t-16.5 -10.5l-139 -47v-254q0 -132 29.5 -204t74.5 -93
q39 -17 39 -39q0 -14 -11 -22.5t-30 -8.5h-563q-19 0 -30 8.5t-11 22.5q0 22 39 39q45 21 75 93t30 204v135l-119 -39q-11 -4 -20 -1t-11 11z" />
    <glyph glyph-name="OE" unicode="&#x152;" horiz-adv-x="2004" 
d="M2005 395l-68 -366q-6 -29 -41 -29h-1019l-74 2q-140 1 -258.5 40t-202.5 106.5t-143.5 158.5t-88 195.5t-28.5 216.5q0 142 46.5 269.5t134 227.5t227.5 159t315 59h1040q15 0 26.5 -8t12.5 -21l45 -324q3 -21 -26 -28q-30 -3 -37 20q-9 27 -28.5 61t-54 75t-75.5 74.5
t-99 56t-120 22.5h-129v-608h110q51 0 95 11.5t81.5 35.5t61 67t27.5 101q0 9 8.5 15.5t21.5 6.5q14 0 23 -6.5t8 -15.5q-12 -251 0 -500q1 -10 -8 -17.5t-23 -7.5q-13 0 -21.5 7t-8.5 18q-4 57 -27.5 99.5t-61 66.5t-81.5 35.5t-95 11.5h-110v-610h131q66 0 130 22.5
t113.5 57.5t92.5 79.5t71 87.5t44 82q3 9 13.5 14.5t22.5 4.5q13 0 21 -7t6 -18zM893 74q96 57 96 293v700q0 241 -98 293q-39 2 -90 2q-83 0 -150 -55t-108.5 -147t-63.5 -206t-22 -237t22 -236.5t64 -205t109 -146.5t151 -55h90z" />
    <glyph glyph-name="oe" unicode="&#x153;" horiz-adv-x="1865" 
d="M643 -10q-109 0 -202 29.5t-158.5 79.5t-112 117t-68.5 142t-22 154q0 100 36 192.5t104 166.5t177.5 118.5t245.5 44.5q230 0 379 -123q156 136 387 136q74 0 139.5 -27.5t111.5 -71t79 -98.5t49 -111t16 -106v-2q0 -35 -28.5 -59t-75.5 -27l-481 -25q8 -71 29 -131.5
t57 -110t91.5 -78t125.5 -28.5q79 0 141.5 36.5t81.5 82.5q4 11 14 8h2q11 -4 11 -14q-24 -135 -138.5 -214t-273.5 -79q-206 0 -348 112q-147 -114 -369 -114zM1214 600l228 12q47 7 73.5 47.5t27 94.5t-13 107t-47 89.5t-73.5 36.5q-56 0 -101.5 -56t-69.5 -144t-24 -187z
M645 49q59 0 103 62.5t65.5 157t24.5 208.5q0 29 2 45q-2 117 -23.5 216.5t-66 166t-105.5 66.5q-54 0 -96 -51t-63.5 -132t-31.5 -179.5t0 -197t31.5 -179.5t63.5 -132t96 -51z" />
    <glyph glyph-name="Scaron" unicode="&#x160;" horiz-adv-x="1282" 
d="M1044 924q-52 246 -231 372q-127 91 -267 89q-114 -2 -164 -64q-26 -32 -26 -74q0 -43 29.5 -84t80 -76.5t115.5 -71t137.5 -72t144.5 -75.5t137 -85.5t115.5 -98t80 -117.5t29.5 -139q0 -90 -36.5 -166t-98.5 -129t-143.5 -90t-171.5 -54.5t-183 -17.5
q-136 0 -253.5 40.5t-192 121.5t-74.5 186q0 134 91 184q71 38 153 8q77 -28 104 -97q10 -28 10 -58q0 -45 -37 -108.5t-37 -89.5q0 -88 156.5 -115.5t313.5 33t157 186.5q0 43 -28.5 84t-77.5 75.5t-112 69t-132.5 69.5t-139 71.5t-132.5 80.5t-112 91.5t-77.5 109
t-28.5 129.5q0 86 28.5 156t74.5 116t107.5 77.5t124.5 45t128 13.5q78 0 149 -18t119.5 -36t71.5 -18q28 0 46 26.5t20 59.5q3 20 24 23q26 0 29 -19l49 -544q0 -11 -9 -18t-24 -7q-33 0 -37 25zM426 1772q-14 19 12 25q25 5 35 -5l168 -156l168 156q10 10 35 5
q23 -7 12 -25l-143 -216q-4 -8 -19 -8h-2h-100h-2q-13 0 -21 8z" />
    <glyph glyph-name="scaron" unicode="&#x161;" horiz-adv-x="1060" 
d="M854 645q-45 198 -203 285q-107 58 -214 45q-78 -10 -96 -51q-3 -8 -3 -17q0 -40 37.5 -77t97.5 -68t132.5 -62.5t145 -68.5t132.5 -79t97.5 -101t37.5 -127q0 -87 -48.5 -156t-127.5 -110t-170 -62t-185 -21q-107 0 -208 34t-168.5 98.5t-67.5 142.5q0 104 73.5 146.5
t147.5 4.5t74 -129q0 -37 -29.5 -78t-29.5 -59q0 -35 49 -61t119.5 -31.5t140.5 2.5t119 43t49 88q0 38 -37 73t-96 65t-130.5 60.5t-143 66t-130.5 75.5t-96 95t-37 118q0 81 38.5 143.5t100 97.5t128 52.5t132.5 17.5q63 0 165.5 -24.5t119.5 -24.5q22 0 36.5 17.5
t16.5 42.5q0 13 19 16q20 0 20 -14l47 -408q0 -18 -24 -18q-28 0 -31 18zM315 1362q-14 19 12 25q25 5 35 -5l168 -155l168 155q10 10 35 5q23 -7 12 -25l-143 -215q-4 -8 -20 -8h-2h-101h-4q-12 0 -16 8z" />
    <glyph glyph-name="Ydieresis" unicode="&#x178;" horiz-adv-x="1480" 
d="M416 31q0 22 39 39q38 17 66.5 73.5t35.5 155.5v279l-256 489q-137 265 -262 299q-39 12 -39 37q0 14 11 22.5t28 8.5h659q18 0 28.5 -8.5t10.5 -22.5q0 -23 -37 -39q-25 -13 -43 -37.5t-27.5 -60.5t1 -88.5t43.5 -110.5l215 -391l192 426q26 56 5.5 110t-57 92.5
t-77.5 57.5q-37 15 -37 41q0 14 11 22.5t28 8.5h486q17 0 28 -8.5t11 -22.5q0 -26 -37 -41q-70 -27 -157.5 -105t-123.5 -157l-231 -512v-250q3 -118 32 -183.5t72 -84.5q39 -17 39 -39q0 -14 -11 -22.5t-28 -8.5h-577q-19 0 -30 8.5t-11 22.5zM711 1532q-48 0 -75 30.5
t-27 66.5t27 66.5t75 30.5q49 0 76.5 -30.5t27.5 -66.5t-27.5 -66.5t-76.5 -30.5zM952 1532q-47 0 -74 30.5t-27 66.5t27 66.5t74 30.5t74 -30.5t27 -66.5t-27 -66.5t-74 -30.5z" />
    <glyph glyph-name="Zcaron" unicode="&#x17d;" horiz-adv-x="1253" 
d="M862 1769l-143 -213q-8 -8 -21 -8h-104q-15 0 -19 8l-145 213q-8 13 1 21t24 8q16 0 24 -8l168 -152l166 152q8 8 25 8q15 0 23.5 -8t0.5 -21zM72 950l53 455q0 13 11 21t28 8h921q34 0 47 -14.5t1 -39.5l-699 -1308h193q82 0 177.5 44t173 109t136.5 138t78 131
q6 19 33 16q13 -1 20.5 -9.5t5.5 -17.5l-88 -454q-6 -29 -41 -29h-1034q-33 0 -46 15t-1 38l698 1309h-145q-66 0 -132.5 -30.5t-118.5 -77.5t-96.5 -104.5t-73 -110.5t-42.5 -97q-6 -21 -33 -18q-29 6 -26 26z" />
    <glyph glyph-name="zcaron" unicode="&#x17e;" horiz-adv-x="1044" 
d="M737 1356l-143 -215q-8 -8 -21 -8h-102q-16 0 -20 8l-146 215q-13 19 14 25q24 5 35 -5l168 -153l166 153q13 11 37 4q24 -6 12 -24zM39 623l65 372q3 29 41 29h773q34 0 46 -14t-1 -39l-512 -899h24q82 0 168.5 42.5t153 106.5t115.5 134t69 130q7 20 33 17
q29 -3 26 -27l-106 -446q-6 -29 -43 -29h-797q-34 0 -46 14t1 39l510 899h-35q-82 0 -156.5 -33t-127 -85t-89 -109t-53.5 -113q-6 -19 -32 -16q-12 2 -20 9.5t-7 17.5z" />
    <glyph glyph-name="circumflex" unicode="&#x2c6;" horiz-adv-x="456" 
d="M12 1167l146 213q4 9 20 9h103h2l18 -9l143 -213q13 -20 -13 -26q-24 -6 -36 6l-168 151l-166 -151q-10 -12 -35 -6q-24 7 -14 26z" />
    <glyph glyph-name="caron" unicode="&#x2c7;" horiz-adv-x="456" 
d="M12 1362q-13 19 13 25q24 5 36 -5l166 -153l168 153q13 11 37 4q24 -6 12 -24l-143 -215q-8 -8 -18 -8h-2h-101h-6q-12 0 -16 8z" />
    <glyph glyph-name="ring" unicode="&#x2da;" horiz-adv-x="491" 
d="M248 1059q-102 0 -158.5 55t-56.5 131q0 75 57 131t158 56q100 0 155.5 -56t55.5 -131q0 -76 -55.5 -131t-155.5 -55zM250 1106q44 0 68.5 43.5t24.5 95.5t-24.5 95.5t-68.5 43.5q-37 0 -62.5 -28.5t-31.5 -69.5t0 -82t31.5 -69.5t62.5 -28.5z" />
    <glyph glyph-name="tilde" unicode="&#x2dc;" horiz-adv-x="499" 
d="M12 1186q-6 12 4 22q91 82 162 82q44 0 108 -39t97 -39q40 0 78 33q11 11 22 0q11 -7 0 -18q-101 -90 -184 -90q-39 0 -79.5 18.5t-74 37.5t-57.5 19q-29 0 -57 -28q-10 -10 -19 2z" />
    <glyph glyph-name="endash" unicode="&#x2013;" horiz-adv-x="806" 
d="M51 584v28q0 8 8.5 14.5t18.5 6.5h651q10 0 18.5 -6.5t8.5 -14.5v-28q0 -9 -8 -15t-19 -6h-651q-11 0 -19 6t-8 15z" />
    <glyph glyph-name="emdash" unicode="&#x2014;" horiz-adv-x="1294" 
d="M53 580v26q0 9 6.5 15t14.5 6h1147q8 0 14 -6t6 -15v-26q0 -9 -6 -15t-14 -6h-1147q-8 0 -14.5 6t-6.5 15z" />
    <glyph glyph-name="quoteleft" unicode="&#x2018;" horiz-adv-x="444" 
d="M397 1176q0 -74 -51 -126.5t-123 -52.5t-123 52.5t-51 126.5v18l6 31q4 8 4 12q3 9 9 18q36 80 121 148.5t173 85.5q13 3 17 -10h2q3 -12 -10 -19q-73 -27 -123 -108q63 -9 106 -59t43 -117z" />
    <glyph glyph-name="quoteright" unicode="&#x2019;" horiz-adv-x="444" 
d="M49 1274q0 74 51 126t123 52t123 -52t51 -126q0 -3 -1 -8.5t-1 -8.5q-3 -36 -22 -73q-37 -79 -120 -143.5t-169 -79.5q-13 0 -16 12q-3 9 8 16q71 23 123 107q-63 9 -106.5 60t-43.5 118z" />
    <glyph glyph-name="quotesinglbase" unicode="&#x201a;" horiz-adv-x="454" 
d="M49 147q0 74 51 126.5t123 52.5t123 -52.5t51 -126.5q0 -3 -1 -8t-1 -8q0 -18 -6 -33q0 -6 -4 -14q-11 -26 -14 -31q-39 -77 -121 -140.5t-166 -78.5q-13 -3 -16 10q-3 12 8 19q73 27 123 108q-63 8 -106.5 58.5t-43.5 117.5z" />
    <glyph glyph-name="quotedblleft" unicode="&#x201c;" horiz-adv-x="870" 
d="M397 1139q0 -74 -51 -126t-123 -52t-123 52t-51 126v6q0 49 29 92q40 76 121 137t163 76q14 3 17 -10h2q3 -14 -10 -17q-73 -27 -123 -108q63 -9 106 -59.5t43 -116.5zM813 1139q0 -74 -51 -126t-123 -52t-123 51.5t-51 124.5v2v6v4q3 44 29 88q40 76 121 137t163 76
q14 3 17 -10t-9 -17q-72 -26 -122 -108q63 -9 106 -59t43 -117z" />
    <glyph glyph-name="quotedblright" unicode="&#x201d;" horiz-adv-x="872" 
d="M465 1274q0 74 51 126t123 52t123 -52t51 -126q0 -38 -25 -90q-22 -40 -62 -64t-87 -24h-25q32 53 33.5 100.5t-33.5 71.5l199 6q0 -48 -25 -90q-37 -79 -120 -143.5t-168 -79.5q-14 0 -17 12h-2q-3 9 11 16q70 23 122 107q-64 9 -106.5 59.5t-42.5 118.5zM49 1274
q0 74 51 126t123 52t123 -52t51 -126v-8q-3 -42 -24 -82q-22 -40 -62.5 -64t-87.5 -24h-24q32 54 34.5 100.5t-32.5 71.5l196 6v-8q-3 -45 -24 -82q-37 -79 -120 -143.5t-169 -79.5q-13 0 -16 12q-3 9 8 16q71 23 123 107q-63 9 -106.5 60t-43.5 118z" />
    <glyph glyph-name="quotedblbase" unicode="&#x201e;" horiz-adv-x="860" 
d="M49 147q0 74 51 126.5t123 52.5t123 -52.5t51 -126.5q0 -28 -8 -49q0 -6 -4 -14l-6 -16q-22 -45 -64 -72t-92 -27q-16 0 -24 2q32 52 34.5 98.5t-32.5 71.5l196 6q0 -21 -8 -49q0 -6 -4 -14l-6 -16q-35 -80 -121.5 -148.5t-173.5 -85.5q-13 -3 -16 10q-3 12 8 19
q73 27 123 108q-63 8 -106.5 58.5t-43.5 117.5zM451 147q0 73 50.5 126t121.5 53q72 0 123 -52.5t51 -126.5v-8q0 -1 -1 -3.5t-1 -4.5q0 -15 -7 -33q0 -6 -4 -14q-11 -26 -14 -31q-39 -77 -121 -140.5t-166 -78.5q-12 -4 -16 10q-3 12 10 19q70 26 121 108q-62 9 -104.5 59
t-42.5 117z" />
    <glyph glyph-name="bullet" unicode="&#x2022;" horiz-adv-x="598" 
d="M68 717q0 92 68 157.5t163 65.5q97 0 165 -65.5t68 -157.5t-68 -157.5t-165 -65.5q-95 0 -163 65.5t-68 157.5z" />
    <glyph glyph-name="perthousand" unicode="&#x2030;" horiz-adv-x="2242" 
d="M1583 1434h105l-1526 -1434h-105zM541 1399q-48 0 -83.5 -36t-51 -90t-15.5 -117t15.5 -117t51 -90t83.5 -36t83.5 36t51 90t15.5 117t-15.5 117t-51 90t-83.5 36zM541 868q-71 0 -131 19.5t-98.5 53t-65.5 76.5t-33 91t0 96t33 91t66 76.5t99 53t132 19.5
q71 0 131 -19.5t98.5 -53t65.5 -76.5t33 -91t0 -96t-33 -91t-66 -76.5t-99 -53t-132 -19.5zM1047 500q-48 0 -83.5 -36t-51 -90t-15.5 -117t15.5 -117t51 -90t83.5 -36t83.5 36t51.5 90t16 117t-15.5 117t-51.5 90t-84 36zM1047 -31q-71 0 -131 19.5t-98.5 53t-65.5 76.5
t-33 91t0 96t33 91t66 76.5t99 53t132 19.5q71 0 131 -19.5t98.5 -53t65.5 -76.5t33 -91t0 -96t-33 -91t-66 -76.5t-99 -53t-132 -19.5zM1819 500q-48 0 -83.5 -36t-51 -90t-15.5 -117t15.5 -117t51 -90t83.5 -36t83.5 36t51 90t15.5 117t-15.5 117t-51 90t-83.5 36z
M1819 -31q-80 0 -145 24.5t-105 65.5t-61.5 92.5t-21.5 105.5t21.5 105.5t61.5 92.5t105 65.5t145 24.5t145 -24.5t105 -65.5t61.5 -92.5t21.5 -105.5t-21.5 -105.5t-61.5 -92.5t-105 -65.5t-145 -24.5z" />
    <glyph glyph-name="Euro" unicode="&#x20ac;" horiz-adv-x="1314" 
d="M897 -14q-152 0 -278 51t-210 138.5t-135 197.5t-67 235h-156q-18 0 -18 17v28q0 17 18 17h152q-3 46 0 96h-152q-18 0 -18 16v27q0 7 5.5 12.5t12.5 5.5h158q17 124 68.5 232.5t135 194.5t208.5 136t276 50q209 0 287 -104q51 -69 24 -150q-24 -69 -88 -97
q-29 -12 -61 -12q-56 0 -84 42t-6 122q12 44 12.5 75.5t-20.5 48.5t-64 15q-68 -4 -124 -50.5t-92.5 -123.5t-59 -173t-29.5 -206h219q16 0 16 -18v-27q0 -16 -16 -16h-221v-96h221q16 0 16 -17v-28q0 -17 -16 -17h-217q12 -152 48.5 -274t103 -199t151.5 -72q39 2 62 16
t29 39.5t6.5 47.5t-3.5 56t-4 48q0 57 32.5 89t78.5 32q54 0 93.5 -40.5t39.5 -112.5q0 -98 -95.5 -175t-238.5 -77z" />
    <glyph glyph-name="trademark" unicode="&#x2122;" horiz-adv-x="929" 
d="M895 1096q10 -3 10 -13q0 -3 -3.5 -6.5t-6.5 -3.5h-111q-10 0 -10 10t10 13q12 1 19 11.5t7 20.5l1 11v250l-123 -261q0 -1 -1.5 -2t-3.5 -2t-3 -2l-10 6l-127 256v-245q-1 -41 26 -43q11 -4 11 -13q0 -10 -13 -10h-82q-12 0 -12 10t10 13q11 1 17.5 11.5t7.5 20.5v11
v237q0 41 -25 43q-7 3 -10 13q3 10 12 10h80q12 0 19 -10l114 -220l101 218q6 12 20 12h76q10 0 10 -10t-10 -13q-10 -1 -16 -11.5t-7 -21.5v-10v-237q-6 -39 23 -43zM47 1366q-4 -2 -10 -2h-2q-6 3 -6 10l39 58q10 10 20 10h295q13 0 20 -10l39 -58q0 -7 -6 -10h-2
q-6 0 -10 2q-16 14 -55.5 32.5t-73.5 18.5q-29 0 -29 -37v-241q0 -41 27 -43q7 -3 10 -13q-3 -10 -10 -10h-113q-12 0 -12 10t10 13q12 1 19 11.5t7 20.5l1 11v241q0 37 -29 37q-35 0 -73.5 -18.5t-55.5 -32.5z" />
    <glyph glyph-name="A.ss01" unicode="&#xe000;" horiz-adv-x="1597" 
d="M602 1296l-20 35q-43 49 -119 49q-73 0 -125 -54q-41 -42 -28 -73q11 -26 57 -26q80 0 113 -71.5t-8.5 -142.5t-143.5 -71q-69 0 -119.5 45.5t-50.5 130.5q0 56 21 111.5t61.5 104.5t109 79.5t152.5 30.5h20h8h277q52 0 91.5 -23.5t53.5 -62.5l359 -991
q103 -258 245 -301q39 -9 39 -35q0 -14 -10.5 -22.5t-28.5 -8.5h-659q-17 0 -28 8.5t-11 22.5q0 21 37 39q29 15 48 44.5t25.5 80t-12.5 116.5l-38 109l-527 2l-29 -90q-12 -45 -2.5 -85t38 -75.5t59.5 -60.5t61 -39q37 -18 37 -41q0 -14 -11 -22.5t-28 -8.5h-475
q-17 0 -28 8.5t-11 22.5q0 27 39 41q67 27 141.5 103t102.5 159zM643 1190l-231 -707l483 -2z" />
    <glyph glyph-name="B.ss01" unicode="&#xe001;" horiz-adv-x="1400" 
d="M10 31q0 22 39 39q45 21 75 93t30 204v727l-7 73l-4 27q-1 12 -12 55q-19 55 -50.5 88t-64.5 33q-73 0 -125 -50q-41 -39 -28 -69q11 -24 57 -24q80 0 113 -71.5t-8.5 -142.5t-143.5 -71q-69 0 -119.5 45.5t-50.5 130.5q0 56 21 110t61.5 101t108.5 76t153 29h549
q259 0 396 -70t137 -178q0 -83 -83.5 -167t-242.5 -149q225 -17 370.5 -134.5t145.5 -274.5q0 -64 -25.5 -127.5t-84 -124t-144 -107t-215.5 -74.5t-287 -28h-520q-19 0 -30 8.5t-11 22.5zM573 797l-49 -11v-725h49q185 0 283 140q80 115 72 271q-8 150 -95 245
q-101 109 -260 80zM524 850q76 18 131.5 63.5t81.5 101.5t26.5 117.5t-24 112.5t-81 86t-134.5 39v-520z" />
    <glyph glyph-name="D.ss01" unicode="&#xe002;" horiz-adv-x="1441" 
d="M10 31q0 22 39 39q45 21 75 93t30 204v700q0 49 -7 100l-4 27q-1 12 -12 55q-19 55 -50.5 88t-64.5 33q-73 0 -125 -50q-41 -39 -28 -69q11 -24 57 -24q80 0 113 -71.5t-8.5 -142.5t-143.5 -71q-69 0 -119.5 45.5t-50.5 130.5q0 43 12.5 86.5t39.5 84t65 72t93.5 51.5
t121.5 22h8h4h533q150 0 278 -40t218 -109t153.5 -161t94 -195t30.5 -212t-30.5 -212t-94 -195t-154 -161t-218.5 -109t-279 -40h-535q-19 0 -30 8.5t-11 22.5zM588 1372h-64v-1311h64q95 0 172.5 56.5t125 148.5t73.5 210t26 240.5t-26 240.5t-73.5 210t-125 148.5
t-172.5 56.5z" />
    <glyph glyph-name="E.ss01" unicode="&#xe003;" horiz-adv-x="1169" 
d="M1169 395l-67 -366q-6 -29 -41 -29h-1010q-19 0 -30 8.5t-11 22.5q0 22 39 39q45 21 75 93t30 204v700q0 109 -23 180q-19 55 -51 89t-64 34q-73 0 -125 -50q-41 -39 -28 -69q11 -24 57 -24q80 0 113 -71.5t-8.5 -142.5t-143.5 -71q-69 0 -119.5 46t-50.5 130
q0 55 21 108.5t61 100.5t107 76.5t151 30.5h959q15 0 26.5 -8t12.5 -21l45 -324q3 -21 -27 -28q-30 -3 -37 20q-9 27 -28.5 61t-54 75t-75.5 74.5t-99 56t-120 22.5h-129v-608h111q51 0 95 11.5t81 35.5t60.5 67t27.5 101q0 9 9 15.5t22 6.5q14 0 23 -6.5t8 -15.5
q-12 -251 0 -500q1 -10 -8 -17.5t-23 -7.5q-13 0 -22 7t-9 18q-4 57 -27.5 99.5t-60.5 66.5t-81 35.5t-95 11.5h-111v-610h131q66 0 130 22.5t113.5 57.5t92.5 79.5t71 87.5t44 82q3 9 14 14.5t23 4.5q13 0 20.5 -7t5.5 -18z" />
    <glyph glyph-name="F.ss01" unicode="&#xe004;" horiz-adv-x="1128" 
d="M10 31q0 22 39 39q42 20 71.5 85t33.5 183v756l-7 73l-4 27q-1 12 -12 55q-19 55 -50.5 88t-64.5 33q-73 0 -125 -50q-41 -39 -28 -69q11 -24 57 -24q80 0 113 -71.5t-8.5 -142.5t-143.5 -71q-69 0 -119.5 45.5t-50.5 130.5q0 56 21 110t61.5 101t108.5 76t153 29h979
q15 0 26.5 -8t12.5 -21l45 -324q1 -10 -6.5 -18t-19.5 -10q-30 -7 -37 16q-12 36 -41.5 81.5t-75.5 95t-115.5 83t-144.5 33.5h-154v-668h107q103 3 171 55t75 158q4 25 30 25q14 0 23 -7.5t8 -17.5q-15 -298 0 -499q1 -9 -8 -16t-21 -7h-2q-27 0 -30 23q-7 107 -75 158.5
t-171 56.5h-107v-285q3 -118 32.5 -183t72.5 -85q39 -17 39 -39q0 -14 -11 -22.5t-30 -8.5h-576q-19 0 -30 8.5t-11 22.5z" />
    <glyph glyph-name="G.ss01" unicode="&#xe005;" horiz-adv-x="1509" 
d="M1458 756q19 0 30 -8.5t11 -22.5q0 -25 -39 -39q-45 -21 -74.5 -93t-29.5 -204v-268q0 -127 -34 -229t-90 -166.5t-133 -107.5t-156.5 -61t-166.5 -18q-280 0 -403 110q-75 68 -62 147q11 69 80 101q39 19 88 19q57 0 117.5 -53.5t60.5 -141.5q0 -46 29 -80t96 -34
q57 0 100 23.5t69 60.5t42.5 92.5t23 108.5t9.5 120q-92 -30 -166 -30q-151 0 -279 41t-218.5 111.5t-154 164t-94 199t-30.5 217.5t30.5 217.5t94.5 199t154 164t219 111.5t280 41q204 0 333.5 -113.5t129.5 -269.5q0 -86 -51 -145.5t-150 -59.5q-72 0 -113.5 43t-41.5 111
q0 31 5.5 72t11 73t9 67t-0.5 60.5t-17 46.5t-42.5 32t-74.5 11q-88 0 -162 -50.5t-122 -134.5t-74.5 -190.5t-26.5 -220.5q0 -97 19 -188t60 -174t101 -144.5t148 -98t194 -36.5h31v250q0 132 -29.5 204t-74.5 93q-39 14 -39 39q0 14 11 22.5t28 8.5h534z" />
    <glyph glyph-name="H.ss01" unicode="&#xe006;" horiz-adv-x="1527" 
d="M10 31q0 22 39 39q42 20 71.5 85t33.5 183v729q0 49 -7 100l-4 27q-1 12 -12 55q-19 55 -50.5 88t-64.5 33q-73 0 -125 -50q-41 -39 -28 -69q11 -24 57 -24q80 0 113 -71.5t-8.5 -142.5t-143.5 -71q-69 0 -119.5 45.5t-50.5 130.5q0 43 12.5 86.5t39.5 84t65 72
t93.5 51.5t121.5 22h8h4h572q19 0 30 -8.5t11 -22.5q0 -22 -39 -39q-45 -21 -75 -93t-30 -204v-313h480v313q0 132 -30 204t-75 93q-39 17 -39 39q0 14 11 22.5t28 8.5h578q19 0 30 -8.5t11 -22.5q0 -22 -39 -39q-100 -49 -105 -270v-727q0 -132 30 -204t75 -93
q39 -17 39 -39q0 -14 -11 -22.5t-30 -8.5h-578q-17 0 -28 8.5t-11 22.5q0 22 39 39q45 21 75 93t30 204v315h-480v-315q0 -132 30 -204t75 -93q39 -17 39 -39q0 -14 -11 -22.5t-30 -8.5h-576q-19 0 -30 8.5t-11 22.5z" />
    <glyph glyph-name="I.ss01" unicode="&#xe007;" horiz-adv-x="679" 
d="M10 31q0 22 39 39q42 20 71.5 85t33.5 183v756l-7 73l-4 27q-1 12 -12 55q-19 55 -50.5 88t-64.5 33q-73 0 -125 -50q-41 -39 -28 -69q11 -24 57 -24q80 0 113 -71.5t-8.5 -142.5t-143.5 -71q-69 0 -119.5 45.5t-50.5 130.5q0 43 12.5 86.5t39.5 84t65 72t93.5 51.5
t121.5 22h8h576q19 0 30 -8.5t11 -22.5q0 -22 -39 -39q-45 -21 -75 -93t-30 -204v-700q0 -132 30 -204t75 -93q39 -17 39 -39q0 -14 -11 -22.5t-30 -8.5h-576q-19 0 -30 8.5t-11 22.5z" />
    <glyph glyph-name="J.ss01" unicode="&#xe008;" horiz-adv-x="1130" 
d="M424 45q71 0 109 32.5t55.5 112.5t17.5 230v674l-6 73l-4 27q-1 5 -12 51q-19 56 -51 90.5t-66 34.5q-74 0 -125 -51q-40 -40 -26 -69q12 -23 55 -23q75 0 110 -66q32 -61 6 -127q-31 -75 -120 -89l-35 -3q-69 0 -118.5 45.5t-49.5 130.5q0 54 20.5 107.5t59.5 100
t104 76.5t146 32h8h6h571q19 0 30 -8.5t11 -22.5q0 -22 -39 -39q-45 -21 -74.5 -93t-29.5 -204v-653q0 -76 -20.5 -140t-54.5 -109t-81 -80t-96.5 -56.5t-105 -35.5t-102.5 -19t-93 -5q-198 0 -303 122q-76 89 -71 201q6 104 79 159q50 36 119 36q64 0 102 -35t42.5 -80
t-18 -87.5t-67.5 -55.5q-27 -8 -28.5 -53t36.5 -88t109 -43z" />
    <glyph glyph-name="K.ss01" unicode="&#xe009;" horiz-adv-x="1443" 
d="M10 31q0 22 39 39q45 21 75 93t30 204v700q0 49 -7 100l-4 27q-1 12 -12 55q-19 55 -50.5 88t-64.5 33q-73 0 -125 -50q-41 -39 -28 -69q11 -24 57 -24q80 0 113 -71.5t-8.5 -142.5t-143.5 -71q-69 0 -119.5 45.5t-50.5 130.5q0 43 12.5 86.5t39.5 84t65 72t93.5 51.5
t121.5 22h8h576q19 0 30 -8.5t11 -22.5q0 -22 -39 -39q-100 -49 -105 -270v-349l355 367q46 47 39 98t-38.5 91t-70.5 59q-37 21 -37 43q0 14 11 22.5t30 8.5h483q18 0 28.5 -8.5t10.5 -22.5q0 -25 -37 -43q-65 -29 -182.5 -118.5t-157.5 -131.5l-280 -289q106 22 189 3
t139.5 -62t101 -108.5t73 -136t55.5 -145t49 -136t53 -107.5t67 -61q39 -14 39 -37q0 -14 -11 -22.5t-30 -8.5h-313q-98 0 -167 46t-81 120q-9 56 -16 96.5t-20 99t-27 100.5t-35 89.5t-45 78.5t-56.5 53.5t-69.5 27.5l-49 -52v-321q3 -118 32.5 -183t72.5 -85
q39 -17 39 -39q0 -14 -11 -22.5t-30 -8.5h-576q-19 0 -30 8.5t-11 22.5z" />
    <glyph glyph-name="L.ss01" unicode="&#xe00a;" horiz-adv-x="1153" 
d="M1151 483l-51 -454q-2 -12 -13 -20.5t-26 -8.5h-1010q-19 0 -30 8.5t-11 22.5q0 22 39 39q45 21 75 93t30 204v700q0 109 -23 180q-19 55 -51 89t-64 34q-73 0 -125 -50q-41 -39 -28 -69q11 -24 57 -24q80 0 113 -71.5t-8.5 -142.5t-143.5 -71q-69 0 -119.5 46t-50.5 130
q0 55 21 108.5t61 100.5t107 76.5t151 30.5h578q17 0 28 -8.5t11 -22.5q0 -22 -39 -39q-105 -50 -105 -297v-995h131q66 0 130 30.5t112.5 77.5t89.5 105t66.5 111t38.5 98q6 19 34 16q28 -4 25 -27z" />
    <glyph glyph-name="M.ss01" unicode="&#xe00b;" horiz-adv-x="1867" 
d="M860 117h-2q-37 0 -47 26l-489 1063l-50 -807q-7 -112 52 -205t125 -122q39 -19 36 -41q0 -14 -10.5 -22.5t-28.5 -8.5h-399q-19 0 -30 8.5t-11 22.5q0 27 39 39q62 27 105.5 117.5t50.5 213.5l39 666q0 43 -6 85t-20 86.5t-43 78t-69 47.5q-6 0 -10 4q-3 0 -8.5 1
t-7.5 1q-74 0 -125 -51q-40 -40 -26 -69q12 -23 55 -23q75 0 109 -66q32 -61 6 -127q-31 -75 -119 -89q-17 -3 -35 -3q-69 0 -118.5 46t-49.5 130q0 136 97.5 226t233.5 90h463q15 0 29 -7.5t18 -19.5l361 -825l282 852h484q24 0 38.5 -8.5t14.5 -22.5q0 -22 -51 -39
q-114 -43 -101 -279l54 -780q9 -61 23 -105t33 -69t34.5 -38t36.5 -23q39 -17 39 -39q0 -14 -11 -22.5t-30 -8.5h-576q-24 0 -35 12t-2.5 29t35.5 29q81 42 84 227l-59 946l-363 -1100q-7 -26 -45 -26z" />
    <glyph glyph-name="N.ss01" unicode="&#xe00c;" horiz-adv-x="1533" 
d="M1335 1032v-1005q0 -12 -10 -19.5t-25 -7.5q-39 0 -55 23l-973 1130v-754q0 -113 56.5 -206t120.5 -121q39 -19 36 -41q0 -14 -10.5 -22.5t-28.5 -8.5h-399q-19 0 -30 8.5t-11 22.5q0 27 39 39q64 27 110 119t46 212v666q0 44 -6 86t-20 86t-43 77.5t-69 47.5q-1 0 -3 1
t-3 1q-20 4 -24 4q-73 0 -124 -50q-40 -39 -26 -69q11 -24 56 -24q75 0 109 -66q32 -61 6 -127q-31 -75 -119 -89q-17 -3 -35 -3q-69 0 -118.5 46t-49.5 130q0 136 98 226t236 90h438l760 -861v461q0 113 -56.5 205.5t-120.5 122.5q-36 14 -36 41q0 14 11 22.5t28 8.5h397
q19 0 30 -8.5t11 -22.5q0 -25 -39 -41q-64 -26 -109 -118.5t-45 -211.5z" />
    <glyph glyph-name="P.ss01" unicode="&#xe00d;" horiz-adv-x="1308" 
d="M10 31q0 22 39 39q42 20 71.5 85t33.5 183v756l-7 73l-4 27q-1 12 -12 55q-19 55 -50.5 88t-64.5 33q-73 0 -125 -50q-41 -39 -28 -69q11 -24 57 -24q80 0 113 -71.5t-8.5 -142.5t-143.5 -71q-69 0 -119.5 45.5t-50.5 130.5q0 56 21 110t61.5 101t108.5 76t153 29h592
q149 0 259.5 -20t174.5 -51t102.5 -77t51 -90.5t12.5 -99.5q0 -108 -108.5 -221t-272.5 -197t-342 -127v-184q0 -132 30 -204t75 -93q39 -17 39 -39q0 -14 -11 -22.5t-30 -8.5h-576q-19 0 -30 8.5t-11 22.5zM571 1362h-47v-733q141 62 233.5 184t92.5 250q0 129 -73.5 214
t-205.5 85z" />
    <glyph glyph-name="Q.ss01" unicode="&#xe00e;" horiz-adv-x="1611" 
d="M332 -123q118 90 241 129q-157 47 -269.5 160t-165 254.5t-52.5 298.5q0 113 28.5 220.5t87.5 203t143 167t203 113t259 41.5q139 0 258 -41.5t202.5 -113t142.5 -167t87.5 -203t28.5 -220.5q0 -120 -32.5 -233t-94.5 -209.5t-161 -169t-224 -105.5q94 -28 203.5 -80
t201.5 -103.5t185 -100t185 -79t171 -30.5q65 0 94 34.5t29 80.5q0 60 32 106t72 66t76 20q97 0 144 -64q44 -62 12 -135q-43 -96 -191 -143q-111 -35 -264 -35q-188 0 -358.5 28t-291.5 69t-231.5 89t-199.5 88t-174.5 65.5t-176.5 21.5t-186 -43q-7 -3 -12.5 0.5t-6 9.5
t4.5 10zM807 47q95 0 169.5 74t113 192.5t56.5 262t0 287t-56.5 262t-113.5 192.5t-171 74q-95 0 -169.5 -74t-113 -192.5t-56.5 -262t0 -287t56.5 -262t113.5 -192.5t171 -74z" />
    <glyph glyph-name="R.ss01" unicode="&#xe00f;" horiz-adv-x="1398" 
d="M1360 0h-316q-98 0 -166.5 46t-82.5 120q-8 49 -15.5 87.5t-20.5 89t-26.5 88.5t-34 78t-44 67t-55 46t-67.5 23q-4 0 -8 -2v-297q5 -227 105 -276q39 -17 39 -39q0 -14 -11 -22.5t-28 -8.5h-578q-19 0 -30 8.5t-11 22.5q0 22 39 39q45 21 75 93t30 204v700
q0 109 -23 180q-19 55 -51 89t-64 34q-73 0 -125 -50q-41 -39 -28 -69q11 -24 57 -24q80 0 113 -71.5t-8.5 -142.5t-143.5 -71q-69 0 -119.5 46t-50.5 130q0 55 21 108.5t61 100.5t107 76.5t151 30.5h596q149 0 259.5 -20t174.5 -51t102.5 -77t51 -90.5t12.5 -99.5
q0 -64 -39.5 -124t-110 -110t-158 -90.5t-191.5 -73.5q95 2 170 -27.5t122 -80.5t83.5 -113.5t63 -128.5t50 -123t54.5 -100.5t69 -56.5q39 -14 39 -37q0 -14 -11 -22.5t-28 -8.5zM571 1362h-47v-645q148 49 237 136.5t89 209.5q0 129 -73.5 214t-205.5 85z" />
    <glyph glyph-name="U.ss01" unicode="&#xe010;" horiz-adv-x="1370" 
d="M154 356v738l-7 73l-4 27q-1 12 -12 55q-19 55 -50.5 88t-64.5 33q-73 0 -125 -50q-41 -39 -28 -69q11 -24 57 -24q80 0 113 -71.5t-8.5 -142.5t-143.5 -71q-69 0 -119.5 45.5t-50.5 130.5q0 55 21.5 109t61.5 101t107 76t150 30h576q19 0 30 -8.5t11 -22.5
q0 -22 -39 -39q-45 -21 -75 -93t-30 -204v-711q0 -86 31.5 -150.5t82.5 -94.5t112 -41.5t122 7.5t112 53.5t82.5 97t31.5 137.5v669q0 113 -56 205.5t-120 122.5q-39 14 -39 41q0 14 11 22.5t30 8.5h399q18 0 28.5 -8.5t10.5 -22.5q0 -26 -37 -41q-65 -26 -110.5 -118
t-45.5 -212v-667q0 -115 -56 -202t-145.5 -130t-197.5 -61t-216.5 5t-198 67.5t-145.5 127t-56 184.5z" />
    <glyph glyph-name="V.ss01" unicode="&#xe011;" horiz-adv-x="1437" 
d="M264 1116l-14 37q-99 215 -211 215q-70 0 -104 -50q-27 -40 -8 -70q14 -20 46 -21q75 0 110 -66q32 -61 6 -127q-31 -75 -120 -89q-17 -3 -35 -3q-81 0 -125.5 54t-44.5 134q0 54 21 106.5t60.5 97.5t105 72.5t145.5 27.5h602q18 0 28.5 -8.5t10.5 -22.5q0 -23 -37 -39
q-32 -17 -53 -50.5t-27.5 -90.5t19.5 -131l10 -25l230 -569l198 604q17 54 -8 110.5t-65 93t-82 56.5q-39 14 -39 41q0 14 11 22.5t30 8.5h473q18 0 28.5 -8.5t10.5 -22.5q3 -25 -37 -41q-68 -27 -142 -103t-102 -159l-369 -1110h-67l-434 1077l-4 12z" />
    <glyph glyph-name="W.ss01" unicode="&#xe012;" horiz-adv-x="2088" 
d="M1571 1362q-37 15 -37 41q0 14 11 22.5t28 8.5h475q17 0 28 -8.5t11 -22.5q0 -26 -37 -41q-69 -27 -144.5 -102.5t-101.5 -159.5l-334 -1071l-10 -39h-65l-359 1077l-4 10l-340 -1087h-63l-365 1091q-45 109 -69 150q-71 111 -156 135q-4 0 -6 2h-10q-70 0 -104 -50
q-27 -40 -7 -70q15 -21 47 -21q75 0 109 -66q32 -61 6 -127q-31 -75 -119 -89q-17 -3 -35 -3q-81 0 -125.5 54t-44.5 134q0 65 28 126t90 109t148 62q11 7 23 7h27h16h602h6h8q18 0 28.5 -8.5t10.5 -22.5q0 -23 -37 -39q-140 -71 -63 -297h-2l164 -487l162 522q12 45 2 85
t-38 75.5t-59 60.5t-61 39q-39 16 -39 41q0 16 14 24q10 7 27 7h659q17 0 28 -8.5t11 -22.5q0 -21 -37 -39q-131 -69 -71 -272l8 -25l162 -485l159 520q17 54 -8 110.5t-65 93t-82 56.5z" />
    <glyph glyph-name="X.ss01" unicode="&#xe013;" horiz-adv-x="1505" 
d="M905 1362q-37 15 -37 41q0 14 11 22.5t28 8.5h473q19 0 30 -8.5t11 -22.5q0 -25 -39 -41q-66 -26 -174 -109t-161 -153l-166 -221l325 -566q45 -78 97.5 -134t90 -79t72.5 -34q39 -9 39 -35q0 -14 -11 -22.5t-28 -8.5h-659q-18 0 -28.5 8.5t-10.5 22.5q0 23 37 39
q29 15 43 49t5 89.5t-46 119.5l-148 258l-192 -256q-26 -35 -33 -76.5t3.5 -76.5t32.5 -63.5t50 -41.5q37 -15 37 -41q0 -14 -10.5 -22.5t-28.5 -8.5h-477q-19 0 -30 8.5t-11 22.5q0 25 39 41q66 27 175 109t163 153l244 319l-232 404q-114 180 -205 258q-42 34 -88 49
q-16 4 -22 4q-70 0 -104 -50q-27 -40 -7 -70q15 -21 47 -21q75 0 109 -66q32 -61 6 -127q-31 -75 -119 -89q-17 -3 -35 -3q-81 0 -125.5 54t-44.5 134q0 103 70.5 190.5t198.5 106.5q11 7 22 7h25h16h619q17 0 28 -8.5t11 -22.5q0 -21 -37 -39q-47 -24 -52 -89.5t48 -168.5
l92 -162l121 158q50 76 26.5 153.5t-84.5 106.5z" />
    <glyph glyph-name="Y.ss01" unicode="&#xe014;" horiz-adv-x="1480" 
d="M416 31q0 22 39 39q38 17 66.5 73.5t35.5 155.5v279l-256 489q-113 217 -217 279q-32 14 -59 14q-70 0 -102 -48q-25 -37 -4 -65q16 -20 48 -20q75 0 109 -66q32 -61 6 -127q-31 -75 -119 -89q-17 -3 -35 -3q-81 0 -125.5 54t-44.5 134q0 99 66.5 185.5t187.5 109.5
q9 9 27 9h659q18 0 28.5 -8.5t10.5 -22.5q0 -23 -37 -39q-25 -13 -43 -37.5t-27.5 -60.5t1 -88.5t43.5 -110.5l215 -391l192 426q26 56 5.5 110t-57 92.5t-77.5 57.5q-37 15 -37 41q0 14 11 22.5t28 8.5h486q17 0 28 -8.5t11 -22.5q0 -26 -37 -41q-70 -27 -157.5 -105
t-123.5 -157l-231 -512v-250q3 -118 32 -183.5t72 -84.5q39 -17 39 -39q0 -14 -11 -22.5t-28 -8.5h-577q-19 0 -30 8.5t-11 22.5z" />
    <glyph glyph-name="a.ss01" unicode="&#xe015;" horiz-adv-x="1206" 
d="M711 162l-2 18q-33 -73 -96 -123.5t-135 -71t-148 -16t-137.5 33.5t-100.5 88t-39 138q0 71 34.5 125t88.5 87t120 59t130.5 47.5t117 45t82.5 60t25 84.5q-3 24 -8.5 48.5t-20.5 59.5t-35 61t-55 44.5t-79 18.5q-48 0 -67 -15t-14 -42.5t17.5 -57t26.5 -68t14 -65.5
q0 -76 -74 -114.5t-147.5 -4t-73.5 134.5q0 114 99 205.5t243 91.5q493 0 539 -393l41 -344l18 -154q7 -61 19 -118.5t31.5 -120t47.5 -114t64 -93t85.5 -65t107.5 -23.5q65 0 93.5 33.5t28.5 78.5q0 61 33 107.5t73 67t75 20.5q97 0 144 -64q45 -62 12 -136
q-43 -95 -192 -142q-110 -35 -261 -35q-86 0 -177 22t-184 71.5t-168.5 120t-129 177t-66.5 232.5zM434 229q0 -65 56 -82q57 -17 119 26q67 47 87 132l-30 293q-19 -39 -51 -75t-61.5 -63t-57.5 -58t-45 -74.5t-17 -98.5z" />
    <glyph glyph-name="f.ss01" unicode="&#xe016;" horiz-adv-x="770" 
d="M539 1407q-50 0 -89 -22.5t-59 -58t-23.5 -79.5t10 -86t48.5 -79.5t86 -57.5h272q21 0 21 -20v-27q0 -9 -6 -15t-15 -6h-272v-835q0 -127 -37.5 -229t-97.5 -166.5t-141.5 -108t-164 -61t-169.5 -17.5q-280 0 -403 110q-75 68 -62 147q11 69 80 101q39 19 88 19
q57 0 117.5 -53.5t60.5 -141.5q0 -46 29 -80t96 -34q39 0 71.5 11.5t56 28.5t42.5 48t31 58t20.5 70.5t13 75t7 82t3.5 79t1 79.5v817h-123q-9 0 -15 6t-6 15v27q0 20 21 20h221q-84 22 -134 71.5t-50 114.5q0 51 23.5 96t71.5 83.5t131 61t191 22.5q96 0 169.5 -20t115 -53
t62 -70t20.5 -77q0 -98 -79 -132q-64 -27 -131 0q-62 25 -68 77q-1 5 -1 10q0 23 10 54.5t18 55t10 45t-15 33t-57 11.5z" />
    <glyph glyph-name="g.ss01" unicode="&#xe017;" horiz-adv-x="1216" 
d="M602 98q-171 0 -299 72q-43 -6 -70.5 -29t-27.5 -47q0 -12 11.5 -20.5t36 -13t52 -6.5t70.5 -2t80 0.5t91.5 1.5t94.5 1q75 0 135.5 -3.5t128.5 -12.5t118 -27.5t92.5 -46t64.5 -70.5t22 -98q0 -91 -54.5 -173.5t-141 -138.5t-195 -89t-215.5 -33q-124 0 -242 22.5
t-210 58t-176 78.5t-151.5 86t-124 78.5t-105 58t-83.5 22.5q-59 0 -72 -37q-11 -32 23 -59q29 -23 78 -23q84 0 117.5 -67t-8 -134.5t-140.5 -67.5q-83 0 -138 80q-56 80 -42 179q16 118 127 177q84 44 211 44q114 0 282.5 -41.5t313.5 -91t310.5 -91t273.5 -41.5
q79 0 127.5 27.5t48.5 85.5q0 44 -53 66t-138 26.5t-188 4.5t-205.5 6t-187.5 23t-138 63t-53 120q0 82 57.5 128.5t139.5 60.5q-78 61 -122.5 147.5t-52 177.5t23.5 182t94 162t170 115.5t241 44.5q178 0 309 -78q37 26 37 62q0 24 -13.5 39.5t-33 24.5t-39.5 19t-33.5 29
t-13.5 48q0 65 48 102t114 37q67 0 116.5 -39.5t49.5 -108.5q0 -65 -54 -135t-133 -108q77 -61 121.5 -147.5t51.5 -177.5t-24 -182t-94 -161.5t-170 -115t-241 -44.5zM604 166q52 0 92.5 44t61.5 115t31 156t0 170.5t-31 156.5t-61.5 115t-92.5 44q-46 0 -83 -34.5
t-60 -90.5t-35.5 -128t-12.5 -147.5t12.5 -147.5t35.5 -128t60 -90.5t83 -34.5z" />
    <glyph glyph-name="h.ss01" unicode="&#xe018;" horiz-adv-x="1372" 
d="M891 197l-64 376q-30 175 -51 229q-36 95 -110 95q-64 0 -107.5 -54.5t-44.5 -146.5v-329q0 -132 29.5 -204t74.5 -93q39 -17 39 -39q0 -14 -11 -22.5t-28 -8.5h-567q-19 0 -30 8.5t-11 22.5q0 22 39 39q45 21 75 93t30 204v782q0 37 -1 56t-11 49.5t-31 41.5
q-29 14 -29 37q0 13 8.5 22t20.5 11q97 4 194 36.5t150 70.5q24 12 37 12q22 0 22 -21v-612q34 80 110 132t177 52q91 0 152.5 -19.5t104 -67t67.5 -115.5t44 -175l95 -516q12 -65 25 -118.5t34 -119t49 -115t64 -92.5t85 -66t107 -23q65 0 94 33.5t29 78.5q0 89 60 142
t120 53q97 0 144 -64q44 -62 12 -135q-43 -96 -191 -143q-111 -35 -264 -35q-88 0 -174.5 18.5t-180 66t-168.5 120t-134.5 189.5t-83.5 264z" />
    <glyph glyph-name="i.ss01" unicode="&#xe019;" 
d="M82 911q0 14 8 22.5t21 8.5q97 6 194.5 39t149.5 70q24 12 37 12q20 0 20 -21v-903q2 -218 23 -316q53 -213 221 -216q67 0 96 34t29 80q0 88 60.5 141.5t117.5 53.5q98 0 145 -64q44 -62 11 -135q-42 -96 -191 -143q-110 -35 -262 -35q-87 0 -169.5 18t-163.5 61.5
t-141 108t-97 166.5t-37 228v645q-4 87 -43 108q-29 14 -29 37zM291 1098q-96 0 -153.5 54.5t-43.5 131.5q13 77 91.5 131.5t174.5 54.5t153 -54t42 -132q-14 -77 -91.5 -131.5t-172.5 -54.5z" />
    <glyph glyph-name="j.ss01" unicode="&#xe01a;" horiz-adv-x="620" 
d="M518 121q0 -127 -37.5 -229t-97.5 -166.5t-141 -108t-163 -61t-169 -17.5q-281 0 -404 110q-75 68 -62 149q12 68 81 100q38 18 86 18q25 0 55 -13t58.5 -36t47.5 -61.5t19 -84.5t29 -80t94 -34q49 0 87.5 18t64 45t43.5 72.5t27.5 86t14.5 100.5t6 100.5t1 101.5v635
q-4 87 -43 108q-31 16 -31 37q0 13 9 22t22 9q97 6 194.5 39t149.5 70q20 12 37 12q9 0 15.5 -6t6.5 -15v-921zM291 1098q-96 0 -153.5 54.5t-43.5 131.5q13 77 91.5 131.5t174.5 54.5t153 -54t42 -132q-14 -77 -91.5 -131.5t-172.5 -54.5z" />
    <glyph glyph-name="k.ss01" unicode="&#xe01b;" horiz-adv-x="1390" 
d="M690 967q-37 18 -37 41q0 14 11 22t30 8h484q38 0 41 -30q0 -25 -39 -41q-74 -35 -171 -106t-169 -146l-72 -74q85 12 156 -15.5t122 -84.5t94 -134t77.5 -165t67.5 -177.5t69 -171.5t76 -145t95.5 -101t121.5 -38q65 0 93.5 33.5t28.5 78.5q0 61 33 107.5t73 67t75 20.5
q97 0 144 -64q45 -62 12 -136q-43 -95 -192 -142q-110 -35 -261 -35q-119 0 -222.5 29t-179.5 79t-141 115t-113 140t-88.5 150.5t-74 149t-63.5 133.5t-63 107t-67 66l-129 -133v-8q0 -132 29.5 -204t74.5 -93q39 -17 39 -39q0 -14 -11 -22.5t-30 -8.5h-563q-19 0 -30 8.5
t-11 22.5q0 22 39 39q45 21 75 93t30 204v819q-4 89 -43 110q-29 14 -29 37q0 14 8 22.5t21 8.5q97 6 194 38t150 68q19 13 37 13q20 0 20 -21v-991l238 246q46 47 41.5 98t-33.5 91.5t-68 60.5z" />
    <glyph glyph-name="l.ss01" unicode="&#xe01c;" 
d="M512 139q2 -218 23 -316q53 -213 221 -216q67 0 96 34t29 80q0 88 60.5 141.5t117.5 53.5q98 0 145 -64q44 -62 11 -135q-42 -96 -191 -143q-110 -35 -262 -35q-87 0 -169.5 18t-163.5 61.5t-141 108t-97 166.5t-37 228v1065q-4 90 -43 110q-29 14 -29 37q0 14 8 22.5
t21 8.5q97 6 194.5 39t149.5 70q24 12 37 12q20 0 20 -21v-1325z" />
    <glyph glyph-name="m.ss01" unicode="&#xe01d;" horiz-adv-x="1998" 
d="M82 911q0 30 29 33q96 4 193 37t151 70q18 12 37 12q9 0 15.5 -6t6.5 -15v-147q33 64 94.5 101.5t149.5 37.5q148 0 224 -56t116 -190q30 99 121 172.5t208 73.5q91 0 152.5 -19.5t104.5 -66t68 -114.5t44 -175l94 -516q14 -79 30.5 -143.5t46.5 -140.5t67.5 -128
t94.5 -87t126 -35q65 0 94 33.5t29 78.5q0 89 60 142t120 53q97 0 144 -64q44 -62 12 -135q-43 -96 -191 -143q-111 -35 -264 -35q-88 0 -174.5 18.5t-180 66t-168.5 120t-134.5 189.5t-83.5 264l-64 376q-30 175 -52 231q-38 92 -110 93q-63 0 -114 -66t-52 -159
q0 -9 2 -13l52 -292q27 -156 47 -217.5t57 -79.5q39 -17 39 -39q0 -14 -11 -22.5t-30 -8.5h-565q-17 0 -28 8.5t-11 22.5q0 22 39 39q48 23 81.5 82.5t20.5 160.5l-35 260q-10 79 -20 129.5t-28 99t-46 72t-67 23.5q-90 0 -109 -125v-434q3 -118 32 -183.5t72 -84.5
q39 -17 39 -39q0 -14 -11 -22.5t-28 -8.5h-567q-19 0 -30 8.5t-11 22.5q0 22 39 39q45 21 75 93t30 204v399q-4 87 -43 108q-29 14 -29 37z" />
    <glyph glyph-name="n.ss01" unicode="&#xe01e;" horiz-adv-x="1372" 
d="M891 197l-64 376q-30 175 -51 229q-36 95 -110 95q-64 0 -107.5 -54.5t-44.5 -146.5v-329q0 -132 29.5 -204t74.5 -93q39 -17 39 -39q0 -14 -11 -22.5t-28 -8.5h-567q-19 0 -30 8.5t-11 22.5q0 22 39 39q45 21 75 93t30 204v360q0 37 -1 56t-11 49.5t-31 41.5
q-29 14 -29 37v2q0 12 8.5 20.5t20.5 10.5q96 4 193 37t151 70q18 12 37 12q22 0 22 -21v-190q34 80 110 132t177 52q91 0 152.5 -19.5t104 -67t67.5 -115.5t44 -175l95 -516q12 -65 25 -118.5t34 -119t49 -115t64 -92.5t85 -66t107 -23q65 0 94 33.5t29 78.5q0 89 60 142
t120 53q97 0 144 -64q44 -62 12 -135q-43 -96 -191 -143q-111 -35 -264 -35q-88 0 -174.5 18.5t-180 66t-168.5 120t-134.5 189.5t-83.5 264z" />
    <glyph glyph-name="p.ss01" unicode="&#xe01f;" horiz-adv-x="1302" 
d="M82 911q0 13 9 22t22 9q163 10 309 109q20 12 37 12t20 -21l17 -112q75 104 180 104q137 0 245.5 -42t174 -113.5t99.5 -159t34 -184.5q0 -81 -22.5 -159.5t-69 -148t-111.5 -122.5t-155.5 -84t-194.5 -31q-101 0 -164 63q-10 -112 -51.5 -201.5t-101.5 -147t-138 -95.5
t-156.5 -54t-160.5 -16q-280 0 -403 110q-75 68 -62 147q11 69 80 101q39 19 88 19q57 0 117.5 -53.5t60.5 -141.5q0 -46 29 -80t96 -34q39 0 71.5 11.5t56 28.5t42.5 48t31 58t20.5 70.5t13 75t7 82t3.5 79t1 79.5v588q0 122 -43 147q-31 16 -31 37zM678 963
q-54 0 -91.5 -29t-53 -67t-19.5 -85v-481q14 -248 162 -248q47 0 86 50t61 130.5t34 177.5t4.5 194t-27 177.5t-60.5 130.5t-96 50z" />
    <glyph glyph-name="r.ss01" unicode="&#xe020;" horiz-adv-x="784" 
d="M514 668v-346q8 -208 102 -252q39 -17 39 -39q0 -14 -11 -22.5t-28 -8.5h-565q-19 0 -30 8.5t-11 22.5q0 22 39 39q45 21 75 93t30 204v360q0 37 -1 55.5t-11 49.5t-31 42q-29 14 -29 37q0 14 8 22.5t21 8.5q97 6 194.5 39t149.5 70q24 12 37 12q22 0 22 -21v-157
q26 75 61.5 148t88 149.5t112 134t137 94.5t158.5 37q147 0 205 -86q45 -66 15 -143q-30 -76 -112 -106q-40 -15 -87 -15q-46 0 -80 26.5t-49.5 58.5t-33 58.5t-34.5 26.5q-63 0 -129.5 -72.5t-117 -177t-85 -196.5t-49.5 -154z" />
    <glyph glyph-name="t.ss01" unicode="&#xe021;" horiz-adv-x="751" 
d="M20 1024h43q29 0 74.5 13.5t100.5 41t111.5 79.5t92.5 118h41v-74q0 -23 0.5 -34.5t1.5 -36t5 -39t10.5 -32t18 -26.5t26.5 -10h133q20 0 20 -20v-27q0 -21 -20 -21h-195v-817q2 -218 23 -316q53 -213 221 -216q65 0 94 34t29 80t19 84.5t47.5 61.5t58.5 36t55 13
q97 0 144 -64q45 -62 12 -136q-43 -95 -192 -142q-110 -35 -261 -35q-87 0 -169.5 18t-163.5 61.5t-141 108t-97 166.5t-37 228v731q-4 104 -62 104h-43q-20 0 -20 21v27q0 20 20 20z" />
    <glyph glyph-name="u.ss01" unicode="&#xe022;" horiz-adv-x="1226" 
d="M651 911q0 13 8.5 22t22.5 9q96 6 192.5 38.5t151.5 70.5q20 12 37 12q20 0 20 -21v-755l2 -148q0 -65 0.5 -102.5t5.5 -100.5t13.5 -102t26.5 -86.5t43 -74.5t64 -45.5t89 -18.5q67 0 96 33.5t29 78.5q0 61 32 107.5t71.5 67t74.5 20.5q98 0 145 -64q45 -62 12 -136
q-42 -95 -192 -142q-110 -35 -262 -35q-86 0 -168.5 18t-163.5 61.5t-141 108t-97.5 166.5t-37.5 228v31q-41 -73 -116 -117.5t-167 -44.5q-160 0 -261 89t-101 238v441q-4 95 -45 116q-29 17 -29 37v2q0 12 9 20.5t22 10.5q95 6 191.5 38t152.5 69q15 12 37 12q20 0 20 -21
v-745q0 -162 80 -187q58 -18 125 38q66 56 79 131l3 28v457q-4 90 -43 110q-31 16 -31 37z" />
    <glyph glyph-name="v.ss01" unicode="&#xe023;" horiz-adv-x="1249" 
d="M799 952q-39 14 -39 41q0 14 11 22.5t30 8.5h407q17 0 28 -8.5t11 -22.5q0 -26 -37 -41q-64 -25 -135.5 -101.5t-107.5 -160.5l-310 -688l-77 -2l-344 713l-70 143q-109 223 -174 323q-158 239 -307 240q-35 0 -57 -10t-31.5 -29t-12 -35t-2.5 -40q0 -60 -32 -106
t-72 -66.5t-76 -20.5q-97 0 -144 65q-44 61 -11 134q43 95 193 142q110 34 261 34q85 0 168.5 -16.5t177 -59.5t177.5 -109.5t167 -173.5t148 -245h2l82 -185l133 -301l133 295q24 56 15 109t-38 93t-67 58z" />
    <glyph glyph-name="w.ss01" unicode="&#xe024;" horiz-adv-x="1800" 
d="M227 729l-61 127q-109 223 -174 323q-158 239 -307 240q-35 0 -57 -10t-31.5 -29t-12 -35t-2.5 -40q0 -60 -32 -106t-72 -66.5t-76 -20.5q-97 0 -144 65q-44 61 -11 134q43 95 193 142q110 34 261 34q87 0 170.5 -18t176.5 -64t176.5 -117t166.5 -184.5t150 -259.5
l67 -146l129 -274l107 252q22 55 -16 152.5t-93 123.5q-37 15 -37 41q0 14 11 22.5t28 8.5h455q18 0 28.5 -8.5t10.5 -22.5q0 -23 -37 -39q-33 -17 -44 -43.5t2 -84.5t58 -154l117 -248l113 268q30 87 0.5 159t-90.5 101q-40 16 -37 41q0 14 10.5 22.5t28.5 8.5h407
q19 0 30 -8.5t11 -22.5q0 -25 -39 -41q-64 -25 -136 -102t-107 -160l-291 -688l-78 -2l-266 584l-246 -582l-78 -2z" />
    <glyph glyph-name="x.ss01" unicode="&#xe025;" horiz-adv-x="1228" 
d="M782 950q-37 26 -37 41t11 24t28 9h359q17 0 28 -8.5t11 -22.5q0 -25 -37 -41q-67 -28 -169.5 -98.5t-158.5 -134.5l-76 -86l191 -287l102 -149q12 -18 52.5 -78.5t63.5 -94.5t67.5 -95t76 -98.5t75.5 -84.5t80 -73t76.5 -45t76.5 -19q35 0 57 9.5t31 28.5t11.5 34.5
t2.5 39.5q0 61 32 107.5t71.5 67t74.5 20.5q98 0 145 -64q45 -62 12 -136q-42 -95 -192 -142q-110 -35 -262 -35q-87 0 -172.5 16.5t-184 58.5t-189.5 107.5t-186.5 172t-178.5 243.5l-113 187l-39 57l-71 -80q-56 -70 -56 -138t47 -91q37 -15 37 -41q0 -14 -11 -22.5
t-28 -8.5h-401q-17 0 -27 8.5t-10 22.5q0 26 35 41q65 27 164.5 97.5t156.5 135.5l123 137l-153 232q-165 251 -273 282q-37 12 -37 37q0 14 11 22.5t28 8.5h584q17 0 27 -8.5t10 -22.5q0 -21 -35 -41q-28 -14 -33.5 -42.5t16 -80t72.5 -129.5l4 -8l27 29q62 70 78.5 132
t-25.5 97z" />
    <glyph glyph-name="y.ss01" unicode="&#xe026;" horiz-adv-x="1249" 
d="M799 952q-39 14 -39 41q0 14 11 22.5t30 8.5h407q17 0 28 -8.5t11 -22.5q0 -26 -37 -41q-64 -25 -135.5 -101.5t-107.5 -160.5l-262 -584q-11 -25 -39 -83l-9 -21h-2q-37 -73 -78 -139t-96.5 -134.5t-120 -109.5t-127.5 -41q-126 0 -183 81q-44 63 -22 132q21 69 94 90
q26 8 56 8q35 0 70 -25t67.5 -50t59.5 -25q107 0 205 211l-344 713l-70 143q-109 223 -174 323q-158 239 -307 240q-35 0 -57 -10t-31.5 -29t-12 -35t-2.5 -40q0 -60 -32 -106t-72 -66.5t-76 -20.5q-97 0 -144 65q-44 61 -11 134q43 95 193 142q110 34 261 34
q88 0 173 -17.5t181.5 -63t182 -116t170 -184.5t149.5 -260l66 -148l133 -301l133 295q24 56 15 109t-38 93t-67 58z" />
    <glyph glyph-name="A.ss02" unicode="&#xe027;" horiz-adv-x="1597" 
d="M492 1413q0 14 10.5 22.5t27.5 8.5h277q52 0 91.5 -23.5t53.5 -62.5l422 -1170l19 -47q18 -49 28 -76.5t30 -77.5t35.5 -81t39.5 -75.5t46 -72t51.5 -59t59.5 -49t66.5 -29.5t75.5 -12q65 0 94 33.5t29 78.5q0 61 32.5 107.5t72.5 67t75 20.5q97 0 144 -64
q45 -62 12 -136q-43 -95 -192 -142q-110 -35 -261 -35q-85 0 -176 21.5t-186.5 69.5t-179 116t-155 168.5t-114.5 220.5l-6 17l-51 143l-45 125l-527 2l-29 -90q-12 -45 -2.5 -85t38 -75.5t59.5 -60.5t61 -39q37 -18 37 -41q0 -14 -11 -22.5t-28 -8.5h-475q-17 0 -28 8.5
t-11 22.5q0 27 39 41q67 27 141.5 103t102.5 159l317 962q-33 63 -72 80q-38 14 -38 37zM643 1190l-231 -707l483 -2z" />
    <glyph glyph-name="B.ss02" unicode="&#xe028;" horiz-adv-x="1411" 
d="M8 1403q0 14 11 22.5t30 8.5h553q259 0 396 -70t137 -178q0 -84 -84.5 -168t-247.5 -150q129 -11 238 -63.5t181 -130t112 -173t40 -194.5q0 -89 -30.5 -171.5t-98.5 -157t-167 -130t-245.5 -88t-324.5 -32.5q-156 0 -279.5 41.5t-195 110t-113.5 154t-40 176t30 173
t92 149t150 99.5v436q0 132 -30 204t-75 93q-39 17 -39 39zM555 795l-33 -9v-165q101 -44 156 -124.5t55 -168.5q0 -170 -104 -239q-76 -51 -164 -27q-78 20 -107 83q-12 26 -12 56q0 39 16 69.5t39 50.5t46 39.5t39 47.5t16 63q0 49 -57.5 90t-133.5 41q-156 0 -256 -116
q-91 -104 -94 -247q-3 -159 106 -273q147 -154 443 -154q225 0 350 170q103 139 105 337q2 188 -86 324q-96 147 -257 155q-33 2 -67 -3zM522 850q76 18 131.5 63.5t81.5 101.5t26.5 117.5t-24 112.5t-81 86t-134.5 39v-520z" />
    <glyph glyph-name="D.ss02" unicode="&#xe029;" horiz-adv-x="1591" 
d="M10 1403q0 14 11 22.5t30 8.5h537q181 0 335 -47.5t262 -129.5t185 -191t113.5 -232t36.5 -252q0 -354 -242 -587q-191 -184 -480 -248q-269 -60 -508 6q-233 64 -339 225q-70 107 -70 243q0 134 73 248t200 162v463q-8 220 -105 270q-39 17 -39 39zM541 1372h-17v-751
q101 -44 156 -124.5t55 -168.5q0 -170 -104 -239q-76 -51 -164 -27q-78 20 -107 83q-12 26 -12 56q0 39 16 69.5t39 50.5t46 39.5t39 47.5t16 63q0 49 -57.5 90t-133.5 41q-104 0 -185.5 -54t-123 -138.5t-41.5 -180.5q0 -156 137 -275q130 -113 320 -141q218 -32 395 68
q221 125 291 419q29 123 29 271q0 121 -23.5 236t-72.5 217.5t-118 180t-167 122.5t-213 45z" />
    <glyph glyph-name="H.ss02" unicode="&#xe02a;" horiz-adv-x="1527" 
d="M860 1403q0 14 11 22.5t28 8.5h578q19 0 30 -8.5t11 -22.5q0 -22 -39 -39q-100 -49 -105 -270v-955q2 -218 23 -316q53 -213 221 -216q67 0 96 34t29 80q0 88 60.5 141.5t117.5 53.5q98 0 145 -64q44 -62 11 -135q-42 -96 -191 -143q-110 -35 -262 -35q-87 0 -170.5 18
t-166.5 61.5t-144.5 108t-100 166.5t-38.5 228v561h-480v-315q0 -132 30 -204t75 -93q39 -17 39 -39q0 -14 -11 -22.5t-30 -8.5h-576q-19 0 -30 8.5t-11 22.5q0 22 39 39q45 21 75 93t30 204v727q-8 220 -105 270q-39 17 -39 39q0 14 11 22.5t30 8.5h576q19 0 30 -8.5
t11 -22.5q0 -22 -39 -39q-100 -49 -105 -270v-340h480v340q-8 220 -105 270q-39 17 -39 39z" />
    <glyph glyph-name="K.ss02" unicode="&#xe02b;" horiz-adv-x="1443" 
d="M809 1360q-37 21 -37 43q0 14 11 22.5t30 8.5h483q18 0 28.5 -8.5t10.5 -22.5q0 -25 -37 -43q-65 -29 -182.5 -118.5t-157.5 -131.5l-280 -291q84 15 151.5 12t122 -27t97 -60t75.5 -87t58 -108t45.5 -123.5t36.5 -132.5t32 -135q14 -63 21.5 -95t22.5 -88.5t25.5 -87
t28.5 -75.5t35 -70t41 -54.5t50 -44.5t59 -25.5t70 -10.5q65 0 94 34t29 80t19 84.5t47.5 61.5t58.5 36t55 13q97 0 144 -64q45 -62 12 -136q-43 -95 -192 -142q-110 -35 -261 -35q-96 0 -179.5 15.5t-148 41t-121 65.5t-97 82t-77 99t-61 107.5t-48 116t-38.5 116
t-34 115.5q-15 54 -23 81t-23 73.5t-26.5 71t-28.5 59t-34 53t-39 38t-48 29t-56 11.5l-49 -54v-321q3 -118 32.5 -183t72.5 -85q39 -17 39 -39q0 -14 -11 -22.5t-30 -8.5h-576q-19 0 -30 8.5t-11 22.5q0 22 39 39q45 21 75 93t30 204v727q-8 220 -105 270q-39 17 -39 39
q0 14 11 22.5t30 8.5h576q19 0 30 -8.5t11 -22.5q0 -22 -39 -39q-100 -49 -105 -270v-349l355 367q46 47 39 98t-38.5 91t-70.5 59z" />
    <glyph glyph-name="M.ss02" unicode="&#xe02c;" horiz-adv-x="1867" 
d="M1337 127v14l-69 1102l-363 -1100q-7 -26 -45 -26h-2q-37 0 -47 26l-489 1063l-50 -807q-7 -112 52 -205t125 -122q39 -19 36 -41q0 -14 -10.5 -22.5t-28.5 -8.5h-399q-19 0 -30 8.5t-11 22.5q0 27 39 39q62 27 105.5 117.5t50.5 213.5l39 666q0 133 -39 204.5t-99 92.5
q-49 17 -49 39q0 14 14 22.5t37 8.5h463q15 0 29 -7.5t18 -19.5l361 -825l282 852h484q24 0 38.5 -8.5t14.5 -22.5q0 -22 -51 -39q-114 -43 -101 -279l66 -944q3 -67 6 -103t10.5 -100.5t18.5 -102.5t31 -86t46 -74t66 -45t90 -19q65 0 94 34.5t29 80.5q0 89 60 141.5
t120 52.5q97 0 144 -64q44 -62 12 -135q-43 -96 -191 -143q-111 -35 -264 -35q-86 0 -170 18t-167.5 62t-147.5 109t-107.5 167t-50.5 228z" />
    <glyph glyph-name="N.ss02" unicode="&#xe02d;" horiz-adv-x="1533" 
d="M1335 1032v-1005q0 -12 -10 -19.5t-25 -7.5q-39 0 -55 23l-973 1130v-754q-1 -116 -27.5 -203.5t-72 -139t-102 -76.5t-121.5 -25q-211 0 -312 143q-79 112 -63 262q14 138 98 223q73 74 172 74q90 0 144.5 -53.5t54.5 -146.5q0 -42 -22 -70t-54.5 -41t-71 -27.5t-71 -28
t-54.5 -43.5t-22 -73q0 -69 56 -112.5t133 -43.5q48 0 93.5 19t84.5 57.5t62.5 105.5t23.5 154v713q0 133 -39 204.5t-99 92.5q-49 17 -49 39q0 14 14.5 22.5t37.5 8.5h438l760 -861v461q0 113 -56.5 205.5t-120.5 122.5q-36 14 -36 41q0 14 11 22.5t28 8.5h397
q19 0 30 -8.5t11 -22.5q0 -25 -39 -41q-64 -26 -109 -118.5t-45 -211.5z" />
    <glyph glyph-name="P.ss02" unicode="&#xe02e;" horiz-adv-x="1308" 
d="M10 1403q0 14 11 22.5t30 8.5h596q149 0 259.5 -20t174.5 -51t102.5 -77t51 -90.5t12.5 -99.5q0 -108 -108.5 -221t-272.5 -197t-342 -127v-74q-1 -100 -18 -184t-46 -144.5t-70 -108.5t-87 -78t-100 -49.5t-106.5 -27.5t-108.5 -8q-99 0 -180 23t-134 62t-89 91.5
t-52 110t-16 119.5q0 147 81 260.5t201 113.5q89 0 144 -54t55 -146q0 -42 -22 -70t-55 -41t-71.5 -27.5t-71.5 -28t-55 -43.5t-22 -73q0 -87 60.5 -148t150.5 -61q35 0 66 9t64.5 35.5t57 68t39 112.5t15.5 164v740q-8 220 -105 270q-39 17 -39 39zM571 1362h-47v-733
q141 62 233.5 184t92.5 250q0 129 -73.5 214t-205.5 85z" />
    <glyph glyph-name="R.ss02" unicode="&#xe02f;" horiz-adv-x="1398" 
d="M10 1403q0 14 11 22.5t30 8.5h596q149 0 259.5 -20t174.5 -51t102.5 -77t51 -90.5t12.5 -99.5q0 -62 -36.5 -119.5t-101.5 -105.5t-146.5 -87.5t-180.5 -72.5q67 -3 125 -25.5t100 -52.5t81 -85t63.5 -99t52.5 -119.5t42.5 -122t39.5 -129.5q31 -106 48.5 -159t53 -134.5
t69.5 -121t88 -70.5t120 -31q65 0 94 34t29 80q0 88 60.5 141.5t119.5 53.5q97 0 144 -64q44 -62 12 -135q-43 -96 -191 -143q-111 -35 -264 -35q-95 0 -179 14.5t-150.5 40.5t-123.5 63t-101 81t-81.5 96t-66.5 105.5t-53.5 111.5t-44.5 113.5t-40 112.5q-21 61 -31.5 91
t-31 81t-35.5 77t-39 60t-47 51t-54.5 30t-66.5 15v-270q0 -132 30 -204t75 -93q39 -17 39 -39q0 -14 -11 -22.5t-30 -8.5h-576q-19 0 -30 8.5t-11 22.5q0 22 39 39q42 20 71.5 85t33.5 183v756q-8 220 -105 270q-39 17 -39 39zM571 1362h-47v-645q149 49 237.5 136
t88.5 210q0 129 -73.5 214t-205.5 85z" />
    <glyph glyph-name="b.ss02" unicode="&#xe030;" horiz-adv-x="1300" 
d="M10 31q0 22 39 39q45 21 75 93t30 204v573q-2 218 -23 315q-53 215 -223 218q-65 0 -94 -34.5t-29 -80.5q0 -88 -60.5 -141.5t-119.5 -53.5q-97 0 -144 64q-44 62 -12 135q43 96 191 143q111 35 264 35q86 0 168 -17.5t162.5 -60.5t141 -106.5t98 -164.5t38.5 -226
q69 69 164 69q137 0 245.5 -42t174 -113t99.5 -158.5t34 -185.5q0 -81 -22.5 -159.5t-69 -148t-111.5 -122.5t-155.5 -84t-194.5 -31q-123 0 -191 96q-49 -83 -159 -86h-275q-19 0 -30 8.5t-11 22.5zM676 55q47 0 86 50t61 130t34 177t4.5 194t-27 177t-60.5 130t-96 50
q-44 0 -77 -19t-51 -50t-26.5 -64t-9.5 -68v-430q1 -49 7.5 -91.5t23 -87.5t50 -71.5t81.5 -26.5z" />
    <glyph glyph-name="d.ss02" unicode="&#xe031;" horiz-adv-x="1298" 
d="M1399 1473q-47 0 -84.5 -16.5t-62.5 -42.5t-43.5 -67.5t-28.5 -81t-15.5 -95t-7 -97t-2.5 -98.5v-721q0 -23 3 -40.5t12 -38.5t31 -29.5t56 -2.5q20 3 31.5 -11t9 -30t-17.5 -20l-367 -86q-48 -6 -80.5 18t-35.5 62q-75 -86 -170 -86q-137 0 -245.5 42t-174 113
t-99.5 158.5t-34 185.5q0 81 22.5 159.5t69 148t111.5 122.5t155.5 84t194.5 31q102 0 170 -71q1 126 38 227t97 165t140.5 107t163 60.5t169.5 17.5q280 0 403 -110q75 -68 62 -147q-11 -69 -80 -101q-39 -19 -88 -19q-57 0 -117.5 53.5t-60.5 141.5q0 46 -29 80.5
t-96 34.5zM625 61q44 0 78 18.5t53 49.5t29 64.5t12 68.5v379q-1 7 -2.5 32t-3 39.5t-4.5 42t-7 45t-11 42.5t-15.5 41t-21 34.5t-27.5 29t-35 17.5t-43 7q-47 0 -86 -50t-61 -130.5t-34 -177.5t-4.5 -194t27 -177.5t60.5 -130.5t96 -50z" />
    <glyph glyph-name="g.ss02" unicode="&#xe032;" horiz-adv-x="1216" 
d="M602 96q-177 0 -303 74q-42 -6 -69 -29t-27 -47q0 -26 55 -35t143 -7.5t194.5 4t213.5 -6t195 -31.5t143 -79t55 -142q0 -62 -25 -114.5t-65 -87.5t-94.5 -62.5t-108.5 -43t-111.5 -25.5t-99.5 -13.5t-77 -3.5q-144 0 -254.5 19t-174 52t-95 72t-31.5 82q0 54 51 99
t123 63q-187 45 -187 182q0 43 17 77t46 56t61.5 35.5t70.5 20.5q-77 61 -121 147.5t-51 177.5t24 182t93.5 162t169.5 115.5t241 44.5q145 0 266 -57q30 67 71 132t98 131t120 115t141 80t158 31q152 0 208.5 -92.5t-2.5 -185t-185 -92.5q-37 0 -66 19.5t-46 47.5t-30 56
t-26 47.5t-27 19.5q-51 0 -103 -30t-97.5 -82t-82.5 -109t-69 -123q85 -58 135 -144.5t61 -179.5t-18 -187t-91.5 -168t-171 -120.5t-245.5 -46.5zM604 166q52 0 92.5 44t61.5 115t31 156t0 170.5t-31 156.5t-61.5 115t-92.5 44q-46 0 -83 -34.5t-60 -90.5t-35.5 -128
t-12.5 -147.5t12.5 -147.5t35.5 -128t60 -90.5t83 -34.5zM1016 -299q0 27 -17 46t-51 30t-72.5 17t-95.5 8.5t-105.5 3t-116 1.5t-114.5 3q-33 -2 -65.5 -46t-32.5 -90q0 -68 69 -106t167.5 -39.5t197 16t167.5 61t69 95.5z" />
    <glyph glyph-name="h.ss02" unicode="&#xe033;" horiz-adv-x="1372" 
d="M10 31q0 22 39 39q45 21 75 93t30 204v426l-2 147q0 45 -0.5 71t-1.5 71.5t-4.5 74t-9.5 69.5t-15 67t-22 57.5t-31 51t-40.5 37.5t-52.5 26t-65 8q-67 0 -96 -34.5t-29 -80.5q0 -88 -60.5 -141.5t-117.5 -53.5q-98 0 -145 64q-45 62 -12 136q42 95 192 142
q110 35 262 35q87 0 169 -17.5t163 -61t141 -108t97.5 -166.5t37.5 -229v-110q34 81 110 133.5t179 52.5q178 0 255 -82t113 -293l54 -292q27 -156 47 -217.5t57 -79.5q40 -18 37 -39q0 -14 -10.5 -22.5t-28.5 -8.5h-565q-18 0 -28.5 8.5t-10.5 22.5q0 23 37 39
q49 23 83 82.5t21 160.5l-35 260q-7 53 -13 88t-15.5 76t-21 67t-27 49t-36.5 33.5t-48 10.5q-62 0 -106 -52t-48 -140v-338h2q0 -132 29.5 -204t74.5 -93q39 -17 39 -39q0 -14 -11 -22.5t-28 -8.5h-567q-19 0 -30 8.5t-11 22.5z" />
    <glyph glyph-name="k.ss02" unicode="&#xe034;" horiz-adv-x="1390" 
d="M10 31q0 22 39 39q45 21 75 93t30 204v426l-2 147q0 45 -0.5 71t-1.5 71.5t-4.5 74t-9.5 69.5t-15 67t-22 57.5t-31 51t-40.5 37.5t-52.5 26t-65 8q-67 0 -96 -34.5t-29 -80.5q0 -88 -60.5 -141.5t-117.5 -53.5q-98 0 -145 64q-45 62 -12 136q42 95 192 142
q110 35 262 35q87 0 169 -17.5t163 -61t141 -108t97.5 -166.5t37.5 -229v-487l238 246q46 47 41.5 98t-33.5 91.5t-68 60.5q-37 18 -37 41q0 14 11 22t30 8h484q38 0 41 -30q0 -25 -39 -41q-74 -35 -171 -106t-169 -146l-70 -72q84 14 150 -8t109 -68.5t76.5 -107
t60.5 -125.5t53 -121.5t62 -98t79 -51.5q29 -6 29 -32q0 -13 -8.5 -22t-22.5 -9h-363q-76 0 -130.5 46t-65.5 120q-9 57 -15 87t-19 80.5t-27.5 80t-38.5 58t-54 40.5l-133 -137v-37q3 -118 32 -183.5t72 -84.5q39 -17 39 -39q0 -14 -11 -22.5t-30 -8.5h-563q-19 0 -30 8.5
t-11 22.5z" />
    <glyph glyph-name="l.ss02" unicode="&#xe035;" 
d="M10 31q0 22 39 39q45 21 75 93t30 204v426l-2 147q0 45 -0.5 71t-1.5 71.5t-4.5 74t-9.5 69.5t-15 67t-22 57.5t-31 51t-40.5 37.5t-52.5 26t-65 8q-67 0 -96 -34.5t-29 -80.5q0 -88 -60.5 -141.5t-117.5 -53.5q-98 0 -145 64q-45 62 -12 136q42 95 192 142
q110 35 262 35q87 0 169 -17.5t163 -61t141 -108t97.5 -166.5t37.5 -229v-620q3 -118 32 -183.5t72 -84.5q39 -17 39 -39q0 -14 -11 -22.5t-30 -8.5h-563q-19 0 -30 8.5t-11 22.5z" />
    <glyph glyph-name="t.ss02" unicode="&#xe036;" horiz-adv-x="751" 
d="M20 956q-20 0 -20 21v27q0 20 20 20h43q29 0 74.5 13.5t100.5 41t111.5 79.5t92.5 118h41v-74q0 -27 1.5 -49.5t6.5 -47.5t17 -37t29 -7v-4q92 28 189.5 76.5t175 95t161.5 90t182.5 70t204.5 26.5q134 0 189 -81q42 -60 17 -128q-25 -66 -99 -84q-23 -6 -48 -6
q-45 0 -85 18.5t-65 40t-60 40t-72 18.5q-81 0 -168 -31t-158 -71t-185 -86t-233 -68v-723q0 -117 66 -117q37 0 84 34t74 71q14 17 26 2q7 -7 9 -18.5t-3 -18.5q-39 -75 -99.5 -128t-126.5 -77.5t-134 -24.5q-108 0 -181.5 62.5t-72.5 171.5v623q-1 26 -2.5 42.5t-6.5 36
t-16 30.5t-28 13h-52z" />
    <glyph glyph-name="v.ss02" unicode="&#xe037;" horiz-adv-x="1249" 
d="M39 1024h563q18 0 28.5 -8.5t10.5 -22.5q0 -23 -37 -39q-46 -23 -39.5 -81t72.5 -207l119 -269l133 295q34 78 62.5 137t74.5 143.5t88.5 147.5t101.5 131t118 111t131.5 71.5t148.5 28.5q150 0 217 -87q50 -66 27 -141q-23 -74 -102 -102q-37 -14 -83 -14q-38 0 -71 17
t-55.5 41t-41.5 48t-36 41t-31 17q-205 0 -471 -592l-310 -688l-77 -2l-318 657l-20 41q-68 138 -111 191t-92 69q-39 12 -39 35q0 31 39 31z" />
    <glyph glyph-name="w.ss02" unicode="&#xe038;" horiz-adv-x="1800" 
d="M735 952q-37 15 -37 41q0 14 11 22.5t28 8.5h455q18 0 28.5 -8.5t10.5 -22.5q0 -23 -37 -39q-33 -17 -44 -43.5t2 -84.5t58 -154l117 -248l113 268q31 73 60.5 136.5t74 145t88.5 147t102.5 131.5t118 110t132.5 72t149 28q150 0 217 -87q50 -66 27 -141
q-23 -74 -102 -102q-37 -14 -83 -14q-38 0 -71 17t-55.5 41t-41 48t-35 41t-30.5 17q-51 0 -106.5 -37t-104.5 -95.5t-98.5 -138.5t-88.5 -158.5t-75 -162.5l-291 -688l-78 -2l-266 584l-246 -582l-78 -2l-332 729q-55 119 -97 166.5t-91 62.5q-39 12 -39 35q0 15 11 23.5
t28 7.5h563q18 0 28.5 -8.5t10.5 -22.5q0 -23 -37 -39q-25 -12 -36.5 -29.5t-12 -49t15.5 -81t50 -122.5l116 -248l107 252q22 55 -16 152.5t-93 123.5z" />
    <glyph glyph-name="y.ss02" unicode="&#xe039;" horiz-adv-x="1249" 
d="M39 1024h563q18 0 28.5 -8.5t10.5 -22.5q0 -23 -37 -39q-46 -23 -39.5 -81t72.5 -207l119 -269l133 295q26 59 47.5 104t54.5 110.5t63 116t71 110.5t80 105t88 89t98 72t106.5 45.5t116.5 17.5q150 0 217 -87q50 -66 27 -141q-23 -74 -102 -102q-37 -14 -83 -14
q-38 0 -71 17t-55.5 41t-41.5 48t-36 41t-31 17q-205 0 -471 -592l-122 -274.5t-175 -384.5l-15 -29q-36 -73 -77.5 -139.5t-96.5 -134.5t-120 -109t-128 -41q-126 0 -183 81q-44 63 -22 132q21 69 94 90q26 8 56 8q35 0 70 -25t67.5 -50t59.5 -25q107 0 205 211l-318 657
l-20 41q-68 138 -111 191t-92 69q-39 12 -39 35q0 31 39 31z" />
    <glyph glyph-name="A.ss03" unicode="&#xe03a;" horiz-adv-x="1597" 
d="M502 1444h305q52 0 91.5 -23.5t53.5 -62.5l422 -1170l19 -47q18 -49 28 -76.5t30 -77.5t35.5 -81t39.5 -75.5t46 -72t51.5 -59t59.5 -49t66.5 -29.5t75.5 -12q65 0 94 33.5t29 78.5q0 61 32.5 107.5t72.5 67t75 20.5q97 0 144 -64q45 -62 12 -136q-43 -95 -192 -142
q-110 -35 -261 -35q-85 0 -176 21.5t-186.5 69.5t-179 116t-155 168.5t-114.5 220.5l-6 17l-51 143l-45 125l-527 2l-29 -90q-12 -45 -2.5 -85t38 -75.5t59.5 -60.5t61 -39q37 -18 37 -41q0 -14 -11 -22.5t-28 -8.5h-475q-17 0 -28 8.5t-11 22.5q0 27 39 41q67 27 141.5 103
t102.5 159l317 962l-20 35q-43 49 -119 49q-73 0 -125 -54q-41 -42 -28 -73q11 -26 57 -26q80 0 113 -71.5t-8.5 -142.5t-143.5 -71q-69 0 -119.5 45.5t-50.5 130.5q0 56 21 111.5t61.5 104.5t109 79.5t152.5 30.5zM643 1190l-231 -707l483 -2z" />
    <glyph glyph-name="B.ss03" unicode="&#xe03b;" horiz-adv-x="1411" 
d="M49 1434h553q259 0 396 -70t137 -178q0 -84 -84.5 -168t-247.5 -150q129 -11 238 -63.5t181 -130t112 -173t40 -194.5q0 -89 -30.5 -171.5t-98.5 -157t-167 -130t-245.5 -88t-324.5 -32.5q-156 0 -279.5 41.5t-195 110t-113.5 154t-40 176t30 173t92 149t150 99.5v436
q0 145 -37 221q-20 38 -46.5 60t-52.5 22q-73 0 -125 -50q-41 -39 -28 -69q11 -24 57 -24q80 0 113 -71.5t-8.5 -142.5t-143.5 -71q-69 0 -119.5 45.5t-50.5 130.5q0 54 20.5 107t59.5 99.5t104 76.5t146 33h8zM555 795l-33 -9v-165q101 -44 156 -124.5t55 -168.5
q0 -170 -104 -239q-76 -51 -164 -27q-78 20 -107 83q-12 26 -12 56q0 39 16 69.5t39 50.5t46 39.5t39 47.5t16 63q0 49 -57.5 90t-133.5 41q-156 0 -256 -116q-91 -104 -94 -247q-3 -159 106 -273q147 -154 443 -154q225 0 350 170q103 139 105 337q2 188 -86 324
q-96 147 -257 155q-33 2 -67 -3zM522 850q76 18 131.5 63.5t81.5 101.5t26.5 117.5t-24 112.5t-81 86t-134.5 39v-520z" />
    <glyph glyph-name="D.ss03" unicode="&#xe03c;" horiz-adv-x="1599" 
d="M154 631v436q0 109 -23 180q-19 55 -51 89t-64 34q-73 0 -125 -50q-41 -39 -28 -69q11 -24 57 -24q80 0 113 -71.5t-8.5 -142.5t-143.5 -71q-69 0 -119.5 46t-50.5 130q0 55 21 108.5t61 100.5t107 76.5t151 30.5h537q181 0 335 -47.5t262 -129.5t185 -191t113.5 -232
t36.5 -252q0 -169 -57.5 -312.5t-153.5 -243.5t-221.5 -170.5t-261.5 -103.5t-275 -33q-135 0 -254.5 32.5t-213 93.5t-148 158t-54.5 218q0 136 73 249t200 161zM541 1372h-17v-751q102 -44 156.5 -124t54.5 -169q0 -70 -19 -124.5t-50.5 -86t-68.5 -47t-77 -15.5
q-70 0 -121 41t-51 105q0 40 16 70.5t39 50.5t46 39t39 47t16 63q0 49 -57 90t-132 41q-156 0 -254 -111.5t-98 -261.5q0 -88 47.5 -168t125 -135.5t178.5 -88t206 -32.5q94 0 180 25.5t166.5 84t139 145t94 218t35.5 293.5q0 121 -23.5 236t-72.5 217.5t-118 180
t-167 122.5t-213 45z" />
    <glyph glyph-name="H.ss03" unicode="&#xe03d;" horiz-adv-x="1527" 
d="M860 1403q0 14 11 22.5t28 8.5h578q19 0 30 -8.5t11 -22.5q0 -22 -39 -39q-45 -21 -75 -93t-30 -204v-928q2 -218 23 -316q53 -213 221 -216q67 0 96 34t29 80q0 88 60.5 141.5t117.5 53.5q98 0 145 -64q44 -62 11 -135q-42 -96 -191 -143q-110 -35 -262 -35
q-87 0 -170.5 18t-166.5 61.5t-144.5 108t-100 166.5t-38.5 228v561h-480v-344q3 -118 32.5 -183t72.5 -85q39 -17 39 -39q0 -14 -11 -22.5t-30 -8.5h-576q-19 0 -30 8.5t-11 22.5q0 22 39 39q42 20 71.5 85t33.5 183v756l-7 73l-4 27q-1 12 -12 55q-19 55 -50.5 88
t-64.5 33q-73 0 -125 -50q-41 -39 -28 -69q11 -24 57 -24q80 0 113 -71.5t-8.5 -142.5t-143.5 -71q-69 0 -119.5 45.5t-50.5 130.5q0 56 21 110t61.5 101t108.5 76t153 29h572q19 0 30 -8.5t11 -22.5q0 -22 -39 -39q-45 -21 -75 -93t-30 -204v-313h480v313q0 132 -30 204
t-75 93q-39 17 -39 39z" />
    <glyph glyph-name="K.ss03" unicode="&#xe03e;" horiz-adv-x="1443" 
d="M809 1360q-37 21 -37 43q0 14 11 22.5t30 8.5h483q18 0 28.5 -8.5t10.5 -22.5q0 -25 -37 -43q-65 -29 -182.5 -118.5t-157.5 -131.5l-280 -291q84 15 151.5 12t122 -27t97 -60t75.5 -87t58 -108t45.5 -123.5t36.5 -132.5t32 -135q14 -63 21.5 -95t22.5 -88.5t25.5 -87
t28.5 -75.5t35 -70t41 -54.5t50 -44.5t59 -25.5t70 -10.5q65 0 94 34t29 80t19 84.5t47.5 61.5t58.5 36t55 13q97 0 144 -64q45 -62 12 -136q-43 -95 -192 -142q-110 -35 -261 -35q-96 0 -179.5 15.5t-148 41t-121 65.5t-97 82t-77 99t-61 107.5t-48 116t-38.5 116
t-34 115.5q-15 54 -23 81t-23 73.5t-26.5 71t-28.5 59t-34 53t-39 38t-48 29t-56 11.5l-49 -54v-292q0 -132 30 -204t75 -93q39 -17 39 -39q0 -14 -11 -22.5t-30 -8.5h-576q-19 0 -30 8.5t-11 22.5q0 22 39 39q45 21 75 93t30 204v700q0 49 -7 100l-4 27q-1 12 -12 55
q-19 55 -50.5 88t-64.5 33q-73 0 -125 -50q-41 -39 -28 -69q11 -24 57 -24q80 0 113 -71.5t-8.5 -142.5t-143.5 -71q-69 0 -119.5 45.5t-50.5 130.5q0 43 12.5 86.5t39.5 84t65 72t93.5 51.5t121.5 22h8h576q19 0 30 -8.5t11 -22.5q0 -22 -39 -39q-45 -21 -75 -93t-30 -204
v-322l355 367q46 47 39 98t-38.5 91t-70.5 59z" />
    <glyph glyph-name="M.ss03" unicode="&#xe03f;" horiz-adv-x="1867" 
d="M240 1067q-2 46 -8.5 89t-23 96t-50.5 85.5t-82 32.5q-74 0 -125 -51q-40 -40 -26 -69q12 -23 55 -23q75 0 109 -66q32 -61 6 -127q-31 -75 -119 -89q-17 -3 -35 -3q-69 0 -118.5 46t-49.5 130q0 134 96 224t231 92h467q15 0 29 -7.5t18 -19.5l361 -825l282 852h484
q24 0 38.5 -8.5t14.5 -22.5q0 -22 -51 -39q-114 -43 -101 -279l66 -944q3 -67 6 -103t10.5 -100.5t18.5 -102.5t31 -86t46 -74t66 -45t90 -19q65 0 94 34.5t29 80.5q0 89 60 141.5t120 52.5q97 0 144 -64q44 -62 12 -135q-43 -96 -191 -143q-111 -35 -264 -35q-86 0 -170 18
t-167.5 62t-147.5 109t-107.5 167t-50.5 228v14l-69 1102l-363 -1100q-7 -26 -45 -26h-2q-37 0 -47 26l-489 1063l-50 -807q-7 -112 52 -205t125 -122q39 -19 36 -41q0 -14 -10.5 -22.5t-28.5 -8.5h-399q-19 0 -30 8.5t-11 22.5q0 27 39 39q62 27 105.5 117.5t50.5 213.5z
" />
    <glyph glyph-name="N.ss03" unicode="&#xe040;" horiz-adv-x="1533" 
d="M1335 1032v-1005q0 -12 -10 -19.5t-25 -7.5q-39 0 -55 23l-973 1130v-754q-1 -116 -27.5 -203.5t-72 -139t-102 -76.5t-121.5 -25q-211 0 -312 143q-79 112 -63 262q14 138 98 223q73 74 172 74q90 0 144.5 -53.5t54.5 -146.5q0 -42 -22 -70t-54.5 -41t-71 -27.5t-71 -28
t-54.5 -43.5t-22 -73q0 -69 56 -112.5t133 -43.5q48 0 93.5 19t84.5 57.5t62.5 105.5t23.5 154v713q0 44 -6 86t-20 86t-43 77.5t-69 47.5q-1 0 -3 1t-3 1q-20 4 -24 4q-73 0 -124 -50q-40 -39 -26 -69q11 -24 56 -24q75 0 109 -66q32 -61 6 -127q-31 -75 -119 -89
q-17 -3 -35 -3q-69 0 -118.5 46t-49.5 130q0 136 98 226t236 90h438l760 -861v461q0 113 -56.5 205.5t-120.5 122.5q-36 14 -36 41q0 14 11 22.5t28 8.5h397q19 0 30 -8.5t11 -22.5q0 -25 -39 -41q-64 -26 -109 -118.5t-45 -211.5z" />
    <glyph glyph-name="P.ss03" unicode="&#xe041;" horiz-adv-x="1308" 
d="M154 354v740l-7 73l-4 27q-1 12 -12 55q-19 55 -50.5 88t-64.5 33q-73 0 -125 -50q-41 -39 -28 -69q11 -24 57 -24q80 0 113 -71.5t-8.5 -142.5t-143.5 -71q-69 0 -119.5 45.5t-50.5 130.5q0 43 12.5 86.5t39.5 84t65 72t93.5 51.5t121.5 22h8h596q149 0 259.5 -20
t174.5 -51t102.5 -77t51 -90.5t12.5 -99.5q0 -108 -108.5 -221t-272.5 -197t-342 -127v-74q-1 -100 -18 -184t-46 -144.5t-70 -108.5t-87 -78t-100 -49.5t-106.5 -27.5t-108.5 -8q-99 0 -180 23t-134 62t-89 91.5t-52 110t-16 119.5q0 147 81 260.5t201 113.5q89 0 144 -54
t55 -146q0 -42 -22 -70t-55 -41t-71.5 -27.5t-71.5 -28t-55 -43.5t-22 -73q0 -87 60.5 -148t150.5 -61q35 0 66 9t64.5 35.5t57 68t39 112.5t15.5 164zM571 1362h-47v-733q141 62 233.5 184t92.5 250q0 129 -73.5 214t-205.5 85z" />
    <glyph glyph-name="R.ss03" unicode="&#xe042;" horiz-adv-x="1398" 
d="M10 31q0 22 39 39q45 21 75 93t30 204v700q0 109 -23 180q-19 55 -51 89t-64 34q-73 0 -125 -50q-41 -39 -28 -69q11 -24 57 -24q80 0 113 -71.5t-8.5 -142.5t-143.5 -71q-69 0 -119.5 46t-50.5 130q0 55 21 108.5t61 100.5t107 76.5t151 30.5h596q149 0 259.5 -20
t174.5 -51t102.5 -77t51 -90.5t12.5 -99.5q0 -81 -65 -155.5t-165.5 -130t-234.5 -99.5q67 -3 125 -25.5t100 -52.5t81 -85t63.5 -99t52.5 -119.5t42.5 -122t39.5 -129.5q31 -106 48.5 -159t53 -134.5t69.5 -121t88 -70.5t120 -31q65 0 94 34t29 80q0 88 60.5 141.5
t119.5 53.5q97 0 144 -64q44 -62 12 -135q-43 -96 -191 -143q-111 -35 -264 -35q-95 0 -179 15t-149.5 40t-123.5 64t-101 80t-82 96.5t-66 104.5t-53.5 112.5t-44.5 113t-40 112.5l-22.5 64.5t-21.5 59.5t-23 58t-23.5 51.5t-27 48t-29 39.5t-33 35t-36.5 24.5t-42.5 18
t-47.5 6.5v-291q5 -227 105 -276q39 -17 39 -39q0 -14 -11 -22.5t-28 -8.5h-578q-19 0 -30 8.5t-11 22.5zM571 1362h-47v-645q148 49 237 136.5t89 209.5q0 129 -73.5 214t-205.5 85z" />
    <glyph glyph-name="a.ss03" unicode="&#xe043;" horiz-adv-x="1206" 
d="M1065 227l10 -84q19 -162 86 -237.5t156 -75.5q90 0 150.5 61t60.5 148q0 43 -22 73t-55 43.5t-71.5 28t-71.5 27.5t-55 41t-22 70q0 92 55 146t144 54q120 0 201 -114t81 -261q0 -79 -26.5 -149t-81 -128.5t-148.5 -93t-217 -34.5q-95 0 -183 25t-161.5 73t-122 126
t-59.5 177l-4 37q-33 -73 -96 -123.5t-135 -71t-148 -16t-137.5 33.5t-100.5 88t-39 138q0 71 34.5 125t88.5 87t120 59t130.5 47.5t117 45t82.5 60t25 84.5q-3 24 -8.5 48.5t-20.5 59.5t-35 61t-55 44.5t-79 18.5q-48 0 -67 -15t-14 -42.5t17.5 -57t26.5 -68t14 -65.5
q0 -76 -74 -114.5t-147.5 -4t-73.5 134.5q0 114 99 205.5t243 91.5q493 0 539 -393l41 -344zM434 229q0 -65 56 -82q57 -17 119 26q67 47 87 132l-30 293q-19 -39 -51 -75t-61.5 -63t-57.5 -58t-45 -74.5t-17 -98.5z" />
    <glyph glyph-name="d.ss03" unicode="&#xe044;" horiz-adv-x="1298" 
d="M723 1333q0 13 8.5 22t22.5 9q96 6 192.5 38.5t151.5 70.5q20 12 37 12q20 0 20 -21v-1245q0 -93 15 -164t39 -112.5t57.5 -68t65 -35.5t67.5 -9q90 0 149.5 61t59.5 148q0 43 -22 73t-55 43.5t-71.5 28t-71.5 27.5t-55 41t-22 70q0 93 55 146.5t145 53.5
q119 0 200 -114.5t81 -260.5q0 -79 -26.5 -149t-80 -128.5t-147.5 -93t-217 -34.5q-86 0 -164.5 18.5t-150.5 58t-124 110t-73 165.5q-78 -104 -182 -104q-137 0 -245.5 42t-174 113t-99.5 158.5t-34 185.5q0 81 22.5 159.5t69 148t111.5 122.5t155.5 84t194.5 31
q102 0 170 -71v223q-4 90 -43 110q-31 16 -31 37zM795 307h2v334q-1 7 -2.5 32t-3 39.5t-4.5 42t-7 45t-11 42.5t-15.5 41t-21 34.5t-27.5 29t-35 17.5t-43 7q-47 0 -86 -50t-61 -130.5t-34 -177.5t-4.5 -194t27 -177.5t60.5 -130.5t96 -50q81 0 123 57.5t47 133.5v55z" />
    <glyph glyph-name="e.ss03" unicode="&#xe045;" horiz-adv-x="1138" 
d="M973 545l-514 -29q5 -119 33.5 -235t76.5 -212t120 -155t155 -59q92 0 163.5 61.5t71.5 146.5q0 45 -30.5 66.5t-74.5 27.5t-87.5 14t-74 38t-30.5 88q0 76 55.5 124t143.5 48q99 -1 163 -102q64 -103 54 -239q-12 -161 -123 -260q-115 -101 -309 -101q-288 0 -480 184
q-154 149 -199 367q-45 216 37 402q85 193 280 275q122 52 278 52q74 0 139.5 -27.5t111.5 -71t79 -98.5t49 -111t16 -106v-2q0 -36 -29 -59.5t-75 -26.5zM682 987q-71 0 -121.5 -54t-74.5 -139.5t-27 -195.5l256 14q47 6 73.5 46.5t27 94.5t-13 107.5t-47 90t-73.5 36.5z
" />
    <glyph glyph-name="g.ss03" unicode="&#xe046;" horiz-adv-x="1216" 
d="M602 96q-177 0 -303 74q-42 -6 -69 -29t-27 -47q0 -26 55 -35t143 -7.5t194.5 4t213.5 -6t195 -31.5t143 -79t55 -142q0 -91 -54.5 -173.5t-141 -138.5t-195 -89t-215.5 -33q-124 0 -242 22.5t-210 58t-176 78.5t-151 86t-123.5 78.5t-105 58t-84.5 22.5q-59 0 -72 -37
q-11 -32 23 -59q29 -23 78 -23q84 0 117.5 -67t-8 -134.5t-140.5 -67.5q-82 0 -137 80q-56 80 -42 179q16 118 127 177q84 44 210 44q114 0 282.5 -41.5t313.5 -91t310 -91t272 -41.5q80 0 129 27.5t49 85.5q0 44 -53 66t-138 26.5t-188 4.5t-205.5 6t-187.5 23t-138 63
t-53 120q0 43 17 77t46 56t61.5 35.5t70.5 20.5q-77 61 -121 147.5t-51 177.5t24 182t93.5 162t169.5 115.5t241 44.5q145 0 266 -57q30 67 71 132t98 131t120 115t141 80t158 31q152 0 208.5 -92.5t-2.5 -185t-185 -92.5q-37 0 -66 19.5t-46 47.5t-30 56t-26 47.5t-27 19.5
q-51 0 -103 -30t-97.5 -82t-82.5 -109t-69 -123q85 -58 135 -144.5t61 -179.5t-18 -187t-91.5 -168t-171 -120.5t-245.5 -46.5zM604 166q52 0 92.5 44t61.5 115t31 156t0 170.5t-31 156.5t-61.5 115t-92.5 44q-46 0 -83 -34.5t-60 -90.5t-35.5 -128t-12.5 -147.5
t12.5 -147.5t35.5 -128t60 -90.5t83 -34.5z" />
    <glyph glyph-name="h.ss03" unicode="&#xe047;" horiz-adv-x="1372" 
d="M10 31q0 22 39 39q42 20 71.5 85t33.5 183v455l-2 147q0 45 -0.5 71t-1.5 71.5t-4.5 74t-9.5 69.5t-15 67t-22 57.5t-31 51t-40.5 37.5t-52.5 26t-65 8q-67 0 -96 -34.5t-29 -80.5q0 -88 -60.5 -141.5t-117.5 -53.5q-98 0 -145 64q-45 62 -12 136q42 95 192 142
q110 35 262 35q87 0 169 -17.5t163 -61t141 -108t97.5 -166.5t37.5 -229v-110q34 81 110 133.5t179 52.5q91 0 152.5 -19.5t104 -66t67.5 -114.5t44 -175l95 -516q12 -65 25 -118.5t34 -119t49 -115t64 -92.5t85 -66t107 -23q65 0 94 34.5t29 80.5q0 60 32 106t72 66t76 20
q97 0 144 -64q44 -62 12 -135q-43 -96 -191 -143q-111 -35 -264 -35q-88 0 -174.5 18.5t-180 66t-168.5 120t-134.5 189.5t-83.5 264l-64 376q-30 175 -51 229q-36 95 -110 95q-62 0 -106 -52t-48 -140v-338h2q0 -132 29.5 -204t74.5 -93q39 -17 39 -39q0 -14 -11 -22.5
t-28 -8.5h-567q-19 0 -30 8.5t-11 22.5z" />
    <glyph glyph-name="i.ss03" unicode="&#xe048;" 
d="M82 911q0 14 8 22.5t21 8.5q97 6 194.5 39t149.5 70q24 12 37 12q20 0 20 -21v-823q0 -93 15 -164t39 -112.5t57.5 -68t65 -35.5t67.5 -9q90 0 149.5 61t59.5 148q0 43 -22 73t-54.5 43.5t-71 28t-71 27.5t-54.5 41t-22 70q0 93 54 146.5t144 53.5q119 0 201 -114.5
t82 -260.5q0 -79 -26.5 -149t-81 -128.5t-148.5 -93t-217 -34.5q-78 0 -150 14.5t-141 49.5t-119.5 88t-81.5 136.5t-32 188.5v547q-4 87 -43 108q-29 14 -29 37zM291 1098q-96 0 -153.5 54.5t-43.5 131.5q13 77 91.5 131.5t174.5 54.5t153 -54t42 -132
q-14 -77 -91.5 -131.5t-172.5 -54.5z" />
    <glyph glyph-name="k.ss03" unicode="&#xe049;" horiz-adv-x="1390" 
d="M512 958v-4h2v-481l236 244q46 48 41.5 99t-33.5 91t-68 60q-37 18 -37 41q0 14 11 22t30 8h484q19 0 30 -8t11 -22q0 -25 -39 -41q-74 -35 -171 -106t-169 -146l-72 -74q86 12 157 -15t122 -84t94 -134t77.5 -165.5t67 -177.5t68.5 -171t76.5 -145.5t95.5 -101.5
t121 -38q65 0 93.5 33.5t28.5 78.5q0 61 33 107.5t73 67t75 20.5q97 0 144 -64q45 -62 12 -136q-43 -95 -192 -142q-110 -35 -261 -35q-106 0 -199.5 24t-163 60t-134.5 95.5t-108.5 113.5t-89 131.5t-72 131t-62.5 130.5q-30 66 -46.5 98.5t-41.5 77t-47.5 70t-47.5 39.5
l-127 -133v-55q8 -208 102 -252q39 -17 39 -39q0 -14 -11 -22.5t-28 -8.5h-565q-19 0 -30 8.5t-11 22.5q0 22 39 39q45 21 75 93t30 204v573q-2 218 -23 315q-53 215 -223 218q-65 0 -94 -34.5t-29 -80.5q0 -88 -60.5 -141.5t-119.5 -53.5q-97 0 -144 64q-44 62 -12 135
q43 96 191 143q111 35 264 35q87 0 169.5 -17.5t163.5 -61t141 -108t97 -166.5t37 -229z" />
    <glyph glyph-name="l.ss03" unicode="&#xe04a;" 
d="M154 121v672l-2 147q0 45 -0.5 71t-1.5 71.5t-4.5 74t-9.5 69.5t-15 67t-22 57.5t-31 51t-40.5 37.5t-52.5 26t-65 8q-67 0 -96 -34.5t-29 -80.5q0 -88 -60.5 -141.5t-117.5 -53.5q-98 0 -145 64q-45 62 -12 136q42 95 192 142q110 35 262 35q87 0 169 -17.5t163 -61
t141 -108t97.5 -166.5t37.5 -229v-819q2 -218 23 -316q53 -213 221 -216q67 0 96 34t29 80q0 88 60.5 141.5t117.5 53.5q98 0 145 -64q44 -62 11 -135q-42 -96 -191 -143q-110 -35 -262 -35q-87 0 -169.5 18t-163.5 61.5t-141 108t-97 166.5t-37 228z" />
    <glyph glyph-name="m.ss03" unicode="&#xe04b;" horiz-adv-x="1998" 
d="M82 911q0 30 29 33q96 4 193 37t151 70q18 12 37 12q9 0 15.5 -6t6.5 -15v-147q33 64 94.5 101.5t149.5 37.5q148 0 224 -56t116 -190q30 99 121 172.5t208 73.5q177 0 253.5 -81.5t115.5 -293.5l100 -516q62 -313 244 -313q90 0 149.5 61t59.5 148q0 43 -22 73t-55 43.5
t-71.5 28t-71.5 27.5t-55 41t-22 70q0 93 55.5 146.5t145.5 53.5q79 0 144.5 -54.5t100.5 -140.5t35 -180q0 -79 -26.5 -149t-80 -128.5t-147.5 -93t-217 -34.5q-78 0 -150 12.5t-142.5 44t-124.5 79t-92.5 122.5t-49.5 170l-49 403q-10 78 -20 129t-28 99.5t-46.5 72
t-67.5 23.5q-63 0 -114 -66t-52 -159q0 -9 2 -13l52 -292q27 -156 47 -217.5t57 -79.5q39 -17 39 -39q0 -14 -11 -22.5t-30 -8.5h-565q-17 0 -28 8.5t-11 22.5q0 22 39 39q48 23 81.5 82.5t20.5 160.5l-35 260q-10 79 -20 129.5t-28 99t-46 72t-67 23.5q-90 0 -109 -125
v-405q0 -132 29.5 -204t74.5 -93q39 -17 39 -39q0 -14 -11 -22.5t-28 -8.5h-567q-19 0 -30 8.5t-11 22.5q0 22 39 39q45 21 75 93t30 204v399q-4 87 -43 108q-29 14 -29 37z" />
    <glyph glyph-name="n.ss03" unicode="&#xe04c;" horiz-adv-x="1372" 
d="M82 911q0 30 29 33q96 4 193 37t151 70q18 12 37 12q9 0 15.5 -6t6.5 -15v-188q34 78 110 129t177 51q91 0 152 -19t103 -66.5t67 -114.5t46 -175l101 -516q62 -313 243 -313q90 0 149.5 61t59.5 148q0 51 -30.5 83.5t-74 49t-87.5 32t-74.5 46.5t-30.5 80
q0 83 56.5 137.5t144.5 54.5q119 0 200 -114.5t81 -260.5q0 -79 -26.5 -149t-80 -128.5t-147.5 -93t-217 -34.5q-78 0 -150 12.5t-142.5 44t-124.5 79t-92.5 122.5t-49.5 170l-50 403q-10 79 -20 129.5t-28 99t-46 72t-67 23.5q-57 0 -100 -53t-52 -137v-340
q0 -132 29.5 -204t74.5 -93q39 -17 39 -39q0 -14 -11 -22.5t-28 -8.5h-567q-19 0 -30 8.5t-11 22.5q0 22 39 39q42 20 71.5 85t33.5 183v428q-4 87 -43 108q-29 14 -29 37z" />
    <glyph glyph-name="t.ss03" unicode="&#xe04d;" horiz-adv-x="751" 
d="M20 1024h43q29 0 74.5 13.5t100.5 41t111.5 79.5t92.5 118h41v-74q0 -28 1 -48t5.5 -45.5t14.5 -38t26 -11.5q93 30 191.5 81.5t176.5 100.5t163 95t184 74t205 28q141 0 199 -81q43 -60 17 -126.5t-105 -85.5q-25 -6 -52 -6q-45 0 -85 18t-65 40t-60 40t-72 18
q-63 0 -127.5 -21t-128.5 -55t-131.5 -70.5t-162 -73t-194.5 -56.5v-840q2 -218 23 -316q53 -213 221 -216q65 0 94 34t29 80t19 84.5t47.5 61.5t58.5 36t55 13q97 0 144 -64q45 -62 12 -136q-43 -95 -192 -142q-110 -35 -261 -35q-87 0 -169.5 18t-163.5 61.5t-141 108
t-97 166.5t-37 228v731q-4 93 -47 102q-3 0 -8 1t-7 1h-43q-20 0 -20 21v27q0 20 20 20z" />
    <glyph glyph-name="u.ss03" unicode="&#xe04e;" horiz-adv-x="1226" 
d="M651 911q0 13 8.5 22t22.5 9q96 6 192.5 38.5t151.5 70.5q20 12 37 12q20 0 20 -21v-823q0 -93 15 -164t39 -112.5t57.5 -68t65 -35.5t67.5 -9q90 0 149.5 61t59.5 148q0 43 -22 73t-55 43.5t-71.5 28t-71.5 27.5t-55 41t-22 70q0 93 55.5 146.5t145.5 53.5
q79 0 144.5 -54.5t100.5 -140.5t35 -180q0 -79 -26.5 -149t-80 -128.5t-147.5 -93t-217 -34.5q-73 0 -141 13t-134.5 44t-117 77t-85.5 118.5t-44 163.5q-40 -75 -115.5 -121.5t-169.5 -46.5q-160 0 -261 89t-101 238v441q-4 95 -45 116q-29 17 -29 37v2q0 12 9 20.5
t22 10.5q95 6 191.5 38t152.5 69q15 12 37 12q20 0 20 -21v-745q0 -67 14.5 -111.5t38.5 -61t53 -18.5t58.5 15t55 41t43.5 58t22 67v20h2v457q-4 90 -43 110q-31 16 -31 37z" />
    <glyph glyph-name="y.ss03" unicode="&#xe04f;" horiz-adv-x="1249" 
d="M799 952q-39 14 -39 41q0 14 11 22.5t30 8.5h407q17 0 28 -8.5t11 -22.5q0 -26 -37 -41q-64 -25 -135.5 -101.5t-107.5 -160.5l-262 -584q-300 -741 -868 -698q-237 18 -567 186q-53 27 -152 81q-180 97 -241 115q-30 9 -51 9q-39 0 -46 -33q-8 -36 27 -65q31 -25 81 -25
q88 0 122 -64q29 -56 -3 -117q-38 -72 -133 -85q-17 -2 -35 -2q-88 0 -143 82q-54 81 -38 180q19 118 128 176q80 43 198 43q101 0 212 -20.5t205.5 -50t195.5 -64.5t189 -61.5t177.5 -42.5t170.5 -6.5t158 45t150 113.5t138 198l-318 657l-20 41q-68 138 -111 191t-92 69
q-39 12 -39 35q0 31 39 31h563q18 0 28.5 -8.5t10.5 -22.5q0 -23 -37 -39q-46 -23 -39.5 -81t72.5 -207l119 -269l133 295q24 56 15 109t-38 93t-67 58z" />
    </font>
</defs>
</svg>
