<?xml version="1.0" encoding="utf-8"?>
<!-- Generator: Adobe Illustrator 25.2.3, SVG Export Plug-In . SVG Version: 6.00 Build 0)  -->
<svg version="1.1" id="Layer_1" xmlns="http://www.w3.org/2000/svg" xmlns:xlink="http://www.w3.org/1999/xlink" x="0px" y="0px"
	 viewBox="0 0 90.8 90.2" style="enable-background:new 0 0 90.8 90.2;" xml:space="preserve">
<style type="text/css">
	.st0{fill-rule:evenodd;clip-rule:evenodd;fill:#FFFFFF;}
</style>
<path id="Click_to_more_click_to_more_copy" class="st0" d="M36,8.5c2.3-0.6,3.7-1.9,3.9-3.6L37.2,5c0,0.9-0.7,1.6-1.6,1.7
	c-0.9,0.4-2-0.1-2.4-1c0-0.1-0.1-0.2-0.1-0.3c-0.3-1,0.3-2,1.3-2.3c0.1,0,0.2,0,0.3-0.1c0.8-0.3,1.7,0,2.2,0.8l2.4-1.1
	c-0.9-1.5-2.8-2.1-5.1-1.5c-2.7,0.7-4.3,2.7-3.7,4.9C31.1,8.3,33.2,9.2,36,8.5z M41.5,7.1l7-0.1V5L44,5.1L43.9,0l-2.6,0.1L41.5,7.1z
	 M52.1,7.7l1-7l-2.5-0.4l-1,7L52.1,7.7z M57.5,9.3c2.2,0.8,4.2,0.4,5.2-1L60.5,7C60,7.7,59,8,58.3,7.6c-1-0.3-1.6-1.3-1.3-2.3
	s1.3-1.6,2.3-1.3c0.1,0,0.2,0,0.2,0.1C60.4,4.3,61,5,60.9,5.9l2.7,0.4c0.1-1.7-1.3-3.2-3.5-4c-2.7-0.9-5.1,0-5.8,2.1
	C53.6,6.4,54.8,8.4,57.5,9.3L57.5,9.3z M67.9,14.4l2.4,1.6L70,10.6h0.2l3.9-0.6l-2.6-1.7L67.4,9L69,6.6l-2.1-1.4l-3.9,6l2.1,1.4
	l1-1.5l1.6-0.3L67.9,14.4z M82.6,19.2l-5.1-6.1L76,14.3l1.8,2.1l-3.9,3.3l1.6,2l3.9-3.3l1.8,2.1L82.6,19.2z M79.2,28.3
	c1.3,2.6,3.4,3.7,5.5,2.6s2.6-3.4,1.3-6s-3.4-3.7-5.5-2.6S77.9,25.7,79.2,28.3L79.2,28.3z M80.9,27.5c-0.4-1,0.1-2.1,1.1-2.5
	s2.1,0.1,2.5,1.1c0.4,0.9,0,2-1,2.5c-0.9,0.5-2.1,0.1-2.6-0.8C81,27.6,80.9,27.6,80.9,27.5L80.9,27.5z M83,37.3l0.1,2.2l3.9-0.2
	c0.5,0,1-0.1,1.5-0.2l0,0c-0.3,0.1-0.9,0.3-1.4,0.5l-3.9,1.7l0.2,2.4l4.1,1.3c0.5,0.2,1,0.3,1.4,0.4v0.1c-0.5-0.1-1-0.1-1.5,0
	l-3.9,0.2l0.1,2.3l7.1-0.5l-0.3-3.9l-3.7-1c-0.3-0.1-0.6-0.2-0.9-0.2l0,0c0.3-0.1,0.6-0.2,0.9-0.3l3.5-1.5L90,36.8L83,37.3z
	 M82.2,53.7c-0.7,2.9,0.3,5,2.6,5.6s4.1-0.9,4.8-3.8s-0.3-5-2.6-5.6S82.8,50.8,82.2,53.7L82.2,53.7z M84,54.1c0.3-1,1.4-1.6,2.5-1.3
	c1,0.3,1.6,1.4,1.3,2.5c-0.3,1-1.3,1.5-2.3,1.3s-1.7-1.2-1.5-2.3C83.9,54.3,84,54.2,84,54.1L84,54.1z M78.3,64.3L77,66.8l3.1-0.3
	c-0.1,1,0.4,1.9,1.2,2.3c1,0.5,2.4,0.4,3.5-1.7l2.3-4.4l-6.3-3.3l-1.2,2.3l2.1,1.1L81,64L78.3,64.3z M84.5,64.2l-0.8,1.6
	c-0.4,0.7-0.8,0.8-1.2,0.6s-0.6-0.6-0.2-1.3l0.8-1.6L84.5,64.2z M75.8,70.7l0.8,0.7l-3.1,3.5l1.2,1l3.1-3.5l0.8,0.7l-3.2,3.6
	l1.3,1.1l4.9-5.6l-5.3-4.7l-5,5.6l1.3,1.2L75.8,70.7z M66.5,82.7l1.2,1.1l0.6-1.5l0.3,1.4l1.5-1l-1.2-0.9l1.6,0.1l-0.4-1.6l-1.3,0.8
	l0.6-1.5l-1.7-0.1l0.3,1.6l-1.3-1L66,81.7l1.6,0.1L66.5,82.7z M55.4,81.5c-2.3,0.7-3.7,2-3.8,3.8l2.7-0.2c0-0.9,0.6-1.6,1.5-1.7
	c1-0.4,2.1,0.1,2.5,1.1s-0.1,2.1-1.1,2.5c-0.1,0-0.2,0.1-0.3,0.1c-0.8,0.4-1.7,0.1-2.2-0.7l-2.4,1.2c0.9,1.5,2.9,1.9,5.1,1.3
	c2.7-0.8,4.2-2.8,3.6-5C60.4,81.6,58.2,80.7,55.4,81.5L55.4,81.5z M50,83l-7,0.2l0.1,2l4.5-0.2l0.2,5.1l2.6-0.1L50,83z M39.3,82.6
	l-0.9,7l2.5,0.3l0.9-7L39.3,82.6z M33.8,81c-2.2-0.7-4.2-0.3-5.2,1l2.3,1.4c0.5-0.7,1.4-1,2.2-0.6c1,0.2,1.7,1.2,1.5,2.3
	c-0.2,1-1.2,1.7-2.3,1.5c-0.1,0-0.2-0.1-0.3-0.1c-0.9-0.1-1.5-0.9-1.4-1.8l-2.7-0.3c-0.1,1.7,1.3,3.2,3.5,3.9c2.7,0.9,5.1,0,5.7-2.2
	C37.9,83.9,36.6,81.9,33.8,81L33.8,81z M23.5,76.2L21,74.6l0.4,5.3h-0.2l-3.9,0.7l2.6,1.7l4.1-0.8l-1.5,2.4l2.2,1.4l3.8-6l-2.2-1.4
	l-0.9,1.5l-1.6,0.3L23.5,76.2z M8.7,71.6l5.2,6.1l1.5-1.3l-1.8-2.1l3.9-3.4L15.8,69l-3.9,3.4l-1.8-2.1L8.7,71.6z M11.9,62.4
	c-1.4-2.6-3.5-3.6-5.6-2.5s-2.5,3.4-1.2,6s3.5,3.6,5.6,2.6S13.2,65,11.9,62.4L11.9,62.4z M10.2,63.3c0.4,1-0.1,2.1-1.1,2.6
	c-1,0.4-2.1-0.1-2.6-1.1c-0.4-0.9,0-2,0.9-2.5s2.1-0.1,2.6,0.8C10.2,63.1,10.2,63.2,10.2,63.3L10.2,63.3z M8,53.4l-0.2-2.2l-3.9,0.3
	c-0.5,0-1,0.1-1.5,0.2l0,0c0.3-0.1,0.9-0.3,1.4-0.6l3.8-1.8L7.4,47l-4.1-1.2c-0.5-0.2-1.2-0.3-1.4-0.4v-0.1c0.5,0.1,1,0.1,1.5,0
	L7.3,45l-0.2-2.3L0,43.3l0.3,3.9L4,48.1c0.3,0.1,0.6,0.2,0.9,0.2l0,0c-0.3,0.1-0.6,0.2-0.9,0.3l-3.5,1.6L0.9,54L8,53.4z M8.5,37.1
	c0.6-2.9-0.4-5-2.7-5.5s-4.1,1-4.7,3.9s0.4,5,2.7,5.5S7.9,40,8.5,37.1L8.5,37.1z M6.7,36.7c-0.3,1-1.4,1.6-2.4,1.3S2.7,36.6,3,35.6
	s1.3-1.6,2.3-1.3c1,0.2,1.7,1.2,1.5,2.3C6.7,36.5,6.7,36.6,6.7,36.7L6.7,36.7z M12.3,26.4l1.3-2.5l-3.1,0.3c0.1-1-0.4-1.9-1.2-2.3
	c-1-0.5-2.4-0.4-3.5,1.8l-2.2,4.4l6.3,3.2l1.2-2.3l-2.3-1l0.7-1.3L12.3,26.4z M6,26.6L6.9,25c0.4-0.7,0.8-0.8,1.2-0.6
	c0.4,0.2,0.6,0.6,0.2,1.3l-0.8,1.6L6,26.6z M14.6,20l-0.8-0.7l3.1-3.6l-1.2-1l-3.1,3.6l-0.8-0.7l3.2-3.7l-1.3-1.1l-4.8,5.6l5.4,4.6
	l4.9-5.7l-1.3-1.1L14.6,20z M23.7,7.8l-1.3-1l-0.6,1.5l-0.3-1.4l-1.5,1l1.2,0.9h-1.6l0.4,1.6l1.3-0.8L20.7,11h1.7l-0.3-1.6l1.3,0.9
	l0.7-1.6l-1.6-0.1L23.7,7.8z"/>
</svg>
