<svg xmlns="http://www.w3.org/2000/svg" xmlns:xlink="http://www.w3.org/1999/xlink" viewBox="0 0 1787.73 561.24"><defs><style>.cls-1{fill:#fff;}.cls-2{isolation:isolate;}.cls-3{clip-path:url(#clip-path);}.cls-4{clip-path:url(#clip-path-2);}.cls-5{clip-path:url(#clip-path-3);}.cls-6{clip-path:url(#clip-path-4);}.cls-7{clip-path:url(#clip-path-5);}.cls-8{clip-path:url(#clip-path-6);}.cls-9{clip-path:url(#clip-path-7);}.cls-10{clip-path:url(#clip-path-8);}.cls-11{clip-path:url(#clip-path-9);}.cls-12{clip-path:url(#clip-path-10);}.cls-13{clip-path:url(#clip-path-11);}.cls-14{clip-path:url(#clip-path-12);}.cls-15{clip-path:url(#clip-path-13);}.cls-16{clip-path:url(#clip-path-14);}.cls-17{clip-path:url(#clip-path-15);}.cls-18{clip-path:url(#clip-path-16);}.cls-19{clip-path:url(#clip-path-17);}.cls-20{clip-path:url(#clip-path-18);}.cls-21{clip-path:url(#clip-path-19);}.cls-22{clip-path:url(#clip-path-20);}.cls-23{clip-path:url(#clip-path-21);}.cls-24{clip-path:url(#clip-path-22);}.cls-25{clip-path:url(#clip-path-23);}.cls-26{clip-path:url(#clip-path-24);}.cls-27{clip-path:url(#clip-path-25);}.cls-28{clip-path:url(#clip-path-26);}.cls-29{clip-path:url(#clip-path-27);}.cls-30{clip-path:url(#clip-path-28);}.cls-31{clip-path:url(#clip-path-29);}.cls-32{clip-path:url(#clip-path-30);}.cls-33{clip-path:url(#clip-path-31);}.cls-34{clip-path:url(#clip-path-32);}.cls-35{clip-path:url(#clip-path-33);}.cls-36{clip-path:url(#clip-path-34);}.cls-37{fill:#f297c9;}.cls-38{fill:#f4c058;}.cls-39{fill:#6bd1cf;}.cls-40{clip-path:url(#clip-path-35);}.cls-41{clip-path:url(#clip-path-36);}.cls-42{clip-path:url(#clip-path-37);}.cls-43{clip-path:url(#clip-path-38);}.cls-44{clip-path:url(#clip-path-39);}.cls-45{clip-path:url(#clip-path-40);}.cls-46{clip-path:url(#clip-path-41);}</style><clipPath id="clip-path"><path class="cls-1" d="M141.1,17.55,155.58,37a5.63,5.63,0,0,1,1,3.51L142.14,21.07A5.74,5.74,0,0,0,141.1,17.55Z"/></clipPath><clipPath id="clip-path-2"><path class="cls-1" d="M206,170.44l14.48,19.47a52.71,52.71,0,0,0-17.35-15.17c-3.86-1.93-6.58-3.86-8.18-6l-14.48-19.47c1.59,2.15,4.32,4.08,8.18,6A52.71,52.71,0,0,1,206,170.44Z"/></clipPath><clipPath id="clip-path-3"><path class="cls-1" d="M330.81,139.71l14.48,19.47a8.84,8.84,0,0,1,1.66,4.47l-14.48-19.48A8.84,8.84,0,0,0,330.81,139.71Z"/></clipPath><clipPath id="clip-path-4"><path class="cls-1" d="M321.72,155.27l14.48,19.47c-26.35,12.2-66.3,40.47-93.45,68.21l-14.48-19.47C255.42,195.74,295.37,167.47,321.72,155.27Z"/></clipPath><clipPath id="clip-path-5"><path class="cls-1" d="M332.47,144.17,347,163.65c-.06,4.43-4,8.31-10.75,11.09l-14.48-19.47C328.45,152.49,332.41,148.61,332.47,144.17Z"/></clipPath><clipPath id="clip-path-6"><path class="cls-1" d="M190.07,295.39l14.48,19.47c-5.22-7-10.68-12.47-16.63-15.91l-14.48-19.47C179.39,282.92,184.85,288.37,190.07,295.39Z"/></clipPath><clipPath id="clip-path-7"><path class="cls-1" d="M167.23,407.22l-14.48-19.47c-8.94-12-15.51-33.76-15-70l14.48,19.47C151.73,373.46,158.29,395.2,167.23,407.22Z"/></clipPath><clipPath id="clip-path-8"><path class="cls-1" d="M174,404.18l14.48,19.48a7,7,0,0,1,1.44,4.5c-.07,5-4.57,8.32-11.25,8.32L164.17,417c6.67,0,11.18-3.33,11.25-8.32A7.07,7.07,0,0,0,174,404.18Z"/></clipPath><clipPath id="clip-path-9"><path class="cls-1" d="M293.41,282.14l14.48,19.47c42,56.47,58.31,158.8,96.35,210l-14.48-19.47C351.72,440.94,335.41,338.61,293.41,282.14Z"/></clipPath><clipPath id="clip-path-10"><path class="cls-1" d="M1013.4,39l14.49,19.47c-9.51-12.79-23.4-20.71-43.65-20.71C957.52,37.76,950,55,949.81,68.83c-.51,34.93-31.95,52.67-49.21,52.67-17.8,0-31.35-6.88-38.94-17.08L847.18,85c7.58,10.2,21.14,17.08,38.94,17.08,17.26,0,48.7-17.74,49.21-52.67.21-13.88,7.7-31.07,34.43-31.07C990,18.29,1003.9,26.21,1013.4,39Z"/></clipPath><clipPath id="clip-path-11"><path class="cls-1" d="M565.46,456.69l14.48,19.47c21.58,29-5.18,85.08-120.78,85.08-81.87,0-132.33-37.69-167.31-84.71l-14.48-19.47c35,47,85.44,84.71,167.31,84.71C560.28,541.77,587,485.7,565.46,456.69Z"/></clipPath><clipPath id="clip-path-12"><path class="cls-1" d="M892.44,157.94l14.48,19.47c-3.8-5.11-11.06-8.23-23.73-8.23-50.79,0-75.57,131.8-31,191.71l-14.48-19.48c-44.55-59.9-19.77-191.7,31-191.7C881.38,149.71,888.64,152.83,892.44,157.94Z"/></clipPath><clipPath id="clip-path-13"><path class="cls-1" d="M948.27,169.21l14.48,19.48a83.85,83.85,0,0,1,16.3,51.48c-.41,27.73-20.65,40.49-40.7,40.49-12.32,0-24.57-4.88-31.83-14.64L892,246.55c7.26,9.76,19.51,14.64,31.83,14.64,20,0,40.29-12.76,40.7-40.49A84,84,0,0,0,948.27,169.21Z"/></clipPath><clipPath id="clip-path-14"><path class="cls-1" d="M1103.41,59.28l14.48,19.47c17.72,23.82,28.67,55.92,28,98.2l-14.49-19.47C1132.08,115.2,1121.13,83.1,1103.41,59.28Z"/></clipPath><clipPath id="clip-path-15"><path class="cls-1" d="M963.75,337.66l14.48,19.47a3.7,3.7,0,0,1,.73,2.26l-14.48-19.47A3.68,3.68,0,0,0,963.75,337.66Z"/></clipPath><clipPath id="clip-path-16"><path class="cls-1" d="M1195.28,185.6l14.48,19.47c-5.45-7.33-12.57-11.48-22.3-11.48-21.71,0-40.39,19.41-42.53,52.12l-14.49-19.47c2.15-32.71,20.82-52.12,42.54-52.12C1182.7,174.12,1189.83,178.27,1195.28,185.6Z"/></clipPath><clipPath id="clip-path-17"><path class="cls-1" d="M752.09,387.25l-14.48-19.47c22.7,30.52,60.41,51.44,113.77,51.44,56.25,0,103.46-29.39,113.1-79.3L979,359.39c-9.64,49.91-56.85,79.3-113.09,79.3C812.5,438.69,774.79,417.77,752.09,387.25Z"/></clipPath><clipPath id="clip-path-18"><path class="cls-1" d="M1007.21,432.62l-14.49-19.47c1.8,2.41,5.21,3.86,9.61,3.86l14.48,19.47C1012.41,436.48,1009,435,1007.21,432.62Z"/></clipPath><clipPath id="clip-path-19"><path class="cls-1" d="M1388.44,194.33,1374,174.86c1.35,1.81,3.57,3.5,6.66,5.37l14.48,19.47C1392,197.83,1389.79,196.14,1388.44,194.33Z"/></clipPath><clipPath id="clip-path-20"><path class="cls-1" d="M1284.42,165.53,1298.9,185c12,16.16,19.16,39.88,24.61,72.91L1309,238.44C1303.57,205.41,1296.44,181.69,1284.42,165.53Z"/></clipPath><clipPath id="clip-path-21"><path class="cls-1" d="M1385.55,184.54,1400,204a14.56,14.56,0,0,0-4.93-4.31l-14.48-19.47A14.56,14.56,0,0,1,1385.55,184.54Z"/></clipPath><clipPath id="clip-path-22"><path class="cls-1" d="M1159,407.15l-14.48-19.47c-9-12-15.6-33.76-15.46-69.94l14.48,19.47C1143.44,373.39,1150.09,395.11,1159,407.15Z"/></clipPath><clipPath id="clip-path-23"><path class="cls-1" d="M1489.41,131.24l14.48,19.48a5.6,5.6,0,0,1,1,3.5l-14.48-19.47A5.69,5.69,0,0,0,1489.41,131.24Z"/></clipPath><clipPath id="clip-path-24"><path class="cls-1" d="M1165.86,404.19l14.48,19.47a7.08,7.08,0,0,1,1.44,4.5c-.07,5-4.58,8.32-10.69,8.32L1156.6,417c6.12,0,10.63-3.33,10.7-8.32A7.14,7.14,0,0,0,1165.86,404.19Z"/></clipPath><clipPath id="clip-path-25"><path class="cls-1" d="M1564,194.71l-14.49-19.47a18.11,18.11,0,0,0,6.52,5l14.48,19.47A18.06,18.06,0,0,1,1564,194.71Z"/></clipPath><clipPath id="clip-path-26"><path class="cls-1" d="M1561.2,184.78l14.48,19.47a15.8,15.8,0,0,0-5.16-4.55L1556,180.23A15.8,15.8,0,0,1,1561.2,184.78Z"/></clipPath><clipPath id="clip-path-27"><path class="cls-1" d="M1664.83,131.23l14.48,19.48a5.63,5.63,0,0,1,1,3.51l-14.48-19.47A5.68,5.68,0,0,0,1664.83,131.23Z"/></clipPath><clipPath id="clip-path-28"><path class="cls-1" d="M1511.41,398.55l-14.48-19.47c-6-8.07-9.75-21.66-9.45-42.48L1502,356.07C1501.66,376.89,1505.41,390.48,1511.41,398.55Z"/></clipPath><clipPath id="clip-path-29"><path class="cls-1" d="M1386.2,511l-14.48-19.48c-22.27-29.95-32.84-75.94-39.13-113.36l14.49,19.47C1353.37,435.09,1363.93,481.08,1386.2,511Z"/></clipPath><clipPath id="clip-path-30"><path class="cls-1" d="M1420.64,403.5,1406.15,384c16.89,22.7,45.9,35.74,81.22,35.74,34.52,0,62.1-18.85,77.49-43.8l14.49,19.47c-15.4,25-43,43.8-77.5,43.8C1466.53,439.24,1437.53,426.2,1420.64,403.5Z"/></clipPath><clipPath id="clip-path-31"><path class="cls-1" d="M1583.55,427.57l-14.48-19.47c4.81,6.46,13.16,10.72,23.45,10.72,1.13,0,2.29-.05,3.47-.15l14.48,19.47c-1.18.1-2.33.15-3.47.15C1596.71,438.29,1588.36,434,1583.55,427.57Z"/></clipPath><clipPath id="clip-path-32"><path class="cls-1" d="M1682.42,391.54l-14.48-19.47c-4.94-6.63-5.31-16.71-5.21-23.83l14.48,19.47C1677.11,374.83,1677.49,384.91,1682.42,391.54Z"/></clipPath><clipPath id="clip-path-33"><path class="cls-1" d="M1699,381.59l14.48,19.48c3.3,4.42,2.47,11.59-3,12.66L1696,394.26C1701.47,393.19,1702.3,386,1699,381.59Z"/></clipPath><clipPath id="clip-path-34"><path class="cls-1" d="M1551.74,456.67l14.48,19.47c21.57,29-5.27,85.1-121.3,85.1-51.41,0-116.56-18.68-158.92-75.63l-14.48-19.47c42.36,57,107.51,75.63,158.92,75.63C1546.47,541.77,1573.31,485.67,1551.74,456.67Z"/></clipPath><clipPath id="clip-path-35"><path class="cls-1" d="M452.15,81.55l16.2,18.58c8.09,9.29,14.89,21.57,18.19,28.58,5.59,11.89,15.47,39.14,17.23,49.75,5.57,33.86-5.89,54.84-27.57,59.48a21.12,21.12,0,0,1-2.84.41c-9.44.74-19.23-4.76-27.85-14.65l-16.2-18.58c8.63,9.89,18.41,15.39,27.85,14.65a21.12,21.12,0,0,0,2.84-.41c21.68-4.64,33.14-25.62,27.58-59.48-1.76-10.61-11.65-37.86-17.24-49.75C467,103.12,460.25,90.84,452.15,81.55Z"/></clipPath><clipPath id="clip-path-36"><path class="cls-1" d="M396.07,195.2l16.19,18.59a141.83,141.83,0,0,1,9.09,11.53c7.54,10.76,21.92,35.88,25.43,46,11.23,32.36,3.43,54.9-17.21,63.11a21.94,21.94,0,0,1-6.44,1.48c-11.5.9-24.67-6.74-36.38-20.17l-16.2-18.58c11.71,13.43,24.89,21.07,36.39,20.17a22,22,0,0,0,6.44-1.48c20.64-8.21,28.43-30.75,17.21-63.11-3.52-10.15-17.9-35.27-25.43-46A145.81,145.81,0,0,0,396.07,195.2Z"/></clipPath><clipPath id="clip-path-37"><path class="cls-1" d="M559.48,61.61l16.2,18.58c9.61,11,18.08,26.64,23.5,44.9,12,40.42,4.53,78.51-16.68,85.08a37.05,37.05,0,0,1-8,1.57c-10.77.83-20.92-3.58-29.37-13.27l-16.2-18.58c8.45,9.69,18.6,14.1,29.38,13.26a36.35,36.35,0,0,0,8-1.56C587.52,185,595,146.93,583,106.5,577.56,88.25,569.09,72.63,559.48,61.61Z"/></clipPath><clipPath id="clip-path-38"><path class="cls-1" d="M661.79,113.83,678,132.41c11,12.65,19.64,33.59,22.55,58,5,42-8.81,78.35-30.78,81.28-.72.09-1.43.17-2.14.22-10.88.85-20.54-3.08-28-11.65l-16.2-18.58c7.48,8.57,17.13,12.49,28,11.65.71-.05,1.43-.13,2.15-.23,22-2.92,35.74-39.3,30.77-81.27C681.44,147.42,672.82,126.48,661.79,113.83Z"/></clipPath><clipPath id="clip-path-39"><path class="cls-1" d="M455.8,423.15l-16.2-18.58c9.94,11.4,23.08,13.89,33.42,13.09a44.14,44.14,0,0,0,7.5-1.23c28.87-7.35,23.18-31.11,39.16-32.35a23,23,0,0,1,6.11.46c.59.12,1.14.18,1.71.27l16.2,18.58c-.57-.09-1.12-.15-1.71-.27a22.54,22.54,0,0,0-6.11-.45c-16,1.23-10.29,25-39.17,32.35a45,45,0,0,1-7.5,1.22C478.88,437,465.74,434.55,455.8,423.15Z"/></clipPath><clipPath id="clip-path-40"><path class="cls-1" d="M580.09,371.07l16.2,18.58a56.59,56.59,0,0,1-24.69,13.4,59.83,59.83,0,0,1-10.52,1.79,53.17,53.17,0,0,1-17.38-1.45l-16.2-18.58a53.23,53.23,0,0,0,17.39,1.45,60,60,0,0,0,10.52-1.79A56.66,56.66,0,0,0,580.09,371.07Z"/></clipPath><clipPath id="clip-path-41"><path class="cls-1" d="M636.25,276.32l16.2,18.58C668.53,313.35,684.08,337,683.83,354c-.37,25.72-19.21,37.07-31.54,40.39a45.55,45.55,0,0,1-8.24,1.46c-9.66.75-16.27-2.41-21.77-5.66s-9.89-6.58-15.1-6.18c-2.83.22-5.9,1.54-9.52,4.58-.47.38-.92.71-1.37,1.07l-16.2-18.58c.45-.36.9-.69,1.37-1.07,3.62-3,6.69-4.36,9.52-4.58,5.21-.4,9.6,2.93,15.1,6.18s12.12,6.41,21.77,5.66a45.55,45.55,0,0,0,8.24-1.46c12.34-3.32,31.18-14.67,31.55-40.39C667.88,318.37,652.33,294.76,636.25,276.32Z"/></clipPath></defs><g id="paw"><path class="cls-1" d="M42,501.9H218.1c8.1,0,16.21.13,24.31,0h.34c10.45,0,20.47-9.2,20-20s-8.79-20-20-20H66.62c-8.1,0-16.21-.13-24.31,0H42c-10.45,0-20.47,9.2-20,20s8.78,20,20,20Z"/><path class="cls-1" d="M631,501.9h563c7.59,0,15.19.07,22.79,0h1c10.45,0,20.47-9.2,20-20s-8.78-20-20-20h-563c-7.6,0-15.2-.07-22.8,0h-1c-10.46,0-20.47,9.2-20,20s8.78,20,20,20Z"/><g class="cls-2"><path class="cls-1" d="M141.1,17.55,155.58,37a5.63,5.63,0,0,1,1,3.51L142.14,21.07A5.74,5.74,0,0,0,141.1,17.55Z"/><g class="cls-3"><g class="cls-2"><path class="cls-1" d="M141.1,17.55,155.58,37a5.46,5.46,0,0,1,1,3.18L142.13,20.74a5.57,5.57,0,0,0-1-3.19"/><path class="cls-1" d="M142.13,20.74l14.48,19.47c0,.11,0,.22,0,.33L142.14,21.07c0-.11,0-.22,0-.33"/></g></g></g><g class="cls-2"><path class="cls-1" d="M206,170.44l14.48,19.47a52.71,52.71,0,0,0-17.35-15.17c-3.86-1.93-6.58-3.86-8.18-6l-14.48-19.47c1.59,2.15,4.32,4.08,8.18,6A52.71,52.71,0,0,1,206,170.44Z"/><g class="cls-4"><g class="cls-2"><path class="cls-1" d="M206,170.44l14.48,19.47a52.71,52.71,0,0,0-17.35-15.17c-3.86-1.93-6.58-3.86-8.18-6l-14.48-19.47c1.59,2.15,4.32,4.08,8.18,6A52.71,52.71,0,0,1,206,170.44"/></g></g></g><g class="cls-2"><path class="cls-1" d="M330.81,139.71l14.48,19.47a8.84,8.84,0,0,1,1.66,4.47l-14.48-19.48A8.84,8.84,0,0,0,330.81,139.71Z"/><g class="cls-5"><g class="cls-2"><path class="cls-1" d="M330.81,139.71l14.48,19.47a8.84,8.84,0,0,1,1.66,4.47l-14.48-19.48a8.84,8.84,0,0,0-1.66-4.46"/></g></g></g><polygon class="cls-1" points="142.13 21.07 156.62 40.54 152.67 308.94 138.19 289.47 142.13 21.07"/><g class="cls-2"><path class="cls-1" d="M321.72,155.27l14.48,19.47c-26.35,12.2-66.3,40.47-93.45,68.21l-14.48-19.47C255.42,195.74,295.37,167.47,321.72,155.27Z"/><g class="cls-6"><g class="cls-2"><path class="cls-1" d="M321.72,155.27l14.48,19.47c-26.35,12.2-66.3,40.47-93.45,68.21l-14.48-19.47c27.15-27.74,67.1-56,93.45-68.21"/></g></g></g><g class="cls-2"><path class="cls-1" d="M332.47,144.17,347,163.65c-.06,4.43-4,8.31-10.75,11.09l-14.48-19.47C328.45,152.49,332.41,148.61,332.47,144.17Z"/><g class="cls-7"><g class="cls-2"><path class="cls-1" d="M332.47,144.17,347,163.65a6.74,6.74,0,0,1-.08,1l-14.48-19.47a6.77,6.77,0,0,0,.08-1"/><path class="cls-1" d="M332.39,145.18l14.48,19.47a6.69,6.69,0,0,1-.26,1.14l-14.48-19.47a7.8,7.8,0,0,0,.26-1.14"/><path class="cls-1" d="M332.13,146.32l14.48,19.47a8.45,8.45,0,0,1-.43,1.11L331.7,147.42a9.27,9.27,0,0,0,.43-1.1"/><path class="cls-1" d="M331.7,147.42l14.48,19.48a11.1,11.1,0,0,1-.71,1.23L331,148.66a10.37,10.37,0,0,0,.71-1.24"/><path class="cls-1" d="M331,148.66l14.48,19.47a11.37,11.37,0,0,1-1.32,1.61l-14.48-19.47a12.1,12.1,0,0,0,1.32-1.61"/><path class="cls-1" d="M329.67,150.27l14.48,19.47a23.58,23.58,0,0,1-7.95,5l-14.48-19.47a23.58,23.58,0,0,0,7.95-5"/></g></g></g><polygon class="cls-1" points="228.27 223.48 242.75 242.95 222.97 262.92 208.49 243.44 228.27 223.48"/><polygon class="cls-1" points="173.44 279.48 187.92 298.95 152.29 335 137.81 315.53 173.44 279.48"/><polygon class="cls-1" points="137.81 315.53 152.29 335 152.26 337.21 137.78 317.74 137.81 315.53"/><g class="cls-2"><path class="cls-1" d="M190.07,295.39l14.48,19.47c-5.22-7-10.68-12.47-16.63-15.91l-14.48-19.47C179.39,282.92,184.85,288.37,190.07,295.39Z"/><g class="cls-8"><g class="cls-2"><path class="cls-1" d="M190.07,295.39l14.48,19.47c-5.22-7-10.68-12.47-16.63-15.91l-14.48-19.47c5.95,3.44,11.41,8.89,16.63,15.91"/></g></g></g><g class="cls-2"><path class="cls-1" d="M167.23,407.22l-14.48-19.47c-8.94-12-15.51-33.76-15-70l14.48,19.47C151.73,373.46,158.29,395.2,167.23,407.22Z"/><g class="cls-9"><g class="cls-2"><path class="cls-1" d="M137.78,317.74l14.48,19.47q-.09,6.09.08,11.65l-14.48-19.47q-.17-5.56-.08-11.65"/><path class="cls-1" d="M137.86,329.39l14.48,19.47c.89,29.35,7,47.68,14.89,58.36l-14.48-19.47c-7.94-10.68-14-29-14.89-58.36"/></g></g></g><polygon class="cls-1" points="164.17 417.01 178.65 436.48 25.5 436.48 11.02 417.01 164.17 417.01"/><g class="cls-2"><path class="cls-1" d="M174,404.18l14.48,19.48a7,7,0,0,1,1.44,4.5c-.07,5-4.57,8.32-11.25,8.32L164.17,417c6.67,0,11.18-3.33,11.25-8.32A7.07,7.07,0,0,0,174,404.18Z"/><g class="cls-10"><g class="cls-2"><path class="cls-1" d="M174,404.18l14.48,19.48a7,7,0,0,1,1.44,4.11L175.42,408.3a7.07,7.07,0,0,0-1.44-4.12"/><path class="cls-1" d="M175.42,408.3l14.48,19.47v.39a7.48,7.48,0,0,1-.08,1.07l-14.48-19.47a7.48,7.48,0,0,0,.08-1.07v-.39"/><path class="cls-1" d="M175.34,409.76l14.48,19.47a7.66,7.66,0,0,1-.25,1.1l-14.49-19.47a8,8,0,0,0,.26-1.1"/><path class="cls-1" d="M175.08,410.86l14.49,19.47a8,8,0,0,1-.38,1l-14.48-19.47a6.56,6.56,0,0,0,.37-1"/><path class="cls-1" d="M174.71,411.82l14.48,19.47a7.9,7.9,0,0,1-.54.94l-14.48-19.47a7.9,7.9,0,0,0,.54-.94"/><path class="cls-1" d="M174.17,412.76l14.48,19.47a7.5,7.5,0,0,1-.84,1L173.33,413.8a8.31,8.31,0,0,0,.84-1"/><path class="cls-1" d="M173.33,413.8l14.48,19.47c-2,2-5.17,3.21-9.16,3.21L164.17,417c4,0,7.2-1.19,9.16-3.21"/></g></g></g><g class="cls-2"><path class="cls-1" d="M293.41,282.14l14.48,19.47c42,56.47,58.31,158.8,96.35,210l-14.48-19.47C351.72,440.94,335.41,338.61,293.41,282.14Z"/><g class="cls-11"><g class="cls-2"><path class="cls-1" d="M293.41,282.14l14.48,19.47c42,56.47,58.31,158.8,96.35,210l-14.48-19.47c-38-51.15-54.35-153.48-96.35-209.95"/></g></g></g><g class="cls-2"><path class="cls-1" d="M1013.4,39l14.49,19.47c-9.51-12.79-23.4-20.71-43.65-20.71C957.52,37.76,950,55,949.81,68.83c-.51,34.93-31.95,52.67-49.21,52.67-17.8,0-31.35-6.88-38.94-17.08L847.18,85c7.58,10.2,21.14,17.08,38.94,17.08,17.26,0,48.7-17.74,49.21-52.67.21-13.88,7.7-31.07,34.43-31.07C990,18.29,1003.9,26.21,1013.4,39Z"/><g class="cls-12"><g class="cls-2"><path class="cls-1" d="M1013.4,39l14.49,19.47c-9.51-12.79-23.4-20.71-43.65-20.71-12.57,0-20.88,3.81-26.19,9.28L943.57,27.57c5.3-5.47,13.62-9.28,26.19-9.28,20.25,0,34.14,7.92,43.64,20.71"/><path class="cls-1" d="M943.57,27.57,958.05,47a26.39,26.39,0,0,0-2.94,3.63L940.63,31.2a25.67,25.67,0,0,1,2.94-3.63"/><path class="cls-1" d="M940.63,31.2l14.48,19.47A27.79,27.79,0,0,0,953,54.33L938.54,34.86a27.79,27.79,0,0,1,2.09-3.66"/><path class="cls-1" d="M938.54,34.86,953,54.33a31.45,31.45,0,0,0-1.61,4.15L936.92,39a33,33,0,0,1,1.62-4.15"/><path class="cls-1" d="M936.92,39l14.49,19.47a34.07,34.07,0,0,0-1.17,5.17L935.75,44.18A36.66,36.66,0,0,1,936.92,39"/><path class="cls-1" d="M935.75,44.18l14.49,19.47a38.49,38.49,0,0,0-.43,5.18,54.59,54.59,0,0,1-.6,7.48L934.73,56.84a56.22,56.22,0,0,0,.6-7.48,40.16,40.16,0,0,1,.42-5.18"/><path class="cls-1" d="M934.73,56.84l14.48,19.47a53.28,53.28,0,0,1-1.77,7.76L933,64.6a53.28,53.28,0,0,0,1.77-7.76"/><path class="cls-1" d="M933,64.6l14.48,19.47a50.86,50.86,0,0,1-2.67,6.84L930.29,71.44A50.86,50.86,0,0,0,933,64.6"/><path class="cls-1" d="M930.29,71.44l14.48,19.47a53.2,53.2,0,0,1-3.85,6.73L926.43,78.17a52.06,52.06,0,0,0,3.86-6.73"/><path class="cls-1" d="M926.43,78.17l14.49,19.47a53.88,53.88,0,0,1-6,7.34L920.46,85.51a53.08,53.08,0,0,0,6-7.34"/><path class="cls-1" d="M920.46,85.51,934.94,105c-10.63,11-24.7,16.52-34.34,16.52-17.8,0-31.35-6.88-38.94-17.08L847.18,85c7.58,10.2,21.14,17.08,38.94,17.08,9.64,0,23.71-5.54,34.34-16.52"/></g></g></g><g class="cls-2"><path class="cls-1" d="M565.46,456.69l14.48,19.47c21.58,29-5.18,85.08-120.78,85.08-81.87,0-132.33-37.69-167.31-84.71l-14.48-19.47c35,47,85.44,84.71,167.31,84.71C560.28,541.77,587,485.7,565.46,456.69Z"/><g class="cls-13"><g class="cls-2"><path class="cls-1" d="M565.46,456.69l14.48,19.47a34.24,34.24,0,0,1,6.81,19.44l-14.48-19.47a34.21,34.21,0,0,0-6.81-19.44"/><path class="cls-1" d="M572.27,476.13l14.48,19.47a36.34,36.34,0,0,1-.39,6.55l-14.48-19.47a36.34,36.34,0,0,0,.39-6.55"/><path class="cls-1" d="M571.88,482.68l14.48,19.47a37.91,37.91,0,0,1-1.32,5.76l-14.48-19.47a37.91,37.91,0,0,0,1.32-5.76"/><path class="cls-1" d="M570.56,488.44,585,507.91a41.61,41.61,0,0,1-2.31,5.88l-14.48-19.47a44.17,44.17,0,0,0,2.31-5.88"/><path class="cls-1" d="M568.25,494.32l14.48,19.47a48.25,48.25,0,0,1-3.69,6.37l-14.48-19.47a48.25,48.25,0,0,0,3.69-6.37"/><path class="cls-1" d="M564.56,500.69,579,520.16a57.57,57.57,0,0,1-6.57,8L558,508.65a57.57,57.57,0,0,0,6.57-8"/><path class="cls-1" d="M558,508.65l14.48,19.47c-18,18.32-53.92,33.12-113.31,33.12-81.87,0-132.33-37.69-167.31-84.71l-14.48-19.47c35,47,85.44,84.71,167.31,84.71,59.39,0,95.32-14.8,113.31-33.12"/></g></g></g><g class="cls-2"><path class="cls-1" d="M892.44,157.94l14.48,19.47c-3.8-5.11-11.06-8.23-23.73-8.23-50.79,0-75.57,131.8-31,191.71l-14.48-19.48c-44.55-59.9-19.77-191.7,31-191.7C881.38,149.71,888.64,152.83,892.44,157.94Z"/><g class="cls-14"><g class="cls-2"><path class="cls-1" d="M892.44,157.94l14.48,19.47c-3.8-5.11-11.06-8.23-23.73-8.23-9.19,0-17.52,4.32-24.75,11.73L844,161.44c7.23-7.41,15.56-11.73,24.75-11.73,12.67,0,19.93,3.12,23.73,8.23"/><path class="cls-1" d="M844,161.44l14.48,19.47a64.73,64.73,0,0,0-7.38,9.2l-14.49-19.48a66,66,0,0,1,7.39-9.19"/><path class="cls-1" d="M836.57,170.63l14.49,19.48a93.47,93.47,0,0,0-6.95,12.31L829.63,183a95.4,95.4,0,0,1,6.94-12.32"/><path class="cls-1" d="M829.63,183l14.48,19.47a135.54,135.54,0,0,0-6.94,18.05L822.69,201A135.54,135.54,0,0,1,829.63,183"/><path class="cls-1" d="M822.69,201l14.48,19.47a180.89,180.89,0,0,0-5.9,26.18l-14.48-19.47a179.28,179.28,0,0,1,5.9-26.18"/><path class="cls-1" d="M816.79,227.18l14.48,19.47a204.52,204.52,0,0,0-2.18,36.77L814.61,264a204.52,204.52,0,0,1,2.18-36.77"/><path class="cls-1" d="M814.61,264l14.48,19.47c.89,28.79,8,57.23,23.08,77.47l-14.48-19.48c-15.05-20.23-22.19-48.67-23.08-77.46"/></g></g></g><g class="cls-2"><path class="cls-1" d="M948.27,169.21l14.48,19.48a83.85,83.85,0,0,1,16.3,51.48c-.41,27.73-20.65,40.49-40.7,40.49-12.32,0-24.57-4.88-31.83-14.64L892,246.55c7.26,9.76,19.51,14.64,31.83,14.64,20,0,40.29-12.76,40.7-40.49A84,84,0,0,0,948.27,169.21Z"/><g class="cls-15"><g class="cls-2"><path class="cls-1" d="M948.27,169.21l14.48,19.48A83.55,83.55,0,0,1,979,236.06l-14.49-19.47a83.53,83.53,0,0,0-16.26-47.38"/><path class="cls-1" d="M964.53,216.59,979,236.06q.06,2.06,0,4.11a53.67,53.67,0,0,1-.56,7L964,227.72a54,54,0,0,0,.56-7c0-1.37,0-2.74,0-4.11"/><path class="cls-1" d="M964,227.72l14.48,19.47a44.93,44.93,0,0,1-1.49,6.58l-14.48-19.48a44.5,44.5,0,0,0,1.49-6.57"/><path class="cls-1" d="M962.52,234.29,977,253.77a39,39,0,0,1-2.07,5.31l-14.48-19.47a40,40,0,0,0,2.07-5.32"/><path class="cls-1" d="M960.45,239.61l14.48,19.47a36.72,36.72,0,0,1-2.72,4.77l-14.48-19.47a36.72,36.72,0,0,0,2.72-4.77"/><path class="cls-1" d="M957.73,244.38l14.48,19.47a36.12,36.12,0,0,1-3.93,4.86l-14.49-19.47a35.42,35.42,0,0,0,3.94-4.86"/><path class="cls-1" d="M953.79,249.24l14.49,19.47c-7.82,8.09-18.9,12-29.93,12-12.32,0-24.57-4.88-31.83-14.64L892,246.55c7.26,9.76,19.51,14.64,31.83,14.64,11,0,22.11-3.86,29.92-11.95"/></g></g></g><g class="cls-2"><path class="cls-1" d="M1103.41,59.28l14.48,19.47c17.72,23.82,28.67,55.92,28,98.2l-14.49-19.47C1132.08,115.2,1121.13,83.1,1103.41,59.28Z"/><g class="cls-16"><g class="cls-2"><path class="cls-1" d="M1103.41,59.28l14.48,19.47c16.25,21.85,26.81,50.65,28,87.89l-14.48-19.47c-1.16-37.24-11.71-66-28-87.89"/><path class="cls-1" d="M1131.37,147.17l14.48,19.47q.17,5.06.09,10.31l-14.49-19.47c.06-3.51,0-6.94-.08-10.31"/></g></g></g><polygon class="cls-1" points="1131.45 157.48 1145.94 176.95 1145.5 206.9 1131.02 187.42 1131.45 157.48"/><g class="cls-2"><path class="cls-1" d="M963.75,337.66l14.48,19.47a3.7,3.7,0,0,1,.73,2.26l-14.48-19.47A3.68,3.68,0,0,0,963.75,337.66Z"/><g class="cls-17"><g class="cls-2"><path class="cls-1" d="M963.75,337.66l14.48,19.47a3.63,3.63,0,0,1,.73,2.09l-14.48-19.47a3.6,3.6,0,0,0-.73-2.09"/><path class="cls-1" d="M964.48,339.75,979,359.22v.17l-14.48-19.47v-.17"/></g></g></g><g class="cls-2"><path class="cls-1" d="M1195.28,185.6l14.48,19.47c-5.45-7.33-12.57-11.48-22.3-11.48-21.71,0-40.39,19.41-42.53,52.12l-14.49-19.47c2.15-32.71,20.82-52.12,42.54-52.12C1182.7,174.12,1189.83,178.27,1195.28,185.6Z"/><g class="cls-18"><g class="cls-2"><path class="cls-1" d="M1195.28,185.6l14.48,19.47c-5.45-7.33-12.57-11.48-22.3-11.48-10,0-19.36,4.12-26.76,11.76l-14.48-19.47c7.4-7.64,16.76-11.76,26.76-11.76,9.72,0,16.85,4.15,22.3,11.48"/><path class="cls-1" d="M1146.22,185.88l14.48,19.47a47.16,47.16,0,0,0-5.17,6.41L1141,192.29a48,48,0,0,1,5.18-6.41"/><path class="cls-1" d="M1141,192.29l14.49,19.47a54.14,54.14,0,0,0-4,7.07L1137,199.36a54.6,54.6,0,0,1,4-7.07"/><path class="cls-1" d="M1137,199.36l14.48,19.47a63.58,63.58,0,0,0-3.29,8.46l-14.48-19.47a61.74,61.74,0,0,1,3.29-8.46"/><path class="cls-1" d="M1133.74,207.82l14.48,19.47a75.68,75.68,0,0,0-2.51,11.13l-14.49-19.48a77.14,77.14,0,0,1,2.52-11.12"/><path class="cls-1" d="M1131.22,218.94l14.49,19.48q-.54,3.53-.78,7.29l-14.49-19.47q.25-3.77.78-7.3"/></g></g></g><g class="cls-2"><path class="cls-1" d="M752.09,387.25l-14.48-19.47c22.7,30.52,60.41,51.44,113.77,51.44,56.25,0,103.46-29.39,113.1-79.3L979,359.39c-9.64,49.91-56.85,79.3-113.09,79.3C812.5,438.69,774.79,417.77,752.09,387.25Z"/><g class="cls-19"><g class="cls-2"><path class="cls-1" d="M964.48,339.92,979,359.39a91.29,91.29,0,0,1-2.46,9.84L962,349.76a91.88,91.88,0,0,0,2.46-9.84"/><path class="cls-1" d="M962,349.76l14.48,19.47a90.09,90.09,0,0,1-4.64,11.9l-14.49-19.47a88.76,88.76,0,0,0,4.65-11.9"/><path class="cls-1" d="M957.37,361.66l14.49,19.47a88.14,88.14,0,0,1-6.5,11.36L950.88,373a87.58,87.58,0,0,0,6.49-11.36"/><path class="cls-1" d="M950.88,373l14.48,19.47a89.59,89.59,0,0,1-10,12.32l-14.48-19.47a89.59,89.59,0,0,0,10-12.32"/><path class="cls-1" d="M940.88,385.34l14.48,19.47c-21.11,21.81-53.45,33.88-89.49,33.88-53.37,0-91.08-20.92-113.78-51.44l-14.48-19.47c22.7,30.52,60.41,51.44,113.77,51.44,36,0,68.39-12.07,89.5-33.88"/></g></g></g><polygon class="cls-1" points="1130.44 226.24 1144.93 245.71 1143.58 337.21 1129.1 317.74 1130.44 226.24"/><g class="cls-2"><path class="cls-1" d="M1007.21,432.62l-14.49-19.47c1.8,2.41,5.21,3.86,9.61,3.86l14.48,19.47C1012.41,436.48,1009,435,1007.21,432.62Z"/><g class="cls-20"><g class="cls-2"><path class="cls-1" d="M1002.33,417l14.48,19.47c-4.4,0-7.81-1.45-9.6-3.86l-14.49-19.47c1.8,2.41,5.21,3.86,9.61,3.86"/></g></g></g><g class="cls-2"><path class="cls-1" d="M1388.44,194.33,1374,174.86c1.35,1.81,3.57,3.5,6.66,5.37l14.48,19.47C1392,197.83,1389.79,196.14,1388.44,194.33Z"/><g class="cls-21"><g class="cls-2"><path class="cls-1" d="M1380.62,180.23l14.48,19.47c-3.09-1.87-5.31-3.56-6.66-5.37L1374,174.86c1.35,1.81,3.57,3.5,6.66,5.37"/></g></g></g><g class="cls-2"><path class="cls-1" d="M1284.42,165.53,1298.9,185c12,16.16,19.16,39.88,24.61,72.91L1309,238.44C1303.57,205.41,1296.44,181.69,1284.42,165.53Z"/><g class="cls-22"><g class="cls-2"><path class="cls-1" d="M1284.42,165.53,1298.9,185c12,16.16,19.16,39.88,24.61,72.91L1309,238.44c-5.46-33-12.59-56.75-24.61-72.91"/></g></g></g><g class="cls-2"><path class="cls-1" d="M1385.55,184.54,1400,204a14.56,14.56,0,0,0-4.93-4.31l-14.48-19.47A14.56,14.56,0,0,1,1385.55,184.54Z"/><g class="cls-23"><g class="cls-2"><path class="cls-1" d="M1385.55,184.54,1400,204a14.56,14.56,0,0,0-4.93-4.31l-14.48-19.47a14.56,14.56,0,0,1,4.93,4.31"/></g></g></g><g class="cls-2"><path class="cls-1" d="M1159,407.15l-14.48-19.47c-9-12-15.6-33.76-15.46-69.94l14.48,19.47C1143.44,373.39,1150.09,395.11,1159,407.15Z"/><g class="cls-24"><g class="cls-2"><path class="cls-1" d="M1129.1,317.74l14.48,19.47q0,4.79.12,9.22L1129.22,327c-.09-3-.13-6-.12-9.22"/><path class="cls-1" d="M1129.22,327l14.48,19.47c.93,30.71,7.18,49.74,15.34,60.72l-14.48-19.47c-8.17-11-14.41-30-15.34-60.72"/></g></g></g><g class="cls-2"><path class="cls-1" d="M1489.41,131.24l14.48,19.48a5.6,5.6,0,0,1,1,3.5l-14.48-19.47A5.69,5.69,0,0,0,1489.41,131.24Z"/><g class="cls-25"><g class="cls-2"><path class="cls-1" d="M1489.41,131.24l14.48,19.48a5.51,5.51,0,0,1,1,3.17l-14.49-19.47a5.49,5.49,0,0,0-1-3.18"/><path class="cls-1" d="M1490.44,134.42l14.49,19.47v.33l-14.48-19.47c0-.11,0-.22,0-.33"/></g></g></g><polygon class="cls-1" points="1156.6 417.01 1171.09 436.48 1016.81 436.48 1002.33 417.01 1156.6 417.01"/><g class="cls-2"><path class="cls-1" d="M1165.86,404.19l14.48,19.47a7.08,7.08,0,0,1,1.44,4.5c-.07,5-4.58,8.32-10.69,8.32L1156.6,417c6.12,0,10.63-3.33,10.7-8.32A7.14,7.14,0,0,0,1165.86,404.19Z"/><g class="cls-26"><g class="cls-2"><path class="cls-1" d="M1165.86,404.19l14.48,19.47a7.07,7.07,0,0,1,1.44,4.11L1167.3,408.3a7,7,0,0,0-1.44-4.11"/><path class="cls-1" d="M1167.3,408.3l14.48,19.47v.39a6.18,6.18,0,0,1-.09,1.07l-14.48-19.47a9.26,9.26,0,0,0,.09-1.07v-.39"/><path class="cls-1" d="M1167.21,409.76l14.48,19.47a6.75,6.75,0,0,1-.25,1.12L1167,410.88a7.94,7.94,0,0,0,.25-1.12"/><path class="cls-1" d="M1167,410.88l14.48,19.47a7.66,7.66,0,0,1-.38,1l-14.49-19.47a7.69,7.69,0,0,0,.39-1"/><path class="cls-1" d="M1166.57,411.86l14.49,19.47a7.48,7.48,0,0,1-.55,1L1166,412.82a6.46,6.46,0,0,0,.55-1"/><path class="cls-1" d="M1166,412.82l14.49,19.47a8.84,8.84,0,0,1-.87,1.07l-14.48-19.47a7.9,7.9,0,0,0,.86-1.07"/><path class="cls-1" d="M1165.16,413.89l14.48,19.47a11.76,11.76,0,0,1-8.55,3.12L1156.6,417a11.81,11.81,0,0,0,8.56-3.12"/></g></g></g><g class="cls-2"><path class="cls-1" d="M1564,194.71l-14.49-19.47a18.11,18.11,0,0,0,6.52,5l14.48,19.47A18.06,18.06,0,0,1,1564,194.71Z"/><g class="cls-27"><g class="cls-2"><path class="cls-1" d="M1556,180.23l14.48,19.47a18.06,18.06,0,0,1-6.51-5l-14.49-19.47a18.11,18.11,0,0,0,6.52,5"/></g></g></g><g class="cls-2"><path class="cls-1" d="M1561.2,184.78l14.48,19.47a15.8,15.8,0,0,0-5.16-4.55L1556,180.23A15.8,15.8,0,0,1,1561.2,184.78Z"/><g class="cls-28"><g class="cls-2"><path class="cls-1" d="M1561.2,184.78l14.48,19.47a15.8,15.8,0,0,0-5.16-4.55L1556,180.23a15.8,15.8,0,0,1,5.16,4.55"/></g></g></g><polygon class="cls-1" points="1309.03 238.44 1323.51 257.91 1347.08 397.67 1332.6 378.2 1309.03 238.44"/><g class="cls-2"><path class="cls-1" d="M1664.83,131.23l14.48,19.48a5.63,5.63,0,0,1,1,3.51l-14.48-19.47A5.68,5.68,0,0,0,1664.83,131.23Z"/><g class="cls-29"><g class="cls-2"><path class="cls-1" d="M1664.83,131.23l14.48,19.48a5.51,5.51,0,0,1,1,3.18l-14.49-19.47a5.49,5.49,0,0,0-1-3.19"/><path class="cls-1" d="M1665.86,134.42l14.49,19.47v.33l-14.48-19.47c0-.11,0-.22,0-.33"/></g></g></g><polygon class="cls-1" points="1490.45 134.75 1504.93 154.22 1501.96 356.07 1487.48 336.6 1490.45 134.75"/><g class="cls-2"><path class="cls-1" d="M1511.41,398.55l-14.48-19.47c-6-8.07-9.75-21.66-9.45-42.48L1502,356.07C1501.66,376.89,1505.41,390.48,1511.41,398.55Z"/><g class="cls-30"><g class="cls-2"><path class="cls-1" d="M1487.48,336.6,1502,356.07q0,3.51,0,6.73l-14.48-19.47c-.07-2.15-.08-4.39,0-6.73"/><path class="cls-1" d="M1487.53,343.33,1502,362.8c.52,17.07,4.07,28.59,9.4,35.75l-14.48-19.47c-5.33-7.16-8.89-18.68-9.4-35.75"/></g></g></g><g class="cls-2"><path class="cls-1" d="M1386.2,511l-14.48-19.48c-22.27-29.95-32.84-75.94-39.13-113.36l14.49,19.47C1353.37,435.09,1363.93,481.08,1386.2,511Z"/><g class="cls-31"><g class="cls-2"><path class="cls-1" d="M1332.59,378.2l14.49,19.47c6.29,37.42,16.85,83.41,39.12,113.37l-14.48-19.48c-22.27-29.95-32.84-75.94-39.13-113.36"/></g></g></g><g class="cls-2"><path class="cls-1" d="M1420.64,403.5,1406.15,384c16.89,22.7,45.9,35.74,81.22,35.74,34.52,0,62.1-18.85,77.49-43.8l14.49,19.47c-15.4,25-43,43.8-77.5,43.8C1466.53,439.24,1437.53,426.2,1420.64,403.5Z"/><g class="cls-32"><g class="cls-2"><path class="cls-1" d="M1564.86,376l14.49,19.47c-.68,1.1-1.38,2.18-2.1,3.25l-14.49-19.47c.73-1.07,1.43-2.15,2.1-3.25"/><path class="cls-1" d="M1562.76,379.22l14.49,19.47a94.65,94.65,0,0,1-10.46,12.91l-14.48-19.47a94.58,94.58,0,0,0,10.45-12.91"/><path class="cls-1" d="M1552.31,392.13l14.48,19.47a89.41,89.41,0,0,1-64.94,27.64c-35.32,0-64.32-13-81.21-35.74L1406.15,384c16.89,22.7,45.9,35.74,81.22,35.74a89.43,89.43,0,0,0,64.94-27.64"/></g></g></g><polygon class="cls-1" points="1665.87 134.75 1680.35 154.22 1677.21 367.71 1662.73 348.24 1665.87 134.75"/><g class="cls-2"><path class="cls-1" d="M1583.55,427.57l-14.48-19.47c4.81,6.46,13.16,10.72,23.45,10.72,1.13,0,2.29-.05,3.47-.15l14.48,19.47c-1.18.1-2.33.15-3.47.15C1596.71,438.29,1588.36,434,1583.55,427.57Z"/><g class="cls-33"><g class="cls-2"><path class="cls-1" d="M1596,418.67l14.48,19.47c-1.18.1-2.33.15-3.47.15-10.29,0-18.64-4.26-23.45-10.72l-14.48-19.47c4.81,6.46,13.16,10.72,23.45,10.72,1.13,0,2.29-.05,3.47-.15"/></g></g></g><g class="cls-2"><path class="cls-1" d="M1682.42,391.54l-14.48-19.47c-4.94-6.63-5.31-16.71-5.21-23.83l14.48,19.47C1677.11,374.83,1677.49,384.91,1682.42,391.54Z"/><g class="cls-34"><g class="cls-2"><path class="cls-1" d="M1662.73,348.24l14.48,19.47c0,1.39,0,2.89,0,4.46l-14.49-19.47c0-1.57,0-3.07,0-4.46"/><path class="cls-1" d="M1662.75,352.7l14.49,19.47c.19,6.47,1.21,14,5.18,19.37l-14.48-19.47c-4-5.34-5-12.9-5.19-19.37"/></g></g></g><polygon class="cls-1" points="1696.03 394.26 1710.51 413.73 1610.47 438.14 1595.99 418.67 1696.03 394.26"/><g class="cls-2"><path class="cls-1" d="M1699,381.59l14.48,19.48c3.3,4.42,2.47,11.59-3,12.66L1696,394.26C1701.47,393.19,1702.3,386,1699,381.59Z"/><g class="cls-35"><g class="cls-2"><path class="cls-1" d="M1699,381.59l14.48,19.48a9.94,9.94,0,0,1,1.94,5.58l-14.48-19.47a10.07,10.07,0,0,0-1.94-5.59"/><path class="cls-1" d="M1700.94,387.18l14.48,19.47a9.15,9.15,0,0,1-.09,1.66l-14.48-19.47a9.15,9.15,0,0,0,.09-1.66"/><path class="cls-1" d="M1700.85,388.84l14.48,19.47a8,8,0,0,1-.27,1.2L1700.58,390a8,8,0,0,0,.27-1.2"/><path class="cls-1" d="M1700.58,390l14.48,19.47a7.93,7.93,0,0,1-.37,1L1700.21,391a7.93,7.93,0,0,0,.37-1"/><path class="cls-1" d="M1700.21,391l14.48,19.47a6.18,6.18,0,0,1-.48.83l-14.48-19.47a6.18,6.18,0,0,0,.48-.83"/><path class="cls-1" d="M1699.73,391.83l14.48,19.47a5.08,5.08,0,0,1-.66.81l-14.48-19.47a5.7,5.7,0,0,0,.66-.81"/><path class="cls-1" d="M1699.07,392.64l14.48,19.47a5.65,5.65,0,0,1-3,1.62L1696,394.26a5.65,5.65,0,0,0,3-1.62"/></g></g></g><g class="cls-2"><path class="cls-1" d="M1551.74,456.67l14.48,19.47c21.57,29-5.27,85.1-121.3,85.1-51.41,0-116.56-18.68-158.92-75.63l-14.48-19.47c42.36,57,107.51,75.63,158.92,75.63C1546.47,541.77,1573.31,485.67,1551.74,456.67Z"/><g class="cls-36"><g class="cls-2"><path class="cls-1" d="M1551.74,456.67l14.48,19.47a34.17,34.17,0,0,1,6.79,19.41l-14.48-19.47a34.17,34.17,0,0,0-6.79-19.41"/><path class="cls-1" d="M1558.53,476.08,1573,495.55a35.93,35.93,0,0,1-.38,6.51l-14.48-19.47a35.93,35.93,0,0,0,.38-6.51"/><path class="cls-1" d="M1558.15,482.59l14.48,19.47a39.15,39.15,0,0,1-1.32,5.76l-14.48-19.47a40.47,40.47,0,0,0,1.32-5.76"/><path class="cls-1" d="M1556.83,488.35l14.48,19.47a44.71,44.71,0,0,1-2.31,5.88l-14.49-19.47a43.44,43.44,0,0,0,2.32-5.88"/><path class="cls-1" d="M1554.51,494.23,1569,513.7a49.77,49.77,0,0,1-3.68,6.35l-14.48-19.47a48.52,48.52,0,0,0,3.67-6.35"/><path class="cls-1" d="M1550.84,500.58l14.48,19.47a57.7,57.7,0,0,1-6.57,8l-14.48-19.47a58.3,58.3,0,0,0,6.57-8"/><path class="cls-1" d="M1544.27,508.54,1558.75,528c-18,18.38-54.12,33.23-113.83,33.23-51.41,0-116.56-18.68-158.92-75.63l-14.48-19.47c42.36,57,107.51,75.63,158.92,75.63,59.71,0,95.8-14.86,113.83-33.23"/></g></g></g><path class="cls-37" d="M136.65,15.53a5.16,5.16,0,0,1,5.49,5.54l-3.95,268.4,65.6-66.55c25.41-25.5,4.17-57.67-15.16-67.65-6.65-3.33-9.94-6.66-9.88-11.1.08-5,4.58-8.31,11.27-8.31H321.45c6.69,0,10.52,3.33,11,8.31-.06,4.44-4,8.32-10.75,11.1-26.35,12.2-66.3,40.47-93.45,68.21l-19.78,20a100.17,100.17,0,0,1,13.86-1c129.9,0,112.17,280.48,221,280.48,26.17,0,33.66-17.19,33.86-30.51.52-35.48,32.51-52.67,49.77-52.67,68,0,73.69,102-82.25,102C243.09,541.77,232,313.3,173.44,279.48l-35.63,36,0,2.21C137,369.31,150.63,391.5,165,398.15c7.2,3.33,10.49,6.11,10.42,10.54-.07,5-4.58,8.32-11.25,8.32H11c-6.69,0-11.09-3.33-11-8.32.07-4.43,3.45-7.21,10.75-10.54,14.57-6.65,28.81-28.84,29.57-80.41l3.26-221.8C43.19,84.29,41.17,71,32.33,66c-5.54-2.78-7.71-5.56-7.65-10,.07-5,2.9-8.32,7.92-8.32,37.89-2.2,76.55-17.18,94-28.83A19.7,19.7,0,0,1,136.65,15.53Z"/><path class="cls-38" d="M868.94,133.65c62.94,0,96.29,42.14,95.63,87-.41,27.73-20.65,40.49-40.7,40.49-19.48,0-38.8-12.21-38.45-36.61.42-28.29,32.28-74.87-16.71-74.87-65.73,0-87.9,220.72,27.38,220.72,30.07,0,54.82-16.64,61.17-32.17a3.4,3.4,0,0,1,3-2.36,2.71,2.71,0,0,1,.88.15,4,4,0,0,1,3.29,3.87c-9.64,49.91-56.85,79.3-113.1,79.3C654.23,419.22,670.68,133.65,868.94,133.65Z"/><path class="cls-39" d="M1660.38,129.21a5.15,5.15,0,0,1,5.49,5.54l-3.14,213.49c-.17,11.5.92,30.67,20.38,30.67a37.68,37.68,0,0,0,7-.71,10.9,10.9,0,0,1,1.67-.13c10.27,0,12.18,14.62,4.22,16.19l-100,24.41c-1.18.1-2.34.15-3.47.15-16.58,0-28.12-11.05-27.93-24.56l.27-18.29c-15.39,24.95-43,43.8-77.49,43.8-57.35,0-98.07-34.38-97.27-88.72l1.63-110.9c.18-12.21.5-33.83-11.11-39.92-5.52-3.33-8.27-6.11-8.21-10,.08-5.54,3.47-8.31,8.49-8.87,37.35-2.21,76-17.19,94-28.83a17,17,0,0,1,10.07-3.32,5.17,5.17,0,0,1,5.5,5.54l-3,201.85c-.56,38.26,12.6,52.12,28.2,52.12,21.72,0,48.29-27.18,49.77-52.67l1.7-115.9c.18-12.21,1-33.28-11.11-39.92q-8.28-4.17-8.21-10c.08-5,3.47-8.31,8.48-8.31,37.35-2.21,76-17.19,94-29.39C1653.12,130.87,1657,129.21,1660.38,129.21Z"/><path class="cls-37" d="M968.37,0c74.61,0,164.84,38.26,163.08,157.48l-.44,29.94c12.11-27.71,40.28-50.46,79.26-50.46,65.73,0,86.49,27.18,98.76,101.48l23.56,139.76c10.25,61,31.85,144.72,97,144.72,26.19,0,33.67-17.19,33.88-31.06.51-34.93,32-52.12,49.78-52.12,67.94,0,73.67,102-82.81,102-74.63,0-178.2-39.37-199-178l-15.77-102c-7.63-49.36-13.18-87.62-42.7-87.62-21.72,0-40.39,19.41-42.54,52.12l-1.34,91.5c-.2,51.57,13.39,73.76,27.78,80.41,7.18,3.33,10.48,6.11,10.42,10.54-.07,5-4.58,8.32-10.7,8.32H1002.33c-6.67,0-11.08-3.33-11-8.32.07-4.43,3.44-7.21,10.73-10.54,13.45-6.1,27.12-26.62,29.48-72.64l1.8-123.11,0-39.93c.91-62.1,1.56-144.18-63.61-144.18-26.73,0-34.22,17.19-34.43,31.07-.51,34.93-32,52.67-49.21,52.67C817.62,102,811.87,0,968.37,0Z"/><circle class="cls-1" cx="1746.76" cy="339.92" r="40.97"/><g class="cls-2"><path class="cls-1" d="M452.15,81.55l16.2,18.58c8.09,9.29,14.89,21.57,18.19,28.58,5.59,11.89,15.47,39.14,17.23,49.75,5.57,33.86-5.89,54.84-27.57,59.48a21.12,21.12,0,0,1-2.84.41c-9.44.74-19.23-4.76-27.85-14.65l-16.2-18.58c8.63,9.89,18.41,15.39,27.85,14.65a21.12,21.12,0,0,0,2.84-.41c21.68-4.64,33.14-25.62,27.58-59.48-1.76-10.61-11.65-37.86-17.24-49.75C467,103.12,460.25,90.84,452.15,81.55Z"/><g class="cls-40"><g class="cls-2"><path class="cls-1" d="M452.15,81.55l16.2,18.58c2,2.3,3.93,4.78,5.74,7.32l-16.2-18.58c-1.81-2.54-3.73-5-5.74-7.32"/><path class="cls-1" d="M457.89,88.87l16.2,18.58a145.82,145.82,0,0,1,12.45,21.26c5.59,11.89,15.47,39.14,17.23,49.75.36,2.16.64,4.28.86,6.33l-16.19-18.58q-.33-3.09-.86-6.33c-1.76-10.61-11.65-37.86-17.24-49.75a144.91,144.91,0,0,0-12.45-21.26"/><path class="cls-1" d="M488.44,166.21l16.19,18.58a83.91,83.91,0,0,1,.18,17.15l-16.2-18.58a83.15,83.15,0,0,0-.17-17.15"/><path class="cls-1" d="M488.61,183.36l16.2,18.58a58.75,58.75,0,0,1-1.54,8.75l-16.19-18.58a58.77,58.77,0,0,0,1.53-8.75"/><path class="cls-1" d="M487.08,192.11l16.19,18.58a45.89,45.89,0,0,1-2,6.1l-16.19-18.58a49,49,0,0,0,2-6.1"/><path class="cls-1" d="M485.07,198.21l16.19,18.58a39.72,39.72,0,0,1-2.35,4.81L482.72,203a41.26,41.26,0,0,0,2.35-4.81"/><path class="cls-1" d="M482.72,203l16.19,18.58a35.64,35.64,0,0,1-2.82,4.19l-16.2-18.58a35.71,35.71,0,0,0,2.83-4.19"/><path class="cls-1" d="M479.89,207.21l16.2,18.58a33.9,33.9,0,0,1-3.76,4.07l-16.2-18.58a33.1,33.1,0,0,0,3.76-4.07"/><path class="cls-1" d="M476.13,211.28l16.2,18.58a34.19,34.19,0,0,1-16.13,8.08,21.12,21.12,0,0,1-2.84.41c-9.44.74-19.23-4.76-27.85-14.65l-16.2-18.58c8.63,9.89,18.41,15.39,27.85,14.65a21.12,21.12,0,0,0,2.84-.41,34.19,34.19,0,0,0,16.13-8.08"/></g></g></g><g class="cls-2"><path class="cls-1" d="M396.07,195.2l16.19,18.59a141.83,141.83,0,0,1,9.09,11.53c7.54,10.76,21.92,35.88,25.43,46,11.23,32.36,3.43,54.9-17.21,63.11a21.94,21.94,0,0,1-6.44,1.48c-11.5.9-24.67-6.74-36.38-20.17l-16.2-18.58c11.71,13.43,24.89,21.07,36.39,20.17a22,22,0,0,0,6.44-1.48c20.64-8.21,28.43-30.75,17.21-63.11-3.52-10.15-17.9-35.27-25.43-46A145.81,145.81,0,0,0,396.07,195.2Z"/><g class="cls-41"><g class="cls-2"><path class="cls-1" d="M396.07,195.2l16.19,18.59c3.48,4,6.44,7.82,8.57,10.79L404.63,206c-2.12-3-5.08-6.8-8.56-10.8"/><path class="cls-1" d="M404.63,206l16.2,18.58.52.74c7.54,10.76,21.92,35.88,25.43,46a92.38,92.38,0,0,1,4.76,20.33L435.35,273.1a92.38,92.38,0,0,0-4.76-20.33c-3.52-10.15-17.9-35.27-25.43-46l-.53-.74"/><path class="cls-1" d="M435.35,273.1l16.19,18.58a59.23,59.23,0,0,1,.12,12.24l-16.2-18.58a59.9,59.9,0,0,0-.11-12.24"/><path class="cls-1" d="M435.46,285.34l16.2,18.58a46.09,46.09,0,0,1-1.19,6.8l-16.2-18.58a43.61,43.61,0,0,0,1.19-6.8"/><path class="cls-1" d="M434.27,292.14l16.2,18.58a39,39,0,0,1-1.67,5l-16.19-18.58a39,39,0,0,0,1.66-5"/><path class="cls-1" d="M432.61,297.17l16.19,18.58a36,36,0,0,1-2,4.18l-16.2-18.58a34.46,34.46,0,0,0,2.05-4.18"/><path class="cls-1" d="M430.56,301.35l16.2,18.58a34.07,34.07,0,0,1-2.59,3.85L428,305.2a32.78,32.78,0,0,0,2.59-3.85"/><path class="cls-1" d="M428,305.2l16.2,18.58a32.39,32.39,0,0,1-3.66,3.93l-16.19-18.58A32.31,32.31,0,0,0,428,305.2"/><path class="cls-1" d="M424.32,309.13l16.19,18.58a35.44,35.44,0,0,1-10.94,6.75,21.94,21.94,0,0,1-6.44,1.48c-11.5.9-24.67-6.74-36.38-20.17l-16.2-18.58c11.71,13.43,24.89,21.07,36.39,20.17a22,22,0,0,0,6.44-1.48,35.55,35.55,0,0,0,10.94-6.75"/></g></g></g><g class="cls-2"><path class="cls-1" d="M559.48,61.61l16.2,18.58c9.61,11,18.08,26.64,23.5,44.9,12,40.42,4.53,78.51-16.68,85.08a37.05,37.05,0,0,1-8,1.57c-10.77.83-20.92-3.58-29.37-13.27l-16.2-18.58c8.45,9.69,18.6,14.1,29.38,13.26a36.35,36.35,0,0,0,8-1.56C587.52,185,595,146.93,583,106.5,577.56,88.25,569.09,72.63,559.48,61.61Z"/><g class="cls-42"><g class="cls-2"><path class="cls-1" d="M559.48,61.61l16.2,18.58q2.82,3.24,5.5,7L565,68.6c-1.78-2.5-3.62-4.84-5.5-7"/><path class="cls-1" d="M565,68.6l16.2,18.58a129,129,0,0,1,18,37.91,140.21,140.21,0,0,1,5.06,25L588,131.53a139.61,139.61,0,0,0-5.06-25,129.09,129.09,0,0,0-18-37.9"/><path class="cls-1" d="M588,131.53l16.2,18.58a110.62,110.62,0,0,1,.18,22.53l-16.19-18.58a110.65,110.65,0,0,0-.19-22.53"/><path class="cls-1" d="M588.23,154.06l16.19,18.58a78.19,78.19,0,0,1-2.06,11.81l-16.19-18.58a78.41,78.41,0,0,0,2.06-11.81"/><path class="cls-1" d="M586.17,165.87l16.19,18.58a57.48,57.48,0,0,1-2.47,7.51L583.7,173.38a59,59,0,0,0,2.47-7.51"/><path class="cls-1" d="M583.7,173.38,599.89,192a45.85,45.85,0,0,1-2.62,5.4l-16.2-18.58a45.88,45.88,0,0,0,2.63-5.4"/><path class="cls-1" d="M581.07,178.78l16.2,18.58a37.75,37.75,0,0,1-2.81,4.19L578.26,183a36.41,36.41,0,0,0,2.81-4.19"/><path class="cls-1" d="M578.26,183l16.2,18.58a28,28,0,0,1-3.28,3.56L575,186.53a29.39,29.39,0,0,0,3.27-3.56"/><path class="cls-1" d="M575,186.53l16.19,18.58a22.86,22.86,0,0,1-8.68,5.06,37.05,37.05,0,0,1-8,1.57c-10.77.83-20.92-3.58-29.37-13.27l-16.2-18.58c8.45,9.69,18.6,14.1,29.38,13.26a36.35,36.35,0,0,0,8-1.56,23,23,0,0,0,8.69-5.06"/></g></g></g><g class="cls-2"><path class="cls-1" d="M661.79,113.83,678,132.41c11,12.65,19.64,33.59,22.55,58,5,42-8.81,78.35-30.78,81.28-.72.09-1.43.17-2.14.22-10.88.85-20.54-3.08-28-11.65l-16.2-18.58c7.48,8.57,17.13,12.49,28,11.65.71-.05,1.43-.13,2.15-.23,22-2.92,35.74-39.3,30.77-81.27C681.44,147.42,672.82,126.48,661.79,113.83Z"/><g class="cls-43"><g class="cls-2"><path class="cls-1" d="M661.79,113.83,678,132.41q2,2.33,4,5l-16.2-18.58a60.57,60.57,0,0,0-4-5"/><path class="cls-1" d="M665.74,118.86l16.2,18.58c9.11,12.82,16,31.57,18.6,53l.21,1.85-16.2-18.58c-.07-.62-.13-1.23-.21-1.85-2.54-21.44-9.49-40.19-18.6-53"/><path class="cls-1" d="M684.55,173.72l16.2,18.58a138.56,138.56,0,0,1,.15,28.33l-16.2-18.58a137.85,137.85,0,0,0-.15-28.33"/><path class="cls-1" d="M684.7,202.05l16.2,18.58A109.75,109.75,0,0,1,698,236.91l-16.19-18.58a108.49,108.49,0,0,0,2.86-16.28"/><path class="cls-1" d="M681.84,218.33,698,236.91a83.55,83.55,0,0,1-3.51,10.68L678.32,229a82,82,0,0,0,3.52-10.68"/><path class="cls-1" d="M678.32,229l16.2,18.58a62.53,62.53,0,0,1-3.66,7.52l-16.19-18.58a62.51,62.51,0,0,0,3.65-7.52"/><path class="cls-1" d="M674.67,236.53l16.19,18.58a48,48,0,0,1-3.75,5.61l-16.2-18.58a46.83,46.83,0,0,0,3.76-5.61"/><path class="cls-1" d="M670.91,242.14l16.2,18.58a36.43,36.43,0,0,1-4.17,4.53l-16.19-18.58a36.37,36.37,0,0,0,4.16-4.53"/><path class="cls-1" d="M666.75,246.67l16.19,18.58a24.28,24.28,0,0,1-13.18,6.48c-.72.09-1.43.17-2.14.22-10.88.85-20.54-3.08-28-11.65l-16.2-18.58c7.48,8.57,17.13,12.49,28,11.65.71-.05,1.43-.13,2.15-.23a24.26,24.26,0,0,0,13.18-6.47"/></g></g></g><g class="cls-2"><path class="cls-1" d="M455.8,423.15l-16.2-18.58c9.94,11.4,23.08,13.89,33.42,13.09a44.14,44.14,0,0,0,7.5-1.23c28.87-7.35,23.18-31.11,39.16-32.35a23,23,0,0,1,6.11.46c.59.12,1.14.18,1.71.27l16.2,18.58c-.57-.09-1.12-.15-1.71-.27a22.54,22.54,0,0,0-6.11-.45c-16,1.23-10.29,25-39.17,32.35a45,45,0,0,1-7.5,1.22C478.88,437,465.74,434.55,455.8,423.15Z"/><g class="cls-44"><g class="cls-2"><path class="cls-1" d="M527.5,384.81l16.2,18.58c-.57-.09-1.12-.15-1.71-.27a22.54,22.54,0,0,0-6.11-.45,11.8,11.8,0,0,0-7.47,3.16l-16.2-18.58a11.91,11.91,0,0,1,7.47-3.17,23,23,0,0,1,6.11.46c.59.12,1.14.18,1.71.27"/><path class="cls-1" d="M512.21,387.25l16.2,18.58a17.36,17.36,0,0,0-2,2.18l-16.19-18.58a17.29,17.29,0,0,1,2-2.18"/><path class="cls-1" d="M510.23,389.43,526.42,408c-2.95,3.8-5.13,9.1-9.06,14.14l-16.19-18.58c3.93-5,6.1-10.34,9.06-14.14"/><path class="cls-1" d="M501.17,403.57l16.19,18.58a34.22,34.22,0,0,1-4,4.35l-16.19-18.58a35,35,0,0,0,4-4.35"/><path class="cls-1" d="M497.17,407.92l16.19,18.58c-3.83,3.5-9,6.58-16.65,8.52a45,45,0,0,1-7.5,1.22c-10.33.8-23.47-1.69-33.41-13.09l-16.2-18.58c9.94,11.4,23.08,13.89,33.42,13.09a44.14,44.14,0,0,0,7.5-1.23c7.6-1.93,12.81-5,16.65-8.51"/></g></g></g><g class="cls-2"><path class="cls-1" d="M580.09,371.07l16.2,18.58a56.59,56.59,0,0,1-24.69,13.4,59.83,59.83,0,0,1-10.52,1.79,53.17,53.17,0,0,1-17.38-1.45l-16.2-18.58a53.23,53.23,0,0,0,17.39,1.45,60,60,0,0,0,10.52-1.79A56.66,56.66,0,0,0,580.09,371.07Z"/><g class="cls-45"><g class="cls-2"><path class="cls-1" d="M580.09,371.07l16.2,18.58-.7.65-16.2-18.58c.24-.21.47-.43.7-.65"/><path class="cls-1" d="M579.39,371.72l16.2,18.58a56.9,56.9,0,0,1-24,12.75,59.83,59.83,0,0,1-10.52,1.79,53.17,53.17,0,0,1-17.38-1.45l-16.2-18.58a53.23,53.23,0,0,0,17.39,1.45,60,60,0,0,0,10.52-1.79,56.92,56.92,0,0,0,24-12.75"/></g></g></g><g class="cls-2"><path class="cls-1" d="M636.25,276.32l16.2,18.58C668.53,313.35,684.08,337,683.83,354c-.37,25.72-19.21,37.07-31.54,40.39a45.55,45.55,0,0,1-8.24,1.46c-9.66.75-16.27-2.41-21.77-5.66s-9.89-6.58-15.1-6.18c-2.83.22-5.9,1.54-9.52,4.58-.47.38-.92.71-1.37,1.07l-16.2-18.58c.45-.36.9-.69,1.37-1.07,3.62-3,6.69-4.36,9.52-4.58,5.21-.4,9.6,2.93,15.1,6.18s12.12,6.41,21.77,5.66a45.55,45.55,0,0,0,8.24-1.46c12.34-3.32,31.18-14.67,31.55-40.39C667.88,318.37,652.33,294.76,636.25,276.32Z"/><g class="cls-46"><g class="cls-2"><path class="cls-1" d="M636.25,276.32l16.2,18.58c4.51,5.17,9,10.75,13.07,16.48l-16.2-18.58c-4.09-5.73-8.56-11.31-13.07-16.48"/><path class="cls-1" d="M649.32,292.8l16.2,18.58c9.46,13.25,16.89,27.28,18.13,38.9L667.46,331.7c-1.24-11.62-8.68-25.65-18.14-38.9"/><path class="cls-1" d="M667.46,331.7l16.19,18.58a29.33,29.33,0,0,1,.18,3.71c0,1.49-.1,2.93-.24,4.33l-16.2-18.58c.14-1.4.22-2.84.25-4.33a33.49,33.49,0,0,0-.18-3.71"/><path class="cls-1" d="M667.39,339.74l16.2,18.58A45.46,45.46,0,0,1,682.4,365l-16.2-18.58a44.19,44.19,0,0,0,1.19-6.71"/><path class="cls-1" d="M666.2,346.45,682.4,365a39.93,39.93,0,0,1-1.74,5.22l-16.19-18.58a39.92,39.92,0,0,0,1.73-5.22"/><path class="cls-1" d="M664.47,351.67l16.19,18.58a37.55,37.55,0,0,1-2.27,4.63L662.2,356.3a39,39,0,0,0,2.27-4.63"/><path class="cls-1" d="M662.2,356.3l16.19,18.58a38.48,38.48,0,0,1-3,4.5L659.16,360.8a38.48,38.48,0,0,0,3-4.5"/><path class="cls-1" d="M659.16,360.8l16.19,18.58a39.77,39.77,0,0,1-4.52,4.87l-16.2-18.58a39.84,39.84,0,0,0,4.53-4.87"/><path class="cls-1" d="M654.63,365.67l16.2,18.58a45.73,45.73,0,0,1-26.78,11.59c-9.66.75-16.27-2.41-21.77-5.66s-9.89-6.58-15.1-6.18c-2.83.22-5.9,1.54-9.52,4.58-.47.38-.92.71-1.37,1.07l-16.2-18.58c.45-.36.9-.69,1.37-1.07,3.62-3,6.69-4.36,9.52-4.58,5.21-.4,9.6,2.93,15.1,6.18s12.12,6.41,21.77,5.66a45.73,45.73,0,0,0,26.78-11.59"/></g></g></g><path class="cls-39" d="M431.53,69.24c15.73-1.22,32.9,28.32,38.81,40.89,5.59,11.89,15.48,39.14,17.24,49.75,5.56,33.86-5.9,54.84-27.58,59.48a21.12,21.12,0,0,1-2.84.41c-20.92,1.63-43.52-27.34-51.46-67-8.3-41.39,2.54-78.71,24.24-83.35A12.43,12.43,0,0,1,431.53,69.24Z"/><path class="cls-39" d="M362,172.75c15.18-1.18,35.55,23.16,43.15,34s21.91,35.88,25.43,46c11.22,32.36,3.43,54.9-17.21,63.11a22,22,0,0,1-6.44,1.48c-19.89,1.55-44.78-22.4-58.45-57.75-15.19-39.31-10.79-77.82,9.87-86A12.66,12.66,0,0,1,362,172.75Z"/><path class="cls-39" d="M527.59,44.3c20.33-1.58,44.27,24.75,55.39,62.2,12,40.43,4.54,78.52-16.68,85.09a36.35,36.35,0,0,1-8,1.56c-18.08,1.41-34.39-12-43.89-40.27-3.41-10.19-7.43-38.95-8.06-52.15-.69-14.41.73-50.63,16.55-55.53A21.36,21.36,0,0,1,527.59,44.3Z"/><path class="cls-39" d="M636.72,101c21.56-1.67,42.72,29.6,47.62,70.84,5,42-8.8,78.35-30.77,81.27-.72.1-1.44.18-2.15.23C630.49,255,614.09,239,609.05,206.15c-1.65-10.64-.73-39.74.88-52.9,1.76-14.35,9.28-49.92,25.64-52.1C636,101.1,636.34,101.06,636.72,101Z"/><path class="cls-39" d="M524.05,211.66a75,75,0,0,1,26.85,2.59c16.83,5,50,29.21,63.49,40.34,19.33,16,53.61,55.58,53.25,80.82-.37,25.72-19.21,37.07-31.55,40.39a45.55,45.55,0,0,1-8.24,1.46c-9.65.75-16.27-2.41-21.77-5.66s-9.89-6.58-15.1-6.18c-2.83.22-5.9,1.54-9.52,4.58-.47.38-.92.71-1.37,1.07a56.66,56.66,0,0,1-24.68,13.4,60,60,0,0,1-10.52,1.79,53.23,53.23,0,0,1-17.39-1.45c-.57-.09-1.12-.15-1.71-.27a23,23,0,0,0-6.11-.46c-16,1.24-10.29,25-39.16,32.35a44.14,44.14,0,0,1-7.5,1.23c-12.44,1-28.94-2.84-39-21.21-12.07-22-.46-73.61,9.1-97.12,6.65-16.4,24.5-53.92,37-66.57a76.24,76.24,0,0,1,32.89-19.41A65.08,65.08,0,0,1,524.05,211.66Z"/></g></svg>