<svg xmlns="http://www.w3.org/2000/svg" viewBox="0 0 519.33 560.85"><defs><style>.cls-1{fill:#6bd1cf;}</style></defs><g id="paw"><path class="cls-1" d="M138.24,37.54c23.62-1.83,49.39,42.52,58.27,61.39,8.39,17.85,23.24,58.77,25.88,74.69,8.36,50.85-8.85,82.35-41.4,89.31a32.89,32.89,0,0,1-4.26.62C145.31,266,111.38,222.49,99.46,163,87,100.89,103.27,44.86,135.85,37.89A19.39,19.39,0,0,1,138.24,37.54Z"/><path class="cls-1" d="M33.87,193c22.8-1.77,53.38,34.78,64.77,51s32.91,53.88,38.18,69.11c16.86,48.58,5.15,82.43-25.83,94.75a32.87,32.87,0,0,1-9.67,2.23c-29.86,2.32-67.23-33.64-87.75-86.71-22.81-59-16.19-116.83,14.82-129.16A18.43,18.43,0,0,1,33.87,193Z"/><path class="cls-1" d="M282.47.1C313-2.27,348.92,37.26,365.63,93.49c18,60.7,6.81,117.89-25.05,127.74a55.34,55.34,0,0,1-12.08,2.36c-27.14,2.1-51.63-18-65.88-60.47-5.12-15.3-11.17-58.48-12.11-78.3-1-21.63,1.1-76,24.85-83.36A32.13,32.13,0,0,1,282.47.1Z"/><path class="cls-1" d="M446.31,85.28c32.37-2.51,64.14,44.43,71.5,106.35,7.45,63-13.22,117.64-46.21,122-1.08.15-2.16.26-3.22.34-31.43,2.44-56.05-21.63-63.61-70.9-2.48-16-1.1-59.66,1.32-79.42,2.64-21.53,13.93-74.94,38.49-78.21C445.16,85.38,445.73,85.32,446.31,85.28Z"/><path class="cls-1" d="M277.15,251.37a112.74,112.74,0,0,1,40.32,3.89c25.26,7.52,75,43.85,95.31,60.56,29,24,80.49,83.45,79.94,121.34-.55,38.62-28.83,55.66-47.35,60.64A67.73,67.73,0,0,1,433,500c-14.49,1.13-24.42-3.61-32.68-8.5s-14.85-9.88-22.67-9.27c-4.25.33-8.86,2.31-14.3,6.88-.7.57-1.38,1.06-2.06,1.6a85.1,85.1,0,0,1-37,20.13,90.14,90.14,0,0,1-15.8,2.67,79.4,79.4,0,0,1-26.1-2.18c-.85-.12-1.68-.22-2.57-.4a34.66,34.66,0,0,0-9.17-.68c-24,1.86-15.45,37.52-58.8,48.57a67.37,67.37,0,0,1-11.26,1.84c-18.68,1.45-43.45-4.27-58.6-31.84-18.12-33-.68-110.51,13.66-145.82,10-24.62,36.79-80.94,55.49-99.94a114.46,114.46,0,0,1,49.39-29.14A97.41,97.41,0,0,1,277.15,251.37Z"/></g></svg>