<?xml version="1.0" encoding="utf-8"?>
<!-- Generator: Adobe Illustrator 25.2.3, SVG Export Plug-In . SVG Version: 6.00 Build 0)  -->
<svg version="1.1" id="Layer_1" xmlns="http://www.w3.org/2000/svg" xmlns:xlink="http://www.w3.org/1999/xlink" x="0px" y="0px"
	 viewBox="0 0 90.6 90.6" style="enable-background:new 0 0 90.6 90.6;" xml:space="preserve">
<style type="text/css">
	.st0{fill-rule:evenodd;clip-rule:evenodd;fill:#F9F1E5;}
</style>
<path id="_Next_next_next_next_copy" class="st0" d="M35.3,3.3L34.4,2l-1,1.2l0.1-1.5l-1.7,0.5l0.9,1.2L31.1,3v1.6l1.5-0.4l-1,1.3
	L33.1,6l0.1-1.6l1,1.3l1.1-1.3l-1.6-0.5L35.3,3.3z M44.4,7.1l2.3,0.2L47,4.2l0.1-1.1h0.1c0.1,0.3,0.3,0.7,0.5,1l2.7,3.6l2.5,0.2
	l0.6-7.1l-2.3-0.2l-0.2,3l-0.1,1.1h-0.1c-0.1-0.3-0.3-0.6-0.5-0.9l-2.6-3.6L45.1,0L44.4,7.1z M58.9,8l0.4-1l4.4,1.7l0.6-1.5
	l-4.4-1.7l0.4-0.9l4.5,1.8l0.6-1.6l-6.9-2.7l-2.6,6.6l7,2.8l0.6-1.6L58.9,8z M64.8,12.4l2.4,1.9l2.1-0.5c0.3,0,0.5-0.1,0.8-0.2l0,0
	c0,0.3,0,0.5,0,0.8l0.1,2.2l2.4,1.9l-0.4-4.9l4.7-0.8L74.6,11l-2.2,0.5c-0.2,0-0.4,0.1-0.6,0.2l0,0c0-0.2,0-0.4,0-0.6V8.8l-2.4-1.9
	l0.4,4.7L64.8,12.4z M84.2,22.3l-4.7-6.5L78,16.9l1.6,2.2l-4.2,3l1.5,2.1l4.2-3l1.6,2.2L84.2,22.3z M87.1,34.8l1.3-0.9l-1.2-1
	l1.5,0.1l-0.5-1.7L87,32.2l0.5-1.5h-1.6l0.4,1.5l-1.3-1l-0.5,1.6l1.6,0.1l-1.3,1l1.3,1.1l0.5-1.6L87.1,34.8z M83.5,44l-0.2,2.3
	l3.1,0.2l1.1,0.1l0,0c-0.3,0.1-0.7,0.3-0.9,0.5L83,50l-0.2,2.5l7.1,0.5l0.2-2.3L87,50.5l-1.1-0.1l0,0c0.3-0.1,0.6-0.3,0.9-0.5
	l3.5-2.6l0.2-2.6L83.5,44z M82.7,58.5l1,0.4L82,63.3l1.5,0.6l1.7-4.4l0.9,0.4l-1.7,4.5L86,65l2.7-6.9L82,55.5l-2.7,7l1.6,0.6
	L82.7,58.5z M78.4,64.5l-1.9,2.4L77,69c0,0.3,0.1,0.5,0.2,0.8l0,0c-0.3,0-0.5,0-0.8,0l-2.2,0.1l-1.9,2.4l4.9-0.4l0.8,4.7l1.8-2.4
	L79.4,72c0-0.2-0.1-0.4-0.2-0.6l0,0c0.2,0,0.4,0,0.6,0l2.3-0.1l1.8-2.4l-4.7,0.4L78.4,64.5z M68.8,84l6.4-4.8L74,77.7l-2.2,1.6
	l-3.1-4.1l-2.1,1.5l3.1,4.1l-2.2,1.6L68.8,84z M56.3,87l0.9,1.3l1-1.3l-0.1,1.5l1.7-0.5L59,86.8l1.5,0.5v-1.6L59,86.1l1-1.3
	l-1.6-0.5L58.3,86l-1-1.3L56.2,86l1.6,0.5L56.3,87z M47,83.5l-2.3-0.2l-0.2,3.1l-0.1,1.1h-0.1c-0.1-0.3-0.3-0.6-0.6-0.9L41,83.1
	L38.5,83L38,90l2.3,0.2l0.2-3.1l0.1-1.1h0.1c0.1,0.3,0.3,0.6,0.5,0.9l2.7,3.5l2.6,0.2L47,83.5z M32.5,82.9l-0.4,1l-4.4-1.6l-0.6,1.5
	l4.4,1.6l-0.4,1l-4.6-1.7l-0.6,1.6l7,2.6l2.5-6.7l-7-2.6l-0.6,1.6L32.5,82.9z M26.5,78.7L24,76.9l-2.1,0.5c-0.3,0-0.5,0.1-0.8,0.2
	l0,0c0-0.3,0-0.5,0-0.8L21,74.6l-2.4-1.8l0.5,4.9l-4.6,0.9l2.4,1.8l2.2-0.5c0.2,0,0.4-0.1,0.6-0.2l0,0c0,0.2,0,0.4,0,0.6l0.1,2.3
	l2.4,1.8l-0.5-4.7L26.5,78.7z M6.8,69.3l4.8,6.4l1.6-1.2l-1.6-2.2l4.1-3.1l-1.5-2l-4.1,3.1l-1.7-2.2L6.8,69.3z M3.7,56.8l-1.3,1
	l1.3,1H2.2l0.6,1.7L4,59.6l-0.4,1.5h1.6l-0.4-1.5l1.3,1L6.6,59L5,58.9l1.3-1.1l-1.4-1l-0.5,1.6L3.7,56.8z M7.1,47.5l0.1-2.3L4.1,45
	H3l0,0c0.3-0.2,0.6-0.3,0.9-0.6l3.5-2.9L7.5,39l-7.1-0.4L0.3,41l3.1,0.2l1.1,0.1l0,0c-0.3,0.2-0.6,0.3-0.9,0.6l-3.5,2.7L0,47.2
	L7.1,47.5z M7.5,33l-1-0.4L8,28.2l-1.5-0.5L5,32.1l-1-0.3l1.6-4.6L4,26.6l-2.5,7L8.2,36l2.5-7.1l-1.6-0.6L7.5,33z M11.6,26.9
	l1.8-2.5l-0.6-2.1c-0.1-0.3-0.1-0.5-0.2-0.8l0,0c0.3,0,0.5,0,0.8,0l2.2-0.1l1.8-2.5l-4.9,0.5l-0.9-4.6l-1.8,2.4l0.6,2.2
	c0,0.2,0.1,0.4,0.2,0.6l0,0c-0.2,0-0.4,0-0.6,0l-2.3,0.1l-1.8,2.4l4.7-0.5L11.6,26.9z M20.8,7.2l-6.3,4.9l1.2,1.5l2.2-1.7L21,16
	l2-1.6l-3.2-4.1L22,8.7L20.8,7.2z"/>
</svg>
