<?xml version="1.0" encoding="utf-8"?>
<!-- Generator: Adobe Illustrator 25.2.3, SVG Export Plug-In . SVG Version: 6.00 Build 0)  -->
<svg version="1.1" id="Layer_1" xmlns="http://www.w3.org/2000/svg" xmlns:xlink="http://www.w3.org/1999/xlink" x="0px" y="0px"
	 viewBox="0 0 90.5 90.5" style="enable-background:new 0 0 90.5 90.5;" xml:space="preserve">
<style type="text/css">
	.st0{fill-rule:evenodd;clip-rule:evenodd;fill:#F297C9;}
</style>
<path id="_Prev_prev_prev_prev_copy" class="st0" d="M35.7,3.2l-0.9-1.4l-1,1.2l0.1-1.5l-1.7,0.5L33,3.3l-1.5-0.5l-0.1,1.6L32.9,4
	l-1,1.3l1.6,0.5l0.2-1.6l1,1.3l1.1-1.3l-1.6-0.5L35.7,3.2z M50.4,0.4l-5-0.4l-0.6,7.1l2.6,0.2l0.2-2.1L50,5.5
	c1.9,0.2,3.2-0.7,3.3-2.3C53.5,1.6,52.4,0.6,50.4,0.4L50.4,0.4z M49.5,3.8l-1.8-0.2l0.1-1.8L49.6,2c0.5-0.1,0.9,0.3,1,0.8
	c0,0.1,0,0.1,0,0.2c0,0.5-0.5,0.9-1,0.8C49.6,3.8,49.5,3.8,49.5,3.8L49.5,3.8z M60.4,10.4l2.6,1l-0.7-3.1c1,0,1.8-0.6,2.2-1.5
	c0.4-1.1,0.2-2.4-2.1-3.3l-4.6-1.8l-2.6,6.6l2.4,0.9l0.8-2.2l1.4,0.5L60.4,10.4z M59.6,4.2l1.7,0.7C62.1,5.2,62.2,5.6,62,6
	c-0.2,0.4-0.7,0.7-1.1,0.5c-0.1,0-0.1-0.1-0.2-0.1L59,5.8L59.6,4.2z M68.3,12.9l0.6-0.9l3.8,2.8l0.9-1.3l-3.8-2.8l0.6-0.8l3.9,2.9
	l1-1.4l-5.9-4.5l-4.3,5.7l6,4.5l1-1.4L68.3,12.9z M74.8,21.4l1.9,2.5l7.7-1.5L82.7,20l-4.6,1.1c-0.3,0.1-0.5,0.2-0.8,0.3l0,0
	c0.2-0.2,0.3-0.4,0.5-0.6l2.4-4.1l-1.7-2.3L74.8,21.4z M87.1,35l1.3-0.9l-1.2-1l1.5,0.1l-0.5-1.7L87,32.4l0.5-1.5l-1.6,0l0.4,1.5
	l-1.3-1l-0.5,1.6l1.6,0.1l-1.3,1l1.3,1.1l0.5-1.6L87.1,35z M90.1,49.7l0.4-5l-7.1-0.5l-0.2,2.6l2.1,0.1l-0.2,2.5
	c-0.1,1.9,0.8,3.2,2.4,3.3C89,52.8,90,51.7,90.1,49.7L90.1,49.7z M86.8,48.8l0.1-1.8l1.8,0.1l-0.1,1.8c0.1,0.5-0.2,0.9-0.7,1
	c-0.1,0-0.1,0-0.2,0c-0.5,0-0.9-0.5-0.8-1C86.8,48.9,86.8,48.8,86.8,48.8L86.8,48.8z M80.3,59.9l-1,2.7l3.1-0.7c0,1,0.6,1.8,1.5,2.1
	c1.1,0.4,2.4,0.1,3.3-2.2l1.7-4.7l-6.7-2.4l-0.9,2.4l2.2,0.8L83,59.3L80.3,59.9z M86.5,59l-0.6,1.7c-0.3,0.8-0.7,0.9-1.1,0.7
	c-0.4-0.2-0.7-0.7-0.5-1.1c0-0.1,0.1-0.1,0.1-0.2l0.6-1.7L86.5,59z M78,67.8l0.9,0.6l-2.8,3.8l1.3,0.9l2.8-3.8l0.8,0.6l-2.9,3.9
	l1.4,1l4.4-6l-5.7-4.2l-4.4,6.1l1.4,1L78,67.8z M69.7,74.4l-2.4,1.9l1.6,7.7l2.2-1.7l-1.2-4.6c-0.1-0.3-0.2-0.5-0.3-0.7l0,0
	c0.2,0.2,0.4,0.3,0.6,0.5l4.1,2.3l2.2-1.7L69.7,74.4z M56.2,87l0.9,1.3l1-1.3l-0.1,1.5l1.7-0.6l-0.9-1.2l1.5,0.5l0-1.6l-1.5,0.4
	l1-1.3l-1.6-0.5l-0.1,1.7l-1-1.3L56.1,86l1.6,0.5L56.2,87z M41.6,90.3l5,0.3l0.4-7.1l-2.6-0.1l-0.1,2.1l-2.5-0.1
	c-1.9-0.1-3.1,0.8-3.2,2.4C38.5,89.2,39.6,90.2,41.6,90.3L41.6,90.3z M42.4,86.9l1.8,0.1l-0.1,1.8l-1.8-0.1c-0.5,0.1-0.9-0.2-1-0.7
	c0-0.1,0-0.1,0-0.2c0-0.5,0.5-0.9,1-0.9C42.3,86.9,42.4,86.9,42.4,86.9L42.4,86.9z M31.2,80.6l-2.7-0.9l0.8,3c-1,0-1.8,0.6-2.1,1.6
	c-0.4,1.1-0.1,2.4,2.2,3.2l4.7,1.6l2.3-6.7L34,81.6l-0.8,2.2l-1.4-0.5L31.2,80.6z M32.2,86.8l-1.7-0.6c-0.8-0.3-0.9-0.7-0.7-1.1
	c0.1-0.4,0.5-0.7,1.3-0.4l1.7,0.6L32.2,86.8z M23.3,78.4l-0.6,0.9l-3.8-2.7l-0.9,1.3l3.8,2.7l-0.6,0.8l-4-2.8l-1,1.4l6.1,4.2
	l4.1-5.8l-6.1-4.3l-1,1.4L23.3,78.4z M16.5,70.2l-1.9-2.4l-7.7,1.8l1.8,2.2l4.6-1.3c0.3-0.1,0.5-0.2,0.7-0.3l0,0
	c-0.2,0.2-0.3,0.4-0.4,0.7l-2.2,4.2l1.8,2.2L16.5,70.2z M3.7,57l-1.3,1l1.3,1l-1.5,0l0.6,1.7l1.1-0.9l-0.4,1.5l1.6,0l-0.5-1.5l1.3,1
	L6.4,59l-1.6-0.1l1.3-1l-1.4-1l-0.5,1.6L3.7,57z M0.2,42.4l-0.2,5l7.1,0.3l0.1-2.6L5.1,45l0.1-2.5c0.1-1.9-0.9-3.1-2.5-3.2
	C1.2,39.3,0.2,40.4,0.2,42.4L0.2,42.4z M3.6,43.2L3.5,45l-1.8-0.1l0.1-1.8c-0.1-0.5,0.2-1,0.7-1.1c0.1,0,0.1,0,0.2,0
	c0.5,0,0.9,0.4,0.9,0.9C3.6,43.1,3.6,43.1,3.6,43.2L3.6,43.2z M9.6,31.9l0.9-2.7l-3,0.8c0-1-0.7-1.8-1.6-2.1
	c-1.1-0.4-2.4-0.1-3.2,2.3l-1.6,4.7l6.7,2.2l0.8-2.4L6.5,34l0.5-1.4L9.6,31.9z M3.5,33l0.6-1.7c0.2-0.8,0.7-0.9,1.1-0.8
	c0.4,0.1,0.7,0.6,0.5,1.1c0,0.1-0.1,0.1-0.1,0.2L5,33.5L3.5,33z M11.7,23.9l-0.9-0.6l2.6-3.9l-1.3-0.9l-2.6,3.9l-0.8-0.6l2.7-4
	l-1.4-1L5.8,23l5.9,4l4.2-6.2l-1.4-1L11.7,23.9z M19.8,17l2.4-2l-1.9-7.6l-2.2,1.8l1.4,4.6c0.1,0.3,0.2,0.5,0.3,0.7l0,0
	c-0.2-0.2-0.4-0.3-0.7-0.4l-4.2-2.2l-2.2,1.8L19.8,17z"/>
</svg>
