<?xml version="1.0" encoding="utf-8"?>
<!-- Generator: Adobe Illustrator 25.2.3, SVG Export Plug-In . SVG Version: 6.00 Build 0)  -->
<svg version="1.1" id="Layer_1" xmlns="http://www.w3.org/2000/svg" xmlns:xlink="http://www.w3.org/1999/xlink" x="0px" y="0px"
	 viewBox="0 0 90.5 90.1" style="enable-background:new 0 0 90.5 90.1;" xml:space="preserve">
<style type="text/css">
	.st0{fill-rule:evenodd;clip-rule:evenodd;fill:#FFFFFF;}
</style>
<path id="Click_to_zoom_click_to_zoom_" class="st0" d="M35.1,8.7c2.3-0.7,3.6-2,3.8-3.8l-2.7,0.2c0,0.9-0.6,1.6-1.5,1.8
	c-1,0.4-2.1-0.1-2.4-1.1c-0.4-1,0.1-2.1,1.1-2.4c0.1,0,0.2-0.1,0.3-0.1c0.8-0.4,1.8-0.1,2.2,0.7l2.4-1.2c-0.9-1.5-2.9-1.9-5.1-1.3
	c-2.7,0.8-4.2,2.8-3.6,5C30.2,8.6,32.4,9.5,35.1,8.7z M40.6,7.2l7-0.3l-0.1-2l-4.5,0.2L42.9,0l-2.6,0.1L40.6,7.2z M51.3,7.5l0.9-7.1
	l-2.5-0.3l-0.9,7.1L51.3,7.5z M56.7,9.1c2.2,0.7,4.2,0.3,5.2-1l-2.3-1.4c-0.5,0.7-1.4,1-2.2,0.6C56.4,7,55.8,6,56,5
	c0.3-1,1.3-1.6,2.3-1.4c0.1,0,0.2,0,0.2,0.1C59.4,3.8,60,4.6,60,5.5l2.7,0.3c0.1-1.7-1.3-3.2-3.6-3.9c-2.7-0.9-5,0.1-5.7,2.2
	C52.7,6.3,54,8.2,56.7,9.1L56.7,9.1z M67.1,13.9l2.5,1.6l-0.4-5.3h0.2l3.9-0.7l-2.6-1.6l-4.1,0.8l1.5-2.4L66,4.8l-3.8,6l2.2,1.4
	l0.9-1.5l1.6-0.3L67.1,13.9z M81.9,18.5l-5.3-6.1l-1.5,1.3l1.8,2.1l-3.9,3.4l1.7,1.9l3.9-3.4l1.8,2.1L81.9,18.5z M78.8,27.7
	c1.4,2.6,3.5,3.6,5.6,2.5s2.5-3.4,1.2-6s-3.5-3.6-5.6-2.5S77.4,25.1,78.8,27.7z M80.4,26.8c-0.4-1,0.1-2.1,1-2.6
	c1-0.4,2.1,0.1,2.6,1c0.4,0.9,0,2-0.9,2.5C82.2,28.3,81,28,80.5,27C80.5,27,80.4,26.9,80.4,26.8z M84,36.2l-1.6,0.2l1,8l1.7-0.2
	l-0.6-4.6l4.4,4l1.6-0.2l-1-7.7l-1.7,0.2l0.6,4.4L84,36.2z M82.8,49.3c-0.3,2.9,0.9,4.9,3.2,5.2s4-1.4,4.3-4.4s-0.9-4.9-3.2-5.2
	S83.1,46.4,82.8,49.3z M84.6,49.6c0.2-1.1,1.2-1.8,2.3-1.5c1.1,0.2,1.8,1.2,1.5,2.3c-0.2,1-1.1,1.7-2.1,1.6c-1.1-0.1-1.8-1-1.7-2.1
	C84.6,49.7,84.6,49.6,84.6,49.6z M80.2,59.3c-1.1,2.7-0.4,5,1.7,5.9s4.2-0.3,5.3-3s0.5-5-1.7-5.9S81.3,56.6,80.2,59.3L80.2,59.3z
	 M82,60c0.5-1,1.7-1.3,2.6-0.9c1,0.5,1.3,1.7,0.9,2.6c-0.5,0.9-1.5,1.3-2.5,0.9c-1-0.4-1.5-1.5-1.1-2.5C81.9,60.1,81.9,60.1,82,60
	L82,60z M78.2,64.8l-1.4,1.7l3,2.4c0.4,0.3,0.8,0.6,1.2,0.9l0,0c-0.3-0.1-0.8-0.4-1.4-0.6l-4-1.4l-1.5,1.8l2.1,3.7
	c0.2,0.4,0.5,0.9,0.8,1.3l0,0c-0.3-0.4-0.7-0.7-1.1-1.1l-3-2.4l-1.5,1.8l5.5,4.4l2.4-3l-2-3.2c-0.2-0.3-0.3-0.5-0.5-0.8l0,0
	c0.3,0.2,0.6,0.3,0.9,0.4l3.6,1.3l2.4-2.9L78.2,64.8z M66.4,82.7l1.2,1.1l0.6-1.5l0.3,1.4l1.5-1l-1.2-0.9l1.6,0.1l-0.4-1.6l-1.3,0.8
	l0.6-1.5l-1.7-0.1l0.3,1.6l-1.3-1L66,81.7l1.6,0.1L66.4,82.7z M55.3,81.5c-2.3,0.7-3.6,2-3.7,3.8l2.7-0.2c0-0.9,0.6-1.6,1.5-1.7
	c1-0.4,2.1,0.1,2.4,1.1c0.4,1-0.1,2.1-1.1,2.4c-0.1,0-0.2,0.1-0.3,0.1C56,87.3,55,87,54.6,86.3l-2.4,1.2c0.9,1.5,2.9,1.9,5.1,1.3
	c2.7-0.8,4.2-2.8,3.6-5C60.2,81.6,58,80.7,55.3,81.5z M49.8,82.9l-7,0.2l0.1,2l4.5-0.2l0.2,5.1l2.6-0.1L49.8,82.9z M39.1,82.6
	l-0.9,7l2.5,0.3l0.9-7L39.1,82.6z M33.7,81c-2.2-0.7-4.2-0.3-5.2,1l2.3,1.4c0.5-0.7,1.4-1,2.2-0.6c1,0.2,1.7,1.2,1.5,2.3
	c-0.2,1-1.2,1.7-2.3,1.5c-0.1,0-0.2-0.1-0.3-0.1c-0.9-0.1-1.5-0.9-1.4-1.8l-2.7-0.3c-0.1,1.7,1.3,3.2,3.5,3.9c2.7,0.9,5.1,0,5.7-2.2
	C37.7,83.8,36.4,81.9,33.7,81L33.7,81z M23.3,76.1l-2.5-1.6l0.4,5.3H21l-3.9,0.7l2.6,1.7l4.1-0.8l-1.5,2.4l2.2,1.4l3.8-6l-2.2-1.4
	l-0.9,1.5l-1.6,0.3L23.3,76.1z M8.5,71.5l5.2,6.1l1.5-1.3l-1.8-2.1l3.9-3.4l-1.7-1.9l-3.9,3.4L10,70.2L8.5,71.5z M11.7,62.4
	c-1.4-2.6-3.5-3.6-5.6-2.5s-2.5,3.4-1.2,6s3.5,3.6,5.6,2.6S13.1,65,11.7,62.4L11.7,62.4z M10.1,63.2c0.4,1-0.1,2.1-1.1,2.6
	c-1,0.4-2.1-0.1-2.6-1.1c-0.4-0.9,0-2,0.9-2.5c0.9-0.5,2.1-0.1,2.6,0.8C10,63.1,10,63.2,10.1,63.2L10.1,63.2z M6.5,53.9L8,53.7l-1-8
	l-1.7,0.2l0.6,4.6l-4.4-4L0,46.7l1,7.7l1.7-0.2l-0.6-4.4L6.5,53.9z M7.8,40.7c0.3-2.9-0.9-4.9-3.2-5.2s-4,1.4-4.3,4.3s0.9,5,3.2,5.2
	S7.4,43.6,7.8,40.7L7.8,40.7z M5.9,40.5c-0.2,1.1-1.2,1.7-2.3,1.5s-1.7-1.2-1.5-2.3c0.2-1,1.1-1.7,2.1-1.6c1.1,0.1,1.8,1,1.7,2.1
	C5.9,40.3,5.9,40.4,5.9,40.5L5.9,40.5z M10.3,30.8c1.1-2.7,0.5-5-1.7-5.9s-4.2,0.3-5.3,3s-0.5,5,1.7,5.9S9.2,33.5,10.3,30.8
	L10.3,30.8z M8.6,30.1c-0.5,1-1.7,1.3-2.6,0.9c-1-0.5-1.3-1.7-0.9-2.6c0.5-0.9,1.5-1.3,2.5-0.9c1,0.4,1.5,1.5,1.1,2.5
	C8.7,29.9,8.6,30,8.6,30.1L8.6,30.1z M12.4,25.2l1.4-1.7l-3-2.5c-0.4-0.3-0.8-0.6-1.2-0.9l0,0c0.3,0.1,0.8,0.4,1.4,0.6l4,1.4
	l1.5-1.8l-2.1-3.7c-0.2-0.4-0.5-0.9-0.8-1.3l0,0c0.3,0.4,0.7,0.7,1.1,1.1l3,2.4l1.5-1.8l-5.5-4.5l-2.4,3l2,3.2
	c0.1,0.3,0.3,0.5,0.5,0.8l0,0c-0.3-0.2-0.6-0.3-0.9-0.4l-3.6-1.3l-2.4,2.9L12.4,25.2z M24.2,7.4L23,6.3l-0.6,1.5L22,6.4l-1.5,1
	l1.2,0.9l-1.6-0.1l0.4,1.6l1.3-0.8l-0.6,1.5l1.7,0.1l-0.3-1.6l1.3,1l0.7-1.6l-1.6-0.1L24.2,7.4z"/>
</svg>
