<svg id="Layer_1" data-name="Layer 1" xmlns="http://www.w3.org/2000/svg" viewBox="0 0 343.94 60.48"><defs><style>.cls-1{fill:#fff;}.cls-2{fill:#e6e7e7;}.cls-3{fill:#059b85;}</style></defs><path class="cls-1" d="M343.94,18.92a33.39,33.39,0,0,0-16.33,8.3c-9.93,9-28,8.64-37.82-.51-11.88-11.12-33.37-11.35-45.45-.49a29.44,29.44,0,0,1-39.36,0,31.1,31.1,0,0,0-9.69-5.68,26.94,26.94,0,0,1,.13,6,23.88,23.88,0,0,1,5.93,3.82c12.8,11.73,33.83,11.76,46.56.05,9.54-8.78,27.56-9.23,37.1-.58A34,34,0,0,0,305.71,39c9.42.74,18.24-1.15,25.43-7.61a29,29,0,0,1,12.67-6.81A27.56,27.56,0,0,1,343.94,18.92Z"/><path class="cls-1" d="M207.81,57.92H39.47C18.86,57.92,2,45.46,2,30.24H2C2,15,18.86,2.55,39.47,2.55H207.81Z"/><path class="cls-2" d="M209.81.55V59.92H39.47C17.71,59.92,0,46.61,0,30.24S17.71.55,39.47.55Zm-4,55.37V4.55H39.47C19.91,4.55,4,16.08,4,30.24S19.91,55.92,39.47,55.92Z"/><path class="cls-2" d="M207.06,46.57v4H36.12C16.09,50.57,1.2,35.6.57,35l2.86-2.8c.14.15,14.37,14.41,32.69,14.41Z"/><path class="cls-2" d="M207.06,35.74v4H36.12A77,77,0,0,1,1,31.12l2-3.47a74.47,74.47,0,0,0,33.13,8.09Z"/><path class="cls-2" d="M207.06,24.74H36.12A74.05,74.05,0,0,0,3,32.83L1,29.35a77.05,77.05,0,0,1,35.11-8.61H207.06Z"/><path class="cls-2" d="M207.44,13.91H36.49C18.13,13.91,4,28.17,3.81,28.31L1,25.51c.62-.63,15.51-15.6,35.54-15.6h171Z"/><path class="cls-3" d="M107.52,0a104.83,104.83,0,0,1,4.75,32.4,91.7,91.7,0,0,1-4.5,28.08h14.65a105.42,105.42,0,0,0,3.87-28.08A122.61,122.61,0,0,0,122.13,0Z"/></svg>