<svg id="Layer_1" data-name="Layer 1" xmlns="http://www.w3.org/2000/svg" viewBox="0 0 327.46 51.72"><defs><style>.cls-1{fill:#fff;}.cls-2{fill:#e6e7e7;}.cls-3{fill:#ba7d2b;}</style></defs><path class="cls-1" d="M327.46,15.07A31.69,31.69,0,0,0,312,23c-9.41,8.5-26.57,8.21-35.84-.49C264.87,11.9,244.51,11.69,233.06,22a27.84,27.84,0,0,1-37.29,0,29.35,29.35,0,0,0-9.19-5.39,26,26,0,0,1,.13,5.72A22.56,22.56,0,0,1,192.32,26c12.13,11.15,32.06,11.17,44.12.05,9.05-8.34,26.13-8.76,35.17-.55a32.13,32.13,0,0,0,19.62,8.67c8.92.71,17.28-1.09,24.1-7.23a27.49,27.49,0,0,1,12-6.47A25.47,25.47,0,0,1,327.46,15.07Z"/><path class="cls-1" d="M199,50.17H37.17c-19.81,0-36-10.94-36-24.31h0c0-13.37,16.21-24.31,36-24.31H199Z"/><path class="cls-2" d="M200.15.4V51.32h-163C16.67,51.32,0,39.9,0,25.86S16.67.4,37.17.4ZM197.85,49V2.7H37.17C18,2.7,2.3,13.09,2.3,25.86S18,49,37.17,49Z"/><path class="cls-2" d="M198.28,40.8v2.31H34C15,43.11,1,30.17.37,29.62l1.57-1.68c.13.13,14,12.87,32,12.86Z"/><path class="cls-2" d="M198.28,31.3v2.3H34A78.51,78.51,0,0,1,.62,26.13l1.06-2A77.77,77.77,0,0,0,34,31.3Z"/><path class="cls-2" d="M198.28,20.42H34A77.6,77.6,0,0,0,1.68,27.63l-1.06-2A78.51,78.51,0,0,1,34,18.12H198.28Z"/><path class="cls-2" d="M198.64,10.92H34.31c-18,0-31.87,12.73-32,12.86L.73,22.1C1.32,21.55,15.4,8.61,34.31,8.61H198.64Z"/><path class="cls-3" d="M92.92,0a85.32,85.32,0,0,1,3.71,26.07,74.64,74.64,0,0,1-4.51,25.65h17a92.32,92.32,0,0,0,3.67-25.65A107.05,107.05,0,0,0,109.7,0Z"/></svg>