<svg id="Layer_1" data-name="Layer 1" xmlns="http://www.w3.org/2000/svg" viewBox="0 0 339.45 72.43"><defs><style>.cls-1{fill:#fff;}.cls-2{fill:#e6e7e7;}.cls-3{fill:#b72025;}</style></defs><path class="cls-1" d="M339.45,26.45a33.11,33.11,0,0,0-16.23,8.27c-9.88,8.92-27.88,8.61-37.61-.51-11.82-11.08-33.19-11.31-45.2-.49a29.21,29.21,0,0,1-39.13,0,30.84,30.84,0,0,0-9.64-5.67,27.45,27.45,0,0,1,.14,6,23.53,23.53,0,0,1,5.88,3.8c12.73,11.69,33.65,11.72,46.3.05,9.49-8.75,27.41-9.2,36.89-.58a33.81,33.81,0,0,0,20.59,9.1c9.36.74,18.13-1.15,25.29-7.58a28.7,28.7,0,0,1,12.59-6.79A27.36,27.36,0,0,1,339.45,26.45Z"/><path class="cls-1" d="M208.82,69.88H39.67C19,69.88,2,54.73,2,36.22H2C2,17.7,19,2.55,39.67,2.55H208.82Z"/><path class="cls-2" d="M210.84.53V71.9H39.67C17.8,71.9,0,55.89,0,36.22S17.8.53,39.67.53Zm-4,67.33V4.57H39.67C20,4.57,4,18.77,4,36.22S20,67.86,39.67,67.86Z"/><path class="cls-2" d="M208.07,56.48v4.05H36.3c-20.24,0-35.22-18.22-35.85-19L3.59,39c.14.17,14.42,17.5,32.71,17.49Z"/><path class="cls-2" d="M208.07,43.32v4H36.3A67.75,67.75,0,0,1,.88,36.85l2.29-3.33c.14.09,14.52,9.8,33.13,9.8Z"/><path class="cls-2" d="M208.07,29.12H36.3c-18.61,0-33,9.7-33.13,9.8L.88,35.59A67.82,67.82,0,0,1,36.3,25.07H208.07Z"/><path class="cls-2" d="M208.45,16H36.68C18.34,16,4.11,33.27,4,33.44L.83,30.9c.63-.77,15.6-19,35.85-19H208.45Z"/><path class="cls-3" d="M113.14,37.12A151.84,151.84,0,0,1,109,72.43h19.38A171.38,171.38,0,0,0,132,37.12,199.89,199.89,0,0,0,128.74,0H109.45A175.37,175.37,0,0,1,113.14,37.12Z"/></svg>