<svg id="Layer_1" data-name="Layer 1" xmlns="http://www.w3.org/2000/svg" viewBox="0 0 373.76 173.2"><defs><style>.cls-1{fill:#fff;}.cls-2{fill:#231f20;}.cls-3{fill:#b72025;}</style></defs><path class="cls-1" d="M242.13,151.16l-7.9-1.79c-18.2-4.16-35.39-8.07-52.56-8.07-20.08,0-39.45,3.64-58.18,7.16l-3,.56a34.68,34.68,0,0,1,13.65,5.13C148,163.4,145.51,170.54,158,170.54h54.13c19,0,17.27-5.7,23.52-13.9A23,23,0,0,1,242.13,151.16Z"/><path class="cls-1" d="M134.13,19.05a34.4,34.4,0,0,1-13.48,5.1c2.67.58,5.33,1.18,8,1.75,19,4.21,37,8.17,53,8.17,17.12,0,34.2-3.47,52.28-7.14,4.29-.88,8.6-1.75,12.93-2.58-4.69-1.83-9-4.79-11.25-7.79-6.25-8.19-4.52-13.9-23.52-13.9H158C145.51,2.66,148,9.79,134.13,19.05Z"/><path class="cls-1" d="M181.67,34.07c-16,0-34-4-53-8.17-24.12-5.31-49.07-10.82-72.55-8.62a3.84,3.84,0,0,0-.68.09c-12,1.95-25.23,10.5-35.42,22.85C8.82,53.78,2.66,70,2.66,86c0,41.39,30.86,65.05,52.76,68.64.22,0,.45.07.68.09,22.71,2.12,44.41-2,67.39-6.27,18.73-3.52,38.1-7.16,58.18-7.16,17.17,0,34.36,3.91,52.56,8.07,22,5,62.21,10.2,85.43,8,.22,0,.46-.05.68-.08,24-3.93,50.76-34.12,50.76-68.63C371.1,49.51,345,24.08,320.34,20c-.22,0-.46-.06-.68-.08-23.28-2.17-63.59,2.49-85.71,7C215.87,30.6,198.79,34.07,181.67,34.07Z"/><path class="cls-2" d="M212.11,173.2H158c-8.6,0-11.39-3.26-14.93-7.38a46.29,46.29,0,0,0-10.4-9.45,31.77,31.77,0,0,0-12.6-4.72,2.66,2.66,0,0,1,0-5.25l3-.56c18.84-3.53,38.32-7.2,58.67-7.2,17.58,0,34.86,4,53.16,8.14l7.89,1.79a2.65,2.65,0,0,1,.76,4.88,20.18,20.18,0,0,0-5.73,4.8,43.78,43.78,0,0,0-3,4.6C230.94,169.26,227.8,173.2,212.11,173.2Zm-80.54-23.54a32.42,32.42,0,0,1,4,2.28,50.93,50.93,0,0,1,11.49,10.42c3.25,3.79,4.74,5.52,10.89,5.52h54.13c13.46,0,15-2.59,18.06-7.75a48.72,48.72,0,0,1,3.34-5.1,19.75,19.75,0,0,1,2.36-2.56l-2.23-.5c-18-4.12-35-8-52-8C164.5,144,147.8,146.66,131.57,149.66Z"/><path class="cls-2" d="M181.67,36.74c-16.28,0-34.4-4-53.58-8.24l-8-1.75a2.66,2.66,0,0,1,.12-5.22,31.7,31.7,0,0,0,12.44-4.7,46.76,46.76,0,0,0,10.4-9.45C146.58,3.26,149.37,0,158,0h54.13c15.69,0,18.82,3.94,22.63,10.35a46,46,0,0,0,3,4.59c2,2.62,5.87,5.27,10.12,6.93a2.66,2.66,0,0,1-.47,5.09q-6.48,1.26-12.91,2.57C216.16,33.25,199,36.74,181.67,36.74Zm-50.51-13c18.19,4,35.35,7.67,50.51,7.67,16.8,0,33.7-3.43,51.59-7.06L239,23.19a24,24,0,0,1-5.48-5,48.72,48.72,0,0,1-3.34-5.1c-3.07-5.16-4.6-7.75-18.06-7.75H158c-6.15,0-7.64,1.73-10.89,5.52A51.79,51.79,0,0,1,135.6,21.26h0A32.9,32.9,0,0,1,131.16,23.74Zm3-4.69h0Z"/><path class="cls-2" d="M307.29,160.58c-24.34,0-56.53-4.72-73.65-8.62-18-4.11-35-8-52-8-19.85,0-39.09,3.62-57.69,7.11-23.23,4.37-45.07,8.47-68.13,6.31-.25,0-.59-.07-.93-.13C32.16,153.52,0,128.94,0,86,0,69.42,6.37,52.56,18,38.53c10.6-12.85,24.44-21.74,37-23.79.28,0,.62-.1,1-.12,23.77-2.22,48.85,3.31,73.13,8.65,19.06,4.21,36.9,8.14,52.6,8.14,16.8,0,33.7-3.43,51.59-7.06,21.31-4.33,62.12-9.34,86.65-7l.86.09c25.69,4.24,53,30.66,53,71.29,0,35.82-28,67.15-53,71.25a8.1,8.1,0,0,1-.93.12C316,160.42,311.78,160.58,307.29,160.58ZM181.67,138.64c17.58,0,34.86,4,53.16,8.14,23.78,5.41,62.89,10,84.58,8,23.41-3.82,49-32.84,49-66.07,0-37.7-25-62.16-48.53-66-24.25-2.28-65.2,2.77-85.43,6.87-18.32,3.72-35.47,7.21-52.81,7.21-16.28,0-34.4-4-53.58-8.24-24-5.3-48.73-10.72-71.74-8.58-11.87,1.93-24.5,10.12-34.3,22C11.27,55,5.32,70.66,5.32,86c0,39.82,29.54,62.58,50.52,66,22.81,2.14,44.3-1.88,67.06-6.15C141.84,142.31,161.32,138.64,181.67,138.64Z"/><path class="cls-3" d="M187.12,68.41c.24-.6.49-1.19.7-1.79A20.1,20.1,0,0,1,207.1,53c13.06.34,22.32,12.09,19.29,25.2-1.75,7.58-6.2,13.53-11.79,18.57-8.32,7.5-16.9,14.71-25.39,22-2.35,2-2.4,2-4.73-.07-8.15-7-16.35-14-24.42-21.07a42.14,42.14,0,0,1-11.29-15c-4.87-11.38-.47-23.31,10.41-28.07a20,20,0,0,1,26.29,10.91c.38,1,.78,1.93,1.18,2.9Z"/></svg>