<svg xmlns="http://www.w3.org/2000/svg" viewBox="0 0 90 90"><defs><style>.cls-1{fill:#fbfbfb;}.cls-2{fill:#cff9f6;}.cls-3{fill:#f4cee5;}.cls-4{fill:#6bd1cf;}.cls-5{fill:#f297c9;}</style></defs><g id="Layer_2" data-name="Layer 2"><rect class="cls-1" width="90" height="90"/></g><g id="Layer_1" data-name="Layer 1"><path class="cls-2" d="M78.48,52.91l-6.32-13c.07-.86,0-2.42,0-3.3A30.41,30.41,0,0,0,20.26,15s0,0,0,0c-.3.3-.6.6-.88.92l-.06.06c-.28.3-.55.62-.82.93l-.08.1c-.25.31-.51.62-.76.94a1,1,0,0,0-.08.11c-.24.32-.48.63-.71,1l-.12.18c-.21.31-.42.61-.62.92l-.17.28c-.18.28-.36.57-.53.86l-.17.31c-.16.29-.32.57-.47.86-.07.12-.13.26-.2.39s-.27.53-.4.81l-.18.41c-.13.27-.25.54-.37.82l-.18.48c-.11.26-.21.51-.31.77l-.2.59c-.08.23-.16.46-.23.69s-.14.48-.21.72-.12.39-.17.59-.12.49-.18.74-.1.39-.14.59-.09.48-.14.72-.09.42-.12.63-.1.64-.14,1c0,.14-.05.27-.06.41-.06.46-.11.92-.14,1.39-.06.73-.09,1.46-.09,2.18a31.44,31.44,0,0,0,.27,4.26c.1.69.21,1.38.35,2.06a29.94,29.94,0,0,0,2.72,7.71A30.59,30.59,0,0,1,17,56.78a27.3,27.3,0,0,1,.85,6.74V83.87H51.62V78.61a2.81,2.81,0,0,1,2.81-2.81H62.9A7.79,7.79,0,0,0,70.69,68V58.2h4.43A3.71,3.71,0,0,0,78.48,52.91Z"/><path class="cls-3" d="M42.46,72.87a5.5,5.5,0,0,1-5.5-5.5v-3.3H48v3.3A5.5,5.5,0,0,1,42.46,72.87Z"/><path class="cls-1" d="M59.69,35.83a18,18,0,1,0-27.91,15A4.92,4.92,0,0,1,34,54.89V60.4l15.4-2.93V54.79a4.74,4.74,0,0,1,2.19-3.95A18,18,0,0,0,59.69,35.83Z"/><rect class="cls-3" x="33.1" y="58.86" width="17.72" height="3.76" rx="1.82" transform="translate(-9.91 8.21) rotate(-10)"/><rect class="cls-3" x="33.83" y="62.52" width="17.72" height="3.76" rx="1.82" transform="translate(-10.54 8.39) rotate(-10)"/><path class="cls-4" d="M80,52.4l-6.16-13A32.28,32.28,0,0,0,43.92,4.36,32.06,32.06,0,0,0,19.67,13a32.27,32.27,0,0,0-6.54,38.53,25.49,25.49,0,0,1,2.92,11.79V84.24a1.47,1.47,0,0,0,1.47,1.47H52a1.48,1.48,0,0,0,1.48-1.47V78.82a1.18,1.18,0,0,1,1.17-1.18h8.19a9.71,9.71,0,0,0,9.7-9.7V60H75.2A5.35,5.35,0,0,0,80,52.4ZM15.74,50.16a29.33,29.33,0,1,1,55.17-16.5,29.82,29.82,0,0,1,0,5.9,1.52,1.52,0,0,0,.13.78l6.34,13.33A2.4,2.4,0,0,1,77.23,56a2.38,2.38,0,0,1-2,1.11H71.06a1.48,1.48,0,0,0-1.48,1.48v9.37a6.76,6.76,0,0,1-6.75,6.75H54.64a4.13,4.13,0,0,0-4.12,4.13v3.94H19V63.32A28.45,28.45,0,0,0,15.74,50.16Z"/><path class="cls-5" d="M31.73,52.08a2.49,2.49,0,0,1,1.19,2.13V60a2.93,2.93,0,0,0,0,4.44,2.89,2.89,0,0,0-.32,1.91,2.93,2.93,0,0,0,2.89,2.43,2.61,2.61,0,0,0,.48,0A6.24,6.24,0,0,0,42.09,74h.73a6.25,6.25,0,0,0,6.25-6.25V66.41l1.45-.25a2.92,2.92,0,0,0,1.42-5.1,2.92,2.92,0,0,0-.88-3.82,2.51,2.51,0,0,0-.53-.29V54.08a2.29,2.29,0,0,1,1.1-1.95A19.07,19.07,0,0,0,39.56,16.88a19.07,19.07,0,0,0-7.83,35.2Zm18.24,8a.76.76,0,0,1-.47.29L35,62.93a.73.73,0,1,1-.26-1.43l14.55-2.56.12,0a.74.74,0,0,1,.72.6A.76.76,0,0,1,50,60.07ZM45.4,41V39.13A1.83,1.83,0,1,1,47.22,41ZM43.18,57.75l-2.91.52V43.18h2.91ZM38.05,39.13V41H36.22a1.83,1.83,0,1,1,1.83-1.83Zm9.53,14.95V57l-2.18.38V43.18h1.82a4,4,0,1,0-4-4V41H40.27V39.13a4,4,0,1,0-4.05,4h1.83V58.66L35.87,59V54.21a5.4,5.4,0,0,0-2.6-4.64,16.14,16.14,0,1,1,16.82,0A5.3,5.3,0,0,0,47.58,54.08Zm-12.24,11,14.55-2.56H50a.72.72,0,0,1,.42.13.71.71,0,0,1,.29.46.73.73,0,0,1-.59.85L35.59,66.54a.73.73,0,0,1-.84-.59A.72.72,0,0,1,35.34,65.11ZM46.85,66.8v.93a4,4,0,0,1-4,4h-.73a4,4,0,0,1-4-3.42Z"/></g></svg>