<svg xmlns="http://www.w3.org/2000/svg" viewBox="0 0 90 90"><defs><style>.cls-1{fill:#fbfbfb;}.cls-2{fill:#6bd1cf;}.cls-3{fill:#f4cee5;}.cls-4{fill:#f297c9;}</style></defs><g id="Layer_2" data-name="Layer 2"><rect class="cls-1" y="0.06" width="90" height="90"/></g><g id="Layer_1" data-name="Layer 1"><path class="cls-1" d="M45.27,77.9H66.52L64.2,35.79c4,0,8,6.81,8,6.81l13.28-6.39A41.62,41.62,0,0,0,61.8,13.15a1.74,1.74,0,0,0-1.94.54c-1.54,1.85-5.74,5.72-14,5.72-8.42,0-12.95-4.3-14.56-6.22a1.73,1.73,0,0,0-1.86-.54A41,41,0,0,0,4.57,36.21L17.85,42.6s4-6.81,8-6.81L23.48,77.9H45.27Z"/><path class="cls-2" d="M46,25.58A28.53,28.53,0,0,1,24,15.3a1.31,1.31,0,0,1,2-1.68A25.94,25.94,0,0,0,46,23a26.1,26.1,0,0,0,8.73-1.5,1.3,1.3,0,1,1,.88,2.45A28.48,28.48,0,0,1,46,25.58Z"/><path class="cls-2" d="M59.65,22a1.31,1.31,0,0,1-.58-2.48,25.29,25.29,0,0,0,2.55-1.43,1.3,1.3,0,1,1,1.4,2.2,28.3,28.3,0,0,1-2.8,1.57A1.33,1.33,0,0,1,59.65,22Z"/><polygon class="cls-3" points="45.69 34.86 48.98 41.54 56.34 42.61 51.02 47.8 52.27 55.14 45.69 51.67 39.1 55.14 40.35 47.8 35.03 42.61 42.39 41.54 45.69 34.86"/><path class="cls-4" d="M54,57.52l-8.33-4.37-8.32,4.37L39,48.26,32.22,41.7l9.3-1.36,4.16-8.43,4.17,8.43,9.3,1.36-6.73,6.56ZM45.68,50.2l4.86,2.55-.93-5.4,3.93-3.83-5.43-.79-2.43-4.92-2.42,4.92-5.43.79,3.93,3.83-.93,5.4Z"/><path class="cls-2" d="M51.36,74.61H27.87c-.72,0-1.3-.37-1.3-1.09s.58-1.08,1.3-1.08H51.36c.72,0,1.3.36,1.3,1.08S52.08,74.61,51.36,74.61Z"/><path class="cls-2" d="M60.92,74.61H56.58c-.72,0-1.31-.37-1.31-1.09s.59-1.08,1.31-1.08h4.34c.72,0,1.31.36,1.31,1.08S61.64,74.61,60.92,74.61Z"/><path class="cls-2" d="M20.31,39.72a1.3,1.3,0,0,1-.6-.15L6.36,32.24a1.29,1.29,0,0,1-.51-1.73A1.25,1.25,0,0,1,7.56,30l13.35,7.33a1.29,1.29,0,0,1,.51,1.73A1.26,1.26,0,0,1,20.31,39.72Z"/><path class="cls-2" d="M69.62,40A1.3,1.3,0,0,1,69,37.51l13.06-7.09a1.3,1.3,0,1,1,1.25,2.29L70.25,39.8A1.28,1.28,0,0,1,69.62,40Z"/><path class="cls-2" d="M66.52,79h-43a1.3,1.3,0,0,1-.95-.41,1.29,1.29,0,0,1-.36-1L24.4,37.22C22.12,38.34,19.75,41.7,19,43a1.31,1.31,0,0,1-1.7.52L4,37.15a1.3,1.3,0,0,1-.67-1.59A42,42,0,0,1,29,11.18a3.06,3.06,0,0,1,3.29.93c1.44,1.73,5.65,5.76,13.55,5.76s11.68-3.67,13-5.25a3.06,3.06,0,0,1,3.4-.93,42.54,42.54,0,0,1,24.4,23.86,1.31,1.31,0,0,1-.66,1.6L72.72,43.54A1.31,1.31,0,0,1,71,43c-.77-1.32-3.14-4.68-5.42-5.8L67.83,77.6a1.29,1.29,0,0,1-.36,1A1.3,1.3,0,0,1,66.52,79ZM24.85,76.36h40.3L62.89,35.62a1.33,1.33,0,0,1,.36-1,1.31,1.31,0,0,1,1-.4c3.7,0,7,4.35,8.43,6.44l11.13-5.36A40.77,40.77,0,0,0,61.34,14.14a.45.45,0,0,0-.48.14c-1.54,1.87-6.1,6.2-15,6.2S32,15.8,30.31,13.79a.41.41,0,0,0-.45-.14C14.4,18.81,7.87,31.56,6.23,35.33l11.14,5.36c1.39-2.09,4.73-6.44,8.43-6.44a1.31,1.31,0,0,1,.95.4,1.33,1.33,0,0,1,.36,1Z"/></g></svg>