<svg xmlns="http://www.w3.org/2000/svg" viewBox="0 0 90 90"><defs><style>.cls-1{fill:#fbfbfb;}.cls-2{fill:#6bd1cf;}.cls-3{fill:#cff9f6;}.cls-4{fill:#f4cee5;}.cls-5{fill:#f297c9;}</style></defs><g id="Layer_2" data-name="Layer 2"><rect class="cls-1" width="90" height="90"/></g><g id="Layer_1" data-name="Layer 1"><rect class="cls-1" x="10.15" y="11.7" width="69.71" height="61.51"/><path class="cls-2" d="M79.85,74.51H10.15a1.31,1.31,0,0,1-1.31-1.3V11.7a1.31,1.31,0,0,1,1.31-1.31h69.7a1.31,1.31,0,0,1,1.31,1.31V73.21A1.31,1.31,0,0,1,79.85,74.51ZM11.45,71.9h67.1V13H11.45Z"/><path class="cls-2" d="M67.08,79.61H21.85a1.36,1.36,0,0,1,0-2.71H67.08a1.36,1.36,0,0,1,0,2.71Z"/><path class="cls-2" d="M74,79.61H71.43a1.36,1.36,0,0,1,0-2.71H74a1.36,1.36,0,0,1,0,2.71Z"/><rect class="cls-3" x="10.15" y="11.7" width="69.71" height="10.21"/><path class="cls-2" d="M79.85,23.21H10.15a1.31,1.31,0,0,1-1.31-1.3V11.7a1.31,1.31,0,0,1,1.31-1.31h69.7a1.31,1.31,0,0,1,1.31,1.31V21.91A1.31,1.31,0,0,1,79.85,23.21ZM11.45,20.6h67.1V13H11.45Z"/><path class="cls-2" d="M18.05,16.76A1.81,1.81,0,1,1,16.24,15,1.81,1.81,0,0,1,18.05,16.76Z"/><circle class="cls-2" cx="22.21" cy="16.76" r="1.81"/><path class="cls-2" d="M30,16.76A1.81,1.81,0,1,1,28.17,15,1.81,1.81,0,0,1,30,16.76Z"/><rect class="cls-4" x="15.7" y="30.85" width="15.9" height="15.9"/><path class="cls-5" d="M31.61,48.06H15.7a1.3,1.3,0,0,1-1.3-1.31V30.85a1.3,1.3,0,0,1,1.3-1.3H31.61a1.3,1.3,0,0,1,1.3,1.3v15.9A1.3,1.3,0,0,1,31.61,48.06ZM17,45.45H30.3V32.16H17Z"/><rect class="cls-4" x="36.66" y="30.85" width="15.9" height="15.9"/><path class="cls-5" d="M52.57,48.06H36.66a1.3,1.3,0,0,1-1.3-1.31V30.85a1.3,1.3,0,0,1,1.3-1.3H52.57a1.3,1.3,0,0,1,1.3,1.3v15.9A1.3,1.3,0,0,1,52.57,48.06ZM38,45.45H51.26V32.16H38Z"/><rect class="cls-4" x="58.71" y="30.85" width="15.9" height="15.9"/><path class="cls-5" d="M74.61,48.06H58.71a1.3,1.3,0,0,1-1.3-1.31V30.85a1.3,1.3,0,0,1,1.3-1.3h15.9a1.31,1.31,0,0,1,1.31,1.3v15.9A1.31,1.31,0,0,1,74.61,48.06ZM60,45.45H73.31V32.16H60Z"/><rect class="cls-3" x="10.15" y="63.92" width="69.71" height="9.28"/><path class="cls-2" d="M79.85,74.51H10.15a1.31,1.31,0,0,1-1.31-1.3V63.92a1.31,1.31,0,0,1,1.31-1.3h69.7a1.31,1.31,0,0,1,1.31,1.3v9.29A1.31,1.31,0,0,1,79.85,74.51ZM11.45,71.9h67.1V65.23H11.45Z"/><path class="cls-5" d="M31.42,53.62H14.9a1.36,1.36,0,0,1,0-2.71H31.42a1.36,1.36,0,0,1,0,2.71Z"/><path class="cls-5" d="M31.42,58H14.9a1.36,1.36,0,0,1,0-2.71H31.42a1.36,1.36,0,0,1,0,2.71Z"/><path class="cls-5" d="M53.16,53.62H36.64a1.36,1.36,0,0,1,0-2.71H53.16a1.36,1.36,0,0,1,0,2.71Z"/><path class="cls-5" d="M53.16,58H36.64a1.36,1.36,0,0,1,0-2.71H53.16a1.36,1.36,0,0,1,0,2.71Z"/><path class="cls-5" d="M74,53.62H57.51a1.36,1.36,0,0,1,0-2.71H74a1.36,1.36,0,0,1,0,2.71Z"/><path class="cls-5" d="M74,58H57.51a1.36,1.36,0,0,1,0-2.71H74A1.36,1.36,0,0,1,74,58Z"/></g></svg>