<svg xmlns="http://www.w3.org/2000/svg" viewBox="0 0 90 90"><defs><style>.cls-1{fill:#fbfbfb;}.cls-2{fill:#cff9f6;}.cls-3{fill:#6bd1cf;}.cls-4{fill:#f4cee5;}.cls-5{fill:#f297c9;}.cls-6{fill:#fff;}</style></defs><g id="Layer_2" data-name="Layer 2"><rect class="cls-1" width="90" height="90"/></g><g id="Layer_1" data-name="Layer 1"><polygon class="cls-2" points="64.05 44.25 64.05 34.3 76.71 39.25 64.05 44.25"/><polygon class="cls-3" points="64.05 33.33 64.05 36.21 73.07 39.45 64.05 42.73 64.05 45.61 77.53 40.72 77.56 38.17 64.05 33.33"/><polygon class="cls-2" points="25.52 43.9 25.52 34.3 13.12 39.25 25.52 43.9"/><path class="cls-3" d="M25.78,33.11l-13.32,5.1,0,2.67,13.29,4.8ZM16.93,39.5l8.59-3.3v6.41Z"/><polygon class="cls-2" points="10.98 48.53 10.98 74.01 44.01 85.94 44.01 51.24 12.62 39.69 10.98 48.53"/><path class="cls-3" d="M44.65,87.24a1.31,1.31,0,0,1-.44-.07l-33-11.93A1.25,1.25,0,0,1,10.44,74V48.53h2.71V73.1l30.32,11V52.16L12.86,41.05l.86-2.46L45.23,50a1.38,1.38,0,0,1,1,1.22v34.7A1.45,1.45,0,0,1,45.51,87,1.7,1.7,0,0,1,44.65,87.24Z"/><rect class="cls-4" x="31.66" y="7.38" width="8.84" height="4.26"/><path class="cls-5" d="M40.5,12.94H31.66a1.3,1.3,0,0,1-1.3-1.3V7.38a1.3,1.3,0,0,1,1.3-1.31H40.5a1.3,1.3,0,0,1,1.31,1.31v4.26A1.3,1.3,0,0,1,40.5,12.94ZM33,10.33H39.2V8.68H33Z"/><path class="cls-4" d="M26.61,44.87v-15a5,5,0,0,1,1.5-3.55l3.52-3.44a5,5,0,0,0,1.49-3.55V11.23l6.1,0v8.07a5,5,0,0,0,1.49,3.55l3.52,3.45a5,5,0,0,1,1.49,3.55V50.16Z"/><path class="cls-5" d="M47,50.16H44.42V29.82a3.68,3.68,0,0,0-1.1-2.62L39.8,23.75a6.31,6.31,0,0,1-1.89-4.48V12.51l-3.49,0v6.81a6.3,6.3,0,0,1-1.88,4.48L29,27.27a3.67,3.67,0,0,0-1.1,2.61v15H25.31v-15a6.34,6.34,0,0,1,1.88-4.48L30.71,22a3.65,3.65,0,0,0,1.1-2.61V11.23a1.31,1.31,0,0,1,1.3-1.31l6.1,0h0a1.34,1.34,0,0,1,.92.38,1.32,1.32,0,0,1,.38.92v8.07a3.69,3.69,0,0,0,1.1,2.62l3.52,3.44A6.33,6.33,0,0,1,47,29.82Z"/><rect class="cls-4" x="33.12" y="3.72" width="6.1" height="3.91"/><path class="cls-5" d="M39.22,8.93h-6.1a1.31,1.31,0,0,1-1.31-1.3V3.72a1.31,1.31,0,0,1,1.31-1.31h6.1a1.3,1.3,0,0,1,1.3,1.31V7.63A1.3,1.3,0,0,1,39.22,8.93Zm-4.8-2.61h3.49V5H34.42Z"/><polygon class="cls-6" points="44.63 49.88 41.92 48.4 40.74 27.54 42.8 25.05 46.28 22.34 53.98 46.29 44.63 49.88"/><path class="cls-3" d="M60.41,87.76A1.3,1.3,0,0,1,60,85.24l11.83-4.46a1.3,1.3,0,0,1,.92,2.44L60.87,87.68A1.21,1.21,0,0,1,60.41,87.76Z"/><path class="cls-3" d="M76.44,81.49A1.3,1.3,0,0,1,76,79l1.64-.59a1.31,1.31,0,1,1,.88,2.46l-1.65.58A1.11,1.11,0,0,1,76.44,81.49Z"/><rect class="cls-1" x="30.68" y="34.11" width="9.03" height="8.01"/><path class="cls-5" d="M39.71,43.42h-9a1.31,1.31,0,0,1-1.31-1.3v-8a1.31,1.31,0,0,1,1.31-1.31h9A1.31,1.31,0,0,1,41,34.11v8A1.3,1.3,0,0,1,39.71,43.42ZM32,40.81H38.4v-5.4H32Z"/><polygon class="cls-1" points="31.75 73.26 12.65 66.69 12.65 57.21 31.69 63.75 31.75 73.26"/><path class="cls-3" d="M33.06,75.09,11.35,67.62V55.38L33,62.81ZM14,65.76l16.47,5.67,0-6.75L14,59Z"/><path class="cls-3" d="M36.16,76.19a1.34,1.34,0,0,1-1.35-1.3V69.67a1.36,1.36,0,0,1,2.71,0v5.22A1.35,1.35,0,0,1,36.16,76.19Z"/><path class="cls-3" d="M36.16,66.62a1.34,1.34,0,0,1-1.35-1.3v-.87a1.36,1.36,0,0,1,2.71,0v.87A1.35,1.35,0,0,1,36.16,66.62Z"/><path class="cls-4" d="M62.43,44.44V29c0-6.92-8.67-8.93-8.67-8.93V7.92H48.35V20.09h0s-8.64,2-8.64,8.93V49.66l4.71,1.47Z"/><path class="cls-5" d="M45,52.44a1.34,1.34,0,0,1-.4-.06L40,50.91a1.26,1.26,0,0,1-.84-1.25V29c0-6.45,6-9.12,8.66-9.92V7.48A1.12,1.12,0,0,1,49,6.3h5.22a1.09,1.09,0,0,1,1.17,1.18V19.11c2.7.82,8.66,3.49,8.66,9.91V44.44a1.23,1.23,0,0,1-.76,1.23L45.36,52.36A1.19,1.19,0,0,1,45,52.44Zm-3.1-3.73,3,1,16.44-6.22V29c0-5.81-7.59-7.64-7.67-7.66a1.28,1.28,0,0,1-1-1.27V9H50.51V20.09a1.31,1.31,0,0,1-1.12,1.3c-.84.22-7.54,2.18-7.54,7.63Z"/><path class="cls-1" d="M45.64,50.16V31.7a6.13,6.13,0,0,1,6.14-6.14h0a6.14,6.14,0,0,1,6.14,6.14V45.89Z"/><path class="cls-5" d="M54,34.4a1.31,1.31,0,0,1-1.31-1.31,1.79,1.79,0,0,0-1.79-1.79h-.51a1.31,1.31,0,1,1,0-2.61h.51a4.41,4.41,0,0,1,4.4,4.4A1.31,1.31,0,0,1,54,34.4Z"/><rect class="cls-4" x="47.06" y="3.54" width="8.84" height="4.26"/><path class="cls-5" d="M55.91,9.11H47.06a1.31,1.31,0,0,1-1.3-1.31V3.54a1.3,1.3,0,0,1,1.3-1.3h8.85a1.3,1.3,0,0,1,1.3,1.3V7.8A1.31,1.31,0,0,1,55.91,9.11ZM48.37,6.5H54.6V4.84H48.37Z"/><path class="cls-5" d="M46.94,50.16H44.33V31.7a7.45,7.45,0,1,1,14.89,0V46.46H56.61V31.7a4.84,4.84,0,1,0-9.67,0Z"/><polygon class="cls-2" points="76.5 48.53 76.5 74.01 44.01 85.94 44.01 51.24 76.72 39.15 76.5 48.53"/><path class="cls-3" d="M44.65,87.24A1.14,1.14,0,0,1,44,87a1.24,1.24,0,0,1-.5-1.07V51.24a1.25,1.25,0,0,1,.8-1.22l32.52-12,1,2.45L46.18,52.15V84.06l29.24-11V48.53h2.71V74a1.31,1.31,0,0,1-.85,1.23L45.1,87.16A1.12,1.12,0,0,1,44.65,87.24Z"/><polygon class="cls-1" points="12.79 39.28 5.47 46.49 36.82 58.74 44.64 50.93 12.79 39.28"/><path class="cls-3" d="M36.82,60a1.27,1.27,0,0,1-.47-.09L5,47.7a1.31,1.31,0,0,1-.44-2.15l7.33-7.21a1.29,1.29,0,0,1,1.36-.29L45.09,49.69a1.31,1.31,0,0,1,.82,1,1.27,1.27,0,0,1-.35,1.2l-7.81,7.82A1.32,1.32,0,0,1,36.82,60Zm-29-14L36.5,57.21l5.77-5.77L13.12,40.78Z"/><polygon class="cls-1" points="77.21 39.28 84.53 46.49 53.18 58.74 45.36 50.93 77.21 39.28"/><path class="cls-3" d="M53.18,59.93a1.32,1.32,0,0,1-.93-.38l-7.81-7.82a1.27,1.27,0,0,1-.35-1.2,1.31,1.31,0,0,1,.82-1L76.76,37.94a1.29,1.29,0,0,1,1.36.29l7.33,7.21A1.31,1.31,0,0,1,85,47.59L53.65,59.84A1.27,1.27,0,0,1,53.18,59.93Zm-5.45-8.6L53.5,57.1,82.18,45.89l-5.3-5.22Z"/></g></svg>