<svg xmlns="http://www.w3.org/2000/svg" viewBox="0 0 90 90"><defs><style>.cls-1{fill:#fbfbfb;}.cls-2{fill:#afefec;}.cls-3{fill:#6bd1cf;}.cls-4{fill:#f4cee5;}.cls-5{fill:#f297c9;}</style></defs><g id="Layer_2" data-name="Layer 2"><rect class="cls-1" width="90" height="90"/></g><g id="Layer_1" data-name="Layer 1"><rect class="cls-1" x="24.26" y="16.53" width="41.75" height="56.53"/><polygon class="cls-2" points="23.39 74.25 66.01 74.25 65.63 79.2 62.1 82.88 53.92 83.99 34.7 83.99 27.19 82.31 24.26 79.54 23.39 74.25"/><polygon class="cls-2" points="66.01 16.84 24.26 16.84 25.15 11.3 28.76 8.09 60.12 7.49 65.25 10.32 66.01 16.84"/><path class="cls-3" d="M49.48,13.6H44.27a1.36,1.36,0,0,1,0-2.71h5.21a1.36,1.36,0,0,1,0,2.71Z"/><path class="cls-3" d="M39.92,13.6h-.87a1.36,1.36,0,0,1,0-2.71h.87a1.36,1.36,0,0,1,0,2.71Z"/><path class="cls-4" d="M65.36,44.58a10,10,0,1,1,0-20.08Z"/><path class="cls-5" d="M65.36,45.88a11.34,11.34,0,1,1,0-22.68v2.61a8.55,8.55,0,0,0-9,8.73,8.55,8.55,0,0,0,9,8.73Z"/><path class="cls-4" d="M42.78,73.7a36,36,0,0,0,.53-5.86A16.47,16.47,0,0,0,27,51.43a30,30,0,0,0-4.88.19V73.7Z"/><path class="cls-5" d="M42.78,74.24h-19a1.16,1.16,0,0,1-1.25-1.18V51.62a1.29,1.29,0,0,1,.91-1.26A18.41,18.41,0,0,1,27.37,50,17.41,17.41,0,0,1,44.62,67.52a30.42,30.42,0,0,1-.56,5.76A1.26,1.26,0,0,1,42.78,74.24Zm-18.49-2.7h17.4A25.4,25.4,0,0,0,42,67.41,14.71,14.71,0,0,0,27.43,52.52a27.1,27.1,0,0,0-3.14.2Z"/><path class="cls-5" d="M37.32,63.25a1.31,1.31,0,0,1-1.22-.84,7.88,7.88,0,0,0-8.2-5,1.31,1.31,0,0,1-.28-2.6,10.51,10.51,0,0,1,10.92,6.71,1.31,1.31,0,0,1-.75,1.69A1.29,1.29,0,0,1,37.32,63.25Z"/><path class="cls-5" d="M38.21,68.29A1.29,1.29,0,0,1,36.91,67l0-1.08a1.29,1.29,0,0,1,1.26-1.34,1.27,1.27,0,0,1,1.34,1.27l0,1.07a1.28,1.28,0,0,1-1.26,1.33Z"/><path class="cls-3" d="M58.42,84.25H31.63a9.46,9.46,0,0,1-9.46-9.45V15.2a9.46,9.46,0,0,1,9.46-9.45H58.42a9.46,9.46,0,0,1,9.46,9.45V74.8A9.46,9.46,0,0,1,58.42,84.25ZM31.63,8.35a6.86,6.86,0,0,0-6.85,6.85V74.8a6.86,6.86,0,0,0,6.85,6.85H58.42a6.86,6.86,0,0,0,6.85-6.85V15.2a6.86,6.86,0,0,0-6.85-6.85Z"/><path class="cls-3" d="M66,74.24H24.26a1.35,1.35,0,0,1,0-2.7H66a1.35,1.35,0,0,1,0,2.7Z"/><path class="cls-3" d="M46.88,77.74a1.81,1.81,0,1,1-1.81-1.8A1.81,1.81,0,0,1,46.88,77.74Z"/><path class="cls-3" d="M53.93,77.74a1.81,1.81,0,1,1-1.81-1.8A1.81,1.81,0,0,1,53.93,77.74Z"/><path class="cls-3" d="M39.83,77.74A1.81,1.81,0,1,1,38,75.94,1.81,1.81,0,0,1,39.83,77.74Z"/><rect class="cls-3" x="24.2" y="15.22" width="42.78" height="2.71"/></g></svg>