<svg xmlns="http://www.w3.org/2000/svg" viewBox="0 0 90 90"><defs><style>.cls-1{fill:#fbfbfb;}.cls-2{fill:#afefec;}.cls-3{fill:#6bd1cf;}.cls-4{fill:#f297c9;}</style></defs><g id="Layer_2" data-name="Layer 2"><rect class="cls-1" width="90" height="90"/></g><g id="Layer_1" data-name="Layer 1"><polygon class="cls-2" points="44.99 13.96 51.04 26.22 64.58 28.19 54.78 37.73 57.1 51.21 44.99 44.85 32.88 51.21 35.2 37.73 25.4 28.19 38.94 26.22 44.99 13.96"/><path class="cls-3" d="M32.89,53.16a1.92,1.92,0,0,1-1.15-.37A2,2,0,0,1,31,50.88L33.1,38.42,24,29.59a2,2,0,0,1,1.08-3.33l12.52-1.82,5.6-11.35a2,2,0,0,1,3.5,0l5.6,11.35,12.52,1.82a2,2,0,0,1,1.08,3.33l-9.06,8.83L59,50.88a2,2,0,0,1-2.83,2.06L45,47.05l-11.2,5.89A1.9,1.9,0,0,1,32.89,53.16ZM45,42.9a2,2,0,0,1,.91.22l8.61,4.53-1.65-9.59a1.94,1.94,0,0,1,.56-1.72l7-6.79-9.63-1.4a2,2,0,0,1-1.47-1.07L45,18.36l-4.3,8.72a2,2,0,0,1-1.47,1.07l-9.63,1.4,7,6.79a1.94,1.94,0,0,1,.56,1.72l-1.65,9.59,8.61-4.53A2,2,0,0,1,45,42.9Z"/><path class="cls-4" d="M45,87.32a1.66,1.66,0,0,1-1.66-1.6V68.25a1.66,1.66,0,0,1,3.32,0V85.72A1.66,1.66,0,0,1,45,87.32Z"/><path class="cls-4" d="M35.39,87.32a1.65,1.65,0,0,1-1.65-1.6V68.25a1.66,1.66,0,0,1,3.31,0V85.72A1.65,1.65,0,0,1,35.39,87.32Z"/><path class="cls-3" d="M17.61,87.31a10.54,10.54,0,0,1-1.11,0A14.09,14.09,0,0,1,3.77,71.91c1.29-8.76,7.58-13.09,18.68-13.09H44.89a1.66,1.66,0,0,1,0,3.32H22.45C12.91,62.14,8,65.29,6.94,72.35a10.88,10.88,0,0,0,9.87,11.8A8.45,8.45,0,0,0,26,76.52a6.47,6.47,0,0,0-5.8-7A4.82,4.82,0,0,0,15,73.83a3.56,3.56,0,0,0,3.19,3.86c1.85.17,2.15-1.91,2.19-2.33a1.6,1.6,0,1,1,3.18.3c-.31,3.3-2.7,5.49-5.67,5.2a6.74,6.74,0,0,1-6.07-7.34,8,8,0,0,1,8.75-7.23,9.65,9.65,0,0,1,8.67,10.5A11.65,11.65,0,0,1,17.61,87.31Z"/><path class="cls-3" d="M72.39,87.31A11.64,11.64,0,0,1,60.82,76.79a9.65,9.65,0,0,1,8.67-10.5,8,8,0,0,1,8.75,7.23,6.74,6.74,0,0,1-6.07,7.34,5.87,5.87,0,0,1-6.32-5.2,1.6,1.6,0,1,1,3.18-.3,2.66,2.66,0,0,0,2.84,2.32,3.55,3.55,0,0,0,3.19-3.86,4.82,4.82,0,0,0-5.27-4.34,6.43,6.43,0,0,0-5.79,7,8.44,8.44,0,0,0,9.2,7.6,10.83,10.83,0,0,0,9.86-11.81c-1-7-6-10.13-15.5-10.13H43.83a1.66,1.66,0,0,1,0-3.32H67.56c11.1,0,17.39,4.33,18.67,13A14.14,14.14,0,0,1,73.51,87.3C73.13,87.33,72.76,87.31,72.39,87.31Z"/><path class="cls-4" d="M54.59,87.32a1.66,1.66,0,0,1-1.66-1.6V68.25a1.66,1.66,0,0,1,3.32,0V85.72A1.66,1.66,0,0,1,54.59,87.32Z"/><path class="cls-4" d="M12.18,49.59a2,2,0,0,1-.8-3.73l6.2-2.79a2,2,0,0,1,1.6,3.56L13,49.42A1.89,1.89,0,0,1,12.18,49.59Z"/><path class="cls-4" d="M17.16,33.1l-.27,0-7.6-1a1.95,1.95,0,1,1,.52-3.86l7.61,1a2,2,0,0,1-.26,3.89Z"/><path class="cls-4" d="M23.13,18.88a1.92,1.92,0,0,1-1.26-.46l-5.4-4.59a2,2,0,1,1,2.53-3l5.39,4.58a2,2,0,0,1-1.26,3.44Z"/><path class="cls-4" d="M35.45,13.76a2,2,0,0,1-1.89-1.46L31.69,5.12a1.95,1.95,0,1,1,3.77-1l1.88,7.18a2,2,0,0,1-1.4,2.38A2.05,2.05,0,0,1,35.45,13.76Z"/><path class="cls-4" d="M77.39,49.59a1.89,1.89,0,0,1-.8-.17L70.4,46.63A2,2,0,0,1,72,43.07l6.19,2.79a2,2,0,0,1-.8,3.73Z"/><path class="cls-4" d="M72.42,33.1a2,2,0,0,1-.27-3.89l7.61-1A1.95,1.95,0,1,1,80.29,32l-7.61,1Z"/><path class="cls-4" d="M66.51,19a1.95,1.95,0,0,1-1.3-3.4l5.26-4.74a2,2,0,1,1,2.61,2.9l-5.27,4.74A2,2,0,0,1,66.51,19Z"/><path class="cls-4" d="M54.13,13.76a2.05,2.05,0,0,1-.49-.06,2,2,0,0,1-1.4-2.38l1.87-7.18a1.95,1.95,0,1,1,3.77,1L56,12.3A1.94,1.94,0,0,1,54.13,13.76Z"/></g></svg>