<svg xmlns="http://www.w3.org/2000/svg" xmlns:xlink="http://www.w3.org/1999/xlink" viewBox="0 0 1491.17 280.81"><defs><style>.cls-1{fill:#fff;}.cls-2{clip-path:url(#clip-path);}.cls-3{isolation:isolate;}.cls-4{clip-path:url(#clip-path-2);}.cls-5{clip-path:url(#clip-path-3);}.cls-6{clip-path:url(#clip-path-4);}.cls-7{clip-path:url(#clip-path-5);}.cls-8{clip-path:url(#clip-path-6);}.cls-9{clip-path:url(#clip-path-7);}.cls-10{clip-path:url(#clip-path-8);}.cls-11{clip-path:url(#clip-path-9);}.cls-12{clip-path:url(#clip-path-10);}.cls-13{clip-path:url(#clip-path-11);}.cls-14{clip-path:url(#clip-path-12);}.cls-15{clip-path:url(#clip-path-13);}.cls-16{clip-path:url(#clip-path-14);}.cls-17{clip-path:url(#clip-path-15);}.cls-18{clip-path:url(#clip-path-16);}.cls-19{clip-path:url(#clip-path-17);}.cls-20{clip-path:url(#clip-path-18);}.cls-21{clip-path:url(#clip-path-19);}.cls-22{clip-path:url(#clip-path-20);}.cls-23{clip-path:url(#clip-path-21);}.cls-24{clip-path:url(#clip-path-22);}.cls-25{clip-path:url(#clip-path-23);}.cls-26{clip-path:url(#clip-path-24);}.cls-27{clip-path:url(#clip-path-25);}.cls-28{clip-path:url(#clip-path-26);}.cls-29{clip-path:url(#clip-path-27);}.cls-30{clip-path:url(#clip-path-28);}.cls-31{clip-path:url(#clip-path-29);}.cls-32{clip-path:url(#clip-path-30);}.cls-33{clip-path:url(#clip-path-31);}.cls-34{clip-path:url(#clip-path-32);}.cls-35{clip-path:url(#clip-path-33);}.cls-36{clip-path:url(#clip-path-34);}.cls-37{clip-path:url(#clip-path-35);}.cls-38{clip-path:url(#clip-path-36);}.cls-39{clip-path:url(#clip-path-37);}.cls-40{clip-path:url(#clip-path-38);}.cls-41{clip-path:url(#clip-path-39);}.cls-42{clip-path:url(#clip-path-40);}.cls-43{clip-path:url(#clip-path-41);}.cls-44{clip-path:url(#clip-path-42);}.cls-45{clip-path:url(#clip-path-43);}.cls-46{clip-path:url(#clip-path-44);}.cls-47{clip-path:url(#clip-path-45);}.cls-48{clip-path:url(#clip-path-46);}.cls-49{clip-path:url(#clip-path-47);}.cls-50{clip-path:url(#clip-path-48);}.cls-51{clip-path:url(#clip-path-49);}.cls-52{clip-path:url(#clip-path-50);}.cls-53{clip-path:url(#clip-path-51);}.cls-54{clip-path:url(#clip-path-52);}.cls-55{clip-path:url(#clip-path-53);}.cls-56{clip-path:url(#clip-path-54);}.cls-57{clip-path:url(#clip-path-55);}.cls-58{clip-path:url(#clip-path-56);}.cls-59{clip-path:url(#clip-path-57);}.cls-60{clip-path:url(#clip-path-58);}.cls-61{clip-path:url(#clip-path-59);}.cls-62{clip-path:url(#clip-path-60);}.cls-63{clip-path:url(#clip-path-61);}.cls-64{clip-path:url(#clip-path-62);}.cls-65{clip-path:url(#clip-path-63);}.cls-66{clip-path:url(#clip-path-64);}.cls-67{clip-path:url(#clip-path-65);}.cls-68{clip-path:url(#clip-path-66);}.cls-69{clip-path:url(#clip-path-67);}.cls-70{clip-path:url(#clip-path-68);}.cls-71{clip-path:url(#clip-path-69);}.cls-72{clip-path:url(#clip-path-70);}.cls-73{clip-path:url(#clip-path-71);}.cls-74{clip-path:url(#clip-path-72);}.cls-75{clip-path:url(#clip-path-73);}.cls-76{clip-path:url(#clip-path-74);}.cls-77{fill:#6bd1cf;}</style><clipPath id="clip-path"><path class="cls-1" d="M20.41,40.52l-7.24-9.75a8.11,8.11,0,0,0,3,2.25l7.24,9.74A8.29,8.29,0,0,1,20.41,40.52Z"/></clipPath><clipPath id="clip-path-2"><path class="cls-1" d="M18.64,35.23,25.88,45a7.88,7.88,0,0,0-2.46-2.21L16.18,33A8.11,8.11,0,0,1,18.64,35.23Z"/></clipPath><clipPath id="clip-path-3"><path class="cls-1" d="M70.6,8.78l7.24,9.75a2.79,2.79,0,0,1,.52,1.76l-7.24-9.75A2.85,2.85,0,0,0,70.6,8.78Z"/></clipPath><clipPath id="clip-path-4"><path class="cls-1" d="M103.06,85.28,110.31,95a26.37,26.37,0,0,0-8.69-7.59,11.39,11.39,0,0,1-4.09-3l-7.24-9.74a11.22,11.22,0,0,0,4.09,3A26.33,26.33,0,0,1,103.06,85.28Z"/></clipPath><clipPath id="clip-path-5"><path class="cls-1" d="M165.52,69.9l7.25,9.74a4.57,4.57,0,0,1,.83,2.24l-7.25-9.74A4.35,4.35,0,0,0,165.52,69.9Z"/></clipPath><clipPath id="clip-path-6"><path class="cls-1" d="M161,77.69l7.25,9.74C155,93.54,135,107.68,121.46,121.56l-7.25-9.75C127.8,97.94,147.79,83.79,161,77.69Z"/></clipPath><clipPath id="clip-path-7"><path class="cls-1" d="M166.35,72.14l7.25,9.74c0,2.22-2,4.16-5.38,5.55L161,77.69C164.34,76.3,166.32,74.36,166.35,72.14Z"/></clipPath><clipPath id="clip-path-8"><path class="cls-1" d="M95.1,147.8l7.24,9.74a28.71,28.71,0,0,0-8.32-8l-7.24-9.74A28.57,28.57,0,0,1,95.1,147.8Z"/></clipPath><clipPath id="clip-path-9"><path class="cls-1" d="M83.67,203.75,76.43,194c-4.47-6-7.76-16.89-7.49-35l7.24,9.74C75.92,186.86,79.2,197.73,83.67,203.75Z"/></clipPath><clipPath id="clip-path-10"><path class="cls-1" d="M87.05,202.23,94.29,212a3.58,3.58,0,0,1,.73,2.26c0,2.49-2.29,4.16-5.63,4.16l-7.25-9.74c3.34,0,5.59-1.67,5.63-4.16A3.55,3.55,0,0,0,87.05,202.23Z"/></clipPath><clipPath id="clip-path-11"><path class="cls-1" d="M146.81,141.17l7.24,9.74c21,28.25,29.18,79.45,48.21,105.05L195,246.21C176,220.62,167.82,169.42,146.81,141.17Z"/></clipPath><clipPath id="clip-path-12"><path class="cls-1" d="M507.05,19.51l7.25,9.74c-4.76-6.39-11.71-10.35-21.84-10.35-13.37,0-17.12,8.6-17.23,15.54-.25,17.48-16,26.35-24.62,26.35-8.9,0-15.69-3.44-19.48-8.54l-7.25-9.74c3.8,5.1,10.58,8.54,19.48,8.54,8.64,0,24.37-8.88,24.63-26.35.1-6.95,3.85-15.55,17.22-15.55C495.34,9.15,502.29,13.12,507.05,19.51Z"/></clipPath><clipPath id="clip-path-13"><path class="cls-1" d="M282.93,228.5l7.24,9.74c10.8,14.52-2.59,42.57-60.43,42.57-41,0-66.21-18.85-83.71-42.38l-7.25-9.74c17.5,23.52,42.75,42.38,83.71,42.38C280.33,271.07,293.72,243,282.93,228.5Z"/></clipPath><clipPath id="clip-path-14"><path class="cls-1" d="M446.53,79l7.24,9.74c-1.9-2.55-5.53-4.11-11.87-4.11-25.41,0-37.81,65.94-15.52,95.92l-7.25-9.75c-22.29-30-9.89-95.91,15.52-95.91C441,74.91,444.63,76.47,446.53,79Z"/></clipPath><clipPath id="clip-path-15"><path class="cls-1" d="M474.46,84.67l7.25,9.74a41.94,41.94,0,0,1,8.15,25.76c-.2,13.87-10.33,20.25-20.36,20.25-6.17,0-12.3-2.44-15.93-7.32l-7.24-9.74c3.63,4.88,9.76,7.32,15.92,7.32,10,0,20.16-6.38,20.37-20.26A42,42,0,0,0,474.46,84.67Z"/></clipPath><clipPath id="clip-path-16"><path class="cls-1" d="M552.09,29.66l7.24,9.74c8.87,11.92,14.34,28,14,49.14l-7.24-9.75C566.43,57.64,561,41.58,552.09,29.66Z"/></clipPath><clipPath id="clip-path-17"><path class="cls-1" d="M482.21,169l7.24,9.74a1.87,1.87,0,0,1,.37,1.13l-7.25-9.74A1.79,1.79,0,0,0,482.21,169Z"/></clipPath><clipPath id="clip-path-18"><path class="cls-1" d="M598.05,92.86l7.25,9.75a13.18,13.18,0,0,0-11.16-5.75c-10.87,0-20.21,9.72-21.28,26.08l-7.25-9.74c1.07-16.37,10.42-26.08,21.28-26.08A13.19,13.19,0,0,1,598.05,92.86Z"/></clipPath><clipPath id="clip-path-19"><path class="cls-1" d="M376.31,193.76,369.06,184c11.36,15.27,30.23,25.73,56.93,25.73,28.14,0,51.76-14.7,56.58-39.67l7.25,9.74c-4.83,25-28.45,39.68-56.59,39.68C406.53,219.5,387.66,209,376.31,193.76Z"/></clipPath><clipPath id="clip-path-20"><path class="cls-1" d="M504,216.46l-7.25-9.74a5.84,5.84,0,0,0,4.81,1.93l7.25,9.74A5.81,5.81,0,0,1,504,216.46Z"/></clipPath><clipPath id="clip-path-21"><path class="cls-1" d="M694.7,97.23l-7.25-9.74a11.74,11.74,0,0,0,3.33,2.69L698,99.92A11.6,11.6,0,0,1,694.7,97.23Z"/></clipPath><clipPath id="clip-path-22"><path class="cls-1" d="M642.65,82.82l7.25,9.74c6,8.09,9.58,20,12.31,36.48L655,119.3C652.24,102.77,648.67,90.91,642.65,82.82Z"/></clipPath><clipPath id="clip-path-23"><path class="cls-1" d="M693.25,92.33l7.25,9.75A7.11,7.11,0,0,0,698,99.92l-7.25-9.74A7.18,7.18,0,0,1,693.25,92.33Z"/></clipPath><clipPath id="clip-path-24"><path class="cls-1" d="M579.92,203.72,572.67,194c-4.48-6-7.8-16.89-7.73-35l7.24,9.74C572.11,186.83,575.44,197.69,579.92,203.72Z"/></clipPath><clipPath id="clip-path-25"><path class="cls-1" d="M745.22,65.67l7.24,9.74a2.78,2.78,0,0,1,.52,1.75l-7.24-9.74A2.84,2.84,0,0,0,745.22,65.67Z"/></clipPath><clipPath id="clip-path-26"><path class="cls-1" d="M583.33,202.24l7.25,9.74a3.6,3.6,0,0,1,.72,2.25c0,2.49-2.29,4.16-5.35,4.16l-7.25-9.74c3.06,0,5.31-1.67,5.35-4.16A3.52,3.52,0,0,0,583.33,202.24Z"/></clipPath><clipPath id="clip-path-27"><path class="cls-1" d="M782.54,97.42l-7.24-9.74a9,9,0,0,0,3.26,2.5l7.24,9.74A9.1,9.1,0,0,1,782.54,97.42Z"/></clipPath><clipPath id="clip-path-28"><path class="cls-1" d="M781.14,92.46l7.24,9.74a8,8,0,0,0-2.58-2.28l-7.24-9.74A7.85,7.85,0,0,1,781.14,92.46Z"/></clipPath><clipPath id="clip-path-29"><path class="cls-1" d="M833,65.66l7.24,9.74a2.83,2.83,0,0,1,.52,1.76l-7.24-9.74A2.85,2.85,0,0,0,833,65.66Z"/></clipPath><clipPath id="clip-path-30"><path class="cls-1" d="M756.23,199.41,749,189.67c-3-4-4.88-10.84-4.73-21.25l7.25,9.74C751.35,188.58,753.22,195.38,756.23,199.41Z"/></clipPath><clipPath id="clip-path-31"><path class="cls-1" d="M693.58,255.69,686.33,246c-11.14-15-16.43-38-19.57-56.72L674,199C677.15,217.7,682.43,240.71,693.58,255.69Z"/></clipPath><clipPath id="clip-path-32"><path class="cls-1" d="M710.81,201.89l-7.25-9.74C712,203.51,726.53,210,744.2,210A45.3,45.3,0,0,0,783,188.11l7.25,9.75a45.33,45.33,0,0,1-38.78,21.91C733.77,219.77,719.26,213.25,710.81,201.89Z"/></clipPath><clipPath id="clip-path-33"><path class="cls-1" d="M792.32,213.93l-7.25-9.74c2.41,3.23,6.59,5.37,11.74,5.37.57,0,1.15,0,1.73-.08l7.25,9.74c-.59.05-1.17.08-1.73.08C798.9,219.3,794.73,217.17,792.32,213.93Z"/></clipPath><clipPath id="clip-path-34"><path class="cls-1" d="M841.79,195.91l-7.25-9.75c-2.47-3.32-2.65-8.36-2.6-11.92l7.24,9.74C839.13,187.55,839.32,192.59,841.79,195.91Z"/></clipPath><clipPath id="clip-path-35"><path class="cls-1" d="M850.09,190.93l7.24,9.74c1.65,2.22,1.24,5.8-1.49,6.34l-7.24-9.74C851.32,196.73,851.73,193.14,850.09,190.93Z"/></clipPath><clipPath id="clip-path-36"><path class="cls-1" d="M776.4,228.49l7.25,9.74c10.79,14.52-2.64,42.58-60.69,42.58-25.73,0-58.32-9.34-79.52-37.84l-7.24-9.74c21.19,28.49,53.79,37.84,79.51,37.84C773.77,271.07,787.2,243,776.4,228.49Z"/></clipPath><clipPath id="clip-path-37"><path class="cls-1" d="M873.15,92.43l7.25,9.74a7.37,7.37,0,0,0-2.64-2.25,8.16,8.16,0,0,1-3-2.28l-7.25-9.74a8.38,8.38,0,0,0,3,2.28A7.27,7.27,0,0,1,873.15,92.43Z"/></clipPath><clipPath id="clip-path-38"><path class="cls-1" d="M925.24,65.72l7.25,9.74a2.7,2.7,0,0,1,.5,1.7l-7.25-9.74A2.7,2.7,0,0,0,925.24,65.72Z"/></clipPath><clipPath id="clip-path-39"><path class="cls-1" d="M951.88,93.21l7.25,9.74a13.88,13.88,0,0,0-11.66-6.09c-8.64,0-13.47,6.38-15,17.76l-7.25-9.74c1.57-11.38,6.4-17.76,15-17.76A13.85,13.85,0,0,1,951.88,93.21Z"/></clipPath><clipPath id="clip-path-40"><path class="cls-1" d="M863.13,216.46l-7.24-9.74a5.81,5.81,0,0,0,4.8,1.93l7.25,9.74A5.81,5.81,0,0,1,863.13,216.46Z"/></clipPath><clipPath id="clip-path-41"><path class="cls-1" d="M996.16,82.69l7.25,9.74c3.7,5,6.5,11.39,8.77,19.41l-7.25-9.74C1002.67,94.08,999.87,87.67,996.16,82.69Z"/></clipPath><clipPath id="clip-path-42"><path class="cls-1" d="M1042.88,93.12l7.24,9.74a13.69,13.69,0,0,0-11.53-6c-11.15,0-22.49,13.32-23,30.53a3.54,3.54,0,0,0,.26,1.65l-7.25-9.74a3.43,3.43,0,0,1-.25-1.66c.53-17.21,11.88-30.52,23-30.52A13.69,13.69,0,0,1,1042.88,93.12Z"/></clipPath><clipPath id="clip-path-43"><path class="cls-1" d="M939.13,203.75,931.89,194c-4.48-6-7.76-16.89-7.49-35l7.24,9.74C931.38,186.86,934.66,197.73,939.13,203.75Z"/></clipPath><clipPath id="clip-path-44"><path class="cls-1" d="M942.51,202.24l7.25,9.74a3.54,3.54,0,0,1,.72,2.25c0,2.49-2.29,4.16-5.35,4.16l-7.25-9.74c3.06,0,5.32-1.67,5.35-4.16A3.47,3.47,0,0,0,942.51,202.24Z"/></clipPath><clipPath id="clip-path-45"><path class="cls-1" d="M954,216.49l-7.25-9.74a5.49,5.49,0,0,0,4.52,1.9l7.24,9.74A5.46,5.46,0,0,1,954,216.49Z"/></clipPath><clipPath id="clip-path-46"><path class="cls-1" d="M1087.18,82.65l7.24,9.74c6.06,8.15,9.63,20.09,12.24,36.65l-7.25-9.74C1096.8,102.74,1093.24,90.8,1087.18,82.65Z"/></clipPath><clipPath id="clip-path-47"><path class="cls-1" d="M1149.48,97.47l-7.24-9.74a9,9,0,0,0,3.3,2.45l7.25,9.74A9.15,9.15,0,0,1,1149.48,97.47Z"/></clipPath><clipPath id="clip-path-48"><path class="cls-1" d="M1148,92.35l7.25,9.74a8.06,8.06,0,0,0-2.41-2.17l-7.25-9.74A7.82,7.82,0,0,1,1148,92.35Z"/></clipPath><clipPath id="clip-path-49"><path class="cls-1" d="M1195.08,65.61l7.25,9.75a4,4,0,0,1,.68,1.8l-7.25-9.74A4,4,0,0,0,1195.08,65.61Z"/></clipPath><clipPath id="clip-path-50"><path class="cls-1" d="M1031.67,205.47l-7.24-9.74c-4.17-5.6-6.29-16.9-9.47-36.75l7.25,9.74C1025.38,188.57,1027.5,199.87,1031.67,205.47Z"/></clipPath><clipPath id="clip-path-51"><path class="cls-1" d="M1033.08,202.24l7.24,9.74a3.48,3.48,0,0,1,.72,2.25c0,2.49-2.29,4.16-5.63,4.16l-7.25-9.74c3.35,0,5.6-1.67,5.64-4.16A3.6,3.6,0,0,0,1033.08,202.24Z"/></clipPath><clipPath id="clip-path-52"><path class="cls-1" d="M1045.1,216.59l-7.25-9.74c.84,1.13,2.4,1.8,4.52,1.8l7.25,9.74C1047.49,218.39,1045.94,217.72,1045.1,216.59Z"/></clipPath><clipPath id="clip-path-53"><path class="cls-1" d="M1236.31,85.92l7.24,9.74c-3.59-4.83-8.12-7.68-13.67-7.68-15.61,0-21.37,13-22.66,24.42l-7.24-9.74c1.28-11.38,7-24.42,22.65-24.42C1228.18,78.24,1232.71,81.09,1236.31,85.92Z"/></clipPath><clipPath id="clip-path-54"><path class="cls-1" d="M1122.79,205.47l-7.25-9.74c-4.16-5.6-6.29-16.9-9.46-36.75l7.25,9.74C1116.5,188.57,1118.62,199.87,1122.79,205.47Z"/></clipPath><clipPath id="clip-path-55"><path class="cls-1" d="M1124.19,202.24l7.25,9.74a3.54,3.54,0,0,1,.72,2.25c0,2.49-2.29,4.16-5.64,4.16l-7.24-9.74c3.35,0,5.6-1.67,5.64-4.16A3.55,3.55,0,0,0,1124.19,202.24Z"/></clipPath><clipPath id="clip-path-56"><path class="cls-1" d="M1093.68,230.59l7.25,9.74a25.32,25.32,0,0,1,5,15.79,16,16,0,0,0,2.87,9.79l-7.25-9.75a16.06,16.06,0,0,1-2.87-9.79A25.29,25.29,0,0,0,1093.68,230.59Z"/></clipPath><clipPath id="clip-path-57"><path class="cls-1" d="M1213.34,204l-7.25-9.74c-5.09-6.84-6.69-17.39-7.07-26.39l7.24,9.74C1206.64,186.6,1208.25,197.15,1213.34,204Z"/></clipPath><clipPath id="clip-path-58"><path class="cls-1" d="M1063.13,261.53l-7.24-9.75c7.72,10.38,26,19.29,58.58,19.29,35.67,0,78.55-17.2,83.78-69.64l7.24,9.74c-5.22,52.44-48.11,69.64-83.78,69.64C1089.12,280.81,1070.85,271.9,1063.13,261.53Z"/></clipPath><clipPath id="clip-path-59"><path class="cls-1" d="M1284.08,95.42l7.24,9.74C1300.1,117,1304.19,131.41,1304,146c-.54,36.35-27.56,73.8-76.33,73.8-10,0-17.22-3.6-22.16-8.6l-7.24-9.74c4.94,5,12.13,8.6,22.16,8.6,48.76,0,75.79-37.45,76.32-73.8C1297,121.67,1292.85,107.21,1284.08,95.42Z"/></clipPath><clipPath id="clip-path-60"><path class="cls-1" d="M1390.77,86.85l7.25,9.74a22.36,22.36,0,0,0-18.78-9.43c-22.85,0-3.34,19.14-3.55,33.56-.17,11-11,17.85-21.31,17.85-5.83,0-11.52-2.16-15.08-6.95l-7.25-9.74c3.56,4.79,9.25,7,15.08,7,10.35,0,21.15-6.82,21.31-17.85.21-14.42-19.3-33.57,3.56-33.57A22.31,22.31,0,0,1,1390.77,86.85Z"/></clipPath><clipPath id="clip-path-61"><path class="cls-1" d="M1437.28,92.07l7.25,9.74c5.76,7.75,9.44,17.58,10.69,29.74l-7.25-9.74C1446.72,109.65,1443.05,99.82,1437.28,92.07Z"/></clipPath><clipPath id="clip-path-62"><path class="cls-1" d="M1377.4,194.8l-7.25-9.74a12,12,0,0,1-2.13-7.49c.38-26.36,22.45-30,32.22-49.94l7.25,9.74c-9.78,20-31.84,23.58-32.23,49.94A12,12,0,0,0,1377.4,194.8Z"/></clipPath><clipPath id="clip-path-63"><path class="cls-1" d="M1329.64,207.75l-7.25-9.74c7.38,9.92,20.45,14.93,34.29,14.93,19,0,39.49-9.48,48.57-28.71l7.25,9.74c-9.08,19.23-29.55,28.72-48.58,28.72C1350.09,222.69,1337,217.67,1329.64,207.75Z"/></clipPath><clipPath id="clip-path-64"><path class="cls-1" d="M1463.77,201.19l-7.24-9.74c-1.87-2.5-2-7.31-2.7-13.6l7.25,9.74C1461.73,193.88,1461.91,198.69,1463.77,201.19Z"/></clipPath><clipPath id="clip-path-65"><path class="cls-1" d="M1471.62,191.12l7.25,9.74a4.9,4.9,0,0,1,.66,1.43l-7.24-9.74A5,5,0,0,0,1471.62,191.12Z"/></clipPath><clipPath id="clip-path-66"><path class="cls-1" d="M1472.29,192.55l7.24,9.74c.8,3.05.18,6.66-2.07,8.33l-7.25-9.74C1472.47,199.21,1473.08,195.6,1472.29,192.55Z"/></clipPath><clipPath id="clip-path-67"><path class="cls-1" d="M1417.21,209.21l-7.25-9.75c4.39,5.9,13.18,11.13,31.13,11.13,14.77,0,24.32-5.27,29.12-9.71l7.25,9.74c-4.8,4.44-14.36,9.71-29.12,9.71C1430.39,220.33,1421.59,215.11,1417.21,209.21Z"/></clipPath><clipPath id="clip-path-68"><path class="cls-1" d="M226.23,40.8l8.11,9.3a67.39,67.39,0,0,1,9.1,14.3c2.79,5.95,7.74,19.58,8.62,24.89,2.78,16.94-2.95,27.44-13.8,29.76a11.3,11.3,0,0,1-1.42.21c-4.72.37-9.62-2.38-13.93-7.33l-8.1-9.3c4.31,5,9.2,7.7,13.93,7.33a9.9,9.9,0,0,0,1.42-.2C241,107.43,246.74,96.94,244,80c-.88-5.3-5.83-18.94-8.63-24.89A67.64,67.64,0,0,0,226.23,40.8Z"/></clipPath><clipPath id="clip-path-69"><path class="cls-1" d="M198.17,97.67l8.1,9.3a72,72,0,0,1,4.55,5.77c3.77,5.38,11,18,12.72,23,5.62,16.19,1.72,27.47-8.61,31.57a10.79,10.79,0,0,1-3.22.75c-5.75.44-12.34-3.38-18.2-10.1l-8.11-9.29c5.86,6.72,12.45,10.54,18.21,10.09a10.78,10.78,0,0,0,3.22-.74c10.33-4.11,14.23-15.39,8.61-31.58-1.76-5.07-8.95-17.65-12.72-23C201.64,101.91,200.06,99.84,198.17,97.67Z"/></clipPath><clipPath id="clip-path-70"><path class="cls-1" d="M279.93,30.82l8.11,9.3c4.8,5.52,9,13.33,11.76,22.47,6,20.22,2.26,39.28-8.35,42.57a18.26,18.26,0,0,1-4,.78c-5.39.42-10.47-1.79-14.69-6.64L264.62,90c4.23,4.85,9.31,7,14.7,6.63a18.26,18.26,0,0,0,4-.78c10.61-3.28,14.35-22.34,8.34-42.57C289,44.15,284.74,36.34,279.93,30.82Z"/></clipPath><clipPath id="clip-path-71"><path class="cls-1" d="M331.12,57l8.11,9.3c5.52,6.33,9.83,16.81,11.28,29,2.49,21-4.4,39.2-15.4,40.67l-1.07.11a16.26,16.26,0,0,1-14-5.83l-8.11-9.3a16.28,16.28,0,0,0,14,5.83c.36,0,.72-.06,1.08-.11C338,125.2,344.89,107,342.41,86,341,73.76,336.64,63.28,331.12,57Z"/></clipPath><clipPath id="clip-path-72"><path class="cls-1" d="M228.06,211.72l-8.11-9.3A19.62,19.62,0,0,0,236.67,209a21,21,0,0,0,3.75-.61c14.45-3.68,11.6-15.57,19.6-16.19a11.75,11.75,0,0,1,3.06.23c.29.06.57.09.85.14l8.11,9.29c-.29,0-.56-.07-.86-.13a11.3,11.3,0,0,0-3.06-.23c-8,.62-5.15,12.51-19.59,16.19a23.27,23.27,0,0,1-3.76.61A19.62,19.62,0,0,1,228.06,211.72Z"/></clipPath><clipPath id="clip-path-73"><path class="cls-1" d="M290.24,185.66l8.11,9.3A28.3,28.3,0,0,1,286,201.67a31,31,0,0,1-5.27.89,26.29,26.29,0,0,1-8.69-.73l-8.11-9.29a26.65,26.65,0,0,0,8.7.72,30.08,30.08,0,0,0,5.27-.89A28.32,28.32,0,0,0,290.24,185.66Z"/></clipPath><clipPath id="clip-path-74"><path class="cls-1" d="M318.35,138.25l8.1,9.3c8,9.23,15.82,21,15.7,29.57-.18,12.87-9.61,18.55-15.78,20.21a22.85,22.85,0,0,1-4.12.73,17.51,17.51,0,0,1-10.9-2.84c-2.75-1.62-5-3.29-7.55-3.09a8.51,8.51,0,0,0-4.77,2.3c-.23.19-.46.35-.68.53l-8.11-9.3c.23-.18.46-.34.69-.53a8.53,8.53,0,0,1,4.76-2.29c2.61-.21,4.81,1.46,7.56,3.09a17.52,17.52,0,0,0,10.89,2.83,22.8,22.8,0,0,0,4.13-.73c6.17-1.66,15.59-7.34,15.78-20.21C334.17,159.29,326.39,147.48,318.35,138.25Z"/></clipPath></defs><g id="paw"><path class="cls-1" d="M21,251.12h88.12c4.06,0,8.11.07,12.17,0h.17c5.23,0,10.24-4.6,10-10a10.18,10.18,0,0,0-10-10H33.33c-4,0-8.11-.07-12.16,0H21c-5.23,0-10.24,4.6-10,10a10.17,10.17,0,0,0,10,10Z"/><path class="cls-1" d="M315.7,251.12H597.38c3.81,0,7.61,0,11.42,0h.5c5.23,0,10.24-4.6,10-10a10.18,10.18,0,0,0-10-10H327.61c-3.8,0-7.61,0-11.41,0h-.5c-5.23,0-10.25,4.6-10,10a10.17,10.17,0,0,0,10,10Z"/><path class="cls-1" d="M804.45,251.12h215.61c2.93,0,5.86,0,8.79,0h.37c5.23,0,10.24-4.6,10-10a10.17,10.17,0,0,0-10-10H813.61c-2.93,0-5.85,0-8.78,0h-.38c-5.23,0-10.24,4.6-10,10a10.18,10.18,0,0,0,10,10Z"/><path class="cls-1" d="M1223.06,251.12h246.38c3.33,0,6.66,0,10,0h.44c5.23,0,10.24-4.6,10-10a10.18,10.18,0,0,0-10-10H1233.48c-3.33,0-6.66,0-10,0h-.44c-5.23,0-10.24,4.6-10,10a10.17,10.17,0,0,0,10,10Z"/><path class="cls-1" d="M20.41,40.52l-7.24-9.75a8.11,8.11,0,0,0,3,2.25l7.24,9.74A8.29,8.29,0,0,1,20.41,40.52Z"/><g class="cls-2"><g class="cls-3"><path class="cls-1" d="M16.18,33l7.24,9.74a8.29,8.29,0,0,1-3-2.24l-7.24-9.75a8.11,8.11,0,0,0,3,2.25"/></g></g><path class="cls-1" d="M18.64,35.23,25.88,45a7.88,7.88,0,0,0-2.46-2.21L16.18,33A8.11,8.11,0,0,1,18.64,35.23Z"/><g class="cls-4"><g class="cls-3"><path class="cls-1" d="M18.64,35.23,25.88,45a7.88,7.88,0,0,0-2.46-2.21L16.18,33a8.11,8.11,0,0,1,2.46,2.21"/></g></g><path class="cls-1" d="M70.6,8.78l7.24,9.75a2.79,2.79,0,0,1,.52,1.76l-7.24-9.75A2.85,2.85,0,0,0,70.6,8.78Z"/><g class="cls-5"><g class="cls-3"><path class="cls-1" d="M70.6,8.78l7.24,9.75a2.72,2.72,0,0,1,.52,1.59l-7.24-9.74a2.85,2.85,0,0,0-.52-1.6"/><path class="cls-1" d="M71.12,10.38l7.24,9.74v.17l-7.24-9.75v-.16"/></g></g><path class="cls-1" d="M103.06,85.28,110.31,95a26.37,26.37,0,0,0-8.69-7.59,11.39,11.39,0,0,1-4.09-3l-7.24-9.74a11.22,11.22,0,0,0,4.09,3A26.33,26.33,0,0,1,103.06,85.28Z"/><g class="cls-6"><g class="cls-3"><path class="cls-1" d="M103.06,85.28,110.31,95a26.37,26.37,0,0,0-8.69-7.59,11.39,11.39,0,0,1-4.09-3l-7.24-9.74a11.22,11.22,0,0,0,4.09,3,26.33,26.33,0,0,1,8.68,7.59"/></g></g><path class="cls-1" d="M165.52,69.9l7.25,9.74a4.57,4.57,0,0,1,.83,2.24l-7.25-9.74A4.35,4.35,0,0,0,165.52,69.9Z"/><g class="cls-7"><g class="cls-3"><path class="cls-1" d="M165.52,69.9l7.25,9.74a4.57,4.57,0,0,1,.83,2.24l-7.25-9.74a4.35,4.35,0,0,0-.83-2.24"/></g></g><polygon class="cls-1" points="71.12 10.54 78.36 20.29 76.39 154.58 69.14 144.84 71.12 10.54"/><path class="cls-1" d="M161,77.69l7.25,9.74C155,93.54,135,107.68,121.46,121.56l-7.25-9.75C127.8,97.94,147.79,83.79,161,77.69Z"/><g class="cls-8"><g class="cls-3"><path class="cls-1" d="M161,77.69l7.25,9.74C155,93.54,135,107.68,121.46,121.56l-7.25-9.75c13.59-13.87,33.58-28,46.76-34.12"/></g></g><path class="cls-1" d="M166.35,72.14l7.25,9.74c0,2.22-2,4.16-5.38,5.55L161,77.69C164.34,76.3,166.32,74.36,166.35,72.14Z"/><g class="cls-9"><g class="cls-3"><path class="cls-1" d="M166.35,72.14l7.25,9.74c0,.17,0,.34,0,.5l-7.25-9.74a4.21,4.21,0,0,0,0-.5"/><path class="cls-1" d="M166.31,72.64l7.25,9.74c0,.19-.08.38-.13.57l-7.25-9.74a3.9,3.9,0,0,0,.13-.57"/><path class="cls-1" d="M166.18,73.21,173.43,83c-.06.19-.14.37-.22.56L166,73.76a3.71,3.71,0,0,0,.22-.55"/><path class="cls-1" d="M166,73.76l7.25,9.75a4.86,4.86,0,0,1-.36.61l-7.24-9.74a5.45,5.45,0,0,0,.35-.62"/><path class="cls-1" d="M165.61,74.38l7.24,9.74a4.89,4.89,0,0,1-.66.81L165,75.19a6.16,6.16,0,0,0,.66-.81"/><path class="cls-1" d="M165,75.19l7.24,9.74a11.73,11.73,0,0,1-4,2.5L161,77.69a11.84,11.84,0,0,0,4-2.5"/></g></g><polygon class="cls-1" points="114.21 111.81 121.46 121.56 111.56 131.55 104.32 121.81 114.21 111.81"/><polygon class="cls-1" points="86.78 139.84 94.02 149.58 76.2 167.62 68.95 157.87 86.78 139.84"/><polygon class="cls-1" points="68.95 157.87 76.2 167.62 76.18 168.72 68.94 158.98 68.95 157.87"/><path class="cls-1" d="M95.1,147.8l7.24,9.74a28.71,28.71,0,0,0-8.32-8l-7.24-9.74A28.57,28.57,0,0,1,95.1,147.8Z"/><g class="cls-10"><g class="cls-3"><path class="cls-1" d="M95.1,147.8l7.24,9.74a28.71,28.71,0,0,0-8.32-8l-7.24-9.74a28.57,28.57,0,0,1,8.32,8"/></g></g><path class="cls-1" d="M83.67,203.75,76.43,194c-4.47-6-7.76-16.89-7.49-35l7.24,9.74C75.92,186.86,79.2,197.73,83.67,203.75Z"/><g class="cls-11"><g class="cls-3"><path class="cls-1" d="M68.94,159l7.24,9.74c0,2,0,4,0,5.83L69,164.81c-.06-1.86-.07-3.8,0-5.83"/><path class="cls-1" d="M69,164.81l7.24,9.74c.45,14.69,3.48,23.86,7.45,29.2L76.43,194c-4-5.34-7-14.52-7.45-29.2"/></g></g><polygon class="cls-1" points="82.14 208.65 89.39 218.39 12.76 218.39 5.52 208.65 82.14 208.65"/><path class="cls-1" d="M87.05,202.23,94.29,212a3.58,3.58,0,0,1,.73,2.26c0,2.49-2.29,4.16-5.63,4.16l-7.25-9.74c3.34,0,5.59-1.67,5.63-4.16A3.55,3.55,0,0,0,87.05,202.23Z"/><g class="cls-12"><g class="cls-3"><path class="cls-1" d="M87.05,202.23,94.29,212A3.51,3.51,0,0,1,95,214l-7.25-9.74a3.5,3.5,0,0,0-.72-2.06"/><path class="cls-1" d="M87.77,204.29,95,214v.2a4.53,4.53,0,0,1,0,.53L87.73,205a4.55,4.55,0,0,0,0-.53v-.2"/><path class="cls-1" d="M87.73,205,95,214.76a3.15,3.15,0,0,1-.12.55l-7.25-9.74a3.39,3.39,0,0,0,.13-.55"/><path class="cls-1" d="M87.6,205.57l7.25,9.74a4.14,4.14,0,0,1-.19.49l-7.25-9.75a2.53,2.53,0,0,0,.19-.48"/><path class="cls-1" d="M87.41,206.05l7.25,9.75a4.39,4.39,0,0,1-.27.47l-7.24-9.75a2.68,2.68,0,0,0,.26-.47"/><path class="cls-1" d="M87.15,206.52l7.24,9.75a3.35,3.35,0,0,1-.42.51L86.72,207a3.6,3.6,0,0,0,.43-.52"/><path class="cls-1" d="M86.72,207,94,216.78a6.25,6.25,0,0,1-4.58,1.61l-7.25-9.74A6.26,6.26,0,0,0,86.72,207"/></g></g><path class="cls-1" d="M146.81,141.17l7.24,9.74c21,28.25,29.18,79.45,48.21,105.05L195,246.21C176,220.62,167.82,169.42,146.81,141.17Z"/><g class="cls-13"><g class="cls-3"><path class="cls-1" d="M146.81,141.17l7.24,9.74c21,28.25,29.18,79.45,48.21,105.05L195,246.21c-19-25.59-27.19-76.79-48.2-105"/></g></g><path class="cls-1" d="M507.05,19.51l7.25,9.74c-4.76-6.39-11.71-10.35-21.84-10.35-13.37,0-17.12,8.6-17.23,15.54-.25,17.48-16,26.35-24.62,26.35-8.9,0-15.69-3.44-19.48-8.54l-7.25-9.74c3.8,5.1,10.58,8.54,19.48,8.54,8.64,0,24.37-8.88,24.63-26.35.1-6.95,3.85-15.55,17.22-15.55C495.34,9.15,502.29,13.12,507.05,19.51Z"/><g class="cls-14"><g class="cls-3"><path class="cls-1" d="M507.05,19.51l7.25,9.74c-4.76-6.39-11.71-10.35-21.84-10.35-6.29,0-10.45,1.9-13.1,4.63l-7.25-9.74c2.65-2.73,6.82-4.64,13.1-4.64,10.13,0,17.08,4,21.84,10.36"/><path class="cls-1" d="M472.11,13.79l7.25,9.74a13.88,13.88,0,0,0-1.48,1.82l-7.24-9.74a12.6,12.6,0,0,1,1.47-1.82"/><path class="cls-1" d="M470.64,15.61l7.24,9.74a14.53,14.53,0,0,0-1,1.83l-7.25-9.74a13.93,13.93,0,0,1,1.05-1.83"/><path class="cls-1" d="M469.59,17.44l7.25,9.74a16.55,16.55,0,0,0-.81,2.08l-7.25-9.74a16.55,16.55,0,0,1,.81-2.08"/><path class="cls-1" d="M468.78,19.52,476,29.26a18.26,18.26,0,0,0-.59,2.59L468.2,22.1a18.4,18.4,0,0,1,.58-2.58"/><path class="cls-1" d="M468.2,22.1l7.24,9.75a20.85,20.85,0,0,0-.21,2.59,26.59,26.59,0,0,1-.3,3.74l-7.24-9.74a28.18,28.18,0,0,0,.3-3.74,19.37,19.37,0,0,1,.21-2.6"/><path class="cls-1" d="M467.69,28.44l7.24,9.74a26.28,26.28,0,0,1-.88,3.89l-7.25-9.75a27.15,27.15,0,0,0,.89-3.88"/><path class="cls-1" d="M466.8,32.32l7.25,9.75a27,27,0,0,1-1.34,3.42l-7.25-9.75a24.55,24.55,0,0,0,1.34-3.42"/><path class="cls-1" d="M465.46,35.74l7.25,9.75a26.22,26.22,0,0,1-1.93,3.36l-7.24-9.74a24.55,24.55,0,0,0,1.92-3.37"/><path class="cls-1" d="M463.54,39.11l7.24,9.74a27,27,0,0,1-3,3.68l-7.24-9.74a27.74,27.74,0,0,0,3-3.68"/><path class="cls-1" d="M460.55,42.79l7.24,9.74c-5.32,5.49-12.36,8.26-17.18,8.26-8.9,0-15.69-3.44-19.48-8.54l-7.25-9.74c3.8,5.1,10.58,8.54,19.48,8.54,4.83,0,11.87-2.77,17.19-8.26"/></g></g><path class="cls-1" d="M282.93,228.5l7.24,9.74c10.8,14.52-2.59,42.57-60.43,42.57-41,0-66.21-18.85-83.71-42.38l-7.25-9.74c17.5,23.52,42.75,42.38,83.71,42.38C280.33,271.07,293.72,243,282.93,228.5Z"/><g class="cls-15"><g class="cls-3"><path class="cls-1" d="M282.93,228.5l7.24,9.74a17.17,17.17,0,0,1,3.41,9.73l-7.25-9.74a17.13,17.13,0,0,0-3.4-9.73"/><path class="cls-1" d="M286.33,238.23l7.25,9.74a18.23,18.23,0,0,1-.2,3.28l-7.24-9.75a18.05,18.05,0,0,0,.19-3.27"/><path class="cls-1" d="M286.14,241.5l7.24,9.75a19,19,0,0,1-.66,2.88l-7.24-9.74a19.08,19.08,0,0,0,.66-2.89"/><path class="cls-1" d="M285.48,244.39l7.24,9.74a20.61,20.61,0,0,1-1.16,2.94l-7.24-9.74a22.4,22.4,0,0,0,1.16-2.94"/><path class="cls-1" d="M284.32,247.33l7.24,9.74a23.59,23.59,0,0,1-1.84,3.19l-7.24-9.74a25.39,25.39,0,0,0,1.84-3.19"/><path class="cls-1" d="M282.48,250.52l7.24,9.74a28.77,28.77,0,0,1-3.29,4l-7.24-9.74a30.28,30.28,0,0,0,3.29-4"/><path class="cls-1" d="M279.19,254.5l7.24,9.74c-9,9.17-27,16.57-56.69,16.57-41,0-66.21-18.85-83.71-42.38l-7.25-9.74c17.5,23.52,42.75,42.38,83.71,42.38,29.72,0,47.7-7.4,56.7-16.57"/></g></g><path class="cls-1" d="M446.53,79l7.24,9.74c-1.9-2.55-5.53-4.11-11.87-4.11-25.41,0-37.81,65.94-15.52,95.92l-7.25-9.75c-22.29-30-9.89-95.91,15.52-95.91C441,74.91,444.63,76.47,446.53,79Z"/><g class="cls-16"><g class="cls-3"><path class="cls-1" d="M446.53,79l7.24,9.74c-1.9-2.55-5.53-4.11-11.87-4.11-4.6,0-8.77,2.16-12.39,5.87l-7.24-9.74c3.62-3.71,7.79-5.87,12.38-5.87,6.34,0,10,1.56,11.88,4.11"/><path class="cls-1" d="M422.27,80.78l7.24,9.74a33.45,33.45,0,0,0-3.69,4.6l-7.24-9.74a32,32,0,0,1,3.69-4.6"/><path class="cls-1" d="M418.58,85.38l7.24,9.74a47.37,47.37,0,0,0-3.47,6.16l-7.25-9.74a46.25,46.25,0,0,1,3.48-6.16"/><path class="cls-1" d="M415.1,91.54l7.25,9.74a67.85,67.85,0,0,0-3.48,9l-7.24-9.74a66,66,0,0,1,3.47-9"/><path class="cls-1" d="M411.63,100.57l7.24,9.74a91.25,91.25,0,0,0-2.95,13.1l-7.25-9.74a90.94,90.94,0,0,1,3-13.1"/><path class="cls-1" d="M408.67,113.67l7.25,9.74a102.89,102.89,0,0,0-1.09,18.4l-7.25-9.75a103.71,103.71,0,0,1,1.09-18.39"/><path class="cls-1" d="M407.58,132.06l7.25,9.75c.45,14.4,4,28.63,11.55,38.76l-7.25-9.75c-7.53-10.12-11.1-24.35-11.55-38.76"/></g></g><path class="cls-1" d="M474.46,84.67l7.25,9.74a41.94,41.94,0,0,1,8.15,25.76c-.2,13.87-10.33,20.25-20.36,20.25-6.17,0-12.3-2.44-15.93-7.32l-7.24-9.74c3.63,4.88,9.76,7.32,15.92,7.32,10,0,20.16-6.38,20.37-20.26A42,42,0,0,0,474.46,84.67Z"/><g class="cls-17"><g class="cls-3"><path class="cls-1" d="M474.46,84.67l7.25,9.74a41.78,41.78,0,0,1,8.13,23.7l-7.24-9.74a41.79,41.79,0,0,0-8.14-23.7"/><path class="cls-1" d="M482.6,108.37l7.24,9.74c0,.69,0,1.37,0,2.06a26,26,0,0,1-.28,3.51l-7.24-9.74a27.89,27.89,0,0,0,.28-3.52c0-.68,0-1.37,0-2"/><path class="cls-1" d="M482.34,113.94l7.24,9.74a21.7,21.7,0,0,1-.74,3.29l-7.25-9.74a23.28,23.28,0,0,0,.75-3.29"/><path class="cls-1" d="M481.59,117.23l7.25,9.74a19.6,19.6,0,0,1-1,2.66l-7.25-9.74a19.6,19.6,0,0,0,1-2.66"/><path class="cls-1" d="M480.55,119.89l7.25,9.74a18.51,18.51,0,0,1-1.36,2.39l-7.25-9.74a17.4,17.4,0,0,0,1.36-2.39"/><path class="cls-1" d="M479.19,122.28l7.25,9.74a18,18,0,0,1-2,2.43l-7.24-9.74a18,18,0,0,0,2-2.43"/><path class="cls-1" d="M477.23,124.71l7.24,9.74a20.72,20.72,0,0,1-15,6c-6.17,0-12.3-2.44-15.93-7.32l-7.24-9.74c3.63,4.88,9.76,7.32,15.92,7.32a20.75,20.75,0,0,0,15-6"/></g></g><path class="cls-1" d="M552.09,29.66l7.24,9.74c8.87,11.92,14.34,28,14,49.14l-7.24-9.75C566.43,57.64,561,41.58,552.09,29.66Z"/><g class="cls-18"><g class="cls-3"><path class="cls-1" d="M552.09,29.66l7.24,9.74c8.13,10.93,13.41,25.35,14,44l-7.24-9.74c-.58-18.64-5.86-33-14-44"/><path class="cls-1" d="M566.08,73.64l7.24,9.74c0,1.68.07,3.4,0,5.16l-7.24-9.75c0-1.75,0-3.47,0-5.15"/></g></g><polygon class="cls-1" points="566.12 78.79 573.36 88.54 573.14 103.52 565.9 93.78 566.12 78.79"/><path class="cls-1" d="M482.21,169l7.24,9.74a1.87,1.87,0,0,1,.37,1.13l-7.25-9.74A1.79,1.79,0,0,0,482.21,169Z"/><g class="cls-19"><g class="cls-3"><path class="cls-1" d="M482.21,169l7.24,9.74a1.76,1.76,0,0,1,.37,1L482.57,170a1.82,1.82,0,0,0-.36-1"/><path class="cls-1" d="M482.57,170l7.25,9.74v.09l-7.25-9.74V170"/></g></g><path class="cls-1" d="M598.05,92.86l7.25,9.75a13.18,13.18,0,0,0-11.16-5.75c-10.87,0-20.21,9.72-21.28,26.08l-7.25-9.74c1.07-16.37,10.42-26.08,21.28-26.08A13.19,13.19,0,0,1,598.05,92.86Z"/><g class="cls-20"><g class="cls-3"><path class="cls-1" d="M598.05,92.86l7.25,9.75a13.18,13.18,0,0,0-11.16-5.75,18.44,18.44,0,0,0-13.39,5.89L573.51,93a18.46,18.46,0,0,1,13.38-5.88,13.19,13.19,0,0,1,11.16,5.74"/><path class="cls-1" d="M573.51,93l7.24,9.75a23.73,23.73,0,0,0-2.59,3.21l-7.25-9.75a24.43,24.43,0,0,1,2.6-3.21"/><path class="cls-1" d="M570.91,96.21l7.25,9.75a26.6,26.6,0,0,0-2,3.53l-7.24-9.74a27.35,27.35,0,0,1,2-3.54"/><path class="cls-1" d="M568.91,99.75l7.24,9.74a30.72,30.72,0,0,0-1.64,4.23L567.26,104a31.54,31.54,0,0,1,1.65-4.23"/><path class="cls-1" d="M567.26,104l7.25,9.74a36.94,36.94,0,0,0-1.26,5.57L566,109.55a38.2,38.2,0,0,1,1.26-5.57"/><path class="cls-1" d="M566,109.55l7.25,9.74c-.18,1.18-.31,2.39-.39,3.65l-7.25-9.74c.08-1.26.21-2.48.39-3.65"/></g></g><path class="cls-1" d="M376.31,193.76,369.06,184c11.36,15.27,30.23,25.73,56.93,25.73,28.14,0,51.76-14.7,56.58-39.67l7.25,9.74c-4.83,25-28.45,39.68-56.59,39.68C406.53,219.5,387.66,209,376.31,193.76Z"/><g class="cls-21"><g class="cls-3"><path class="cls-1" d="M482.57,170.08l7.25,9.74a47.8,47.8,0,0,1-1.23,4.92L481.34,175a45.94,45.94,0,0,0,1.23-4.92"/><path class="cls-1" d="M481.34,175l7.25,9.74a43.62,43.62,0,0,1-2.33,6L479,181a44.78,44.78,0,0,0,2.32-5.95"/><path class="cls-1" d="M479,181l7.24,9.75a42.37,42.37,0,0,1-3.25,5.68l-7.24-9.74A44.79,44.79,0,0,0,479,181"/><path class="cls-1" d="M475.77,186.64l7.24,9.74a44.14,44.14,0,0,1-5,6.16l-7.25-9.74a44.8,44.8,0,0,0,5-6.16"/><path class="cls-1" d="M470.76,192.8l7.25,9.74c-10.56,10.92-26.74,17-44.78,17-26.7,0-45.57-10.47-56.92-25.74L369.06,184c11.36,15.27,30.23,25.73,56.93,25.73,18,0,34.21-6,44.77-16.95"/></g></g><polygon class="cls-1" points="565.61 113.2 572.86 122.94 572.18 168.72 564.94 158.98 565.61 113.2"/><path class="cls-1" d="M504,216.46l-7.25-9.74a5.84,5.84,0,0,0,4.81,1.93l7.25,9.74A5.81,5.81,0,0,1,504,216.46Z"/><g class="cls-22"><g class="cls-3"><path class="cls-1" d="M501.51,208.65l7.25,9.74a5.81,5.81,0,0,1-4.81-1.93l-7.25-9.74a5.84,5.84,0,0,0,4.81,1.93"/></g></g><path class="cls-1" d="M694.7,97.23l-7.25-9.74a11.74,11.74,0,0,0,3.33,2.69L698,99.92A11.6,11.6,0,0,1,694.7,97.23Z"/><g class="cls-23"><g class="cls-3"><path class="cls-1" d="M690.78,90.18,698,99.92a11.6,11.6,0,0,1-3.33-2.69l-7.25-9.74a11.74,11.74,0,0,0,3.33,2.69"/></g></g><path class="cls-1" d="M642.65,82.82l7.25,9.74c6,8.09,9.58,20,12.31,36.48L655,119.3C652.24,102.77,648.67,90.91,642.65,82.82Z"/><g class="cls-24"><g class="cls-3"><path class="cls-1" d="M642.65,82.82l7.25,9.74c6,8.09,9.58,20,12.31,36.48L655,119.3c-2.73-16.53-6.3-28.39-12.32-36.48"/></g></g><path class="cls-1" d="M693.25,92.33l7.25,9.75A7.11,7.11,0,0,0,698,99.92l-7.25-9.74A7.18,7.18,0,0,1,693.25,92.33Z"/><g class="cls-25"><g class="cls-3"><path class="cls-1" d="M693.25,92.33l7.25,9.75A7.11,7.11,0,0,0,698,99.92l-7.25-9.74a7.18,7.18,0,0,1,2.47,2.15"/></g></g><path class="cls-1" d="M579.92,203.72,572.67,194c-4.48-6-7.8-16.89-7.73-35l7.24,9.74C572.11,186.83,575.44,197.69,579.92,203.72Z"/><g class="cls-26"><g class="cls-3"><path class="cls-1" d="M564.94,159l7.24,9.74c0,1.6,0,3.13.06,4.62L565,163.59c0-1.48-.07-3-.06-4.61"/><path class="cls-1" d="M565,163.59l7.24,9.75c.47,15.36,3.59,24.88,7.68,30.38L572.67,194c-4.08-5.49-7.21-15-7.67-30.38"/></g></g><path class="cls-1" d="M745.22,65.67l7.24,9.74a2.78,2.78,0,0,1,.52,1.75l-7.24-9.74A2.84,2.84,0,0,0,745.22,65.67Z"/><g class="cls-27"><g class="cls-3"><path class="cls-1" d="M745.22,65.67l7.24,9.74A2.72,2.72,0,0,1,753,77l-7.24-9.74a2.79,2.79,0,0,0-.52-1.59"/><path class="cls-1" d="M745.74,67.26,753,77v.16l-7.24-9.74v-.16"/></g></g><polygon class="cls-1" points="578.7 208.65 585.95 218.39 508.75 218.39 501.51 208.65 578.7 208.65"/><path class="cls-1" d="M583.33,202.24l7.25,9.74a3.6,3.6,0,0,1,.72,2.25c0,2.49-2.29,4.16-5.35,4.16l-7.25-9.74c3.06,0,5.31-1.67,5.35-4.16A3.52,3.52,0,0,0,583.33,202.24Z"/><g class="cls-28"><g class="cls-3"><path class="cls-1" d="M583.33,202.24l7.25,9.74a3.54,3.54,0,0,1,.72,2.05l-7.25-9.74a3.45,3.45,0,0,0-.72-2"/><path class="cls-1" d="M584.05,204.29,591.3,214v.2a4.53,4.53,0,0,1,0,.53L584,205a4.55,4.55,0,0,0,0-.53v-.2"/><path class="cls-1" d="M584,205l7.24,9.74a4.61,4.61,0,0,1-.12.56l-7.25-9.74A3.5,3.5,0,0,0,584,205"/><path class="cls-1" d="M583.88,205.58l7.25,9.74a3.58,3.58,0,0,1-.2.49l-7.24-9.74a4.14,4.14,0,0,0,.19-.49"/><path class="cls-1" d="M583.69,206.07l7.24,9.74a4.67,4.67,0,0,1-.27.49l-7.25-9.75a2.87,2.87,0,0,0,.28-.48"/><path class="cls-1" d="M583.41,206.55l7.25,9.75a5.25,5.25,0,0,1-.43.53L583,207.09a3.64,3.64,0,0,0,.43-.54"/><path class="cls-1" d="M583,207.09l7.25,9.74a5.92,5.92,0,0,1-4.28,1.56l-7.25-9.74a5.9,5.9,0,0,0,4.28-1.56"/></g></g><path class="cls-1" d="M782.54,97.42l-7.24-9.74a9,9,0,0,0,3.26,2.5l7.24,9.74A9.1,9.1,0,0,1,782.54,97.42Z"/><g class="cls-29"><g class="cls-3"><path class="cls-1" d="M778.56,90.18l7.24,9.74a9.1,9.1,0,0,1-3.26-2.5l-7.24-9.74a9,9,0,0,0,3.26,2.5"/></g></g><path class="cls-1" d="M781.14,92.46l7.24,9.74a8,8,0,0,0-2.58-2.28l-7.24-9.74A7.85,7.85,0,0,1,781.14,92.46Z"/><g class="cls-30"><g class="cls-3"><path class="cls-1" d="M781.14,92.46l7.24,9.74a8,8,0,0,0-2.58-2.28l-7.24-9.74a7.85,7.85,0,0,1,2.58,2.28"/></g></g><polygon class="cls-1" points="654.97 119.3 662.21 129.04 674 198.97 666.76 189.23 654.97 119.3"/><path class="cls-1" d="M833,65.66l7.24,9.74a2.83,2.83,0,0,1,.52,1.76l-7.24-9.74A2.85,2.85,0,0,0,833,65.66Z"/><g class="cls-31"><g class="cls-3"><path class="cls-1" d="M833,65.66l7.24,9.74a2.78,2.78,0,0,1,.52,1.6l-7.24-9.74a2.85,2.85,0,0,0-.52-1.6"/><path class="cls-1" d="M833.51,67.26,840.75,77v.16l-7.24-9.74v-.16"/></g></g><polygon class="cls-1" points="745.74 67.42 752.98 77.16 751.5 178.16 744.25 168.42 745.74 67.42"/><path class="cls-1" d="M756.23,199.41,749,189.67c-3-4-4.88-10.84-4.73-21.25l7.25,9.74C751.35,188.58,753.22,195.38,756.23,199.41Z"/><g class="cls-32"><g class="cls-3"><path class="cls-1" d="M744.25,168.42l7.25,9.74c0,1.17,0,2.29,0,3.36l-7.24-9.74c0-1.07,0-2.2,0-3.36"/><path class="cls-1" d="M744.28,171.78l7.24,9.74c.26,8.54,2,14.31,4.71,17.89L749,189.67c-2.66-3.58-4.45-9.35-4.7-17.89"/></g></g><path class="cls-1" d="M693.58,255.69,686.33,246c-11.14-15-16.43-38-19.57-56.72L674,199C677.15,217.7,682.43,240.71,693.58,255.69Z"/><g class="cls-33"><g class="cls-3"><path class="cls-1" d="M666.76,189.23,674,199c3.15,18.73,8.43,41.74,19.58,56.72L686.33,246c-11.14-15-16.43-38-19.57-56.72"/></g></g><path class="cls-1" d="M710.81,201.89l-7.25-9.74C712,203.51,726.53,210,744.2,210A45.3,45.3,0,0,0,783,188.11l7.25,9.75a45.33,45.33,0,0,1-38.78,21.91C733.77,219.77,719.26,213.25,710.81,201.89Z"/><g class="cls-34"><g class="cls-3"><path class="cls-1" d="M783,188.11l7.25,9.75q-.51.82-1.05,1.62l-7.25-9.74c.36-.53.71-1.08,1.05-1.63"/><path class="cls-1" d="M781.92,189.74l7.25,9.74a47.59,47.59,0,0,1-5.24,6.46l-7.24-9.74a47.37,47.37,0,0,0,5.23-6.46"/><path class="cls-1" d="M776.69,196.2l7.24,9.74a44.7,44.7,0,0,1-32.49,13.83c-17.67,0-32.18-6.52-40.63-17.88l-7.25-9.74C712,203.51,726.53,210,744.2,210a44.76,44.76,0,0,0,32.49-13.83"/></g></g><polygon class="cls-1" points="833.51 67.42 840.75 77.16 839.18 183.98 831.94 174.24 833.51 67.42"/><path class="cls-1" d="M792.32,213.93l-7.25-9.74c2.41,3.23,6.59,5.37,11.74,5.37.57,0,1.15,0,1.73-.08l7.25,9.74c-.59.05-1.17.08-1.73.08C798.9,219.3,794.73,217.17,792.32,213.93Z"/><g class="cls-35"><g class="cls-3"><path class="cls-1" d="M798.54,209.48l7.25,9.74c-.59.05-1.17.08-1.73.08-5.16,0-9.33-2.13-11.74-5.37l-7.25-9.74c2.41,3.23,6.59,5.37,11.74,5.37.57,0,1.15,0,1.73-.08"/></g></g><path class="cls-1" d="M841.79,195.91l-7.25-9.75c-2.47-3.32-2.65-8.36-2.6-11.92l7.24,9.74C839.13,187.55,839.32,192.59,841.79,195.91Z"/><g class="cls-36"><g class="cls-3"><path class="cls-1" d="M831.94,174.24l7.24,9.74c0,.7,0,1.45,0,2.24L832,176.47c0-.78,0-1.54,0-2.23"/><path class="cls-1" d="M832,176.47l7.25,9.75c.09,3.23.6,7,2.59,9.69l-7.25-9.75c-2-2.67-2.49-6.45-2.59-9.69"/></g></g><polygon class="cls-1" points="848.6 197.27 855.84 207.01 805.79 219.22 798.54 209.48 848.6 197.27"/><path class="cls-1" d="M850.09,190.93l7.24,9.74c1.65,2.22,1.24,5.8-1.49,6.34l-7.24-9.74C851.32,196.73,851.73,193.14,850.09,190.93Z"/><g class="cls-37"><g class="cls-3"><path class="cls-1" d="M850.09,190.93l7.24,9.74a5,5,0,0,1,1,2.79l-7.24-9.74a5.06,5.06,0,0,0-1-2.79"/><path class="cls-1" d="M851.06,193.72l7.24,9.74a4.64,4.64,0,0,1,0,.84L851,194.55a4.57,4.57,0,0,0,0-.83"/><path class="cls-1" d="M851,194.55l7.25,9.75a4.34,4.34,0,0,1-.14.6l-7.25-9.75a3.75,3.75,0,0,0,.14-.6"/><path class="cls-1" d="M850.87,195.15l7.25,9.75a2.72,2.72,0,0,1-.19.47l-7.24-9.74a3.41,3.41,0,0,0,.18-.48"/><path class="cls-1" d="M850.69,195.63l7.24,9.74a2.82,2.82,0,0,1-.23.42l-7.25-9.74a2.86,2.86,0,0,0,.24-.42"/><path class="cls-1" d="M850.45,196.05l7.25,9.74a3.29,3.29,0,0,1-.33.41l-7.25-9.74a3.29,3.29,0,0,0,.33-.41"/><path class="cls-1" d="M850.12,196.46l7.25,9.74a2.91,2.91,0,0,1-1.53.81l-7.24-9.74a2.91,2.91,0,0,0,1.52-.81"/></g></g><path class="cls-1" d="M776.4,228.49l7.25,9.74c10.79,14.52-2.64,42.58-60.69,42.58-25.73,0-58.32-9.34-79.52-37.84l-7.24-9.74c21.19,28.49,53.79,37.84,79.51,37.84C773.77,271.07,787.2,243,776.4,228.49Z"/><g class="cls-38"><g class="cls-3"><path class="cls-1" d="M776.4,228.49l7.25,9.74a17.17,17.17,0,0,1,3.4,9.71l-7.25-9.74a17.09,17.09,0,0,0-3.4-9.71"/><path class="cls-1" d="M779.8,238.2l7.25,9.74a19,19,0,0,1-.19,3.26l-7.25-9.74a18,18,0,0,0,.19-3.26"/><path class="cls-1" d="M779.61,241.46l7.25,9.74a20.42,20.42,0,0,1-.67,2.89L779,244.34a18.69,18.69,0,0,0,.66-2.88"/><path class="cls-1" d="M779,244.34l7.24,9.75A21,21,0,0,1,785,257l-7.25-9.75a20.61,20.61,0,0,0,1.16-2.94"/><path class="cls-1" d="M777.79,247.28,785,257a26,26,0,0,1-1.84,3.18L776,250.46a23.49,23.49,0,0,0,1.84-3.18"/><path class="cls-1" d="M776,250.46l7.25,9.75a29.5,29.5,0,0,1-3.29,4l-7.25-9.74a28.26,28.26,0,0,0,3.29-4"/><path class="cls-1" d="M772.66,254.45l7.25,9.74c-9,9.19-27.08,16.62-56.95,16.62-25.73,0-58.32-9.34-79.52-37.84l-7.24-9.74c21.19,28.49,53.79,37.84,79.51,37.84,29.88,0,47.93-7.43,56.95-16.62"/></g></g><path class="cls-1" d="M873.15,92.43l7.25,9.74a7.37,7.37,0,0,0-2.64-2.25,8.16,8.16,0,0,1-3-2.28l-7.25-9.74a8.38,8.38,0,0,0,3,2.28A7.27,7.27,0,0,1,873.15,92.43Z"/><g class="cls-39"><g class="cls-3"><path class="cls-1" d="M873.15,92.43l7.25,9.74a7.37,7.37,0,0,0-2.64-2.25,8.16,8.16,0,0,1-3-2.28l-7.25-9.74a8.38,8.38,0,0,0,3,2.28,7.27,7.27,0,0,1,2.64,2.25"/></g></g><path class="cls-1" d="M925.24,65.72l7.25,9.74a2.7,2.7,0,0,1,.5,1.7l-7.25-9.74A2.7,2.7,0,0,0,925.24,65.72Z"/><g class="cls-40"><g class="cls-3"><path class="cls-1" d="M925.24,65.72l7.25,9.74A2.67,2.67,0,0,1,933,77l-7.25-9.74a2.67,2.67,0,0,0-.5-1.54"/><path class="cls-1" d="M925.74,67.26,933,77v.16l-7.25-9.74v-.16"/></g></g><polygon class="cls-1" points="925.74 67.42 932.99 77.16 932.7 97.14 925.45 87.39 925.74 67.42"/><path class="cls-1" d="M951.88,93.21l7.25,9.74a13.88,13.88,0,0,0-11.66-6.09c-8.64,0-13.47,6.38-15,17.76l-7.25-9.74c1.57-11.38,6.4-17.76,15-17.76A13.85,13.85,0,0,1,951.88,93.21Z"/><g class="cls-41"><g class="cls-3"><path class="cls-1" d="M951.88,93.21l7.25,9.74a13.88,13.88,0,0,0-11.66-6.09,12.54,12.54,0,0,0-9.43,3.79l-7.25-9.74a12.52,12.52,0,0,1,9.43-3.79,13.85,13.85,0,0,1,11.66,6.09"/><path class="cls-1" d="M930.79,90.91l7.25,9.74a14.56,14.56,0,0,0-1.61,2l-7.24-9.74a13.79,13.79,0,0,1,1.6-2"/><path class="cls-1" d="M929.19,92.9l7.24,9.74a17.49,17.49,0,0,0-1.36,2.42l-7.25-9.75a18,18,0,0,1,1.37-2.41"/><path class="cls-1" d="M927.82,95.31l7.25,9.75a25.53,25.53,0,0,0-1.3,3.34l-7.24-9.74a24.33,24.33,0,0,1,1.29-3.35"/><path class="cls-1" d="M926.53,98.66l7.24,9.74a39.37,39.37,0,0,0-1.24,5.6l-7.25-9.74a37.72,37.72,0,0,1,1.25-5.6"/><path class="cls-1" d="M925.28,104.26l7.25,9.74-.09.62-7.25-9.74.09-.62"/></g></g><polygon class="cls-1" points="925.19 104.88 932.44 114.62 931.64 168.72 924.4 158.98 925.19 104.88"/><path class="cls-1" d="M863.13,216.46l-7.24-9.74a5.81,5.81,0,0,0,4.8,1.93l7.25,9.74A5.81,5.81,0,0,1,863.13,216.46Z"/><g class="cls-42"><g class="cls-3"><path class="cls-1" d="M860.69,208.65l7.25,9.74a5.81,5.81,0,0,1-4.81-1.93l-7.24-9.74a5.81,5.81,0,0,0,4.8,1.93"/></g></g><path class="cls-1" d="M996.16,82.69l7.25,9.74c3.7,5,6.5,11.39,8.77,19.41l-7.25-9.74C1002.67,94.08,999.87,87.67,996.16,82.69Z"/><g class="cls-43"><g class="cls-3"><path class="cls-1" d="M996.16,82.69l7.25,9.74c3.7,5,6.5,11.39,8.77,19.41l-7.25-9.74c-2.26-8-5.06-14.43-8.77-19.41"/></g></g><path class="cls-1" d="M1042.88,93.12l7.24,9.74a13.69,13.69,0,0,0-11.53-6c-11.15,0-22.49,13.32-23,30.53a3.54,3.54,0,0,0,.26,1.65l-7.25-9.74a3.43,3.43,0,0,1-.25-1.66c.53-17.21,11.88-30.52,23-30.52A13.69,13.69,0,0,1,1042.88,93.12Z"/><g class="cls-44"><g class="cls-3"><path class="cls-1" d="M1042.88,93.12l7.24,9.74a13.69,13.69,0,0,0-11.53-6c-4.75,0-9.53,2.41-13.5,6.51l-7.24-9.74c4-4.1,8.75-6.51,13.49-6.51a13.69,13.69,0,0,1,11.54,6"/><path class="cls-1" d="M1017.85,93.63l7.24,9.74a29.84,29.84,0,0,0-3.32,4.13l-7.25-9.74a29.89,29.89,0,0,1,3.33-4.13"/><path class="cls-1" d="M1014.52,97.76l7.25,9.74a33.48,33.48,0,0,0-2.53,4.44L1012,102.2a33.48,33.48,0,0,1,2.53-4.44"/><path class="cls-1" d="M1012,102.2l7.25,9.74a36.25,36.25,0,0,0-1.94,5l-7.24-9.74a37.56,37.56,0,0,1,1.93-5"/><path class="cls-1" d="M1010.06,107.16l7.24,9.74a40.19,40.19,0,0,0-1.31,5.73l-7.24-9.74a38.58,38.58,0,0,1,1.31-5.73"/><path class="cls-1" d="M1008.75,112.89l7.24,9.74a40.86,40.86,0,0,0-.43,4.76c0,.16,0,.33,0,.49l-7.25-9.74c0-.17,0-.33,0-.5a40.89,40.89,0,0,1,.43-4.75"/><path class="cls-1" d="M1008.32,118.14l7.25,9.74a2.67,2.67,0,0,0,.25,1.16l-7.25-9.74a2.7,2.7,0,0,1-.25-1.16"/></g></g><path class="cls-1" d="M939.13,203.75,931.89,194c-4.48-6-7.76-16.89-7.49-35l7.24,9.74C931.38,186.86,934.66,197.73,939.13,203.75Z"/><g class="cls-45"><g class="cls-3"><path class="cls-1" d="M924.4,159l7.24,9.74c0,2,0,4,.05,5.84l-7.25-9.75c-.06-1.85-.07-3.8,0-5.83"/><path class="cls-1" d="M924.44,164.81l7.25,9.75c.44,14.68,3.47,23.85,7.44,29.19L931.89,194c-4-5.34-7-14.52-7.45-29.2"/></g></g><polygon class="cls-1" points="937.88 208.65 945.13 218.39 867.94 218.39 860.69 208.65 937.88 208.65"/><path class="cls-1" d="M942.51,202.24l7.25,9.74a3.54,3.54,0,0,1,.72,2.25c0,2.49-2.29,4.16-5.35,4.16l-7.25-9.74c3.06,0,5.32-1.67,5.35-4.16A3.47,3.47,0,0,0,942.51,202.24Z"/><g class="cls-46"><g class="cls-3"><path class="cls-1" d="M942.51,202.24l7.25,9.74a3.54,3.54,0,0,1,.72,2.05l-7.25-9.74a3.45,3.45,0,0,0-.72-2"/><path class="cls-1" d="M943.23,204.29l7.25,9.74v.2a4.55,4.55,0,0,1,0,.53L943.19,205a3.08,3.08,0,0,0,0-.53v-.2"/><path class="cls-1" d="M943.19,205l7.25,9.74a4.59,4.59,0,0,1-.13.56l-7.25-9.74a3.5,3.5,0,0,0,.13-.56"/><path class="cls-1" d="M943.06,205.58l7.25,9.74a3.56,3.56,0,0,1-.19.49l-7.25-9.74a2.92,2.92,0,0,0,.19-.49"/><path class="cls-1" d="M942.87,206.07l7.25,9.74a3.43,3.43,0,0,1-.28.49l-7.24-9.75a3.72,3.72,0,0,0,.27-.48"/><path class="cls-1" d="M942.6,206.55l7.24,9.75a5.25,5.25,0,0,1-.43.53l-7.25-9.74a4.51,4.51,0,0,0,.44-.54"/><path class="cls-1" d="M942.16,207.09l7.25,9.74a5.92,5.92,0,0,1-4.28,1.56l-7.25-9.74a5.89,5.89,0,0,0,4.28-1.56"/></g></g><polygon class="cls-1" points="1008.57 119.3 1015.82 129.04 1022.21 168.72 1014.96 158.98 1008.57 119.3"/><path class="cls-1" d="M954,216.49l-7.25-9.74a5.49,5.49,0,0,0,4.52,1.9l7.24,9.74A5.46,5.46,0,0,1,954,216.49Z"/><g class="cls-47"><g class="cls-3"><path class="cls-1" d="M951.26,208.65l7.24,9.74a5.46,5.46,0,0,1-4.51-1.9l-7.25-9.74a5.49,5.49,0,0,0,4.52,1.9"/></g></g><path class="cls-1" d="M1087.18,82.65l7.24,9.74c6.06,8.15,9.63,20.09,12.24,36.65l-7.25-9.74C1096.8,102.74,1093.24,90.8,1087.18,82.65Z"/><g class="cls-48"><g class="cls-3"><path class="cls-1" d="M1087.18,82.65l7.24,9.74c6.06,8.15,9.63,20.09,12.24,36.65l-7.25-9.74c-2.61-16.56-6.17-28.5-12.23-36.65"/></g></g><path class="cls-1" d="M1149.48,97.47l-7.24-9.74a9,9,0,0,0,3.3,2.45l7.25,9.74A9.15,9.15,0,0,1,1149.48,97.47Z"/><g class="cls-49"><g class="cls-3"><path class="cls-1" d="M1145.54,90.18l7.25,9.74a9.15,9.15,0,0,1-3.31-2.45l-7.24-9.74a9,9,0,0,0,3.3,2.45"/></g></g><path class="cls-1" d="M1148,92.35l7.25,9.74a8.06,8.06,0,0,0-2.41-2.17l-7.25-9.74A7.82,7.82,0,0,1,1148,92.35Z"/><g class="cls-50"><g class="cls-3"><path class="cls-1" d="M1148,92.35l7.25,9.74a8.06,8.06,0,0,0-2.41-2.17l-7.25-9.74a7.82,7.82,0,0,1,2.41,2.17"/></g></g><path class="cls-1" d="M1195.08,65.61l7.25,9.75a4,4,0,0,1,.68,1.8l-7.25-9.74A4,4,0,0,0,1195.08,65.61Z"/><g class="cls-51"><g class="cls-3"><path class="cls-1" d="M1195.08,65.61l7.25,9.75a4,4,0,0,1,.68,1.8l-7.25-9.74a4,4,0,0,0-.68-1.81"/></g></g><path class="cls-1" d="M1031.67,205.47l-7.24-9.74c-4.17-5.6-6.29-16.9-9.47-36.75l7.25,9.74C1025.38,188.57,1027.5,199.87,1031.67,205.47Z"/><g class="cls-52"><g class="cls-3"><path class="cls-1" d="M1015,159l7.25,9.74c3.17,19.85,5.29,31.15,9.46,36.75l-7.24-9.74c-4.17-5.6-6.29-16.9-9.47-36.75"/></g></g><polygon class="cls-1" points="1028.16 208.65 1035.4 218.39 958.5 218.39 951.25 208.65 1028.16 208.65"/><polygon class="cls-1" points="1195.76 67.42 1203.01 77.16 1205.01 92.42 1197.76 82.68 1195.76 67.42"/><path class="cls-1" d="M1033.08,202.24l7.24,9.74a3.48,3.48,0,0,1,.72,2.25c0,2.49-2.29,4.16-5.63,4.16l-7.25-9.74c3.35,0,5.6-1.67,5.64-4.16A3.6,3.6,0,0,0,1033.08,202.24Z"/><g class="cls-53"><g class="cls-3"><path class="cls-1" d="M1033.08,202.24l7.24,9.74A3.5,3.5,0,0,1,1041,214l-7.24-9.74a3.52,3.52,0,0,0-.72-2"/><path class="cls-1" d="M1033.8,204.29,1041,214v.2a3.08,3.08,0,0,1,0,.53l-7.25-9.74a4.53,4.53,0,0,0,0-.53v-.2"/><path class="cls-1" d="M1033.75,205l7.25,9.74a3.16,3.16,0,0,1-.13.55l-7.24-9.74a3.37,3.37,0,0,0,.12-.55"/><path class="cls-1" d="M1033.63,205.57l7.24,9.74a3.41,3.41,0,0,1-.18.48l-7.25-9.74a3.43,3.43,0,0,0,.19-.48"/><path class="cls-1" d="M1033.44,206.05l7.25,9.74a3.59,3.59,0,0,1-.27.47l-7.25-9.74a3.59,3.59,0,0,0,.27-.47"/><path class="cls-1" d="M1033.17,206.52l7.25,9.74a4.33,4.33,0,0,1-.42.52l-7.25-9.74a3.42,3.42,0,0,0,.42-.52"/><path class="cls-1" d="M1032.75,207l7.25,9.74a6.3,6.3,0,0,1-4.59,1.61l-7.25-9.74a6.3,6.3,0,0,0,4.59-1.61"/></g></g><polygon class="cls-1" points="1099.41 119.3 1106.66 129.04 1113.33 168.72 1106.08 158.98 1099.41 119.3"/><path class="cls-1" d="M1045.1,216.59l-7.25-9.74c.84,1.13,2.4,1.8,4.52,1.8l7.25,9.74C1047.49,218.39,1045.94,217.72,1045.1,216.59Z"/><g class="cls-54"><g class="cls-3"><path class="cls-1" d="M1042.37,208.65l7.25,9.74c-2.13,0-3.68-.67-4.52-1.8l-7.25-9.74c.84,1.13,2.4,1.8,4.52,1.8"/></g></g><path class="cls-1" d="M1236.31,85.92l7.24,9.74c-3.59-4.83-8.12-7.68-13.67-7.68-15.61,0-21.37,13-22.66,24.42l-7.24-9.74c1.28-11.38,7-24.42,22.65-24.42C1228.18,78.24,1232.71,81.09,1236.31,85.92Z"/><g class="cls-55"><g class="cls-3"><path class="cls-1" d="M1236.31,85.92l7.24,9.74c-3.59-4.83-8.12-7.68-13.67-7.68-6.66,0-11.53,2.38-15,6l-7.25-9.74c3.5-3.61,8.36-6,15-6,5.55,0,10.08,2.85,13.68,7.68"/><path class="cls-1" d="M1207.61,84.22l7.25,9.74a22.86,22.86,0,0,0-2.44,3l-7.24-9.74a21.42,21.42,0,0,1,2.43-3"/><path class="cls-1" d="M1205.18,87.24l7.24,9.74a27.37,27.37,0,0,0-1.94,3.42l-7.25-9.74a26.74,26.74,0,0,1,2-3.42"/><path class="cls-1" d="M1203.23,90.66l7.25,9.74a32.09,32.09,0,0,0-1.69,4.37L1201.54,95a34.94,34.94,0,0,1,1.69-4.37"/><path class="cls-1" d="M1201.54,95l7.25,9.74a40.51,40.51,0,0,0-1.35,6L1200.2,101a41.79,41.79,0,0,1,1.34-6"/><path class="cls-1" d="M1200.2,101l7.24,9.74c-.08.57-.15,1.13-.22,1.68l-7.24-9.74c.06-.55.13-1.12.22-1.68"/></g></g><path class="cls-1" d="M1122.79,205.47l-7.25-9.74c-4.16-5.6-6.29-16.9-9.46-36.75l7.25,9.74C1116.5,188.57,1118.62,199.87,1122.79,205.47Z"/><g class="cls-56"><g class="cls-3"><path class="cls-1" d="M1106.08,159l7.25,9.74c3.17,19.85,5.29,31.15,9.46,36.75l-7.25-9.74c-4.16-5.6-6.29-16.9-9.46-36.75"/></g></g><polygon class="cls-1" points="1119.28 208.65 1126.52 218.39 1049.62 218.39 1042.37 208.65 1119.28 208.65"/><path class="cls-1" d="M1124.19,202.24l7.25,9.74a3.54,3.54,0,0,1,.72,2.25c0,2.49-2.29,4.16-5.64,4.16l-7.24-9.74c3.35,0,5.6-1.67,5.64-4.16A3.55,3.55,0,0,0,1124.19,202.24Z"/><g class="cls-57"><g class="cls-3"><path class="cls-1" d="M1124.19,202.24l7.25,9.74a3.5,3.5,0,0,1,.72,2.05l-7.25-9.74a3.45,3.45,0,0,0-.72-2"/><path class="cls-1" d="M1124.91,204.29l7.25,9.74v.2a4.55,4.55,0,0,1,0,.53l-7.25-9.74a4.53,4.53,0,0,0,.05-.53,1.34,1.34,0,0,0,0-.2"/><path class="cls-1" d="M1124.87,205l7.25,9.74a3.16,3.16,0,0,1-.13.55l-7.24-9.74a4.88,4.88,0,0,0,.12-.55"/><path class="cls-1" d="M1124.75,205.57l7.24,9.74a2.53,2.53,0,0,1-.19.48l-7.24-9.74c.07-.15.13-.31.19-.48"/><path class="cls-1" d="M1124.56,206.05l7.24,9.74a2.68,2.68,0,0,1-.26.47l-7.25-9.74a3.59,3.59,0,0,0,.27-.47"/><path class="cls-1" d="M1124.29,206.52l7.25,9.74a3.6,3.6,0,0,1-.43.52l-7.24-9.74a3.42,3.42,0,0,0,.42-.52"/><path class="cls-1" d="M1123.87,207l7.24,9.74a6.27,6.27,0,0,1-4.59,1.61l-7.24-9.74a6.3,6.3,0,0,0,4.59-1.61"/></g></g><polygon class="cls-1" points="1199.98 102.66 1207.22 112.4 1206.26 177.6 1199.02 167.86 1199.98 102.66"/><path class="cls-1" d="M1093.68,230.59l7.25,9.74a25.32,25.32,0,0,1,5,15.79,16,16,0,0,0,2.87,9.79l-7.25-9.75a16.06,16.06,0,0,1-2.87-9.79A25.29,25.29,0,0,0,1093.68,230.59Z"/><g class="cls-58"><g class="cls-3"><path class="cls-1" d="M1093.68,230.59l7.25,9.74a25.22,25.22,0,0,1,5,14.44l-7.25-9.74a25.08,25.08,0,0,0-5-14.44"/><path class="cls-1" d="M1098.65,245l7.25,9.74c0,.44,0,.89,0,1.35,0,.29,0,.59,0,.89l-7.25-9.74c0-.3,0-.6,0-.9,0-.45,0-.9,0-1.34"/><path class="cls-1" d="M1098.67,247.27l7.25,9.74a15.63,15.63,0,0,0,2.86,8.9l-7.25-9.75a15.65,15.65,0,0,1-2.86-8.89"/></g></g><path class="cls-1" d="M1213.34,204l-7.25-9.74c-5.09-6.84-6.69-17.39-7.07-26.39l7.24,9.74C1206.64,186.6,1208.25,197.15,1213.34,204Z"/><g class="cls-59"><g class="cls-3"><path class="cls-1" d="M1199,167.86l7.24,9.74c.38,9,2,19.55,7.08,26.39l-7.25-9.74c-5.09-6.84-6.69-17.39-7.07-26.39"/></g></g><path class="cls-1" d="M1063.13,261.53l-7.24-9.75c7.72,10.38,26,19.29,58.58,19.29,35.67,0,78.55-17.2,83.78-69.64l7.24,9.74c-5.22,52.44-48.11,69.64-83.78,69.64C1089.12,280.81,1070.85,271.9,1063.13,261.53Z"/><g class="cls-60"><g class="cls-3"><path class="cls-1" d="M1198.25,201.43l7.24,9.74c-.16,1.63-.36,3.22-.59,4.78l-7.25-9.74c.24-1.56.44-3.15.6-4.78"/><path class="cls-1" d="M1197.65,206.21l7.25,9.74a86.56,86.56,0,0,1-2.87,12.72l-7.25-9.74a85.29,85.29,0,0,0,2.87-12.72"/><path class="cls-1" d="M1194.78,218.93l7.25,9.74a75.32,75.32,0,0,1-3.9,10l-7.24-9.75a74.63,74.63,0,0,0,3.89-10"/><path class="cls-1" d="M1190.89,228.94l7.24,9.75a67.28,67.28,0,0,1-5.1,8.93l-7.24-9.74a69.71,69.71,0,0,0,5.1-8.94"/><path class="cls-1" d="M1185.79,237.88l7.24,9.74a66.23,66.23,0,0,1-7.4,9.11l-7.24-9.74a66.23,66.23,0,0,0,7.4-9.11"/><path class="cls-1" d="M1178.39,247l7.24,9.74c-17,17.48-41.82,24.08-63.92,24.08-32.59,0-50.86-8.91-58.58-19.28l-7.24-9.75c7.72,10.38,26,19.29,58.58,19.29,22.09,0,47-6.6,63.92-24.08"/></g></g><path class="cls-1" d="M1284.08,95.42l7.24,9.74C1300.1,117,1304.19,131.41,1304,146c-.54,36.35-27.56,73.8-76.33,73.8-10,0-17.22-3.6-22.16-8.6l-7.24-9.74c4.94,5,12.13,8.6,22.16,8.6,48.76,0,75.79-37.45,76.32-73.8C1297,121.67,1292.85,107.21,1284.08,95.42Z"/><g class="cls-61"><g class="cls-3"><path class="cls-1" d="M1284.08,95.42l7.24,9.74A65.88,65.88,0,0,1,1304,142.6l-7.25-9.74a65.87,65.87,0,0,0-12.62-37.44"/><path class="cls-1" d="M1296.7,132.86l7.25,9.74c0,1.12,0,2.24,0,3.37a74.66,74.66,0,0,1-.85,10.21l-7.24-9.74a76.26,76.26,0,0,0,.84-10.21c0-1.13,0-2.25,0-3.37"/><path class="cls-1" d="M1295.89,146.44l7.24,9.74a76.26,76.26,0,0,1-2.61,11.41l-7.25-9.74a76.3,76.3,0,0,0,2.62-11.41"/><path class="cls-1" d="M1293.27,157.85l7.25,9.74a77.21,77.21,0,0,1-4,10.29l-7.24-9.74a75.82,75.82,0,0,0,4-10.29"/><path class="cls-1" d="M1289.26,168.14l7.24,9.74a75.33,75.33,0,0,1-5.56,9.75l-7.24-9.74a76.52,76.52,0,0,0,5.56-9.75"/><path class="cls-1" d="M1283.7,177.89l7.24,9.74a72,72,0,0,1-8.06,10l-7.25-9.74a73.47,73.47,0,0,0,8.07-10"/><path class="cls-1" d="M1275.63,187.84l7.25,9.74c-12.89,13.31-31.48,22.19-55.23,22.19-10,0-17.22-3.6-22.16-8.6l-7.24-9.74c4.94,5,12.13,8.6,22.16,8.6,23.74,0,42.34-8.88,55.22-22.19"/></g></g><path class="cls-1" d="M1390.77,86.85l7.25,9.74a22.36,22.36,0,0,0-18.78-9.43c-22.85,0-3.34,19.14-3.55,33.56-.17,11-11,17.85-21.31,17.85-5.83,0-11.52-2.16-15.08-6.95l-7.25-9.74c3.56,4.79,9.25,7,15.08,7,10.35,0,21.15-6.82,21.31-17.85.21-14.42-19.3-33.57,3.56-33.57A22.31,22.31,0,0,1,1390.77,86.85Z"/><g class="cls-62"><g class="cls-3"><path class="cls-1" d="M1390.77,86.85l7.25,9.74a22.36,22.36,0,0,0-18.78-9.43c-5,0-8,.91-9.55,2.48l-7.25-9.74c1.6-1.57,4.57-2.49,9.56-2.49a22.31,22.31,0,0,1,18.77,9.44"/><path class="cls-1" d="M1362.44,79.9l7.25,9.74a4.59,4.59,0,0,0-.64.77l-7.24-9.75a5,5,0,0,1,.63-.76"/><path class="cls-1" d="M1361.81,80.66l7.24,9.75a4,4,0,0,0-.36.64l-7.25-9.74a5.19,5.19,0,0,1,.37-.65"/><path class="cls-1" d="M1361.44,81.31l7.25,9.74a5.52,5.52,0,0,0-.28.71L1361.17,82a4,4,0,0,1,.27-.71"/><path class="cls-1" d="M1361.17,82l7.24,9.74a7.43,7.43,0,0,0-.21,1L1361,83a5.84,5.84,0,0,1,.22-1"/><path class="cls-1" d="M1361,83l7.25,9.74a8.41,8.41,0,0,0-.06,1.52l-7.25-9.74A9.43,9.43,0,0,1,1361,83"/><path class="cls-1" d="M1360.89,84.5l7.25,9.74c.29,6.66,7.21,16.89,7.54,25.61l-7.25-9.74c-.33-8.72-7.24-19-7.54-25.61"/><path class="cls-1" d="M1368.43,110.11l7.25,9.74c0,.29,0,.58,0,.87a17.49,17.49,0,0,1-.18,2.2l-7.25-9.74a15.8,15.8,0,0,0,.18-2.2c0-.29,0-.58,0-.87"/><path class="cls-1" d="M1368.26,113.18l7.25,9.74a14.76,14.76,0,0,1-.54,2.34l-7.24-9.74a15.94,15.94,0,0,0,.53-2.34"/><path class="cls-1" d="M1367.73,115.52l7.24,9.74a15.49,15.49,0,0,1-.82,2.12l-7.25-9.75a16.81,16.81,0,0,0,.83-2.11"/><path class="cls-1" d="M1366.9,117.63l7.25,9.75a16.81,16.81,0,0,1-1.21,2.1l-7.24-9.74a16.18,16.18,0,0,0,1.2-2.11"/><path class="cls-1" d="M1365.7,119.74l7.24,9.74a17.79,17.79,0,0,1-2,2.4l-7.24-9.75a17.85,17.85,0,0,0,2-2.39"/><path class="cls-1" d="M1363.75,122.13l7.24,9.75a23.52,23.52,0,0,1-16.61,6.69c-5.83,0-11.52-2.16-15.08-6.95l-7.25-9.74c3.56,4.79,9.25,7,15.08,7a23.54,23.54,0,0,0,16.62-6.7"/></g></g><path class="cls-1" d="M1437.28,92.07l7.25,9.74c5.76,7.75,9.44,17.58,10.69,29.74l-7.25-9.74C1446.72,109.65,1443.05,99.82,1437.28,92.07Z"/><g class="cls-63"><g class="cls-3"><path class="cls-1" d="M1437.28,92.07l7.25,9.74c5.76,7.75,9.44,17.58,10.69,29.74l-7.25-9.74c-1.25-12.16-4.92-22-10.69-29.74"/></g></g><path class="cls-1" d="M1377.4,194.8l-7.25-9.74a12,12,0,0,1-2.13-7.49c.38-26.36,22.45-30,32.22-49.94l7.25,9.74c-9.78,20-31.84,23.58-32.23,49.94A12,12,0,0,0,1377.4,194.8Z"/><g class="cls-64"><g class="cls-3"><path class="cls-1" d="M1400.24,127.63l7.25,9.74a43.33,43.33,0,0,1-2.93,5l-7.25-9.75a41.05,41.05,0,0,0,2.93-5"/><path class="cls-1" d="M1397.31,132.67l7.25,9.75a55.63,55.63,0,0,1-6.11,7.41l-7.25-9.75a54.39,54.39,0,0,0,6.11-7.41"/><path class="cls-1" d="M1391.2,140.08l7.25,9.75c-3.92,4-8.16,7.57-11.92,11.45l-7.24-9.74c3.76-3.88,8-7.4,11.91-11.46"/><path class="cls-1" d="M1379.29,151.54l7.24,9.74a48.63,48.63,0,0,0-5.42,6.54l-7.25-9.74a48.09,48.09,0,0,1,5.43-6.54"/><path class="cls-1" d="M1373.86,158.08l7.25,9.74a33.61,33.61,0,0,0-2.55,4.43l-7.24-9.75a34.09,34.09,0,0,1,2.54-4.42"/><path class="cls-1" d="M1371.32,162.5l7.24,9.75a33.89,33.89,0,0,0-1.69,4.31l-7.24-9.74a31.28,31.28,0,0,1,1.69-4.32"/><path class="cls-1" d="M1369.63,166.82l7.24,9.74a35.62,35.62,0,0,0-1.17,5.17l-7.24-9.74a34.08,34.08,0,0,1,1.17-5.17"/><path class="cls-1" d="M1368.46,172l7.24,9.74a42.23,42.23,0,0,0-.44,5.58c0,.27,0,.53,0,.78l-7.25-9.74c0-.26,0-.52,0-.78a42.09,42.09,0,0,1,.44-5.58"/><path class="cls-1" d="M1368,178.35l7.25,9.74a11.55,11.55,0,0,0,2.13,6.71l-7.25-9.74a11.62,11.62,0,0,1-2.13-6.71"/></g></g><path class="cls-1" d="M1329.64,207.75l-7.25-9.74c7.38,9.92,20.45,14.93,34.29,14.93,19,0,39.49-9.48,48.57-28.71l7.25,9.74c-9.08,19.23-29.55,28.72-48.58,28.72C1350.09,222.69,1337,217.67,1329.64,207.75Z"/><g class="cls-65"><g class="cls-3"><path class="cls-1" d="M1405.25,184.23l7.25,9.74-.06.13-7.25-9.74.06-.13"/><path class="cls-1" d="M1405.19,184.36l7.25,9.74a47.86,47.86,0,0,1-3.44,6l-7.25-9.74a46.66,46.66,0,0,0,3.44-6"/><path class="cls-1" d="M1401.75,190.39l7.25,9.74a47.5,47.5,0,0,1-5.15,6.34l-7.25-9.74a47.35,47.35,0,0,0,5.15-6.34"/><path class="cls-1" d="M1396.6,196.73l7.25,9.74c-10.48,10.85-25.61,16.22-39.93,16.22-13.83,0-26.9-5-34.28-14.94l-7.25-9.74c7.38,9.92,20.45,14.93,34.29,14.93,14.31,0,29.44-5.36,39.92-16.21"/></g></g><polygon class="cls-1" points="1447.97 121.81 1455.22 131.55 1461.08 187.59 1453.83 177.85 1447.97 121.81"/><path class="cls-1" d="M1463.77,201.19l-7.24-9.74c-1.87-2.5-2-7.31-2.7-13.6l7.25,9.74C1461.73,193.88,1461.91,198.69,1463.77,201.19Z"/><g class="cls-66"><g class="cls-3"><path class="cls-1" d="M1453.83,177.85l7.25,9.74c.65,6.29.83,11.1,2.69,13.6l-7.24-9.74c-1.87-2.5-2-7.31-2.7-13.6"/></g></g><path class="cls-1" d="M1471.62,191.12l7.25,9.74a4.9,4.9,0,0,1,.66,1.43l-7.24-9.74A5,5,0,0,0,1471.62,191.12Z"/><g class="cls-67"><g class="cls-3"><path class="cls-1" d="M1471.62,191.12l7.25,9.74a4.9,4.9,0,0,1,.66,1.43l-7.24-9.74a5,5,0,0,0-.67-1.43"/></g></g><path class="cls-1" d="M1472.29,192.55l7.24,9.74c.8,3.05.18,6.66-2.07,8.33l-7.25-9.74C1472.47,199.21,1473.08,195.6,1472.29,192.55Z"/><g class="cls-68"><g class="cls-3"><path class="cls-1" d="M1472.29,192.55l7.24,9.74a9.81,9.81,0,0,1,.33,2.29l-7.25-9.74a10.36,10.36,0,0,0-.32-2.29"/><path class="cls-1" d="M1472.61,194.84l7.25,9.74a9.36,9.36,0,0,1-.1,1.76l-7.25-9.74a9.4,9.4,0,0,0,.1-1.76"/><path class="cls-1" d="M1472.51,196.6l7.25,9.74a8.86,8.86,0,0,1-.29,1.26l-7.24-9.74a8.84,8.84,0,0,0,.28-1.26"/><path class="cls-1" d="M1472.23,197.86l7.24,9.74a6.68,6.68,0,0,1-.37,1l-7.25-9.75a7.38,7.38,0,0,0,.38-1"/><path class="cls-1" d="M1471.85,198.82l7.25,9.75a6.94,6.94,0,0,1-.46.8l-7.24-9.74a5.79,5.79,0,0,0,.45-.81"/><path class="cls-1" d="M1471.4,199.63l7.24,9.74a5.81,5.81,0,0,1-.58.73l-7.25-9.75a5.14,5.14,0,0,0,.59-.72"/><path class="cls-1" d="M1470.81,200.35l7.25,9.75a5.88,5.88,0,0,1-.6.52l-7.25-9.74a4.37,4.37,0,0,0,.6-.53"/></g></g><path class="cls-1" d="M1417.21,209.21l-7.25-9.75c4.39,5.9,13.18,11.13,31.13,11.13,14.77,0,24.32-5.27,29.12-9.71l7.25,9.74c-4.8,4.44-14.36,9.71-29.12,9.71C1430.39,220.33,1421.59,215.11,1417.21,209.21Z"/><g class="cls-69"><g class="cls-3"><path class="cls-1" d="M1470.21,200.88l7.25,9.74c-4.8,4.44-14.36,9.71-29.12,9.71-17.95,0-26.75-5.22-31.13-11.12l-7.25-9.75c4.39,5.9,13.18,11.13,31.13,11.13,14.77,0,24.32-5.27,29.12-9.71"/></g></g><path class="cls-1" d="M226.23,40.8l8.11,9.3a67.39,67.39,0,0,1,9.1,14.3c2.79,5.95,7.74,19.58,8.62,24.89,2.78,16.94-2.95,27.44-13.8,29.76a11.3,11.3,0,0,1-1.42.21c-4.72.37-9.62-2.38-13.93-7.33l-8.1-9.3c4.31,5,9.2,7.7,13.93,7.33a9.9,9.9,0,0,0,1.42-.2C241,107.43,246.74,96.94,244,80c-.88-5.3-5.83-18.94-8.63-24.89A67.64,67.64,0,0,0,226.23,40.8Z"/><g class="cls-70"><g class="cls-3"><path class="cls-1" d="M226.23,40.8l8.11,9.3c1,1.15,2,2.39,2.87,3.66l-8.11-9.3c-.9-1.27-1.87-2.51-2.87-3.66"/><path class="cls-1" d="M229.1,44.46l8.11,9.3a74.51,74.51,0,0,1,6.23,10.64c2.79,5.95,7.74,19.58,8.62,24.89.18,1.08.32,2.14.43,3.17l-8.1-9.3c-.11-1-.26-2.08-.43-3.17-.88-5.3-5.83-18.94-8.63-24.89a72.64,72.64,0,0,0-6.23-10.64"/><path class="cls-1" d="M244.39,83.16l8.1,9.3a42,42,0,0,1,.09,8.58l-8.11-9.3a41.26,41.26,0,0,0-.08-8.58"/><path class="cls-1" d="M244.47,91.74l8.11,9.3a30.22,30.22,0,0,1-.77,4.38l-8.1-9.3a28.94,28.94,0,0,0,.76-4.38"/><path class="cls-1" d="M243.71,96.12l8.1,9.3a23.19,23.19,0,0,1-1,3l-8.1-9.3a24.22,24.22,0,0,0,1-3"/><path class="cls-1" d="M242.7,99.17l8.1,9.3a19.91,19.91,0,0,1-1.17,2.41l-8.11-9.3a20,20,0,0,0,1.18-2.41"/><path class="cls-1" d="M241.52,101.58l8.11,9.3a18,18,0,0,1-1.42,2.1l-8.1-9.3a18.31,18.31,0,0,0,1.41-2.1"/><path class="cls-1" d="M240.11,103.68l8.1,9.3a16.44,16.44,0,0,1-1.88,2l-8.1-9.3a16.5,16.5,0,0,0,1.88-2"/><path class="cls-1" d="M238.23,105.71l8.1,9.3a17,17,0,0,1-8.07,4,11.3,11.3,0,0,1-1.42.21c-4.72.37-9.62-2.38-13.93-7.33l-8.1-9.3c4.31,5,9.2,7.7,13.93,7.33a9.9,9.9,0,0,0,1.42-.2,17.17,17.17,0,0,0,8.07-4.05"/></g></g><path class="cls-1" d="M198.17,97.67l8.1,9.3a72,72,0,0,1,4.55,5.77c3.77,5.38,11,18,12.72,23,5.62,16.19,1.72,27.47-8.61,31.57a10.79,10.79,0,0,1-3.22.75c-5.75.44-12.34-3.38-18.2-10.1l-8.11-9.29c5.86,6.72,12.45,10.54,18.21,10.09a10.78,10.78,0,0,0,3.22-.74c10.33-4.11,14.23-15.39,8.61-31.58-1.76-5.07-8.95-17.65-12.72-23C201.64,101.91,200.06,99.84,198.17,97.67Z"/><g class="cls-71"><g class="cls-3"><path class="cls-1" d="M198.17,97.67l8.1,9.3c1.74,2,3.23,3.91,4.29,5.4l-8.11-9.3c-1.06-1.49-2.54-3.4-4.28-5.4"/><path class="cls-1" d="M202.45,103.07l8.11,9.3.26.37c3.77,5.38,11,18,12.72,23a46.42,46.42,0,0,1,2.39,10.17l-8.11-9.3a45.79,45.79,0,0,0-2.38-10.17c-1.76-5.07-8.95-17.65-12.72-23l-.27-.37"/><path class="cls-1" d="M217.82,136.64l8.11,9.3a30,30,0,0,1,.06,6.12l-8.11-9.29a29.37,29.37,0,0,0-.06-6.13"/><path class="cls-1" d="M217.88,142.77l8.11,9.29a22.43,22.43,0,0,1-.6,3.41l-8.11-9.3a22.51,22.51,0,0,0,.6-3.4"/><path class="cls-1" d="M217.28,146.17l8.11,9.3a21.09,21.09,0,0,1-.83,2.51l-8.11-9.29a18.14,18.14,0,0,0,.83-2.52"/><path class="cls-1" d="M216.45,148.69l8.11,9.29a18.58,18.58,0,0,1-1,2.1l-8.1-9.3a18.37,18.37,0,0,0,1-2.09"/><path class="cls-1" d="M215.43,150.78l8.1,9.3a17.88,17.88,0,0,1-1.29,1.92l-8.11-9.3a15,15,0,0,0,1.3-1.92"/><path class="cls-1" d="M214.13,152.7l8.11,9.3a17.08,17.08,0,0,1-1.83,2l-8.1-9.3a15.45,15.45,0,0,0,1.82-2"/><path class="cls-1" d="M212.31,154.67l8.1,9.3a17.66,17.66,0,0,1-5.48,3.37,10.79,10.79,0,0,1-3.22.75c-5.75.44-12.34-3.38-18.2-10.1l-8.11-9.29c5.86,6.72,12.45,10.54,18.21,10.09a10.78,10.78,0,0,0,3.22-.74,18,18,0,0,0,5.48-3.38"/></g></g><path class="cls-1" d="M279.93,30.82l8.11,9.3c4.8,5.52,9,13.33,11.76,22.47,6,20.22,2.26,39.28-8.35,42.57a18.26,18.26,0,0,1-4,.78c-5.39.42-10.47-1.79-14.69-6.64L264.62,90c4.23,4.85,9.31,7,14.7,6.63a18.26,18.26,0,0,0,4-.78c10.61-3.28,14.35-22.34,8.34-42.57C289,44.15,284.74,36.34,279.93,30.82Z"/><g class="cls-72"><g class="cls-3"><path class="cls-1" d="M279.93,30.82l8.11,9.3q1.41,1.62,2.75,3.5l-8.11-9.3q-1.33-1.87-2.75-3.5"/><path class="cls-1" d="M282.68,34.32l8.11,9.3a64.75,64.75,0,0,1,9,19,70.21,70.21,0,0,1,2.53,12.52l-8.11-9.3a69.33,69.33,0,0,0-2.53-12.52,64.49,64.49,0,0,0-9-19"/><path class="cls-1" d="M294.22,65.81l8.11,9.3a55.36,55.36,0,0,1,.09,11.27l-8.1-9.3a55.39,55.39,0,0,0-.1-11.27"/><path class="cls-1" d="M294.32,77.08l8.1,9.3a39.91,39.91,0,0,1-1,5.91L293.28,83a38.41,38.41,0,0,0,1-5.91"/><path class="cls-1" d="M293.28,83l8.11,9.3a30.12,30.12,0,0,1-1.24,3.76l-8.1-9.3A28.08,28.08,0,0,0,293.28,83"/><path class="cls-1" d="M292.05,86.75l8.1,9.3a22.53,22.53,0,0,1-1.31,2.7l-8.11-9.3a22.56,22.56,0,0,0,1.32-2.7"/><path class="cls-1" d="M290.73,89.45l8.11,9.3a16.59,16.59,0,0,1-1.41,2.09l-8.1-9.29a18.69,18.69,0,0,0,1.4-2.1"/><path class="cls-1" d="M289.33,91.55l8.1,9.29a14,14,0,0,1-1.63,1.78l-8.11-9.29a14.73,14.73,0,0,0,1.64-1.78"/><path class="cls-1" d="M287.69,93.33l8.11,9.29a11.44,11.44,0,0,1-4.35,2.54,18.26,18.26,0,0,1-4,.78c-5.39.42-10.47-1.79-14.69-6.64L264.62,90c4.23,4.85,9.31,7,14.7,6.63a18.26,18.26,0,0,0,4-.78,11.43,11.43,0,0,0,4.34-2.53"/></g></g><path class="cls-1" d="M331.12,57l8.11,9.3c5.52,6.33,9.83,16.81,11.28,29,2.49,21-4.4,39.2-15.4,40.67l-1.07.11a16.26,16.26,0,0,1-14-5.83l-8.11-9.3a16.28,16.28,0,0,0,14,5.83c.36,0,.72-.06,1.08-.11C338,125.2,344.89,107,342.41,86,341,73.76,336.64,63.28,331.12,57Z"/><g class="cls-73"><g class="cls-3"><path class="cls-1" d="M331.12,57l8.11,9.3c.67.78,1.33,1.62,2,2.52l-8.1-9.3q-1-1.35-2-2.52"/><path class="cls-1" d="M333.1,59.47l8.1,9.3c4.56,6.41,8,15.79,9.31,26.52,0,.31.07.62.1.93l-8.1-9.3c0-.31-.07-.62-.1-.93-1.28-10.72-4.75-20.1-9.31-26.52"/><path class="cls-1" d="M342.51,86.92l8.1,9.3a68.63,68.63,0,0,1,.08,14.17l-8.1-9.3a69.34,69.34,0,0,0-.08-14.17"/><path class="cls-1" d="M342.59,101.09l8.1,9.3a55,55,0,0,1-1.43,8.15l-8.11-9.3a54.77,54.77,0,0,0,1.44-8.15"/><path class="cls-1" d="M341.15,109.24l8.11,9.3a40.76,40.76,0,0,1-1.76,5.34l-8.1-9.3a42.31,42.31,0,0,0,1.75-5.34"/><path class="cls-1" d="M339.4,114.58l8.1,9.3a29.85,29.85,0,0,1-1.83,3.76l-8.1-9.29a33.87,33.87,0,0,0,1.83-3.77"/><path class="cls-1" d="M337.57,118.35l8.1,9.29a23.68,23.68,0,0,1-1.88,2.81l-8.1-9.3a25.76,25.76,0,0,0,1.88-2.8"/><path class="cls-1" d="M335.69,121.15l8.1,9.3a19,19,0,0,1-2.08,2.27l-8.11-9.3a18.33,18.33,0,0,0,2.09-2.27"/><path class="cls-1" d="M333.6,123.42l8.11,9.3a12.15,12.15,0,0,1-6.6,3.24l-1.07.11a16.26,16.26,0,0,1-14-5.83l-8.11-9.3a16.28,16.28,0,0,0,14,5.83c.36,0,.72-.06,1.08-.11a12.12,12.12,0,0,0,6.59-3.24"/></g></g><path class="cls-1" d="M228.06,211.72l-8.11-9.3A19.62,19.62,0,0,0,236.67,209a21,21,0,0,0,3.75-.61c14.45-3.68,11.6-15.57,19.6-16.19a11.75,11.75,0,0,1,3.06.23c.29.06.57.09.85.14l8.11,9.29c-.29,0-.56-.07-.86-.13a11.3,11.3,0,0,0-3.06-.23c-8,.62-5.15,12.51-19.59,16.19a23.27,23.27,0,0,1-3.76.61A19.62,19.62,0,0,1,228.06,211.72Z"/><g class="cls-74"><g class="cls-3"><path class="cls-1" d="M263.93,192.54l8.11,9.29c-.29,0-.56-.07-.86-.13a11.3,11.3,0,0,0-3.06-.23,6.06,6.06,0,0,0-3.74,1.58l-8.1-9.29a6,6,0,0,1,3.74-1.59,11.75,11.75,0,0,1,3.06.23c.29.06.57.09.85.14"/><path class="cls-1" d="M256.28,193.76l8.1,9.29a10.34,10.34,0,0,0-1,1.09l-8.1-9.29a8.68,8.68,0,0,1,1-1.09"/><path class="cls-1" d="M255.29,194.85l8.1,9.29c-1.48,1.91-2.56,4.56-4.53,7.08l-8.1-9.3c2-2.52,3.05-5.17,4.53-7.07"/><path class="cls-1" d="M250.76,201.92l8.1,9.3a18.29,18.29,0,0,1-2,2.18l-8.1-9.3a17.55,17.55,0,0,0,2-2.18"/><path class="cls-1" d="M248.76,204.1l8.1,9.3a18.91,18.91,0,0,1-8.33,4.26,23.27,23.27,0,0,1-3.76.61,19.62,19.62,0,0,1-16.71-6.55l-8.11-9.3A19.62,19.62,0,0,0,236.67,209a21,21,0,0,0,3.75-.61,18.89,18.89,0,0,0,8.34-4.26"/></g></g><path class="cls-1" d="M290.24,185.66l8.11,9.3A28.3,28.3,0,0,1,286,201.67a31,31,0,0,1-5.27.89,26.29,26.29,0,0,1-8.69-.73l-8.11-9.29a26.65,26.65,0,0,0,8.7.72,30.08,30.08,0,0,0,5.27-.89A28.32,28.32,0,0,0,290.24,185.66Z"/><g class="cls-75"><g class="cls-3"><path class="cls-1" d="M290.24,185.66l8.11,9.3-.35.32L289.9,186l.34-.33"/><path class="cls-1" d="M289.9,186l8.1,9.29a28.49,28.49,0,0,1-12,6.39,31,31,0,0,1-5.27.89,26.29,26.29,0,0,1-8.69-.73l-8.11-9.29a26.65,26.65,0,0,0,8.7.72,30.08,30.08,0,0,0,5.27-.89,28.54,28.54,0,0,0,12-6.38"/></g></g><path class="cls-1" d="M318.35,138.25l8.1,9.3c8,9.23,15.82,21,15.7,29.57-.18,12.87-9.61,18.55-15.78,20.21a22.85,22.85,0,0,1-4.12.73,17.51,17.51,0,0,1-10.9-2.84c-2.75-1.62-5-3.29-7.55-3.09a8.51,8.51,0,0,0-4.77,2.3c-.23.19-.46.35-.68.53l-8.11-9.3c.23-.18.46-.34.69-.53a8.53,8.53,0,0,1,4.76-2.29c2.61-.21,4.81,1.46,7.56,3.09a17.52,17.52,0,0,0,10.89,2.83,22.8,22.8,0,0,0,4.13-.73c6.17-1.66,15.59-7.34,15.78-20.21C334.17,159.29,326.39,147.48,318.35,138.25Z"/><g class="cls-76"><g class="cls-3"><path class="cls-1" d="M318.35,138.25l8.1,9.3c2.26,2.59,4.49,5.38,6.54,8.25l-8.1-9.3c-2.05-2.86-4.29-5.66-6.54-8.25"/><path class="cls-1" d="M324.89,146.5l8.1,9.3c4.73,6.63,8.45,13.65,9.07,19.46L334,166c-.62-5.81-4.34-12.83-9.07-19.46"/><path class="cls-1" d="M334,166l8.1,9.3a14.66,14.66,0,0,1,.09,1.86c0,.74,0,1.47-.12,2.16L333.92,170a21.63,21.63,0,0,0,.13-2.17A14.83,14.83,0,0,0,334,166"/><path class="cls-1" d="M333.92,170l8.11,9.29a21.34,21.34,0,0,1-.6,3.36l-8.1-9.3a21.44,21.44,0,0,0,.59-3.35"/><path class="cls-1" d="M333.33,173.34l8.1,9.3a20,20,0,0,1-.86,2.61L332.46,176a20.63,20.63,0,0,0,.87-2.62"/><path class="cls-1" d="M332.46,176l8.11,9.29a20,20,0,0,1-1.14,2.32l-8.1-9.3a18.33,18.33,0,0,0,1.13-2.31"/><path class="cls-1" d="M331.33,178.27l8.1,9.3a18.85,18.85,0,0,1-1.52,2.25l-8.1-9.3a19.65,19.65,0,0,0,1.52-2.25"/><path class="cls-1" d="M329.81,180.52l8.1,9.3a19.62,19.62,0,0,1-2.27,2.44l-8.1-9.3a20.41,20.41,0,0,0,2.27-2.44"/><path class="cls-1" d="M327.54,183l8.1,9.3a22.84,22.84,0,0,1-13.39,5.8,17.51,17.51,0,0,1-10.9-2.84c-2.75-1.62-5-3.29-7.55-3.09a8.51,8.51,0,0,0-4.77,2.3c-.23.19-.46.35-.68.53l-8.11-9.3c.23-.18.46-.34.69-.53a8.53,8.53,0,0,1,4.76-2.29c2.61-.21,4.81,1.46,7.56,3.09a17.52,17.52,0,0,0,10.89,2.83,22.83,22.83,0,0,0,13.4-5.8"/></g></g><path class="cls-77" d="M68.37,7.77a2.58,2.58,0,0,1,2.75,2.77l-2,134.3L102,111.54c12.72-12.76,2.09-28.86-7.58-33.85-3.33-1.67-5-3.33-4.94-5.55,0-2.5,2.29-4.17,5.64-4.17h65.76c3.34,0,5.26,1.67,5.51,4.17,0,2.22-2,4.16-5.38,5.55-13.18,6.1-33.17,20.25-46.76,34.12l-9.89,10a49.43,49.43,0,0,1,6.93-.51c65,0,56.13,140.34,110.55,140.34,13.1,0,16.85-8.6,16.94-15.27C239,228.62,255,220,263.65,220c34,0,36.87,51-41.16,51-100.86,0-106.43-114.31-135.71-131.23L69,157.87V159c-.38,25.8,6.43,36.91,13.62,40.23,3.6,1.67,5.24,3.06,5.21,5.28,0,2.49-2.29,4.16-5.63,4.16H5.52C2.17,208.65,0,207,0,204.49c0-2.22,1.73-3.61,5.38-5.28,7.29-3.32,14.41-14.43,14.79-40.23L21.8,48c-.19-5.83-1.2-12.48-5.62-15-2.77-1.39-3.86-2.78-3.83-5,0-2.49,1.45-4.16,4-4.16,19-1.11,38.3-8.6,47-14.43A9.82,9.82,0,0,1,68.37,7.77Z"/><path class="cls-77" d="M434.77,66.87c31.49,0,48.18,21.09,47.85,43.55-.21,13.88-10.33,20.26-20.37,20.26-9.75,0-19.41-6.1-19.23-18.31.2-14.16,16.15-37.46-8.37-37.46-32.88,0-44,110.43,13.7,110.43,15,0,27.43-8.32,30.61-16.09a1.69,1.69,0,0,1,1.52-1.18,1.41,1.41,0,0,1,.45.07,2,2,0,0,1,1.64,1.94c-4.82,25-28.44,39.67-56.58,39.67C327.34,209.75,335.57,66.87,434.77,66.87Z"/><path class="cls-77" d="M830.76,64.65a2.58,2.58,0,0,1,2.75,2.77l-1.57,106.82c-.09,5.75.46,15.35,10.19,15.35a19.36,19.36,0,0,0,3.52-.36,6.15,6.15,0,0,1,.84-.06c5.13,0,6.09,7.31,2.11,8.1l-50.06,12.21c-.58.05-1.16.08-1.73.08-8.3,0-14.07-5.54-14-12.29l.13-9.16A45.3,45.3,0,0,1,744.2,210c-28.7,0-49.07-17.2-48.67-44.39l.82-55.49c.08-6.11.24-16.93-5.57-20-2.75-1.67-4.13-3.06-4.1-5,0-2.78,1.73-4.17,4.24-4.44,18.69-1.11,38-8.6,47-14.43a8.47,8.47,0,0,1,5-1.66,2.59,2.59,0,0,1,2.76,2.77l-1.49,101c-.28,19.14,6.31,26.08,14.11,26.08,10.87,0,24.16-13.6,24.9-26.36l.86-58c.09-6.11.52-16.65-5.56-20q-4.15-2.09-4.11-5A4,4,0,0,1,778.69,81c18.69-1.1,38-8.6,47-14.7A10.88,10.88,0,0,1,830.76,64.65Z"/><path class="cls-77" d="M484.52,0c37.33,0,82.47,19.14,81.6,78.79l-.22,15c6.05-13.87,20.15-25.25,39.65-25.25,32.89,0,43.28,13.6,49.42,50.77l11.79,69.93c5.12,30.51,15.93,72.41,48.53,72.41,13.1,0,16.84-8.6,17-15.54.25-17.48,16-26.08,24.9-26.08,34,0,36.87,51-41.43,51-37.34,0-89.16-19.7-99.56-89.06l-7.89-51c-3.82-24.7-6.6-43.84-21.37-43.84-10.86,0-20.21,9.71-21.28,26.08L564.94,159c-.1,25.8,6.7,36.91,13.9,40.23,3.59,1.67,5.24,3.06,5.21,5.28,0,2.49-2.29,4.16-5.35,4.16H501.51c-3.34,0-5.54-1.67-5.51-4.16,0-2.22,1.72-3.61,5.37-5.28,6.73-3.05,13.57-13.31,14.75-36.34l.9-61.6,0-20c.46-31.07.78-72.14-31.83-72.14-13.37,0-17.12,8.6-17.22,15.55-.26,17.47-16,26.35-24.63,26.35C409.09,51.05,406.22,0,484.52,0Z"/><path class="cls-77" d="M922.72,64.65c1.95,0,3,1.11,3,2.77l-.29,20c5.74-10.82,16.72-19.15,33.44-19.15,27.3,0,39.15,9.44,46,33.85,4.71-16.92,22.79-33.85,45.08-33.85,32.88,0,43.54,13.88,49.4,51.05l6.67,39.68c4.08,25.52,6.42,36.91,13.61,40.23,3.6,1.67,5.26,3.06,5.23,5.28,0,2.49-2.29,4.16-5.64,4.16h-76.91c-3.34,0-5.27-1.67-5.23-4.16,0-2.22,1.44-3.61,5.09-5.28,6.74-3.05,17.19-12.49,14.7-33L1052.71,131c-3-24.7-6.6-43.84-21.37-43.84-11.14,0-22.49,13.31-23,30.52a3.43,3.43,0,0,0,.25,1.66L1015,159c4.08,25.52,6.42,36.91,13.62,40.23,3.6,1.67,5.25,3.06,5.22,5.28,0,2.49-2.29,4.16-5.64,4.16h-76.9c-3.07,0-5.27-1.67-5.23-4.16,0-2.22,1.71-3.61,5.36-5.28,6.46-3.05,16.91-12.49,14.43-33L961.59,131c-2.7-24.7-6.6-43.84-21.37-43.84-8.63,0-13.46,6.38-15,17.76L924.4,159c-.38,25.8,6.42,36.91,13.62,40.23,3.59,1.67,5.25,3.06,5.21,5.28,0,2.49-2.29,4.16-5.35,4.16H860.69c-3.34,0-5.54-1.67-5.5-4.16,0-2.22,1.71-3.61,5.36-5.28,7.3-3.32,14.43-14.43,14.81-40.23l.72-48.83c.08-6.11.52-16.93-5.57-20-2.76-1.39-3.85-3.06-3.82-5a4.36,4.36,0,0,1,4-4.44c19-.83,38.3-8.6,47-14.43A9.88,9.88,0,0,1,922.72,64.65Z"/><path class="cls-77" d="M1222.49,68.53c51.55,0,74.74,33.57,74.24,67.7-.53,36.35-27.56,73.8-76.32,73.8-10,0-17.22-3.6-22.16-8.6-5.23,52.44-48.11,69.64-83.78,69.64-78,0-73.93-51-39.66-51,8.64,0,24.11,8.88,23.85,26.35-.1,6.95,3.4,15.55,16.77,15.55,32.61,0,33.77-41.07,34.5-72.14l1.17-79.63c.09-6.11.25-16.65-5.56-20-2.76-1.39-4.14-2.79-4.1-5a4,4,0,0,1,4.24-4.17A84.76,84.76,0,0,0,1188,66.31a11,11,0,0,1,5-1.66c1.66,0,2.49,1.11,2.74,2.77l2,15.26C1203.45,74.91,1211.9,68.53,1222.49,68.53Zm-2,132.9c31.21,0,38.59-123.19,2.09-123.19-15.61,0-21.37,13-22.65,24.42l-1,65.2c.62,14.7,4.52,33.57,21.52,33.57"/><path class="cls-77" d="M1472.29,192.55c.79,3,.18,6.66-2.08,8.33-4.8,4.44-14.35,9.71-29.12,9.71-31.76,0-34.86-16.37-35.59-23.87l-.25-2.49c-9.08,19.23-29.55,28.71-48.57,28.71-21.33,0-40.84-11.91-40.5-35.37.7-47.16,85.25-36.62,82.39-68.81-1-8.6-5.68-31.35-26.57-31.35-22.86,0-3.35,19.15-3.56,33.57-.16,11-11,17.85-21.31,17.85-9.69,0-19-6-18.78-20.07.29-19.7,20.09-40.23,47.12-40.23,41,0,68.6,15.26,72.5,53.28l5.86,56c1,9.44.89,15.53,7,15.53a14.84,14.84,0,0,0,6.44-1.66,6.48,6.48,0,0,1,3.06-1.27C1471.29,190.45,1471.84,191.15,1472.29,192.55Zm-92.75-3.31c9.1,0,20.83-7.52,24.3-21.94l-3.6-39.67c-9.77,20-31.84,23.58-32.22,49.94-.12,7.85,5,11.67,11.52,11.67"/><path class="cls-77" d="M215.91,34.64c7.87-.61,16.46,14.17,19.42,20.46,2.8,5.95,7.75,19.59,8.63,24.89,2.78,17-3,27.44-13.8,29.77a9.9,9.9,0,0,1-1.42.2c-10.47.81-21.78-13.68-25.75-33.5-4.15-20.71,1.27-39.38,12.13-41.7A5.39,5.39,0,0,1,215.91,34.64Z"/><path class="cls-77" d="M181.13,86.43c7.6-.59,17.79,11.59,21.59,17s11,18,12.72,23c5.62,16.19,1.72,27.47-8.61,31.58a10.78,10.78,0,0,1-3.22.74c-10,.77-22.4-11.21-29.24-28.9-7.61-19.66-5.4-38.93,4.93-43A6.41,6.41,0,0,1,181.13,86.43Z"/><path class="cls-77" d="M264,22.17c10.17-.79,22.15,12.38,27.71,31.12,6,20.23,2.27,39.29-8.34,42.57a18.26,18.26,0,0,1-4,.78c-9,.71-17.21-6-22-20.15-1.7-5.1-3.72-19.49-4-26.09-.35-7.21.36-25.34,8.28-27.78A10.78,10.78,0,0,1,264,22.17Z"/><path class="cls-77" d="M318.58,50.55C329.37,49.71,340,65.36,342.41,86c2.48,21-4.41,39.21-15.4,40.67-.36,0-.72.08-1.08.11-10.47.81-18.67-7.21-21.19-23.63-.83-5.32-.37-19.88.44-26.46.88-7.18,4.64-25,12.82-26.07Z"/><path class="cls-77" d="M262.21,105.9a37.68,37.68,0,0,1,13.43,1.3c8.42,2.51,25,14.61,31.77,20.18,9.67,8,26.82,27.81,26.64,40.44-.19,12.87-9.61,18.55-15.78,20.21a22.8,22.8,0,0,1-4.13.73,17.52,17.52,0,0,1-10.89-2.83c-2.75-1.63-4.95-3.3-7.56-3.09a8.53,8.53,0,0,0-4.76,2.29c-.23.19-.46.35-.69.53a28.32,28.32,0,0,1-12.34,6.71,30.08,30.08,0,0,1-5.27.89,26.65,26.65,0,0,1-8.7-.72c-.28,0-.56-.08-.85-.14a11.75,11.75,0,0,0-3.06-.23c-8,.62-5.15,12.51-19.6,16.19a21,21,0,0,1-3.75.61,19.64,19.64,0,0,1-19.53-10.61c-6-11-.23-36.83,4.56-48.59,3.32-8.21,12.26-27,18.49-33.31a38.17,38.17,0,0,1,16.46-9.71A32.1,32.1,0,0,1,262.21,105.9Z"/></g></svg>