<svg xmlns="http://www.w3.org/2000/svg" xmlns:xlink="http://www.w3.org/1999/xlink" viewBox="0 0 1489.17 279.8"><defs><style>.cls-1{fill:#d4e5c6;}.cls-2{isolation:isolate;}.cls-3{clip-path:url(#clip-path);}.cls-4{clip-path:url(#clip-path-2);}.cls-5{clip-path:url(#clip-path-3);}.cls-6{clip-path:url(#clip-path-4);}.cls-7{clip-path:url(#clip-path-5);}.cls-8{clip-path:url(#clip-path-6);}.cls-9{clip-path:url(#clip-path-7);}.cls-10{clip-path:url(#clip-path-8);}.cls-11{clip-path:url(#clip-path-9);}.cls-12{clip-path:url(#clip-path-10);}.cls-13{clip-path:url(#clip-path-11);}.cls-14{clip-path:url(#clip-path-12);}.cls-15{clip-path:url(#clip-path-13);}.cls-16{clip-path:url(#clip-path-14);}.cls-17{clip-path:url(#clip-path-15);}.cls-18{clip-path:url(#clip-path-16);}.cls-19{clip-path:url(#clip-path-17);}.cls-20{clip-path:url(#clip-path-18);}.cls-21{clip-path:url(#clip-path-19);}.cls-22{clip-path:url(#clip-path-20);}.cls-23{clip-path:url(#clip-path-21);}.cls-24{clip-path:url(#clip-path-22);}.cls-25{clip-path:url(#clip-path-23);}.cls-26{clip-path:url(#clip-path-24);}.cls-27{clip-path:url(#clip-path-25);}.cls-28{clip-path:url(#clip-path-26);}.cls-29{clip-path:url(#clip-path-27);}.cls-30{clip-path:url(#clip-path-28);}.cls-31{clip-path:url(#clip-path-29);}.cls-32{clip-path:url(#clip-path-30);}.cls-33{clip-path:url(#clip-path-31);}.cls-34{clip-path:url(#clip-path-32);}.cls-35{clip-path:url(#clip-path-33);}.cls-36{clip-path:url(#clip-path-34);}.cls-37{clip-path:url(#clip-path-35);}.cls-38{clip-path:url(#clip-path-36);}.cls-39{clip-path:url(#clip-path-37);}.cls-40{clip-path:url(#clip-path-38);}.cls-41{clip-path:url(#clip-path-39);}.cls-42{clip-path:url(#clip-path-40);}.cls-43{clip-path:url(#clip-path-41);}.cls-44{clip-path:url(#clip-path-42);}.cls-45{clip-path:url(#clip-path-43);}.cls-46{clip-path:url(#clip-path-44);}.cls-47{clip-path:url(#clip-path-45);}.cls-48{clip-path:url(#clip-path-46);}.cls-49{clip-path:url(#clip-path-47);}.cls-50{clip-path:url(#clip-path-48);}.cls-51{clip-path:url(#clip-path-49);}.cls-52{clip-path:url(#clip-path-50);}.cls-53{clip-path:url(#clip-path-51);}.cls-54{clip-path:url(#clip-path-52);}.cls-55{clip-path:url(#clip-path-53);}.cls-56{clip-path:url(#clip-path-54);}.cls-57{clip-path:url(#clip-path-55);}.cls-58{clip-path:url(#clip-path-56);}.cls-59{clip-path:url(#clip-path-57);}.cls-60{clip-path:url(#clip-path-58);}.cls-61{clip-path:url(#clip-path-59);}.cls-62{clip-path:url(#clip-path-60);}.cls-63{clip-path:url(#clip-path-61);}.cls-64{clip-path:url(#clip-path-62);}.cls-65{clip-path:url(#clip-path-63);}.cls-66{clip-path:url(#clip-path-64);}.cls-67{clip-path:url(#clip-path-65);}.cls-68{clip-path:url(#clip-path-66);}.cls-69{clip-path:url(#clip-path-67);}.cls-70{clip-path:url(#clip-path-68);}.cls-71{clip-path:url(#clip-path-69);}.cls-72{clip-path:url(#clip-path-70);}.cls-73{clip-path:url(#clip-path-71);}.cls-74{clip-path:url(#clip-path-72);}.cls-75{clip-path:url(#clip-path-73);}.cls-76{clip-path:url(#clip-path-74);}.cls-77{clip-path:url(#clip-path-75);}.cls-78{fill:#9dc48a;}</style><clipPath id="clip-path"><path class="cls-1" d="M19.71,39.5l-7.24-9.74a8.21,8.21,0,0,0,3,2.25l7.24,9.74A8.19,8.19,0,0,1,19.71,39.5Z"/></clipPath><clipPath id="clip-path-2"><path class="cls-1" d="M17.93,34.22,25.18,44a7.88,7.88,0,0,0-2.46-2.21L15.48,32A7.84,7.84,0,0,1,17.93,34.22Z"/></clipPath><clipPath id="clip-path-3"><path class="cls-1" d="M69.9,7.77l7.24,9.74a2.79,2.79,0,0,1,.52,1.76L70.42,9.53A2.85,2.85,0,0,0,69.9,7.77Z"/></clipPath><clipPath id="clip-path-4"><path class="cls-1" d="M102.36,84.27,109.6,94a26.23,26.23,0,0,0-8.68-7.59,11.3,11.3,0,0,1-4.09-3l-7.25-9.74a11.47,11.47,0,0,0,4.1,3A26.21,26.21,0,0,1,102.36,84.27Z"/></clipPath><clipPath id="clip-path-5"><path class="cls-1" d="M164.82,68.89l7.25,9.74a4.53,4.53,0,0,1,.83,2.24l-7.25-9.74A4.35,4.35,0,0,0,164.82,68.89Z"/></clipPath><clipPath id="clip-path-6"><path class="cls-1" d="M160.27,76.68l7.25,9.74c-13.19,6.1-33.18,20.25-46.76,34.13l-7.25-9.75C127.1,96.93,147.09,82.78,160.27,76.68Z"/></clipPath><clipPath id="clip-path-7"><path class="cls-1" d="M165.65,71.13l7.25,9.74c0,2.22-2,4.16-5.38,5.55l-7.25-9.74C163.64,75.29,165.62,73.34,165.65,71.13Z"/></clipPath><clipPath id="clip-path-8"><path class="cls-1" d="M7.25,215.45,0,205.7a5.83,5.83,0,0,0,4.82,1.94l7.24,9.74A5.82,5.82,0,0,1,7.25,215.45Z"/></clipPath><clipPath id="clip-path-9"><path class="cls-1" d="M94.4,146.78l7.24,9.75a28.57,28.57,0,0,0-8.32-8l-7.24-9.75A28.83,28.83,0,0,1,94.4,146.78Z"/></clipPath><clipPath id="clip-path-10"><path class="cls-1" d="M83,202.74,75.73,193c-4.48-6-7.76-16.89-7.49-35l7.24,9.74C75.21,185.85,78.5,196.72,83,202.74Z"/></clipPath><clipPath id="clip-path-11"><path class="cls-1" d="M86.35,201.22,93.59,211a3.56,3.56,0,0,1,.73,2.26c0,2.49-2.29,4.16-5.63,4.16l-7.25-9.74c3.34,0,5.59-1.67,5.63-4.17A3.54,3.54,0,0,0,86.35,201.22Z"/></clipPath><clipPath id="clip-path-12"><path class="cls-1" d="M146.1,140.15l7.25,9.75c21,28.25,29.18,79.45,48.21,105l-7.25-9.74C175.28,219.61,167.12,168.41,146.1,140.15Z"/></clipPath><clipPath id="clip-path-13"><path class="cls-1" d="M506.35,18.5l7.25,9.74c-4.76-6.39-11.71-10.36-21.84-10.36-13.37,0-17.12,8.6-17.23,15.55-.25,17.47-16,26.35-24.62,26.35-8.9,0-15.69-3.44-19.48-8.54l-7.25-9.75C427,46.59,433.76,50,442.66,50c8.64,0,24.37-8.88,24.63-26.36.1-6.94,3.85-15.54,17.22-15.54C494.64,8.14,501.59,12.1,506.35,18.5Z"/></clipPath><clipPath id="clip-path-14"><path class="cls-1" d="M282.22,227.49l7.25,9.74c10.8,14.52-2.59,42.57-60.43,42.57-41,0-66.21-18.86-83.71-42.38l-7.25-9.75c17.5,23.53,42.75,42.39,83.71,42.39C279.63,270.06,293,242,282.22,227.49Z"/></clipPath><clipPath id="clip-path-15"><path class="cls-1" d="M445.83,78l7.24,9.74c-1.9-2.55-5.53-4.11-11.87-4.11-25.41,0-37.81,65.94-15.52,95.91l-7.25-9.74c-22.29-30-9.89-95.91,15.52-95.91C440.29,73.9,443.92,75.45,445.83,78Z"/></clipPath><clipPath id="clip-path-16"><path class="cls-1" d="M473.76,83.65,481,93.4a41.93,41.93,0,0,1,8.15,25.75c-.2,13.88-10.33,20.26-20.36,20.26-6.17,0-12.3-2.44-15.93-7.32l-7.24-9.74c3.63,4.88,9.76,7.32,15.92,7.32,10,0,20.16-6.38,20.37-20.26A42.06,42.06,0,0,0,473.76,83.65Z"/></clipPath><clipPath id="clip-path-17"><path class="cls-1" d="M551.39,28.65l7.24,9.74c8.87,11.92,14.34,28,14,49.13l-7.24-9.74C565.73,56.63,560.25,40.57,551.39,28.65Z"/></clipPath><clipPath id="clip-path-18"><path class="cls-1" d="M481.51,167.94l7.24,9.74a1.87,1.87,0,0,1,.37,1.13l-7.25-9.75A1.78,1.78,0,0,0,481.51,167.94Z"/></clipPath><clipPath id="clip-path-19"><path class="cls-1" d="M597.35,91.85l7.25,9.75a13.19,13.19,0,0,0-11.16-5.75c-10.87,0-20.21,9.71-21.28,26.08l-7.25-9.75c1.07-16.36,10.42-26.07,21.28-26.07A13.17,13.17,0,0,1,597.35,91.85Z"/></clipPath><clipPath id="clip-path-20"><path class="cls-1" d="M375.6,192.75,368.36,183c11.36,15.26,30.23,25.73,56.92,25.73,28.15,0,51.77-14.7,56.59-39.68l7.25,9.75c-4.83,25-28.45,39.67-56.59,39.67C405.83,218.48,387,208,375.6,192.75Z"/></clipPath><clipPath id="clip-path-21"><path class="cls-1" d="M503.25,215.45,496,205.71a5.84,5.84,0,0,0,4.81,1.93l7.24,9.74A5.82,5.82,0,0,1,503.25,215.45Z"/></clipPath><clipPath id="clip-path-22"><path class="cls-1" d="M694,96.22l-7.25-9.74a11.73,11.73,0,0,0,3.33,2.68l7.25,9.75A11.46,11.46,0,0,1,694,96.22Z"/></clipPath><clipPath id="clip-path-23"><path class="cls-1" d="M642,81.81l7.25,9.74c6,8.09,9.58,20,12.31,36.48l-7.24-9.74C651.54,101.76,648,89.9,642,81.81Z"/></clipPath><clipPath id="clip-path-24"><path class="cls-1" d="M692.55,91.32l7.25,9.74a7.28,7.28,0,0,0-2.47-2.15l-7.25-9.75A7.32,7.32,0,0,1,692.55,91.32Z"/></clipPath><clipPath id="clip-path-25"><path class="cls-1" d="M579.22,202.7,572,193c-4.48-6-7.8-16.89-7.73-35l7.24,9.74C571.41,185.81,574.74,196.68,579.22,202.7Z"/></clipPath><clipPath id="clip-path-26"><path class="cls-1" d="M744.52,64.66l7.24,9.74a2.78,2.78,0,0,1,.52,1.75L745,66.41A2.82,2.82,0,0,0,744.52,64.66Z"/></clipPath><clipPath id="clip-path-27"><path class="cls-1" d="M582.63,201.22l7.25,9.75a3.58,3.58,0,0,1,.72,2.25c0,2.49-2.29,4.16-5.35,4.16L578,207.64c3.06,0,5.31-1.67,5.35-4.17A3.54,3.54,0,0,0,582.63,201.22Z"/></clipPath><clipPath id="clip-path-28"><path class="cls-1" d="M781.84,96.41l-7.25-9.74a9.09,9.09,0,0,0,3.26,2.49l7.25,9.75A9.22,9.22,0,0,1,781.84,96.41Z"/></clipPath><clipPath id="clip-path-29"><path class="cls-1" d="M780.44,91.44l7.24,9.75a7.75,7.75,0,0,0-2.58-2.28l-7.25-9.75A8.11,8.11,0,0,1,780.44,91.44Z"/></clipPath><clipPath id="clip-path-30"><path class="cls-1" d="M832.29,64.65l7.24,9.74a2.79,2.79,0,0,1,.52,1.76l-7.24-9.74A2.85,2.85,0,0,0,832.29,64.65Z"/></clipPath><clipPath id="clip-path-31"><path class="cls-1" d="M755.53,198.4l-7.25-9.74c-3-4-4.88-10.84-4.73-21.25l7.25,9.74C750.64,187.56,752.52,194.36,755.53,198.4Z"/></clipPath><clipPath id="clip-path-32"><path class="cls-1" d="M692.88,254.68l-7.25-9.74c-11.14-15-16.43-38-19.57-56.72L673.3,198C676.45,216.68,681.73,239.7,692.88,254.68Z"/></clipPath><clipPath id="clip-path-33"><path class="cls-1" d="M710.11,200.88l-7.25-9.75c8.45,11.37,23,17.89,40.64,17.89a45.3,45.3,0,0,0,38.77-21.92l7.25,9.74a45.32,45.32,0,0,1-38.78,21.92C733.07,218.76,718.56,212.24,710.11,200.88Z"/></clipPath><clipPath id="clip-path-34"><path class="cls-1" d="M791.62,212.92l-7.25-9.74c2.41,3.23,6.59,5.36,11.74,5.36.57,0,1.14,0,1.73-.07l7.25,9.74c-.59,0-1.17.08-1.74.08C798.2,218.29,794,216.15,791.62,212.92Z"/></clipPath><clipPath id="clip-path-35"><path class="cls-1" d="M841.09,194.89l-7.25-9.74c-2.47-3.32-2.66-8.36-2.6-11.92l7.24,9.74C838.43,186.53,838.62,191.57,841.09,194.89Z"/></clipPath><clipPath id="clip-path-36"><path class="cls-1" d="M849.39,189.92l7.24,9.74c1.65,2.22,1.23,5.8-1.49,6.34l-7.24-9.74C850.62,195.72,851,192.13,849.39,189.92Z"/></clipPath><clipPath id="clip-path-37"><path class="cls-1" d="M775.7,227.48l7.25,9.74c10.79,14.51-2.64,42.58-60.69,42.58-25.73,0-58.32-9.35-79.52-37.84l-7.24-9.74c21.19,28.49,53.79,37.84,79.51,37.84C773.06,270.06,786.5,242,775.7,227.48Z"/></clipPath><clipPath id="clip-path-38"><path class="cls-1" d="M872.45,91.42l7.25,9.74a7.35,7.35,0,0,0-2.64-2.25,8.29,8.29,0,0,1-2.95-2.28l-7.25-9.75a8.16,8.16,0,0,0,2.95,2.28A7.4,7.4,0,0,1,872.45,91.42Z"/></clipPath><clipPath id="clip-path-39"><path class="cls-1" d="M924.54,64.7l7.25,9.75a2.7,2.7,0,0,1,.5,1.7L925,66.41A2.75,2.75,0,0,0,924.54,64.7Z"/></clipPath><clipPath id="clip-path-40"><path class="cls-1" d="M951.18,92.19l7.25,9.75a13.88,13.88,0,0,0-11.66-6.09c-8.64,0-13.47,6.38-15,17.76l-7.25-9.74c1.57-11.38,6.4-17.76,15-17.76A13.84,13.84,0,0,1,951.18,92.19Z"/></clipPath><clipPath id="clip-path-41"><path class="cls-1" d="M862.43,215.45l-7.24-9.74a5.81,5.81,0,0,0,4.8,1.93l7.25,9.74A5.84,5.84,0,0,1,862.43,215.45Z"/></clipPath><clipPath id="clip-path-42"><path class="cls-1" d="M995.46,81.68l7.25,9.74c3.7,5,6.5,11.39,8.77,19.41l-7.25-9.74C1002,93.07,999.17,86.66,995.46,81.68Z"/></clipPath><clipPath id="clip-path-43"><path class="cls-1" d="M1042.18,92.11l7.24,9.74a13.69,13.69,0,0,0-11.53-6c-11.15,0-22.5,13.31-23,30.52a3.56,3.56,0,0,0,.26,1.66l-7.25-9.74a3.44,3.44,0,0,1-.25-1.66c.53-17.21,11.88-30.52,23-30.52A13.69,13.69,0,0,1,1042.18,92.11Z"/></clipPath><clipPath id="clip-path-44"><path class="cls-1" d="M938.43,202.74,931.19,193c-4.48-6-7.76-16.89-7.49-35l7.24,9.74C930.68,185.85,934,196.72,938.43,202.74Z"/></clipPath><clipPath id="clip-path-45"><path class="cls-1" d="M941.81,201.22l7.25,9.75a3.52,3.52,0,0,1,.72,2.25c0,2.49-2.29,4.16-5.35,4.16l-7.25-9.74c3.06,0,5.32-1.67,5.35-4.17A3.48,3.48,0,0,0,941.81,201.22Z"/></clipPath><clipPath id="clip-path-46"><path class="cls-1" d="M953.29,215.48,946,205.74a5.48,5.48,0,0,0,4.51,1.9l7.25,9.74A5.46,5.46,0,0,1,953.29,215.48Z"/></clipPath><clipPath id="clip-path-47"><path class="cls-1" d="M1086.48,81.64l7.24,9.74c6.06,8.15,9.63,20.09,12.24,36.65l-7.25-9.74C1096.1,101.73,1092.53,89.79,1086.48,81.64Z"/></clipPath><clipPath id="clip-path-48"><path class="cls-1" d="M1148.78,96.46l-7.25-9.74a9.14,9.14,0,0,0,3.31,2.44l7.25,9.75A9.15,9.15,0,0,1,1148.78,96.46Z"/></clipPath><clipPath id="clip-path-49"><path class="cls-1" d="M1147.25,91.34l7.25,9.74a7.93,7.93,0,0,0-2.41-2.17l-7.25-9.75A7.85,7.85,0,0,1,1147.25,91.34Z"/></clipPath><clipPath id="clip-path-50"><path class="cls-1" d="M1194.38,64.6l7.25,9.74a4,4,0,0,1,.67,1.81l-7.24-9.74A4,4,0,0,0,1194.38,64.6Z"/></clipPath><clipPath id="clip-path-51"><path class="cls-1" d="M1031,204.46l-7.24-9.74c-4.17-5.61-6.29-16.9-9.47-36.75l7.25,9.74C1024.68,187.56,1026.8,198.86,1031,204.46Z"/></clipPath><clipPath id="clip-path-52"><path class="cls-1" d="M1032.38,201.23l7.24,9.74a3.54,3.54,0,0,1,.72,2.25c0,2.49-2.29,4.16-5.64,4.16l-7.24-9.74c3.35,0,5.6-1.67,5.64-4.17A3.55,3.55,0,0,0,1032.38,201.23Z"/></clipPath><clipPath id="clip-path-53"><path class="cls-1" d="M1044.4,215.58l-7.25-9.75a5.4,5.4,0,0,0,4.52,1.81l7.25,9.74C1046.79,217.38,1045.24,216.71,1044.4,215.58Z"/></clipPath><clipPath id="clip-path-54"><path class="cls-1" d="M1235.61,84.9l7.24,9.75c-3.59-4.83-8.12-7.68-13.67-7.68-15.61,0-21.37,13-22.66,24.42l-7.24-9.74c1.28-11.38,7-24.42,22.65-24.42C1227.48,77.23,1232,80.08,1235.61,84.9Z"/></clipPath><clipPath id="clip-path-55"><path class="cls-1" d="M1122.09,204.46l-7.25-9.74c-4.17-5.61-6.29-16.9-9.46-36.75l7.25,9.74C1115.8,187.56,1117.92,198.86,1122.09,204.46Z"/></clipPath><clipPath id="clip-path-56"><path class="cls-1" d="M1123.49,201.23l7.25,9.74a3.54,3.54,0,0,1,.72,2.25c0,2.49-2.29,4.16-5.64,4.16l-7.24-9.74c3.34,0,5.6-1.67,5.63-4.17A3.44,3.44,0,0,0,1123.49,201.23Z"/></clipPath><clipPath id="clip-path-57"><path class="cls-1" d="M1093,229.58l7.25,9.74a25.35,25.35,0,0,1,5,15.78,15.93,15.93,0,0,0,2.87,9.79l-7.25-9.74a16.08,16.08,0,0,1-2.87-9.79A25.27,25.27,0,0,0,1093,229.58Z"/></clipPath><clipPath id="clip-path-58"><path class="cls-1" d="M1212.64,203l-7.25-9.74c-5.09-6.84-6.69-17.4-7.07-26.4l7.24,9.75C1205.94,185.59,1207.55,196.14,1212.64,203Z"/></clipPath><clipPath id="clip-path-59"><path class="cls-1" d="M1062.43,260.51l-7.24-9.74c7.72,10.38,26,19.29,58.58,19.29,35.67,0,78.55-17.2,83.78-69.64l7.24,9.74c-5.22,52.44-48.11,69.64-83.78,69.64C1088.41,279.8,1070.15,270.89,1062.43,260.51Z"/></clipPath><clipPath id="clip-path-60"><path class="cls-1" d="M1283.38,94.41l7.24,9.74c8.77,11.79,12.87,26.25,12.66,40.81-.54,36.35-27.56,73.8-76.33,73.8-10,0-17.22-3.6-22.16-8.6l-7.24-9.74c4.94,5,12.13,8.6,22.16,8.6,48.76,0,75.79-37.45,76.32-73.81C1296.25,120.66,1292.15,106.2,1283.38,94.41Z"/></clipPath><clipPath id="clip-path-61"><path class="cls-1" d="M1390.07,85.84l7.25,9.74a22.34,22.34,0,0,0-18.78-9.44c-22.85,0-3.34,19.15-3.55,33.57-.17,11-11,17.85-21.31,17.85-5.83,0-11.52-2.16-15.08-6.95l-7.25-9.74c3.56,4.78,9.25,6.95,15.08,6.95,10.35,0,21.15-6.82,21.31-17.85.21-14.43-19.3-33.57,3.55-33.57A22.31,22.31,0,0,1,1390.07,85.84Z"/></clipPath><clipPath id="clip-path-62"><path class="cls-1" d="M1436.58,91.06l7.25,9.74c5.76,7.75,9.44,17.58,10.69,29.74l-7.25-9.75C1446,108.64,1442.35,98.81,1436.58,91.06Z"/></clipPath><clipPath id="clip-path-63"><path class="cls-1" d="M1376.7,193.79l-7.25-9.74a12,12,0,0,1-2.13-7.49c.38-26.36,22.45-30,32.22-49.95l7.24,9.75c-9.77,20-31.83,23.58-32.22,49.94A12,12,0,0,0,1376.7,193.79Z"/></clipPath><clipPath id="clip-path-64"><path class="cls-1" d="M1328.94,206.74l-7.25-9.75c7.38,9.93,20.45,14.94,34.29,14.94,19,0,39.49-9.48,48.57-28.71l7.25,9.74c-9.08,19.23-29.55,28.71-48.58,28.71C1349.39,221.67,1336.32,216.66,1328.94,206.74Z"/></clipPath><clipPath id="clip-path-65"><path class="cls-1" d="M1463.07,200.18l-7.24-9.74c-1.87-2.5-2-7.31-2.7-13.6l7.25,9.74C1461,192.87,1461.21,197.68,1463.07,200.18Z"/></clipPath><clipPath id="clip-path-66"><path class="cls-1" d="M1470.92,190.11l7.25,9.74a4.78,4.78,0,0,1,.66,1.43l-7.24-9.74A4.9,4.9,0,0,0,1470.92,190.11Z"/></clipPath><clipPath id="clip-path-67"><path class="cls-1" d="M1471.59,191.54l7.24,9.74c.8,3.05.18,6.66-2.07,8.33l-7.25-9.75C1471.77,198.2,1472.38,194.59,1471.59,191.54Z"/></clipPath><clipPath id="clip-path-68"><path class="cls-1" d="M1416.5,208.19l-7.24-9.74c4.39,5.9,13.18,11.13,31.13,11.13,14.77,0,24.32-5.28,29.12-9.72l7.25,9.75c-4.8,4.44-14.36,9.71-29.13,9.71C1429.69,219.32,1420.89,214.09,1416.5,208.19Z"/></clipPath><clipPath id="clip-path-69"><path class="cls-1" d="M225.53,39.79l8.11,9.3a67.14,67.14,0,0,1,9.1,14.3c2.79,5.94,7.74,19.58,8.62,24.89,2.78,16.94-3,27.44-13.8,29.76a11.3,11.3,0,0,1-1.42.21c-4.72.36-9.62-2.39-13.93-7.34l-8.11-9.29c4.32,4.95,9.21,7.7,13.94,7.33a9.93,9.93,0,0,0,1.42-.21C240.31,106.42,246,95.93,243.25,79c-.88-5.31-5.82-18.94-8.62-24.89A67.39,67.39,0,0,0,225.53,39.79Z"/></clipPath><clipPath id="clip-path-70"><path class="cls-1" d="M197.47,96.66l8.1,9.29a71.88,71.88,0,0,1,4.55,5.78c3.77,5.38,11,18,12.72,23,5.62,16.19,1.72,27.47-8.61,31.57a10.79,10.79,0,0,1-3.22.75c-5.75.44-12.34-3.38-18.2-10.1l-8.11-9.3c5.86,6.73,12.45,10.55,18.21,10.1a11.17,11.17,0,0,0,3.22-.74c10.33-4.11,14.23-15.39,8.61-31.58-1.76-5.08-9-17.65-12.72-23C200.94,100.9,199.36,98.83,197.47,96.66Z"/></clipPath><clipPath id="clip-path-71"><path class="cls-1" d="M279.23,29.81l8.11,9.3c4.8,5.52,9,13.33,11.76,22.46,6,20.23,2.26,39.29-8.35,42.57a18.29,18.29,0,0,1-4,.79c-5.39.42-10.47-1.79-14.69-6.64L263.92,89c4.23,4.85,9.31,7.06,14.7,6.64a18.26,18.26,0,0,0,4-.78C293.26,91.56,297,72.5,291,52.28,288.28,43.14,284,35.33,279.23,29.81Z"/></clipPath><clipPath id="clip-path-72"><path class="cls-1" d="M330.42,55.94l8.11,9.3c5.51,6.33,9.83,16.81,11.28,29,2.48,21-4.41,39.2-15.4,40.66l-1.07.12a16.29,16.29,0,0,1-14-5.83l-8.1-9.3a16.28,16.28,0,0,0,14,5.83c.36,0,.72-.06,1.08-.11,11-1.46,17.88-19.67,15.4-40.67C340.25,72.75,335.94,62.27,330.42,55.94Z"/></clipPath><clipPath id="clip-path-73"><path class="cls-1" d="M227.36,210.71l-8.11-9.3A19.62,19.62,0,0,0,236,208a23,23,0,0,0,3.75-.61c14.45-3.68,11.6-15.57,19.6-16.19a11.33,11.33,0,0,1,3.06.23c.29.06.57.09.85.13l8.11,9.3c-.29,0-.56-.07-.86-.13a11.3,11.3,0,0,0-3.06-.23c-8,.62-5.15,12.5-19.59,16.19a23.27,23.27,0,0,1-3.76.61A19.62,19.62,0,0,1,227.36,210.71Z"/></clipPath><clipPath id="clip-path-74"><path class="cls-1" d="M289.54,184.65l8.11,9.3a28.39,28.39,0,0,1-12.35,6.7,30.12,30.12,0,0,1-5.27.9,26.56,26.56,0,0,1-8.69-.73l-8.11-9.3a26.38,26.38,0,0,0,8.7.73,30.77,30.77,0,0,0,5.26-.89A28.3,28.3,0,0,0,289.54,184.65Z"/></clipPath><clipPath id="clip-path-75"><path class="cls-1" d="M317.65,137.24l8.1,9.3c8,9.23,15.82,21,15.7,29.56-.18,12.87-9.61,18.55-15.78,20.21a22,22,0,0,1-4.12.73,17.41,17.41,0,0,1-10.9-2.83c-2.75-1.62-4.95-3.29-7.55-3.09a8.55,8.55,0,0,0-4.77,2.29l-.68.54-8.11-9.3c.23-.18.46-.34.69-.53a8.55,8.55,0,0,1,4.76-2.3c2.61-.2,4.81,1.47,7.56,3.09a17.46,17.46,0,0,0,10.89,2.84,23,23,0,0,0,4.13-.73c6.17-1.66,15.59-7.34,15.78-20.21C333.47,158.28,325.69,146.47,317.65,137.24Z"/></clipPath></defs><g id="paw"><path class="cls-1" d="M20.3,250.11h88.12c4.06,0,8.11.07,12.17,0h.17c5.23,0,10.24-4.6,10-10a10.18,10.18,0,0,0-10-10H32.63c-4.05,0-8.11-.07-12.16,0H20.3c-5.23,0-10.24,4.6-10,10a10.17,10.17,0,0,0,10,10Z"/><path class="cls-1" d="M315,250.11H596.69c3.81,0,7.61,0,11.41,0h.5c5.23,0,10.24-4.6,10-10a10.18,10.18,0,0,0-10-10H326.9c-3.8,0-7.61,0-11.41,0H315c-5.24,0-10.25,4.6-10,10a10.17,10.17,0,0,0,10,10Z"/><path class="cls-1" d="M803.75,250.11h215.61c2.93,0,5.86,0,8.78,0h.38c5.23,0,10.24-4.6,10-10a10.18,10.18,0,0,0-10-10H812.91c-2.93,0-5.86,0-8.78,0h-.38c-5.23,0-10.24,4.6-10,10a10.18,10.18,0,0,0,10,10Z"/><path class="cls-1" d="M1222.36,250.11h246.38c3.33,0,6.66,0,10,0h.43c5.24,0,10.25-4.6,10-10a10.17,10.17,0,0,0-10-10H1232.78c-3.33,0-6.66,0-10,0h-.44c-5.23,0-10.24,4.6-10,10a10.17,10.17,0,0,0,10,10Z"/><g class="cls-2"><path class="cls-1" d="M19.71,39.5l-7.24-9.74a8.21,8.21,0,0,0,3,2.25l7.24,9.74A8.19,8.19,0,0,1,19.71,39.5Z"/><g class="cls-3"><g class="cls-2"><path class="cls-1" d="M15.48,32l7.24,9.74a8.19,8.19,0,0,1-3-2.25l-7.24-9.74a8.21,8.21,0,0,0,3,2.25"/></g></g></g><g class="cls-2"><path class="cls-1" d="M17.93,34.22,25.18,44a7.88,7.88,0,0,0-2.46-2.21L15.48,32A7.84,7.84,0,0,1,17.93,34.22Z"/><g class="cls-4"><g class="cls-2"><path class="cls-1" d="M17.93,34.22,25.18,44a7.88,7.88,0,0,0-2.46-2.21L15.48,32a7.84,7.84,0,0,1,2.45,2.21"/></g></g></g><g class="cls-2"><path class="cls-1" d="M69.9,7.77l7.24,9.74a2.79,2.79,0,0,1,.52,1.76L70.42,9.53A2.85,2.85,0,0,0,69.9,7.77Z"/><g class="cls-5"><g class="cls-2"><path class="cls-1" d="M69.9,7.77l7.24,9.74a2.78,2.78,0,0,1,.52,1.6L70.41,9.36a2.76,2.76,0,0,0-.51-1.59"/><path class="cls-1" d="M70.41,9.36l7.25,9.75v.16L70.42,9.53a1,1,0,0,0,0-.17"/></g></g></g><g class="cls-2"><path class="cls-1" d="M102.36,84.27,109.6,94a26.23,26.23,0,0,0-8.68-7.59,11.3,11.3,0,0,1-4.09-3l-7.25-9.74a11.47,11.47,0,0,0,4.1,3A26.21,26.21,0,0,1,102.36,84.27Z"/><g class="cls-6"><g class="cls-2"><path class="cls-1" d="M102.36,84.27,109.6,94a26.23,26.23,0,0,0-8.68-7.59,11.3,11.3,0,0,1-4.09-3l-7.25-9.74a11.47,11.47,0,0,0,4.1,3,26.21,26.21,0,0,1,8.68,7.59"/></g></g></g><g class="cls-2"><path class="cls-1" d="M164.82,68.89l7.25,9.74a4.53,4.53,0,0,1,.83,2.24l-7.25-9.74A4.35,4.35,0,0,0,164.82,68.89Z"/><g class="cls-7"><g class="cls-2"><path class="cls-1" d="M164.82,68.89l7.25,9.74a4.53,4.53,0,0,1,.83,2.24l-7.25-9.74a4.35,4.35,0,0,0-.83-2.24"/></g></g></g><polygon class="cls-1" points="70.42 9.53 77.66 19.27 75.69 153.57 68.44 143.82 70.42 9.53"/><g class="cls-2"><path class="cls-1" d="M160.27,76.68l7.25,9.74c-13.19,6.1-33.18,20.25-46.76,34.13l-7.25-9.75C127.1,96.93,147.09,82.78,160.27,76.68Z"/><g class="cls-8"><g class="cls-2"><path class="cls-1" d="M160.27,76.68l7.25,9.74c-13.19,6.1-33.18,20.25-46.76,34.13l-7.25-9.75c13.59-13.87,33.58-28,46.76-34.12"/></g></g></g><g class="cls-2"><path class="cls-1" d="M165.65,71.13l7.25,9.74c0,2.22-2,4.16-5.38,5.55l-7.25-9.74C163.64,75.29,165.62,73.34,165.65,71.13Z"/><g class="cls-9"><g class="cls-2"><path class="cls-1" d="M165.65,71.13l7.25,9.74c0,.17,0,.33,0,.5l-7.25-9.74a4.38,4.38,0,0,0,0-.5"/><path class="cls-1" d="M165.61,71.63l7.25,9.74a4,4,0,0,1-.14.57l-7.24-9.74a3.9,3.9,0,0,0,.13-.57"/><path class="cls-1" d="M165.48,72.2l7.24,9.74a3.66,3.66,0,0,1-.21.55l-7.25-9.74a4.2,4.2,0,0,0,.22-.55"/><path class="cls-1" d="M165.26,72.75l7.25,9.74a4.33,4.33,0,0,1-.36.62l-7.24-9.74a5.45,5.45,0,0,0,.35-.62"/><path class="cls-1" d="M164.91,73.37l7.24,9.74a4.89,4.89,0,0,1-.66.81l-7.24-9.75a6.82,6.82,0,0,0,.66-.8"/><path class="cls-1" d="M164.25,74.17l7.24,9.75a11.73,11.73,0,0,1-4,2.5l-7.25-9.74a11.7,11.7,0,0,0,4-2.51"/></g></g></g><polygon class="cls-1" points="113.51 110.8 120.76 120.55 110.86 130.54 103.62 120.79 113.51 110.8"/><polygon class="cls-1" points="86.08 138.82 93.32 148.57 75.5 166.6 68.25 156.86 86.08 138.82"/><polygon class="cls-1" points="68.25 156.86 75.5 166.6 75.48 167.71 68.23 157.97 68.25 156.86"/><g class="cls-2"><path class="cls-1" d="M7.25,215.45,0,205.7a5.83,5.83,0,0,0,4.82,1.94l7.24,9.74A5.82,5.82,0,0,1,7.25,215.45Z"/><g class="cls-10"><g class="cls-2"><path class="cls-1" d="M4.82,207.64l7.24,9.74a5.82,5.82,0,0,1-4.81-1.93L0,205.7a5.83,5.83,0,0,0,4.82,1.94"/></g></g></g><g class="cls-2"><path class="cls-1" d="M94.4,146.78l7.24,9.75a28.57,28.57,0,0,0-8.32-8l-7.24-9.75A28.83,28.83,0,0,1,94.4,146.78Z"/><g class="cls-11"><g class="cls-2"><path class="cls-1" d="M94.4,146.78l7.24,9.75a28.57,28.57,0,0,0-8.32-8l-7.24-9.75a28.83,28.83,0,0,1,8.32,8"/></g></g></g><g class="cls-2"><path class="cls-1" d="M83,202.74,75.73,193c-4.48-6-7.76-16.89-7.49-35l7.24,9.74C75.21,185.85,78.5,196.72,83,202.74Z"/><g class="cls-12"><g class="cls-2"><path class="cls-1" d="M68.24,158l7.24,9.74c0,2,0,4,0,5.83l-7.24-9.74c-.06-1.86-.07-3.8,0-5.83"/><path class="cls-1" d="M68.28,163.8l7.24,9.74C76,188.22,79,197.4,83,202.74L75.73,193c-4-5.34-7-14.51-7.45-29.19"/></g></g></g><polygon class="cls-1" points="81.44 207.64 88.69 217.38 12.06 217.38 4.82 207.64 81.44 207.64"/><g class="cls-2"><path class="cls-1" d="M86.35,201.22,93.59,211a3.56,3.56,0,0,1,.73,2.26c0,2.49-2.29,4.16-5.63,4.16l-7.25-9.74c3.34,0,5.59-1.67,5.63-4.17A3.54,3.54,0,0,0,86.35,201.22Z"/><g class="cls-13"><g class="cls-2"><path class="cls-1" d="M86.35,201.22,93.59,211a3.5,3.5,0,0,1,.72,2.06l-7.24-9.74a3.57,3.57,0,0,0-.72-2.06"/><path class="cls-1" d="M87.07,203.28,94.31,213a1.34,1.34,0,0,1,0,.2,4.53,4.53,0,0,1,0,.53L87,204a4.73,4.73,0,0,0,0-.54v-.19"/><path class="cls-1" d="M87,204l7.24,9.74a4.88,4.88,0,0,1-.12.55l-7.25-9.74A3.39,3.39,0,0,0,87,204"/><path class="cls-1" d="M86.9,204.56l7.25,9.74a3.43,3.43,0,0,1-.19.48L86.71,205a2.53,2.53,0,0,0,.19-.48"/><path class="cls-1" d="M86.71,205,94,214.78a3.59,3.59,0,0,1-.27.47l-7.25-9.74a2.48,2.48,0,0,0,.27-.47"/><path class="cls-1" d="M86.44,205.51l7.25,9.74a3,3,0,0,1-.42.52L86,206a3.42,3.42,0,0,0,.42-.52"/><path class="cls-1" d="M86,206l7.25,9.74a6.29,6.29,0,0,1-4.58,1.61l-7.25-9.74A6.26,6.26,0,0,0,86,206"/></g></g></g><g class="cls-2"><path class="cls-1" d="M146.1,140.15l7.25,9.75c21,28.25,29.18,79.45,48.21,105l-7.25-9.74C175.28,219.61,167.12,168.41,146.1,140.15Z"/><g class="cls-14"><g class="cls-2"><path class="cls-1" d="M146.1,140.15l7.25,9.75c21,28.25,29.18,79.45,48.21,105l-7.25-9.74c-19-25.59-27.19-76.79-48.21-105"/></g></g></g><g class="cls-2"><path class="cls-1" d="M506.35,18.5l7.25,9.74c-4.76-6.39-11.71-10.36-21.84-10.36-13.37,0-17.12,8.6-17.23,15.55-.25,17.47-16,26.35-24.62,26.35-8.9,0-15.69-3.44-19.48-8.54l-7.25-9.75C427,46.59,433.76,50,442.66,50c8.64,0,24.37-8.88,24.63-26.36.1-6.94,3.85-15.54,17.22-15.54C494.64,8.14,501.59,12.1,506.35,18.5Z"/><g class="cls-15"><g class="cls-2"><path class="cls-1" d="M506.35,18.5l7.25,9.74c-4.76-6.39-11.71-10.36-21.84-10.36-6.29,0-10.45,1.91-13.1,4.64l-7.25-9.74c2.65-2.74,6.81-4.64,13.1-4.64,10.13,0,17.08,4,21.84,10.36"/><path class="cls-1" d="M471.41,12.78l7.25,9.74a13.25,13.25,0,0,0-1.48,1.82l-7.24-9.74a12.6,12.6,0,0,1,1.47-1.82"/><path class="cls-1" d="M469.94,14.6l7.24,9.74a13.86,13.86,0,0,0-1,1.83l-7.25-9.74a13.93,13.93,0,0,1,1.05-1.83"/><path class="cls-1" d="M468.89,16.43l7.25,9.74a16.55,16.55,0,0,0-.81,2.08l-7.25-9.74a16,16,0,0,1,.81-2.08"/><path class="cls-1" d="M468.08,18.51l7.25,9.74a18.45,18.45,0,0,0-.59,2.58l-7.24-9.74a18.09,18.09,0,0,1,.58-2.58"/><path class="cls-1" d="M467.5,21.09l7.24,9.74a21.17,21.17,0,0,0-.21,2.6,28.18,28.18,0,0,1-.3,3.74L467,27.43a28.17,28.17,0,0,0,.31-3.75,19.36,19.36,0,0,1,.21-2.59"/><path class="cls-1" d="M467,27.43l7.25,9.74a25.86,25.86,0,0,1-.88,3.88l-7.25-9.74a26.14,26.14,0,0,0,.88-3.88"/><path class="cls-1" d="M466.1,31.31l7.25,9.74A27.31,27.31,0,0,1,472,44.47l-7.25-9.74a24.55,24.55,0,0,0,1.34-3.42"/><path class="cls-1" d="M464.76,34.73,472,44.47a25.68,25.68,0,0,1-1.93,3.37l-7.24-9.74a25.15,25.15,0,0,0,1.92-3.37"/><path class="cls-1" d="M462.84,38.1l7.24,9.74a27,27,0,0,1-3,3.68l-7.24-9.75a27.64,27.64,0,0,0,3-3.67"/><path class="cls-1" d="M459.85,41.77l7.24,9.75c-5.32,5.49-12.36,8.26-17.18,8.26-8.9,0-15.69-3.44-19.48-8.54l-7.25-9.75C427,46.59,433.76,50,442.66,50c4.83,0,11.87-2.77,17.19-8.27"/></g></g></g><g class="cls-2"><path class="cls-1" d="M282.22,227.49l7.25,9.74c10.8,14.52-2.59,42.57-60.43,42.57-41,0-66.21-18.86-83.71-42.38l-7.25-9.75c17.5,23.53,42.75,42.39,83.71,42.39C279.63,270.06,293,242,282.22,227.49Z"/><g class="cls-16"><g class="cls-2"><path class="cls-1" d="M282.22,227.49l7.25,9.74a17.14,17.14,0,0,1,3.41,9.73l-7.25-9.74a17.07,17.07,0,0,0-3.41-9.73"/><path class="cls-1" d="M285.63,237.22l7.25,9.74a18.07,18.07,0,0,1-.2,3.27l-7.24-9.74a18.1,18.1,0,0,0,.19-3.27"/><path class="cls-1" d="M285.44,240.49l7.24,9.74a19.08,19.08,0,0,1-.66,2.89l-7.24-9.74a21.84,21.84,0,0,0,.66-2.89"/><path class="cls-1" d="M284.78,243.38l7.24,9.74a21.08,21.08,0,0,1-1.16,2.94l-7.24-9.74a22.4,22.4,0,0,0,1.16-2.94"/><path class="cls-1" d="M283.62,246.32l7.24,9.74a23.59,23.59,0,0,1-1.84,3.19l-7.24-9.74a25.39,25.39,0,0,0,1.84-3.19"/><path class="cls-1" d="M281.78,249.51l7.24,9.74a28.77,28.77,0,0,1-3.29,4l-7.24-9.74a30.28,30.28,0,0,0,3.29-4"/><path class="cls-1" d="M278.49,253.49l7.24,9.74c-9,9.17-27,16.57-56.69,16.57-41,0-66.21-18.86-83.71-42.38l-7.25-9.75c17.5,23.53,42.75,42.39,83.71,42.39,29.72,0,47.7-7.4,56.7-16.57"/></g></g></g><g class="cls-2"><path class="cls-1" d="M445.83,78l7.24,9.74c-1.9-2.55-5.53-4.11-11.87-4.11-25.41,0-37.81,65.94-15.52,95.91l-7.25-9.74c-22.29-30-9.89-95.91,15.52-95.91C440.29,73.9,443.92,75.45,445.83,78Z"/><g class="cls-17"><g class="cls-2"><path class="cls-1" d="M445.83,78l7.24,9.74c-1.9-2.55-5.53-4.11-11.87-4.11-4.6,0-8.77,2.16-12.39,5.87l-7.24-9.74c3.62-3.72,7.79-5.87,12.38-5.87,6.34,0,10,1.55,11.88,4.11"/><path class="cls-1" d="M421.57,79.77l7.24,9.74a33.45,33.45,0,0,0-3.69,4.6l-7.25-9.75a33.24,33.24,0,0,1,3.7-4.59"/><path class="cls-1" d="M417.87,84.36l7.25,9.75a47.37,47.37,0,0,0-3.47,6.16l-7.25-9.75a48.72,48.72,0,0,1,3.47-6.16"/><path class="cls-1" d="M414.4,90.52l7.25,9.75a67.32,67.32,0,0,0-3.48,9l-7.24-9.74a66.64,66.64,0,0,1,3.47-9"/><path class="cls-1" d="M410.93,99.56l7.24,9.74a89.63,89.63,0,0,0-2.95,13.1L408,112.66a89.63,89.63,0,0,1,3-13.1"/><path class="cls-1" d="M408,112.66l7.25,9.74a102.77,102.77,0,0,0-1.09,18.39l-7.25-9.74A103.71,103.71,0,0,1,408,112.66"/><path class="cls-1" d="M406.88,131.05l7.25,9.74c.45,14.41,4,28.64,11.55,38.76l-7.25-9.74c-7.53-10.12-11.1-24.35-11.55-38.76"/></g></g></g><g class="cls-2"><path class="cls-1" d="M473.76,83.65,481,93.4a41.93,41.93,0,0,1,8.15,25.75c-.2,13.88-10.33,20.26-20.36,20.26-6.17,0-12.3-2.44-15.93-7.32l-7.24-9.74c3.63,4.88,9.76,7.32,15.92,7.32,10,0,20.16-6.38,20.37-20.26A42.06,42.06,0,0,0,473.76,83.65Z"/><g class="cls-18"><g class="cls-2"><path class="cls-1" d="M473.76,83.65,481,93.4a41.78,41.78,0,0,1,8.13,23.7l-7.24-9.74a41.85,41.85,0,0,0-8.14-23.71"/><path class="cls-1" d="M481.9,107.36l7.24,9.74c0,.68,0,1.37,0,2.05a26.15,26.15,0,0,1-.28,3.52l-7.25-9.74a26.25,26.25,0,0,0,.29-3.52c0-.68,0-1.37,0-2"/><path class="cls-1" d="M481.63,112.93l7.25,9.74a22,22,0,0,1-.74,3.29l-7.25-9.74a22,22,0,0,0,.74-3.29"/><path class="cls-1" d="M480.89,116.22l7.25,9.74a19.6,19.6,0,0,1-1,2.66l-7.25-9.74a20.13,20.13,0,0,0,1-2.66"/><path class="cls-1" d="M479.85,118.88l7.25,9.74a18.51,18.51,0,0,1-1.36,2.39l-7.25-9.75a18.38,18.38,0,0,0,1.36-2.38"/><path class="cls-1" d="M478.49,121.26l7.25,9.75a18.82,18.82,0,0,1-2,2.43l-7.25-9.75a16.2,16.2,0,0,0,2-2.43"/><path class="cls-1" d="M476.52,123.69l7.25,9.75a20.72,20.72,0,0,1-15,6c-6.17,0-12.3-2.44-15.93-7.32l-7.24-9.74c3.63,4.88,9.76,7.32,15.92,7.32a20.68,20.68,0,0,0,15-6"/></g></g></g><g class="cls-2"><path class="cls-1" d="M551.39,28.65l7.24,9.74c8.87,11.92,14.34,28,14,49.13l-7.24-9.74C565.73,56.63,560.25,40.57,551.39,28.65Z"/><g class="cls-19"><g class="cls-2"><path class="cls-1" d="M551.39,28.65l7.24,9.74c8.13,10.93,13.41,25.34,14,44l-7.24-9.75c-.58-18.63-5.87-33-14-44"/><path class="cls-1" d="M565.38,72.62l7.24,9.75c0,1.68.07,3.4,0,5.15l-7.24-9.74c0-1.75,0-3.47,0-5.16"/></g></g></g><polygon class="cls-1" points="565.42 77.78 572.66 87.53 572.44 102.51 565.2 92.77 565.42 77.78"/><g class="cls-2"><path class="cls-1" d="M481.51,167.94l7.24,9.74a1.87,1.87,0,0,1,.37,1.13l-7.25-9.75A1.78,1.78,0,0,0,481.51,167.94Z"/><g class="cls-20"><g class="cls-2"><path class="cls-1" d="M481.51,167.94l7.24,9.74a1.83,1.83,0,0,1,.37,1L481.87,169a1.82,1.82,0,0,0-.36-1"/><path class="cls-1" d="M481.87,169l7.25,9.74v.09l-7.25-9.75V169"/></g></g></g><g class="cls-2"><path class="cls-1" d="M597.35,91.85l7.25,9.75a13.19,13.19,0,0,0-11.16-5.75c-10.87,0-20.21,9.71-21.28,26.08l-7.25-9.75c1.07-16.36,10.42-26.07,21.28-26.07A13.17,13.17,0,0,1,597.35,91.85Z"/><g class="cls-21"><g class="cls-2"><path class="cls-1" d="M597.35,91.85l7.25,9.75a13.19,13.19,0,0,0-11.16-5.75,18.46,18.46,0,0,0-13.39,5.88L572.81,92a18.46,18.46,0,0,1,13.38-5.88,13.17,13.17,0,0,1,11.16,5.74"/><path class="cls-1" d="M572.81,92l7.24,9.74a23.59,23.59,0,0,0-2.59,3.21l-7.25-9.74a23.79,23.79,0,0,1,2.6-3.21"/><path class="cls-1" d="M570.21,95.2l7.25,9.74a27.39,27.39,0,0,0-2,3.54l-7.24-9.75a27.9,27.9,0,0,1,2-3.53"/><path class="cls-1" d="M568.21,98.73l7.24,9.75a30.23,30.23,0,0,0-1.64,4.23L566.56,103a32.21,32.21,0,0,1,1.65-4.24"/><path class="cls-1" d="M566.56,103l7.25,9.74a36.94,36.94,0,0,0-1.26,5.57l-7.25-9.74a37.9,37.9,0,0,1,1.26-5.57"/><path class="cls-1" d="M565.3,108.54l7.25,9.74c-.18,1.17-.31,2.39-.39,3.65l-7.25-9.75c.08-1.25.21-2.47.39-3.64"/></g></g></g><g class="cls-2"><path class="cls-1" d="M375.6,192.75,368.36,183c11.36,15.26,30.23,25.73,56.92,25.73,28.15,0,51.77-14.7,56.59-39.68l7.25,9.75c-4.83,25-28.45,39.67-56.59,39.67C405.83,218.48,387,208,375.6,192.75Z"/><g class="cls-22"><g class="cls-2"><path class="cls-1" d="M481.87,169.06l7.25,9.75a48.45,48.45,0,0,1-1.23,4.92L480.64,174a46.12,46.12,0,0,0,1.23-4.93"/><path class="cls-1" d="M480.64,174l7.25,9.74a44.81,44.81,0,0,1-2.33,6l-7.24-9.74a44.78,44.78,0,0,0,2.32-5.95"/><path class="cls-1" d="M478.32,179.94l7.24,9.74a43.61,43.61,0,0,1-3.25,5.69l-7.24-9.74a44.79,44.79,0,0,0,3.25-5.69"/><path class="cls-1" d="M475.07,185.63l7.24,9.74a44.73,44.73,0,0,1-5,6.16l-7.25-9.74a45.55,45.55,0,0,0,5-6.16"/><path class="cls-1" d="M470.06,191.79l7.25,9.74c-10.57,10.91-26.74,16.95-44.78,16.95-26.7,0-45.57-10.46-56.93-25.73L368.36,183c11.36,15.26,30.23,25.73,56.92,25.73,18,0,34.22-6,44.78-17"/></g></g></g><polygon class="cls-1" points="564.91 112.19 572.16 121.93 571.48 167.71 564.24 157.97 564.91 112.19"/><g class="cls-2"><path class="cls-1" d="M503.25,215.45,496,205.71a5.84,5.84,0,0,0,4.81,1.93l7.24,9.74A5.82,5.82,0,0,1,503.25,215.45Z"/><g class="cls-23"><g class="cls-2"><path class="cls-1" d="M500.81,207.64l7.24,9.74a5.82,5.82,0,0,1-4.8-1.93L496,205.71a5.84,5.84,0,0,0,4.81,1.93"/></g></g></g><g class="cls-2"><path class="cls-1" d="M694,96.22l-7.25-9.74a11.73,11.73,0,0,0,3.33,2.68l7.25,9.75A11.46,11.46,0,0,1,694,96.22Z"/><g class="cls-24"><g class="cls-2"><path class="cls-1" d="M690.08,89.16l7.25,9.75A11.46,11.46,0,0,1,694,96.22l-7.25-9.74a11.73,11.73,0,0,0,3.33,2.68"/></g></g></g><g class="cls-2"><path class="cls-1" d="M642,81.81l7.25,9.74c6,8.09,9.58,20,12.31,36.48l-7.24-9.74C651.54,101.76,648,89.9,642,81.81Z"/><g class="cls-25"><g class="cls-2"><path class="cls-1" d="M642,81.81l7.25,9.74c6,8.09,9.58,20,12.31,36.48l-7.24-9.74C651.54,101.76,648,89.9,642,81.81"/></g></g></g><g class="cls-2"><path class="cls-1" d="M692.55,91.32l7.25,9.74a7.28,7.28,0,0,0-2.47-2.15l-7.25-9.75A7.32,7.32,0,0,1,692.55,91.32Z"/><g class="cls-26"><g class="cls-2"><path class="cls-1" d="M692.55,91.32l7.25,9.74a7.28,7.28,0,0,0-2.47-2.15l-7.25-9.75a7.32,7.32,0,0,1,2.47,2.16"/></g></g></g><g class="cls-2"><path class="cls-1" d="M579.22,202.7,572,193c-4.48-6-7.8-16.89-7.73-35l7.24,9.74C571.41,185.81,574.74,196.68,579.22,202.7Z"/><g class="cls-27"><g class="cls-2"><path class="cls-1" d="M564.24,158l7.24,9.74c0,1.59,0,3.13.06,4.61l-7.24-9.74c0-1.48-.07-3-.06-4.61"/><path class="cls-1" d="M564.3,162.58l7.24,9.74c.47,15.37,3.59,24.89,7.68,30.38L572,193c-4.08-5.49-7.21-15-7.67-30.38"/></g></g></g><g class="cls-2"><path class="cls-1" d="M744.52,64.66l7.24,9.74a2.78,2.78,0,0,1,.52,1.75L745,66.41A2.82,2.82,0,0,0,744.52,64.66Z"/><g class="cls-28"><g class="cls-2"><path class="cls-1" d="M744.52,64.66l7.24,9.74a2.72,2.72,0,0,1,.52,1.59L745,66.24a2.71,2.71,0,0,0-.51-1.58"/><path class="cls-1" d="M745,66.24,752.28,76v.16L745,66.41a1,1,0,0,0,0-.17"/></g></g></g><polygon class="cls-1" points="578 207.64 585.25 217.38 508.06 217.38 500.81 207.64 578 207.64"/><g class="cls-2"><path class="cls-1" d="M582.63,201.22l7.25,9.75a3.58,3.58,0,0,1,.72,2.25c0,2.49-2.29,4.16-5.35,4.16L578,207.64c3.06,0,5.31-1.67,5.35-4.17A3.54,3.54,0,0,0,582.63,201.22Z"/><g class="cls-29"><g class="cls-2"><path class="cls-1" d="M582.63,201.22l7.25,9.75a3.59,3.59,0,0,1,.72,2.05l-7.25-9.74a3.5,3.5,0,0,0-.72-2.06"/><path class="cls-1" d="M583.35,203.28,590.6,213v.2a4.53,4.53,0,0,1-.05.53L583.31,204a4.56,4.56,0,0,0,0-.54v-.19"/><path class="cls-1" d="M583.31,204l7.24,9.74a5.05,5.05,0,0,1-.12.56l-7.25-9.74a3.5,3.5,0,0,0,.13-.56"/><path class="cls-1" d="M583.18,204.57l7.25,9.74a4.19,4.19,0,0,1-.2.49L583,205.06a4.14,4.14,0,0,0,.19-.49"/><path class="cls-1" d="M583,205.06l7.24,9.74a3.72,3.72,0,0,1-.27.48l-7.25-9.74a2.87,2.87,0,0,0,.28-.48"/><path class="cls-1" d="M582.71,205.54l7.25,9.74a4.43,4.43,0,0,1-.43.54l-7.25-9.75a3.12,3.12,0,0,0,.43-.53"/><path class="cls-1" d="M582.28,206.07l7.25,9.75a5.92,5.92,0,0,1-4.28,1.56L578,207.64a5.87,5.87,0,0,0,4.28-1.57"/></g></g></g><g class="cls-2"><path class="cls-1" d="M781.84,96.41l-7.25-9.74a9.09,9.09,0,0,0,3.26,2.49l7.25,9.75A9.22,9.22,0,0,1,781.84,96.41Z"/><g class="cls-30"><g class="cls-2"><path class="cls-1" d="M777.85,89.16l7.25,9.75a9.22,9.22,0,0,1-3.26-2.5l-7.25-9.74a9.09,9.09,0,0,0,3.26,2.49"/></g></g></g><g class="cls-2"><path class="cls-1" d="M780.44,91.44l7.24,9.75a7.75,7.75,0,0,0-2.58-2.28l-7.25-9.75A8.11,8.11,0,0,1,780.44,91.44Z"/><g class="cls-31"><g class="cls-2"><path class="cls-1" d="M780.44,91.44l7.24,9.75a7.75,7.75,0,0,0-2.58-2.28l-7.25-9.75a8.11,8.11,0,0,1,2.59,2.28"/></g></g></g><polygon class="cls-1" points="654.26 118.29 661.51 128.03 673.3 197.96 666.06 188.22 654.26 118.29"/><g class="cls-2"><path class="cls-1" d="M832.29,64.65l7.24,9.74a2.79,2.79,0,0,1,.52,1.76l-7.24-9.74A2.85,2.85,0,0,0,832.29,64.65Z"/><g class="cls-32"><g class="cls-2"><path class="cls-1" d="M832.29,64.65l7.24,9.74a2.78,2.78,0,0,1,.52,1.6l-7.24-9.75a2.82,2.82,0,0,0-.52-1.59"/><path class="cls-1" d="M832.81,66.24,840.05,76v.16l-7.24-9.74v-.17"/></g></g></g><polygon class="cls-1" points="745.04 66.41 752.28 76.15 750.8 177.15 743.55 167.41 745.04 66.41"/><g class="cls-2"><path class="cls-1" d="M755.53,198.4l-7.25-9.74c-3-4-4.88-10.84-4.73-21.25l7.25,9.74C750.64,187.56,752.52,194.36,755.53,198.4Z"/><g class="cls-33"><g class="cls-2"><path class="cls-1" d="M743.55,167.41l7.25,9.74c0,1.16,0,2.29,0,3.36l-7.24-9.74c0-1.08,0-2.2,0-3.36"/><path class="cls-1" d="M743.58,170.77l7.24,9.74c.26,8.54,2,14.31,4.71,17.89l-7.25-9.74c-2.67-3.59-4.45-9.35-4.7-17.89"/></g></g></g><g class="cls-2"><path class="cls-1" d="M692.88,254.68l-7.25-9.74c-11.14-15-16.43-38-19.57-56.72L673.3,198C676.45,216.68,681.73,239.7,692.88,254.68Z"/><g class="cls-34"><g class="cls-2"><path class="cls-1" d="M666.06,188.22,673.3,198c3.15,18.72,8.43,41.74,19.58,56.72l-7.25-9.74c-11.14-15-16.43-38-19.57-56.72"/></g></g></g><g class="cls-2"><path class="cls-1" d="M710.11,200.88l-7.25-9.75c8.45,11.37,23,17.89,40.64,17.89a45.3,45.3,0,0,0,38.77-21.92l7.25,9.74a45.32,45.32,0,0,1-38.78,21.92C733.07,218.76,718.56,212.24,710.11,200.88Z"/><g class="cls-35"><g class="cls-2"><path class="cls-1" d="M782.27,187.1l7.25,9.74c-.34.55-.69,1.1-1.06,1.63l-7.24-9.74c.36-.54.71-1.08,1-1.63"/><path class="cls-1" d="M781.22,188.73l7.24,9.74a47.37,47.37,0,0,1-5.23,6.46L776,195.19a48,48,0,0,0,5.23-6.46"/><path class="cls-1" d="M776,195.19l7.24,9.74a44.72,44.72,0,0,1-32.49,13.83c-17.67,0-32.18-6.52-40.63-17.88l-7.25-9.75c8.45,11.37,23,17.89,40.64,17.89A44.76,44.76,0,0,0,776,195.19"/></g></g></g><polygon class="cls-1" points="832.81 66.41 840.05 76.15 838.48 182.97 831.24 173.23 832.81 66.41"/><g class="cls-2"><path class="cls-1" d="M791.62,212.92l-7.25-9.74c2.41,3.23,6.59,5.36,11.74,5.36.57,0,1.14,0,1.73-.07l7.25,9.74c-.59,0-1.17.08-1.74.08C798.2,218.29,794,216.15,791.62,212.92Z"/><g class="cls-36"><g class="cls-2"><path class="cls-1" d="M797.84,208.47l7.25,9.74c-.59,0-1.17.08-1.74.08-5.15,0-9.33-2.14-11.73-5.37l-7.25-9.74c2.41,3.23,6.59,5.36,11.74,5.36.57,0,1.14,0,1.73-.07"/></g></g></g><g class="cls-2"><path class="cls-1" d="M841.09,194.89l-7.25-9.74c-2.47-3.32-2.66-8.36-2.6-11.92l7.24,9.74C838.43,186.53,838.62,191.57,841.09,194.89Z"/><g class="cls-37"><g class="cls-2"><path class="cls-1" d="M831.24,173.23l7.24,9.74c0,.69,0,1.45,0,2.23l-7.25-9.74c0-.78,0-1.54,0-2.23"/><path class="cls-1" d="M831.25,175.46l7.25,9.74c.09,3.24.6,7,2.59,9.69l-7.25-9.74c-2-2.67-2.49-6.45-2.59-9.69"/></g></g></g><polygon class="cls-1" points="847.9 196.25 855.14 206 805.09 218.21 797.84 208.47 847.9 196.25"/><g class="cls-2"><path class="cls-1" d="M849.39,189.92l7.24,9.74c1.65,2.22,1.23,5.8-1.49,6.34l-7.24-9.74C850.62,195.72,851,192.13,849.39,189.92Z"/><g class="cls-38"><g class="cls-2"><path class="cls-1" d="M849.39,189.92l7.24,9.74a5,5,0,0,1,1,2.79l-7.24-9.74a5.14,5.14,0,0,0-1-2.79"/><path class="cls-1" d="M850.36,192.71l7.24,9.74a4.57,4.57,0,0,1,0,.83l-7.25-9.74a4.57,4.57,0,0,0,.05-.83"/><path class="cls-1" d="M850.31,193.54l7.25,9.74a5.27,5.27,0,0,1-.14.6l-7.25-9.74a3.75,3.75,0,0,0,.14-.6"/><path class="cls-1" d="M850.17,194.14l7.25,9.74a2.53,2.53,0,0,1-.19.48L850,194.62a3.41,3.41,0,0,0,.18-.48"/><path class="cls-1" d="M850,194.62l7.24,9.74a4.16,4.16,0,0,1-.23.42L849.75,195a2.86,2.86,0,0,0,.24-.42"/><path class="cls-1" d="M849.75,195l7.25,9.74a3.29,3.29,0,0,1-.33.41l-7.25-9.74a4.23,4.23,0,0,0,.33-.41"/><path class="cls-1" d="M849.42,195.45l7.25,9.74a3,3,0,0,1-1.53.81l-7.24-9.74a3,3,0,0,0,1.52-.81"/></g></g></g><g class="cls-2"><path class="cls-1" d="M775.7,227.48l7.25,9.74c10.79,14.51-2.64,42.58-60.69,42.58-25.73,0-58.32-9.35-79.52-37.84l-7.24-9.74c21.19,28.49,53.79,37.84,79.51,37.84C773.06,270.06,786.5,242,775.7,227.48Z"/><g class="cls-39"><g class="cls-2"><path class="cls-1" d="M775.7,227.48l7.25,9.74a17.17,17.17,0,0,1,3.4,9.71l-7.25-9.74a17.07,17.07,0,0,0-3.4-9.71"/><path class="cls-1" d="M779.1,237.19l7.25,9.74a19,19,0,0,1-.19,3.26l-7.25-9.74a18,18,0,0,0,.19-3.26"/><path class="cls-1" d="M778.91,240.45l7.25,9.74a20.42,20.42,0,0,1-.67,2.89l-7.24-9.75a19,19,0,0,0,.66-2.88"/><path class="cls-1" d="M778.25,243.33l7.24,9.75a20.89,20.89,0,0,1-1.15,2.93l-7.25-9.74a21.08,21.08,0,0,0,1.16-2.94"/><path class="cls-1" d="M777.09,246.27l7.25,9.74a24.6,24.6,0,0,1-1.84,3.18l-7.25-9.74a23.49,23.49,0,0,0,1.84-3.18"/><path class="cls-1" d="M775.25,249.45l7.25,9.74a29,29,0,0,1-3.29,4L772,253.43a28.19,28.19,0,0,0,3.29-4"/><path class="cls-1" d="M772,253.43l7.25,9.75c-9,9.19-27.08,16.62-57,16.62-25.73,0-58.32-9.35-79.52-37.84l-7.24-9.74c21.19,28.49,53.79,37.84,79.51,37.84,29.88,0,47.93-7.43,57-16.63"/></g></g></g><g class="cls-2"><path class="cls-1" d="M872.45,91.42l7.25,9.74a7.35,7.35,0,0,0-2.64-2.25,8.29,8.29,0,0,1-2.95-2.28l-7.25-9.75a8.16,8.16,0,0,0,2.95,2.28A7.4,7.4,0,0,1,872.45,91.42Z"/><g class="cls-40"><g class="cls-2"><path class="cls-1" d="M872.45,91.42l7.25,9.74a7.35,7.35,0,0,0-2.64-2.25,8.29,8.29,0,0,1-2.95-2.28l-7.25-9.75a8.16,8.16,0,0,0,2.95,2.28,7.4,7.4,0,0,1,2.64,2.26"/></g></g></g><g class="cls-2"><path class="cls-1" d="M924.54,64.7l7.25,9.75a2.7,2.7,0,0,1,.5,1.7L925,66.41A2.75,2.75,0,0,0,924.54,64.7Z"/><g class="cls-41"><g class="cls-2"><path class="cls-1" d="M924.54,64.7l7.25,9.75a2.67,2.67,0,0,1,.5,1.54L925,66.25a2.7,2.7,0,0,0-.5-1.55"/><path class="cls-1" d="M925,66.25,932.29,76v.16L925,66.41v-.16"/></g></g></g><polygon class="cls-1" points="925.04 66.41 932.29 76.15 932 96.13 924.75 86.38 925.04 66.41"/><g class="cls-2"><path class="cls-1" d="M951.18,92.19l7.25,9.75a13.88,13.88,0,0,0-11.66-6.09c-8.64,0-13.47,6.38-15,17.76l-7.25-9.74c1.57-11.38,6.4-17.76,15-17.76A13.84,13.84,0,0,1,951.18,92.19Z"/><g class="cls-42"><g class="cls-2"><path class="cls-1" d="M951.18,92.19l7.25,9.75a13.88,13.88,0,0,0-11.66-6.09,12.51,12.51,0,0,0-9.43,3.79l-7.25-9.75a12.55,12.55,0,0,1,9.43-3.78,13.84,13.84,0,0,1,11.66,6.08"/><path class="cls-1" d="M930.09,89.89l7.25,9.75a13.85,13.85,0,0,0-1.61,2l-7.24-9.74a14.46,14.46,0,0,1,1.6-2"/><path class="cls-1" d="M928.49,91.89l7.24,9.74a18,18,0,0,0-1.36,2.41l-7.25-9.74a18,18,0,0,1,1.37-2.41"/><path class="cls-1" d="M927.12,94.3l7.25,9.74a25.68,25.68,0,0,0-1.3,3.35l-7.24-9.74a24.33,24.33,0,0,1,1.29-3.35"/><path class="cls-1" d="M925.83,97.65l7.24,9.74a37.75,37.75,0,0,0-1.24,5.6l-7.25-9.75a37.86,37.86,0,0,1,1.25-5.59"/><path class="cls-1" d="M924.58,103.24l7.25,9.75-.09.62-7.25-9.74.09-.63"/></g></g></g><polygon class="cls-1" points="924.49 103.87 931.74 113.61 930.94 167.71 923.7 157.97 924.49 103.87"/><g class="cls-2"><path class="cls-1" d="M862.43,215.45l-7.24-9.74a5.81,5.81,0,0,0,4.8,1.93l7.25,9.74A5.84,5.84,0,0,1,862.43,215.45Z"/><g class="cls-43"><g class="cls-2"><path class="cls-1" d="M860,207.64l7.25,9.74a5.84,5.84,0,0,1-4.81-1.93l-7.24-9.74a5.81,5.81,0,0,0,4.8,1.93"/></g></g></g><g class="cls-2"><path class="cls-1" d="M995.46,81.68l7.25,9.74c3.7,5,6.5,11.39,8.77,19.41l-7.25-9.74C1002,93.07,999.17,86.66,995.46,81.68Z"/><g class="cls-44"><g class="cls-2"><path class="cls-1" d="M995.46,81.68l7.25,9.74c3.7,5,6.5,11.39,8.77,19.41l-7.25-9.74c-2.26-8-5.06-14.43-8.77-19.41"/></g></g></g><g class="cls-2"><path class="cls-1" d="M1042.18,92.11l7.24,9.74a13.69,13.69,0,0,0-11.53-6c-11.15,0-22.5,13.31-23,30.52a3.56,3.56,0,0,0,.26,1.66l-7.25-9.74a3.44,3.44,0,0,1-.25-1.66c.53-17.21,11.88-30.52,23-30.52A13.69,13.69,0,0,1,1042.18,92.11Z"/><g class="cls-45"><g class="cls-2"><path class="cls-1" d="M1042.18,92.11l7.24,9.74a13.69,13.69,0,0,0-11.53-6c-4.75,0-9.53,2.41-13.5,6.51l-7.24-9.74c4-4.1,8.75-6.51,13.49-6.51a13.69,13.69,0,0,1,11.54,6"/><path class="cls-1" d="M1017.15,92.62l7.24,9.74a29.84,29.84,0,0,0-3.32,4.13l-7.25-9.75a30.4,30.4,0,0,1,3.33-4.12"/><path class="cls-1" d="M1013.82,96.74l7.25,9.75a33.48,33.48,0,0,0-2.53,4.44l-7.25-9.75a34.8,34.8,0,0,1,2.53-4.44"/><path class="cls-1" d="M1011.29,101.18l7.25,9.75a36.25,36.25,0,0,0-1.94,5l-7.24-9.75a38.67,38.67,0,0,1,1.93-5"/><path class="cls-1" d="M1009.36,106.14l7.24,9.75a39.88,39.88,0,0,0-1.31,5.73l-7.24-9.74a38.72,38.72,0,0,1,1.31-5.74"/><path class="cls-1" d="M1008.05,111.88l7.24,9.74a40.89,40.89,0,0,0-.43,4.75v.5l-7.24-9.74c0-.17,0-.33,0-.5a38.63,38.63,0,0,1,.43-4.75"/><path class="cls-1" d="M1007.62,117.13l7.24,9.74a2.87,2.87,0,0,0,.26,1.16l-7.25-9.74a2.73,2.73,0,0,1-.25-1.16"/></g></g></g><g class="cls-2"><path class="cls-1" d="M938.43,202.74,931.19,193c-4.48-6-7.76-16.89-7.49-35l7.24,9.74C930.68,185.85,934,196.72,938.43,202.74Z"/><g class="cls-46"><g class="cls-2"><path class="cls-1" d="M923.7,158l7.24,9.74c0,2,0,4,0,5.83l-7.25-9.74c-.06-1.85-.07-3.8,0-5.83"/><path class="cls-1" d="M923.74,163.8l7.25,9.74c.44,14.69,3.47,23.86,7.44,29.2L931.19,193c-4-5.34-7-14.51-7.45-29.19"/></g></g></g><polygon class="cls-1" points="937.18 207.64 944.43 217.38 867.24 217.38 859.99 207.64 937.18 207.64"/><g class="cls-2"><path class="cls-1" d="M941.81,201.22l7.25,9.75a3.52,3.52,0,0,1,.72,2.25c0,2.49-2.29,4.16-5.35,4.16l-7.25-9.74c3.06,0,5.32-1.67,5.35-4.17A3.48,3.48,0,0,0,941.81,201.22Z"/><g class="cls-47"><g class="cls-2"><path class="cls-1" d="M941.81,201.22l7.25,9.75a3.52,3.52,0,0,1,.72,2.05l-7.25-9.74a3.5,3.5,0,0,0-.72-2.06"/><path class="cls-1" d="M942.53,203.28l7.25,9.74v.2a4.55,4.55,0,0,1,0,.53L942.49,204a3.12,3.12,0,0,0,0-.54v-.19"/><path class="cls-1" d="M942.49,204l7.25,9.74a5.07,5.07,0,0,1-.13.56l-7.25-9.74a3.5,3.5,0,0,0,.13-.56"/><path class="cls-1" d="M942.36,204.57l7.25,9.74a4.14,4.14,0,0,1-.19.49l-7.25-9.74a2.92,2.92,0,0,0,.19-.49"/><path class="cls-1" d="M942.17,205.06l7.25,9.74a3.77,3.77,0,0,1-.28.48l-7.24-9.74a3.72,3.72,0,0,0,.27-.48"/><path class="cls-1" d="M941.9,205.54l7.24,9.74a4.43,4.43,0,0,1-.43.54l-7.25-9.75a3.75,3.75,0,0,0,.44-.53"/><path class="cls-1" d="M941.46,206.07l7.25,9.75a5.92,5.92,0,0,1-4.28,1.56l-7.25-9.74a5.85,5.85,0,0,0,4.28-1.57"/></g></g></g><polygon class="cls-1" points="1007.87 118.29 1015.12 128.03 1021.51 167.71 1014.26 157.97 1007.87 118.29"/><g class="cls-2"><path class="cls-1" d="M953.29,215.48,946,205.74a5.48,5.48,0,0,0,4.51,1.9l7.25,9.74A5.46,5.46,0,0,1,953.29,215.48Z"/><g class="cls-48"><g class="cls-2"><path class="cls-1" d="M950.55,207.64l7.25,9.74a5.46,5.46,0,0,1-4.51-1.9L946,205.74a5.48,5.48,0,0,0,4.51,1.9"/></g></g></g><g class="cls-2"><path class="cls-1" d="M1086.48,81.64l7.24,9.74c6.06,8.15,9.63,20.09,12.24,36.65l-7.25-9.74C1096.1,101.73,1092.53,89.79,1086.48,81.64Z"/><g class="cls-49"><g class="cls-2"><path class="cls-1" d="M1086.48,81.64l7.24,9.74c6.06,8.15,9.63,20.09,12.24,36.65l-7.25-9.74c-2.61-16.56-6.18-28.5-12.23-36.65"/></g></g></g><g class="cls-2"><path class="cls-1" d="M1148.78,96.46l-7.25-9.74a9.14,9.14,0,0,0,3.31,2.44l7.25,9.75A9.15,9.15,0,0,1,1148.78,96.46Z"/><g class="cls-50"><g class="cls-2"><path class="cls-1" d="M1144.84,89.16l7.25,9.75a9.15,9.15,0,0,1-3.31-2.45l-7.25-9.74a9.14,9.14,0,0,0,3.31,2.44"/></g></g></g><g class="cls-2"><path class="cls-1" d="M1147.25,91.34l7.25,9.74a7.93,7.93,0,0,0-2.41-2.17l-7.25-9.75A7.85,7.85,0,0,1,1147.25,91.34Z"/><g class="cls-51"><g class="cls-2"><path class="cls-1" d="M1147.25,91.34l7.25,9.74a7.93,7.93,0,0,0-2.41-2.17l-7.25-9.75a7.85,7.85,0,0,1,2.41,2.18"/></g></g></g><g class="cls-2"><path class="cls-1" d="M1194.38,64.6l7.25,9.74a4,4,0,0,1,.67,1.81l-7.24-9.74A4,4,0,0,0,1194.38,64.6Z"/><g class="cls-52"><g class="cls-2"><path class="cls-1" d="M1194.38,64.6l7.25,9.74a4,4,0,0,1,.67,1.81l-7.24-9.74a4,4,0,0,0-.68-1.81"/></g></g></g><g class="cls-2"><path class="cls-1" d="M1031,204.46l-7.24-9.74c-4.17-5.61-6.29-16.9-9.47-36.75l7.25,9.74C1024.68,187.56,1026.8,198.86,1031,204.46Z"/><g class="cls-53"><g class="cls-2"><path class="cls-1" d="M1014.26,158l7.25,9.74c3.17,19.85,5.29,31.15,9.46,36.75l-7.24-9.74c-4.17-5.61-6.29-16.9-9.47-36.75"/></g></g></g><polygon class="cls-1" points="1027.46 207.64 1034.7 217.38 957.8 217.38 950.55 207.64 1027.46 207.64"/><polygon class="cls-1" points="1195.06 66.41 1202.31 76.15 1204.31 91.41 1197.06 81.67 1195.06 66.41"/><g class="cls-2"><path class="cls-1" d="M1032.38,201.23l7.24,9.74a3.54,3.54,0,0,1,.72,2.25c0,2.49-2.29,4.16-5.64,4.16l-7.24-9.74c3.35,0,5.6-1.67,5.64-4.17A3.55,3.55,0,0,0,1032.38,201.23Z"/><g class="cls-54"><g class="cls-2"><path class="cls-1" d="M1032.38,201.23l7.24,9.74a3.45,3.45,0,0,1,.72,2.05l-7.25-9.74a3.44,3.44,0,0,0-.71-2.05"/><path class="cls-1" d="M1033.09,203.28l7.25,9.74v.2a3.08,3.08,0,0,1,0,.53l-7.25-9.74a4.71,4.71,0,0,0,0-.54,1.21,1.21,0,0,0,0-.19"/><path class="cls-1" d="M1033.05,204l7.25,9.74a3.39,3.39,0,0,1-.13.55l-7.24-9.74a3.37,3.37,0,0,0,.12-.55"/><path class="cls-1" d="M1032.93,204.56l7.24,9.74a3.41,3.41,0,0,1-.18.48l-7.25-9.74a3.43,3.43,0,0,0,.19-.48"/><path class="cls-1" d="M1032.74,205l7.25,9.74a3.59,3.59,0,0,1-.27.47l-7.25-9.74a4.39,4.39,0,0,0,.27-.47"/><path class="cls-1" d="M1032.47,205.51l7.25,9.74a4.33,4.33,0,0,1-.42.52l-7.25-9.74a3.42,3.42,0,0,0,.42-.52"/><path class="cls-1" d="M1032.05,206l7.25,9.74a6.31,6.31,0,0,1-4.6,1.61l-7.24-9.74a6.3,6.3,0,0,0,4.59-1.61"/></g></g></g><polygon class="cls-1" points="1098.71 118.29 1105.96 128.03 1112.63 167.71 1105.38 157.97 1098.71 118.29"/><g class="cls-2"><path class="cls-1" d="M1044.4,215.58l-7.25-9.75a5.4,5.4,0,0,0,4.52,1.81l7.25,9.74C1046.79,217.38,1045.24,216.71,1044.4,215.58Z"/><g class="cls-55"><g class="cls-2"><path class="cls-1" d="M1041.67,207.64l7.25,9.74c-2.13,0-3.68-.67-4.52-1.8l-7.25-9.75a5.4,5.4,0,0,0,4.52,1.81"/></g></g></g><g class="cls-2"><path class="cls-1" d="M1235.61,84.9l7.24,9.75c-3.59-4.83-8.12-7.68-13.67-7.68-15.61,0-21.37,13-22.66,24.42l-7.24-9.74c1.28-11.38,7-24.42,22.65-24.42C1227.48,77.23,1232,80.08,1235.61,84.9Z"/><g class="cls-56"><g class="cls-2"><path class="cls-1" d="M1235.61,84.9l7.24,9.75c-3.59-4.83-8.12-7.68-13.67-7.68-6.66,0-11.53,2.38-15,6l-7.25-9.74c3.5-3.61,8.36-6,15-6,5.55,0,10.08,2.85,13.68,7.67"/><path class="cls-1" d="M1206.91,83.21l7.25,9.74a22.23,22.23,0,0,0-2.44,3l-7.24-9.74a21.42,21.42,0,0,1,2.43-3"/><path class="cls-1" d="M1204.48,86.23l7.24,9.74a26.68,26.68,0,0,0-1.94,3.42l-7.25-9.74a26.74,26.74,0,0,1,2-3.42"/><path class="cls-1" d="M1202.53,89.65l7.25,9.74a32.09,32.09,0,0,0-1.69,4.37L1200.84,94a35.41,35.41,0,0,1,1.69-4.36"/><path class="cls-1" d="M1200.84,94l7.25,9.75a40.51,40.51,0,0,0-1.35,5.95L1199.5,100a42.24,42.24,0,0,1,1.34-6"/><path class="cls-1" d="M1199.5,100l7.24,9.74c-.08.56-.16,1.13-.22,1.68l-7.24-9.74c.06-.56.13-1.12.22-1.68"/></g></g></g><g class="cls-2"><path class="cls-1" d="M1122.09,204.46l-7.25-9.74c-4.17-5.61-6.29-16.9-9.46-36.75l7.25,9.74C1115.8,187.56,1117.92,198.86,1122.09,204.46Z"/><g class="cls-57"><g class="cls-2"><path class="cls-1" d="M1105.38,158l7.25,9.74c3.17,19.85,5.29,31.15,9.46,36.75l-7.25-9.74c-4.17-5.61-6.29-16.9-9.46-36.75"/></g></g></g><polygon class="cls-1" points="1118.58 207.64 1125.82 217.38 1048.92 217.38 1041.67 207.64 1118.58 207.64"/><g class="cls-2"><path class="cls-1" d="M1123.49,201.23l7.25,9.74a3.54,3.54,0,0,1,.72,2.25c0,2.49-2.29,4.16-5.64,4.16l-7.24-9.74c3.34,0,5.6-1.67,5.63-4.17A3.44,3.44,0,0,0,1123.49,201.23Z"/><g class="cls-58"><g class="cls-2"><path class="cls-1" d="M1123.49,201.23l7.25,9.74a3.52,3.52,0,0,1,.72,2.05l-7.25-9.74a3.45,3.45,0,0,0-.72-2.05"/><path class="cls-1" d="M1124.21,203.28l7.25,9.74v.2a4.55,4.55,0,0,1,0,.53l-7.25-9.74a3.19,3.19,0,0,0,0-.54.61.61,0,0,0,0-.19"/><path class="cls-1" d="M1124.17,204l7.25,9.74a3.39,3.39,0,0,1-.13.55l-7.24-9.74a4.88,4.88,0,0,0,.12-.55"/><path class="cls-1" d="M1124.05,204.56l7.24,9.74a2.53,2.53,0,0,1-.19.48l-7.24-9.74c.07-.15.13-.31.19-.48"/><path class="cls-1" d="M1123.86,205l7.24,9.74a2.68,2.68,0,0,1-.26.47l-7.25-9.74a4.39,4.39,0,0,0,.27-.47"/><path class="cls-1" d="M1123.59,205.51l7.25,9.74a3.6,3.6,0,0,1-.43.52l-7.24-9.74a3.42,3.42,0,0,0,.42-.52"/><path class="cls-1" d="M1123.17,206l7.24,9.74a6.28,6.28,0,0,1-4.59,1.61l-7.24-9.74a6.3,6.3,0,0,0,4.59-1.61"/></g></g></g><polygon class="cls-1" points="1199.28 101.65 1206.52 111.39 1205.56 176.59 1198.32 166.84 1199.28 101.65"/><g class="cls-2"><path class="cls-1" d="M1093,229.58l7.25,9.74a25.35,25.35,0,0,1,5,15.78,15.93,15.93,0,0,0,2.87,9.79l-7.25-9.74a16.08,16.08,0,0,1-2.87-9.79A25.27,25.27,0,0,0,1093,229.58Z"/><g class="cls-59"><g class="cls-2"><path class="cls-1" d="M1093,229.58l7.25,9.74a25.22,25.22,0,0,1,5,14.44L1098,244a25,25,0,0,0-5-14.43"/><path class="cls-1" d="M1098,244l7.25,9.75c0,.44,0,.89,0,1.34s0,.6,0,.9l-7.25-9.74c0-.3,0-.6,0-.9,0-.45,0-.9,0-1.35"/><path class="cls-1" d="M1098,246.26l7.25,9.74a15.58,15.58,0,0,0,2.86,8.89l-7.25-9.74a15.7,15.7,0,0,1-2.86-8.89"/></g></g></g><g class="cls-2"><path class="cls-1" d="M1212.64,203l-7.25-9.74c-5.09-6.84-6.69-17.4-7.07-26.4l7.24,9.75C1205.94,185.59,1207.55,196.14,1212.64,203Z"/><g class="cls-60"><g class="cls-2"><path class="cls-1" d="M1198.32,166.84l7.24,9.75c.38,9,2,19.55,7.08,26.39l-7.25-9.74c-5.09-6.84-6.69-17.4-7.07-26.4"/></g></g></g><g class="cls-2"><path class="cls-1" d="M1062.43,260.51l-7.24-9.74c7.72,10.38,26,19.29,58.58,19.29,35.67,0,78.55-17.2,83.78-69.64l7.24,9.74c-5.22,52.44-48.11,69.64-83.78,69.64C1088.41,279.8,1070.15,270.89,1062.43,260.51Z"/><g class="cls-61"><g class="cls-2"><path class="cls-1" d="M1197.55,200.42l7.24,9.74c-.16,1.63-.36,3.22-.59,4.78l-7.25-9.75c.24-1.55.44-3.15.6-4.77"/><path class="cls-1" d="M1197,205.19l7.25,9.75a86.56,86.56,0,0,1-2.87,12.72l-7.25-9.74a85.15,85.15,0,0,0,2.87-12.73"/><path class="cls-1" d="M1194.08,217.92l7.25,9.74a74.65,74.65,0,0,1-3.9,10l-7.24-9.74a74.63,74.63,0,0,0,3.89-10"/><path class="cls-1" d="M1190.19,227.93l7.24,9.74a67.41,67.41,0,0,1-5.1,8.94l-7.24-9.74a69.71,69.71,0,0,0,5.1-8.94"/><path class="cls-1" d="M1185.09,236.87l7.24,9.74a66.23,66.23,0,0,1-7.4,9.11l-7.24-9.74a67,67,0,0,0,7.4-9.11"/><path class="cls-1" d="M1177.69,246l7.24,9.74c-17,17.48-41.83,24.08-63.92,24.08-32.6,0-50.86-8.91-58.58-19.29l-7.24-9.74c7.72,10.38,26,19.29,58.58,19.29,22.09,0,47-6.6,63.92-24.08"/></g></g></g><g class="cls-2"><path class="cls-1" d="M1283.38,94.41l7.24,9.74c8.77,11.79,12.87,26.25,12.66,40.81-.54,36.35-27.56,73.8-76.33,73.8-10,0-17.22-3.6-22.16-8.6l-7.24-9.74c4.94,5,12.13,8.6,22.16,8.6,48.76,0,75.79-37.45,76.32-73.81C1296.25,120.66,1292.15,106.2,1283.38,94.41Z"/><g class="cls-62"><g class="cls-2"><path class="cls-1" d="M1283.38,94.41l7.24,9.74a65.88,65.88,0,0,1,12.63,37.44l-7.25-9.75a65.86,65.86,0,0,0-12.62-37.43"/><path class="cls-1" d="M1296,131.84l7.25,9.75c0,1.12,0,2.24,0,3.37a74.66,74.66,0,0,1-.85,10.21l-7.24-9.74a76.27,76.27,0,0,0,.84-10.22c0-1.12,0-2.24,0-3.37"/><path class="cls-1" d="M1295.19,145.43l7.24,9.74a77.52,77.52,0,0,1-2.61,11.41l-7.25-9.74a76.58,76.58,0,0,0,2.62-11.41"/><path class="cls-1" d="M1292.57,156.84l7.25,9.74a77.21,77.21,0,0,1-4,10.29l-7.24-9.74a75.82,75.82,0,0,0,4-10.29"/><path class="cls-1" d="M1288.56,167.13l7.24,9.74a75.33,75.33,0,0,1-5.56,9.75l-7.24-9.75a76.41,76.41,0,0,0,5.56-9.74"/><path class="cls-1" d="M1283,176.87l7.24,9.75a72.64,72.64,0,0,1-8.06,9.95l-7.25-9.74a73.55,73.55,0,0,0,8.07-10"/><path class="cls-1" d="M1274.93,186.83l7.25,9.74c-12.89,13.31-31.48,22.19-55.23,22.19-10,0-17.22-3.6-22.16-8.6l-7.24-9.74c4.94,5,12.13,8.6,22.16,8.6,23.74,0,42.33-8.88,55.22-22.19"/></g></g></g><g class="cls-2"><path class="cls-1" d="M1390.07,85.84l7.25,9.74a22.34,22.34,0,0,0-18.78-9.44c-22.85,0-3.34,19.15-3.55,33.57-.17,11-11,17.85-21.31,17.85-5.83,0-11.52-2.16-15.08-6.95l-7.25-9.74c3.56,4.78,9.25,6.95,15.08,6.95,10.35,0,21.15-6.82,21.31-17.85.21-14.43-19.3-33.57,3.55-33.57A22.31,22.31,0,0,1,1390.07,85.84Z"/><g class="cls-63"><g class="cls-2"><path class="cls-1" d="M1390.07,85.84l7.25,9.74a22.34,22.34,0,0,0-18.78-9.44c-5,0-8,.92-9.55,2.49l-7.25-9.74c1.6-1.58,4.57-2.49,9.55-2.49a22.31,22.31,0,0,1,18.78,9.44"/><path class="cls-1" d="M1361.74,78.89l7.25,9.74a4.53,4.53,0,0,0-.64.76l-7.24-9.74a5,5,0,0,1,.63-.76"/><path class="cls-1" d="M1361.11,79.65l7.24,9.74a4.13,4.13,0,0,0-.36.65l-7.25-9.75a4.6,4.6,0,0,1,.37-.64"/><path class="cls-1" d="M1360.74,80.29,1368,90a5,5,0,0,0-.28.71L1360.46,81a6.15,6.15,0,0,1,.28-.71"/><path class="cls-1" d="M1360.46,81l7.25,9.75a7.08,7.08,0,0,0-.21,1L1360.25,82a7.23,7.23,0,0,1,.21-1"/><path class="cls-1" d="M1360.25,82l7.25,9.74a7.59,7.59,0,0,0-.06,1.52l-7.25-9.74a9.43,9.43,0,0,1,.06-1.52"/><path class="cls-1" d="M1360.19,83.49l7.25,9.74c.29,6.66,7.21,16.89,7.54,25.61l-7.25-9.74c-.33-8.72-7.24-18.95-7.54-25.61"/><path class="cls-1" d="M1367.73,109.1l7.25,9.74c0,.29,0,.58,0,.87a19.58,19.58,0,0,1-.18,2.2l-7.25-9.74a15.92,15.92,0,0,0,.18-2.2c0-.29,0-.58,0-.87"/><path class="cls-1" d="M1367.56,112.17l7.25,9.74a14.76,14.76,0,0,1-.54,2.34l-7.24-9.74a16.55,16.55,0,0,0,.53-2.34"/><path class="cls-1" d="M1367,114.51l7.24,9.74a14.88,14.88,0,0,1-.82,2.11l-7.25-9.74a16.81,16.81,0,0,0,.83-2.11"/><path class="cls-1" d="M1366.2,116.62l7.25,9.74a16.24,16.24,0,0,1-1.21,2.11l-7.24-9.74a16.87,16.87,0,0,0,1.2-2.11"/><path class="cls-1" d="M1365,118.73l7.24,9.74a17.11,17.11,0,0,1-2,2.39l-7.24-9.74a17.85,17.85,0,0,0,2-2.39"/><path class="cls-1" d="M1363.05,121.12l7.24,9.74a23.53,23.53,0,0,1-16.61,6.7c-5.83,0-11.52-2.16-15.08-6.95l-7.25-9.75c3.56,4.79,9.25,7,15.08,7a23.54,23.54,0,0,0,16.62-6.7"/></g></g></g><g class="cls-2"><path class="cls-1" d="M1436.58,91.06l7.25,9.74c5.76,7.75,9.44,17.58,10.69,29.74l-7.25-9.75C1446,108.64,1442.35,98.81,1436.58,91.06Z"/><g class="cls-64"><g class="cls-2"><path class="cls-1" d="M1436.58,91.06l7.25,9.74c5.76,7.75,9.44,17.58,10.69,29.74l-7.25-9.75c-1.25-12.15-4.92-22-10.69-29.73"/></g></g></g><g class="cls-2"><path class="cls-1" d="M1376.7,193.79l-7.25-9.74a12,12,0,0,1-2.13-7.49c.38-26.36,22.45-30,32.22-49.95l7.24,9.75c-9.77,20-31.83,23.58-32.22,49.94A12,12,0,0,0,1376.7,193.79Z"/><g class="cls-65"><g class="cls-2"><path class="cls-1" d="M1399.54,126.61l7.24,9.75a41,41,0,0,1-2.92,5l-7.25-9.74a41.19,41.19,0,0,0,2.93-5"/><path class="cls-1" d="M1396.61,131.66l7.25,9.74a54.39,54.39,0,0,1-6.11,7.41l-7.25-9.74a54.39,54.39,0,0,0,6.11-7.41"/><path class="cls-1" d="M1390.5,139.07l7.25,9.74c-3.92,4.06-8.16,7.58-11.92,11.46l-7.24-9.74c3.76-3.88,8-7.4,11.91-11.46"/><path class="cls-1" d="M1378.59,150.53l7.24,9.74a48,48,0,0,0-5.42,6.54l-7.25-9.74a48.09,48.09,0,0,1,5.43-6.54"/><path class="cls-1" d="M1373.16,157.07l7.25,9.74a34.15,34.15,0,0,0-2.55,4.42l-7.24-9.74a33.44,33.44,0,0,1,2.54-4.42"/><path class="cls-1" d="M1370.62,161.49l7.24,9.74a34,34,0,0,0-1.69,4.32l-7.24-9.74a31.28,31.28,0,0,1,1.69-4.32"/><path class="cls-1" d="M1368.93,165.81l7.24,9.74a35.33,35.33,0,0,0-1.17,5.17l-7.24-9.74a34.08,34.08,0,0,1,1.17-5.17"/><path class="cls-1" d="M1367.76,171l7.24,9.74a42.09,42.09,0,0,0-.44,5.58c0,.26,0,.52,0,.78l-7.25-9.74c0-.26,0-.52,0-.78a42.09,42.09,0,0,1,.44-5.58"/><path class="cls-1" d="M1367.32,177.34l7.25,9.74a11.55,11.55,0,0,0,2.13,6.71l-7.25-9.74a11.65,11.65,0,0,1-2.13-6.71"/></g></g></g><g class="cls-2"><path class="cls-1" d="M1328.94,206.74l-7.25-9.75c7.38,9.93,20.45,14.94,34.29,14.94,19,0,39.49-9.48,48.57-28.71l7.25,9.74c-9.08,19.23-29.55,28.71-48.58,28.71C1349.39,221.67,1336.32,216.66,1328.94,206.74Z"/><g class="cls-66"><g class="cls-2"><path class="cls-1" d="M1404.55,183.22l7.25,9.74-.06.13-7.25-9.74.06-.13"/><path class="cls-1" d="M1404.49,183.35l7.25,9.74a46.71,46.71,0,0,1-3.45,6l-7.24-9.75a47.21,47.21,0,0,0,3.44-6"/><path class="cls-1" d="M1401.05,189.37l7.24,9.75a46.66,46.66,0,0,1-5.14,6.34l-7.25-9.74a46.82,46.82,0,0,0,5.15-6.35"/><path class="cls-1" d="M1395.9,195.72l7.25,9.74c-10.48,10.85-25.61,16.21-39.93,16.21-13.83,0-26.9-5-34.28-14.93l-7.25-9.75c7.38,9.93,20.45,14.94,34.29,14.94,14.31,0,29.44-5.37,39.92-16.21"/></g></g></g><polygon class="cls-1" points="1447.27 120.79 1454.52 130.54 1460.38 186.58 1453.13 176.84 1447.27 120.79"/><g class="cls-2"><path class="cls-1" d="M1463.07,200.18l-7.24-9.74c-1.87-2.5-2-7.31-2.7-13.6l7.25,9.74C1461,192.87,1461.21,197.68,1463.07,200.18Z"/><g class="cls-67"><g class="cls-2"><path class="cls-1" d="M1453.13,176.84l7.25,9.74c.65,6.29.83,11.1,2.69,13.6l-7.24-9.74c-1.87-2.5-2-7.31-2.7-13.6"/></g></g></g><g class="cls-2"><path class="cls-1" d="M1470.92,190.11l7.25,9.74a4.78,4.78,0,0,1,.66,1.43l-7.24-9.74A4.9,4.9,0,0,0,1470.92,190.11Z"/><g class="cls-68"><g class="cls-2"><path class="cls-1" d="M1470.92,190.11l7.25,9.74a4.78,4.78,0,0,1,.66,1.43l-7.24-9.74a4.9,4.9,0,0,0-.67-1.43"/></g></g></g><g class="cls-2"><path class="cls-1" d="M1471.59,191.54l7.24,9.74c.8,3.05.18,6.66-2.07,8.33l-7.25-9.75C1471.77,198.2,1472.38,194.59,1471.59,191.54Z"/><g class="cls-69"><g class="cls-2"><path class="cls-1" d="M1471.59,191.54l7.24,9.74a9.81,9.81,0,0,1,.33,2.29l-7.25-9.75a10.27,10.27,0,0,0-.32-2.28"/><path class="cls-1" d="M1471.91,193.82l7.25,9.75a10.28,10.28,0,0,1-.1,1.76l-7.25-9.74a9.46,9.46,0,0,0,.1-1.77"/><path class="cls-1" d="M1471.81,195.59l7.25,9.74a8.86,8.86,0,0,1-.29,1.26l-7.24-9.75a8.41,8.41,0,0,0,.28-1.25"/><path class="cls-1" d="M1471.53,196.84l7.24,9.75a7.34,7.34,0,0,1-.37,1l-7.25-9.74a7.52,7.52,0,0,0,.38-1"/><path class="cls-1" d="M1471.15,197.81l7.25,9.74a7.08,7.08,0,0,1-.46.81l-7.24-9.75a5.67,5.67,0,0,0,.45-.8"/><path class="cls-1" d="M1470.7,198.61l7.24,9.75a5.08,5.08,0,0,1-.58.72l-7.25-9.74a5.37,5.37,0,0,0,.59-.73"/><path class="cls-1" d="M1470.11,199.34l7.25,9.74a6,6,0,0,1-.6.53l-7.25-9.75a3.73,3.73,0,0,0,.6-.52"/></g></g></g><g class="cls-2"><path class="cls-1" d="M1416.5,208.19l-7.24-9.74c4.39,5.9,13.18,11.13,31.13,11.13,14.77,0,24.32-5.28,29.12-9.72l7.25,9.75c-4.8,4.44-14.36,9.71-29.13,9.71C1429.69,219.32,1420.89,214.09,1416.5,208.19Z"/><g class="cls-70"><g class="cls-2"><path class="cls-1" d="M1469.51,199.86l7.25,9.75c-4.8,4.44-14.36,9.71-29.13,9.71-17.94,0-26.74-5.23-31.13-11.13l-7.24-9.74c4.39,5.9,13.18,11.13,31.13,11.13,14.77,0,24.32-5.28,29.12-9.72"/></g></g></g><g class="cls-2"><path class="cls-1" d="M225.53,39.79l8.11,9.3a67.14,67.14,0,0,1,9.1,14.3c2.79,5.94,7.74,19.58,8.62,24.89,2.78,16.94-3,27.44-13.8,29.76a11.3,11.3,0,0,1-1.42.21c-4.72.36-9.62-2.39-13.93-7.34l-8.11-9.29c4.32,4.95,9.21,7.7,13.94,7.33a9.93,9.93,0,0,0,1.42-.21C240.31,106.42,246,95.93,243.25,79c-.88-5.31-5.82-18.94-8.62-24.89A67.39,67.39,0,0,0,225.53,39.79Z"/><g class="cls-71"><g class="cls-2"><path class="cls-1" d="M225.53,39.79l8.11,9.3c1,1.15,2,2.39,2.87,3.66l-8.11-9.3c-.9-1.27-1.87-2.51-2.87-3.66"/><path class="cls-1" d="M228.4,43.45l8.11,9.3a74,74,0,0,1,6.23,10.64c2.79,5.94,7.74,19.58,8.62,24.89.18,1.08.32,2.14.43,3.17l-8.1-9.3c-.11-1-.26-2.09-.44-3.17-.88-5.31-5.82-18.94-8.62-24.89a72.64,72.64,0,0,0-6.23-10.64"/><path class="cls-1" d="M243.69,82.15l8.1,9.3a42,42,0,0,1,.09,8.58l-8.11-9.3a41.26,41.26,0,0,0-.08-8.58"/><path class="cls-1" d="M243.77,90.73l8.11,9.3a30.22,30.22,0,0,1-.77,4.38l-8.1-9.3a28.94,28.94,0,0,0,.76-4.38"/><path class="cls-1" d="M243,95.11l8.1,9.3a23.19,23.19,0,0,1-1,3l-8.1-9.3a24.77,24.77,0,0,0,1-3"/><path class="cls-1" d="M242,98.16l8.1,9.3a20.55,20.55,0,0,1-1.17,2.4l-8.11-9.29A20,20,0,0,0,242,98.16"/><path class="cls-1" d="M240.82,100.57l8.11,9.29a16.43,16.43,0,0,1-1.42,2.1l-8.1-9.29a19.23,19.23,0,0,0,1.41-2.1"/><path class="cls-1" d="M239.41,102.67l8.1,9.29a15.85,15.85,0,0,1-1.88,2l-8.1-9.3a18.15,18.15,0,0,0,1.88-2"/><path class="cls-1" d="M237.53,104.7l8.1,9.3a17,17,0,0,1-8.07,4,11.3,11.3,0,0,1-1.42.21c-4.72.36-9.62-2.39-13.93-7.34l-8.11-9.29c4.32,4.95,9.21,7.7,13.94,7.33a9.93,9.93,0,0,0,1.42-.21,17.07,17.07,0,0,0,8.07-4"/></g></g></g><g class="cls-2"><path class="cls-1" d="M197.47,96.66l8.1,9.29a71.88,71.88,0,0,1,4.55,5.78c3.77,5.38,11,18,12.72,23,5.62,16.19,1.72,27.47-8.61,31.57a10.79,10.79,0,0,1-3.22.75c-5.75.44-12.34-3.38-18.2-10.1l-8.11-9.3c5.86,6.73,12.45,10.55,18.21,10.1a11.17,11.17,0,0,0,3.22-.74c10.33-4.11,14.23-15.39,8.61-31.58-1.76-5.08-9-17.65-12.72-23C200.94,100.9,199.36,98.83,197.47,96.66Z"/><g class="cls-72"><g class="cls-2"><path class="cls-1" d="M197.47,96.66l8.1,9.29c1.74,2,3.23,3.92,4.29,5.4l-8.11-9.29c-1.06-1.49-2.54-3.4-4.28-5.4"/><path class="cls-1" d="M201.75,102.06l8.11,9.29.26.38c3.77,5.38,11,18,12.72,23a46.16,46.16,0,0,1,2.39,10.17l-8.11-9.3a45.79,45.79,0,0,0-2.38-10.17c-1.76-5.08-9-17.65-12.72-23l-.27-.37"/><path class="cls-1" d="M217.12,135.63l8.11,9.3a29.24,29.24,0,0,1,.05,6.12l-8.1-9.29a29.36,29.36,0,0,0-.06-6.13"/><path class="cls-1" d="M217.18,141.76l8.1,9.29a21.46,21.46,0,0,1-.59,3.41l-8.11-9.3a22.51,22.51,0,0,0,.6-3.4"/><path class="cls-1" d="M216.58,145.16l8.11,9.3a21.7,21.7,0,0,1-.83,2.51l-8.11-9.3a17.58,17.58,0,0,0,.83-2.51"/><path class="cls-1" d="M215.75,147.67l8.11,9.3a17.64,17.64,0,0,1-1,2.09l-8.1-9.29a17.74,17.74,0,0,0,1-2.1"/><path class="cls-1" d="M214.73,149.77l8.1,9.29a15.89,15.89,0,0,1-1.3,1.93l-8.1-9.3a15.77,15.77,0,0,0,1.3-1.92"/><path class="cls-1" d="M213.43,151.69l8.1,9.3a16.16,16.16,0,0,1-1.82,2l-8.1-9.3a15.45,15.45,0,0,0,1.82-2"/><path class="cls-1" d="M211.61,153.66l8.1,9.3a17.66,17.66,0,0,1-5.48,3.37,10.79,10.79,0,0,1-3.22.75c-5.75.44-12.34-3.38-18.2-10.1l-8.11-9.3c5.86,6.73,12.45,10.55,18.21,10.1a11.17,11.17,0,0,0,3.22-.74,18,18,0,0,0,5.48-3.38"/></g></g></g><g class="cls-2"><path class="cls-1" d="M279.23,29.81l8.11,9.3c4.8,5.52,9,13.33,11.76,22.46,6,20.23,2.26,39.29-8.35,42.57a18.29,18.29,0,0,1-4,.79c-5.39.42-10.47-1.79-14.69-6.64L263.92,89c4.23,4.85,9.31,7.06,14.7,6.64a18.26,18.26,0,0,0,4-.78C293.26,91.56,297,72.5,291,52.28,288.28,43.14,284,35.33,279.23,29.81Z"/><g class="cls-73"><g class="cls-2"><path class="cls-1" d="M279.23,29.81l8.11,9.3q1.41,1.62,2.75,3.5L282,33.31q-1.34-1.87-2.75-3.5"/><path class="cls-1" d="M282,33.31l8.11,9.3a64.81,64.81,0,0,1,9,19,71.39,71.39,0,0,1,2.53,12.53l-8.11-9.3A69.33,69.33,0,0,0,291,52.28a64.49,64.49,0,0,0-9-19"/><path class="cls-1" d="M293.52,64.8l8.11,9.3a55.36,55.36,0,0,1,.09,11.27l-8.1-9.3a55.39,55.39,0,0,0-.1-11.27"/><path class="cls-1" d="M293.62,76.07l8.1,9.3a40.14,40.14,0,0,1-1,5.91L292.58,82a39.66,39.66,0,0,0,1-5.91"/><path class="cls-1" d="M292.58,82l8.11,9.3A30.12,30.12,0,0,1,299.45,95l-8.1-9.3A28.56,28.56,0,0,0,292.58,82"/><path class="cls-1" d="M291.35,85.74l8.1,9.3a22.53,22.53,0,0,1-1.31,2.7L290,88.44a22.56,22.56,0,0,0,1.32-2.7"/><path class="cls-1" d="M290,88.44l8.11,9.3a17.74,17.74,0,0,1-1.41,2.09l-8.1-9.29a18.69,18.69,0,0,0,1.4-2.1"/><path class="cls-1" d="M288.63,90.54l8.1,9.29a14,14,0,0,1-1.63,1.78L287,92.32a15.52,15.52,0,0,0,1.64-1.78"/><path class="cls-1" d="M287,92.32l8.11,9.29a11.29,11.29,0,0,1-4.35,2.53,18.29,18.29,0,0,1-4,.79c-5.39.42-10.47-1.79-14.69-6.64L263.92,89c4.23,4.85,9.31,7.06,14.7,6.64a18.26,18.26,0,0,0,4-.78A11.43,11.43,0,0,0,287,92.32"/></g></g></g><g class="cls-2"><path class="cls-1" d="M330.42,55.94l8.11,9.3c5.51,6.33,9.83,16.81,11.28,29,2.48,21-4.41,39.2-15.4,40.66l-1.07.12a16.29,16.29,0,0,1-14-5.83l-8.1-9.3a16.28,16.28,0,0,0,14,5.83c.36,0,.72-.06,1.08-.11,11-1.46,17.88-19.67,15.4-40.67C340.25,72.75,335.94,62.27,330.42,55.94Z"/><g class="cls-74"><g class="cls-2"><path class="cls-1" d="M330.42,55.94l8.11,9.3c.67.78,1.33,1.62,2,2.52l-8.1-9.3q-1-1.35-2-2.52"/><path class="cls-1" d="M332.4,58.46l8.1,9.3c4.56,6.41,8,15.79,9.31,26.52,0,.31.07.62.1.92l-8.1-9.29c0-.31-.07-.62-.1-.93-1.28-10.73-4.75-20.11-9.31-26.52"/><path class="cls-1" d="M341.81,85.91l8.1,9.29a68.73,68.73,0,0,1,.08,14.18l-8.1-9.3a69.34,69.34,0,0,0-.08-14.17"/><path class="cls-1" d="M341.89,100.08l8.1,9.3a55.26,55.26,0,0,1-1.43,8.15l-8.11-9.3a55,55,0,0,0,1.44-8.15"/><path class="cls-1" d="M340.45,108.23l8.11,9.3a42.85,42.85,0,0,1-1.76,5.34l-8.1-9.3a42.31,42.31,0,0,0,1.75-5.34"/><path class="cls-1" d="M338.7,113.57l8.1,9.3a32,32,0,0,1-1.83,3.76l-8.1-9.3a32.86,32.86,0,0,0,1.83-3.76"/><path class="cls-1" d="M336.87,117.33l8.1,9.3a23.68,23.68,0,0,1-1.88,2.81l-8.1-9.3a25,25,0,0,0,1.88-2.81"/><path class="cls-1" d="M335,120.14l8.1,9.3a19,19,0,0,1-2.08,2.27l-8.11-9.3a19.07,19.07,0,0,0,2.09-2.27"/><path class="cls-1" d="M332.9,122.41l8.11,9.3a12.2,12.2,0,0,1-6.6,3.23l-1.07.12a16.29,16.29,0,0,1-14-5.83l-8.1-9.3a16.28,16.28,0,0,0,14,5.83c.36,0,.72-.06,1.08-.11a12.12,12.12,0,0,0,6.59-3.24"/></g></g></g><g class="cls-2"><path class="cls-1" d="M227.36,210.71l-8.11-9.3A19.62,19.62,0,0,0,236,208a23,23,0,0,0,3.75-.61c14.45-3.68,11.6-15.57,19.6-16.19a11.33,11.33,0,0,1,3.06.23c.29.06.57.09.85.13l8.11,9.3c-.29,0-.56-.07-.86-.13a11.3,11.3,0,0,0-3.06-.23c-8,.62-5.15,12.5-19.59,16.19a23.27,23.27,0,0,1-3.76.61A19.62,19.62,0,0,1,227.36,210.71Z"/><g class="cls-75"><g class="cls-2"><path class="cls-1" d="M263.23,191.52l8.11,9.3c-.29,0-.56-.07-.86-.13a11.3,11.3,0,0,0-3.06-.23,5.93,5.93,0,0,0-3.74,1.58l-8.1-9.29a6,6,0,0,1,3.74-1.59,11.33,11.33,0,0,1,3.06.23c.29.06.57.09.85.13"/><path class="cls-1" d="M255.58,192.75l8.1,9.29a9.44,9.44,0,0,0-1,1.09l-8.1-9.29a8.68,8.68,0,0,1,1-1.09"/><path class="cls-1" d="M254.59,193.84l8.1,9.29c-1.48,1.91-2.56,4.56-4.53,7.08l-8.1-9.3c2-2.52,3.05-5.17,4.53-7.07"/><path class="cls-1" d="M250.06,200.91l8.1,9.3a17.49,17.49,0,0,1-2,2.17l-8.11-9.29a16.91,16.91,0,0,0,2-2.18"/><path class="cls-1" d="M248.05,203.09l8.11,9.29a18.81,18.81,0,0,1-8.33,4.27,23.27,23.27,0,0,1-3.76.61,19.62,19.62,0,0,1-16.71-6.55l-8.11-9.3A19.62,19.62,0,0,0,236,208a23,23,0,0,0,3.75-.61,18.79,18.79,0,0,0,8.33-4.26"/></g></g></g><g class="cls-2"><path class="cls-1" d="M289.54,184.65l8.11,9.3a28.39,28.39,0,0,1-12.35,6.7,30.12,30.12,0,0,1-5.27.9,26.56,26.56,0,0,1-8.69-.73l-8.11-9.3a26.38,26.38,0,0,0,8.7.73,30.77,30.77,0,0,0,5.26-.89A28.3,28.3,0,0,0,289.54,184.65Z"/><g class="cls-76"><g class="cls-2"><path class="cls-1" d="M289.54,184.65l8.11,9.3-.35.32L289.2,185l.34-.33"/><path class="cls-1" d="M289.2,185l8.1,9.29a28.36,28.36,0,0,1-12,6.38,30.12,30.12,0,0,1-5.27.9,26.56,26.56,0,0,1-8.69-.73l-8.11-9.3a26.38,26.38,0,0,0,8.7.73,30.77,30.77,0,0,0,5.26-.89,28.63,28.63,0,0,0,12-6.38"/></g></g></g><g class="cls-2"><path class="cls-1" d="M317.65,137.24l8.1,9.3c8,9.23,15.82,21,15.7,29.56-.18,12.87-9.61,18.55-15.78,20.21a22,22,0,0,1-4.12.73,17.41,17.41,0,0,1-10.9-2.83c-2.75-1.62-4.95-3.29-7.55-3.09a8.55,8.55,0,0,0-4.77,2.29l-.68.54-8.11-9.3c.23-.18.46-.34.69-.53a8.55,8.55,0,0,1,4.76-2.3c2.61-.2,4.81,1.47,7.56,3.09a17.46,17.46,0,0,0,10.89,2.84,23,23,0,0,0,4.13-.73c6.17-1.66,15.59-7.34,15.78-20.21C333.47,158.28,325.69,146.47,317.65,137.24Z"/><g class="cls-77"><g class="cls-2"><path class="cls-1" d="M317.65,137.24l8.1,9.3c2.26,2.59,4.49,5.38,6.54,8.25l-8.11-9.3c-2-2.87-4.28-5.66-6.53-8.25"/><path class="cls-1" d="M324.18,145.49l8.11,9.3c4.73,6.62,8.45,13.64,9.07,19.46l-8.1-9.3c-.62-5.81-4.34-12.83-9.08-19.46"/><path class="cls-1" d="M333.26,165l8.1,9.3a14.59,14.59,0,0,1,.09,1.85c0,.75-.05,1.47-.12,2.17L333.22,169c.07-.7.12-1.43.13-2.17a14.66,14.66,0,0,0-.09-1.86"/><path class="cls-1" d="M333.22,169l8.11,9.29a21.34,21.34,0,0,1-.6,3.36l-8.1-9.3a22.67,22.67,0,0,0,.59-3.35"/><path class="cls-1" d="M332.63,172.33l8.1,9.3a20,20,0,0,1-.86,2.61l-8.11-9.3a20,20,0,0,0,.87-2.61"/><path class="cls-1" d="M331.76,174.94l8.11,9.3a20,20,0,0,1-1.14,2.32l-8.1-9.3a20,20,0,0,0,1.13-2.32"/><path class="cls-1" d="M330.63,177.26l8.1,9.3a21.58,21.58,0,0,1-1.52,2.25l-8.1-9.3a20.57,20.57,0,0,0,1.52-2.25"/><path class="cls-1" d="M329.11,179.51l8.1,9.3a19.62,19.62,0,0,1-2.27,2.44l-8.1-9.3a20.41,20.41,0,0,0,2.27-2.44"/><path class="cls-1" d="M326.84,182l8.1,9.3a22.74,22.74,0,0,1-9.27,5.06,22,22,0,0,1-4.12.73,17.41,17.41,0,0,1-10.9-2.83c-2.75-1.62-4.95-3.29-7.55-3.09a8.55,8.55,0,0,0-4.77,2.29l-.68.54-8.11-9.3c.23-.18.46-.34.69-.53a8.55,8.55,0,0,1,4.76-2.3c2.61-.2,4.81,1.47,7.56,3.09a17.46,17.46,0,0,0,10.89,2.84,22.83,22.83,0,0,0,13.4-5.8"/></g></g></g><path class="cls-78" d="M67.67,6.76a2.58,2.58,0,0,1,2.75,2.77l-2,134.29,32.82-33.29c12.72-12.77,2.09-28.86-7.58-33.85-3.33-1.67-5-3.34-4.94-5.55,0-2.5,2.29-4.17,5.63-4.17h65.77c3.34,0,5.26,1.67,5.51,4.17,0,2.21-2,4.16-5.38,5.55-13.18,6.1-33.17,20.25-46.76,34.12l-9.89,10a50.81,50.81,0,0,1,6.93-.5c65,0,56.13,140.34,110.55,140.34,13.09,0,16.85-8.6,16.94-15.27C238.3,227.61,254.31,219,263,219c34,0,36.87,51.05-41.16,51.05-100.86,0-106.43-114.31-135.71-131.24l-17.83,18V158c-.38,25.8,6.43,36.9,13.62,40.23,3.6,1.66,5.24,3.06,5.21,5.27,0,2.5-2.29,4.17-5.63,4.17H4.82c-3.35,0-5.56-1.67-5.52-4.17,0-2.21,1.73-3.61,5.38-5.27C12,194.87,19.09,183.77,19.47,158L21.1,47c-.19-5.83-1.2-12.49-5.62-15-2.77-1.39-3.86-2.78-3.83-5,0-2.5,1.45-4.16,4-4.16,19-1.11,38.3-8.6,47-14.43A9.82,9.82,0,0,1,67.67,6.76Z"/><path class="cls-78" d="M434.07,65.86c31.49,0,48.18,21.08,47.85,43.55-.21,13.88-10.34,20.26-20.37,20.26-9.75,0-19.41-6.1-19.23-18.31.2-14.16,16.15-37.46-8.37-37.46-32.88,0-44,110.43,13.7,110.43,15.05,0,27.43-8.32,30.61-16.1a1.69,1.69,0,0,1,1.52-1.18,1.42,1.42,0,0,1,.45.08,2,2,0,0,1,1.64,1.93c-4.82,25-28.44,39.68-56.59,39.68C326.64,208.74,334.87,65.86,434.07,65.86Z"/><path class="cls-78" d="M830.06,63.64a2.58,2.58,0,0,1,2.75,2.77l-1.57,106.82c-.09,5.75.46,15.35,10.19,15.35a19.36,19.36,0,0,0,3.52-.36,6.15,6.15,0,0,1,.84-.06c5.13,0,6.09,7.31,2.11,8.1l-50.06,12.21c-.59.05-1.16.07-1.73.07-8.3,0-14.07-5.53-14-12.28l.13-9.16A45.3,45.3,0,0,1,743.5,209c-28.7,0-49.07-17.2-48.67-44.39l.81-55.49c.09-6.11.25-16.93-5.56-20-2.75-1.66-4.13-3-4.1-5,0-2.77,1.73-4.16,4.24-4.43,18.69-1.11,38-8.6,47-14.43a8.47,8.47,0,0,1,5-1.66A2.59,2.59,0,0,1,745,66.41l-1.49,101c-.28,19.14,6.31,26.07,14.11,26.07,10.87,0,24.16-13.6,24.9-26.35l.86-58c.09-6.11.52-16.65-5.57-20-2.76-1.39-4.13-3-4.1-5A4,4,0,0,1,778,80c18.69-1.1,38-8.6,47-14.7A10.88,10.88,0,0,1,830.06,63.64Z"/><path class="cls-78" d="M483.82-1c37.33,0,82.47,19.14,81.6,78.79l-.22,15c6-13.86,20.15-25.24,39.65-25.24,32.89,0,43.28,13.6,49.42,50.77l11.79,69.93c5.12,30.51,15.93,72.41,48.53,72.41,13.1,0,16.84-8.6,16.95-15.54.25-17.48,16-26.08,24.9-26.08,34,0,36.86,51.05-41.43,51.05-37.34,0-89.16-19.7-99.56-89.06L607.56,130c-3.82-24.7-6.6-43.84-21.37-43.84-10.86,0-20.21,9.71-21.28,26.07L564.24,158c-.1,25.8,6.7,36.9,13.9,40.23,3.59,1.66,5.24,3.06,5.21,5.27,0,2.5-2.29,4.17-5.35,4.17H500.81c-3.34,0-5.54-1.67-5.51-4.17,0-2.21,1.72-3.61,5.37-5.27,6.73-3,13.57-13.32,14.75-36.35l.9-61.59,0-20c.46-31.07.78-72.14-31.83-72.14-13.37,0-17.12,8.6-17.22,15.54C467,41.16,451.3,50,442.66,50,408.39,50,405.51-1,483.82-1Z"/><path class="cls-78" d="M922,63.64c2,0,3.05,1.1,3,2.77l-.29,20c5.74-10.82,16.72-19.14,33.44-19.14,27.3,0,39.15,9.44,46,33.85,4.71-16.93,22.79-33.85,45.08-33.85,32.88,0,43.54,13.88,49.4,51.05l6.67,39.68c4.08,25.52,6.42,36.9,13.61,40.23,3.6,1.66,5.26,3.06,5.22,5.27,0,2.5-2.29,4.17-5.63,4.17h-76.91c-3.34,0-5.27-1.67-5.23-4.17,0-2.21,1.44-3.61,5.09-5.27,6.73-3,17.18-12.49,14.7-33L1052,130c-3-24.7-6.6-43.84-21.37-43.84-11.14,0-22.49,13.31-23,30.52a3.44,3.44,0,0,0,.25,1.66l6.39,39.68c4.08,25.52,6.42,36.9,13.62,40.23,3.6,1.66,5.25,3.06,5.22,5.27,0,2.5-2.29,4.17-5.64,4.17H950.55c-3.06,0-5.26-1.67-5.22-4.17,0-2.21,1.71-3.61,5.36-5.27,6.46-3,16.91-12.49,14.42-33L960.89,130c-2.7-24.7-6.6-43.84-21.37-43.84-8.63,0-13.46,6.38-15,17.76L923.7,158c-.38,25.8,6.42,36.9,13.62,40.23,3.59,1.66,5.25,3.06,5.21,5.27,0,2.5-2.29,4.17-5.35,4.17H860c-3.34,0-5.54-1.67-5.5-4.17,0-2.21,1.71-3.61,5.36-5.27,7.3-3.33,14.43-14.43,14.81-40.23l.71-48.83c.09-6.11.53-16.93-5.56-20-2.76-1.39-3.85-3-3.82-5a4.36,4.36,0,0,1,4-4.43c19-.83,38.3-8.6,47-14.43A9.88,9.88,0,0,1,922,63.64Z"/><path class="cls-78" d="M1221.79,67.52c51.55,0,74.74,33.57,74.24,67.69-.53,36.36-27.56,73.81-76.32,73.81-10,0-17.22-3.6-22.16-8.6-5.23,52.44-48.11,69.64-83.78,69.64-78,0-73.93-51.05-39.66-51.05,8.64,0,24.11,8.88,23.85,26.35-.1,6.95,3.4,15.55,16.77,15.55,32.61,0,33.77-41.07,34.5-72.14l1.17-79.63c.09-6.11.25-16.65-5.56-20-2.76-1.39-4.14-2.78-4.1-5A4,4,0,0,1,1145,80a84.76,84.76,0,0,0,42.29-14.7,11,11,0,0,1,5-1.66c1.66,0,2.49,1.1,2.74,2.77l2,15.26C1202.74,73.9,1211.2,67.52,1221.79,67.52Zm-2,132.9c31.22,0,38.6-123.19,2.1-123.19-15.61,0-21.37,13-22.65,24.42l-1,65.19c.61,14.71,4.52,33.58,21.51,33.58"/><path class="cls-78" d="M1471.59,191.54c.79,3.05.18,6.66-2.08,8.32-4.8,4.44-14.35,9.72-29.12,9.72-31.76,0-34.87-16.37-35.59-23.87l-.25-2.49c-9.08,19.23-29.55,28.71-48.57,28.71-21.33,0-40.84-11.91-40.5-35.37.7-47.17,85.25-36.62,82.39-68.81-1-8.6-5.68-31.35-26.58-31.35-22.85,0-3.34,19.14-3.55,33.57-.16,11-11,17.85-21.31,17.85-9.69,0-19-6-18.78-20.07.29-19.7,20.09-40.23,47.12-40.23,41,0,68.6,15.26,72.5,53.27l5.86,56.05c1,9.43.89,15.53,7,15.53a14.84,14.84,0,0,0,6.44-1.66,6.48,6.48,0,0,1,3.06-1.27C1470.59,189.44,1471.14,190.14,1471.59,191.54Zm-92.75-3.31c9.1,0,20.83-7.52,24.3-21.94l-3.6-39.68c-9.77,20-31.84,23.59-32.22,50-.12,7.85,5,11.67,11.52,11.67"/><path class="cls-78" d="M215.21,33.63c7.87-.61,16.46,14.17,19.42,20.46,2.8,5.95,7.74,19.58,8.62,24.89,2.79,17-2.94,27.44-13.79,29.76A9.93,9.93,0,0,1,228,109c-10.47.81-21.78-13.68-25.75-33.5-4.15-20.71,1.27-39.38,12.13-41.7A5.39,5.39,0,0,1,215.21,33.63Z"/><path class="cls-78" d="M180.43,85.42c7.6-.59,17.79,11.59,21.59,17s11,17.95,12.72,23c5.62,16.19,1.72,27.47-8.61,31.58a11.17,11.17,0,0,1-3.22.74c-9.95.77-22.41-11.21-29.24-28.9-7.61-19.67-5.4-38.93,4.93-43A6.41,6.41,0,0,1,180.43,85.42Z"/><path class="cls-78" d="M263.28,21.15c10.17-.79,22.14,12.39,27.71,31.13,6,20.22,2.27,39.28-8.34,42.57a18.26,18.26,0,0,1-4,.78c-9.05.7-17.21-6-22-20.15-1.7-5.1-3.72-19.49-4-26.09-.35-7.21.36-25.34,8.28-27.79A11.39,11.39,0,0,1,263.28,21.15Z"/><path class="cls-78" d="M317.88,49.54c10.79-.84,21.38,14.81,23.83,35.44,2.48,21-4.41,39.21-15.4,40.67-.36,0-.72.08-1.08.11-10.47.81-18.67-7.21-21.2-23.63-.82-5.32-.36-19.88.45-26.46.88-7.18,4.64-25,12.82-26.07Z"/><path class="cls-78" d="M261.51,104.89a37.68,37.68,0,0,1,13.43,1.3c8.42,2.5,25,14.61,31.77,20.18,9.67,8,26.82,27.81,26.64,40.44-.19,12.87-9.61,18.55-15.78,20.21a23,23,0,0,1-4.13.73,17.46,17.46,0,0,1-10.89-2.84c-2.75-1.62-4.95-3.29-7.56-3.09a8.55,8.55,0,0,0-4.76,2.3c-.23.19-.46.35-.69.53a28.3,28.3,0,0,1-12.35,6.71,30.77,30.77,0,0,1-5.26.89,26.38,26.38,0,0,1-8.7-.73c-.28,0-.56-.07-.85-.13a11.33,11.33,0,0,0-3.06-.23c-8,.62-5.15,12.51-19.6,16.19A23,23,0,0,1,236,208a19.66,19.66,0,0,1-19.53-10.61c-6-11-.23-36.83,4.55-48.6,3.33-8.2,12.27-27,18.5-33.3A38,38,0,0,1,256,105.74,32.1,32.1,0,0,1,261.51,104.89Z"/></g></svg>